<svg width="30" height="30" viewBox="0 0 30 30" fill="none" xmlns="http://www.w3.org/2000/svg">
<path fill-rule="evenodd" clip-rule="evenodd" d="M0 15C0 6.71573 6.71573 0 15 0C23.2843 0 30 6.71573 30 15C30 23.2843 23.2843 30 15 30C6.71573 30 0 23.2843 0 15Z" fill="white"/>
<path fill-rule="evenodd" clip-rule="evenodd" d="M9.30565 14.7028C9.04992 15.1193 8.9422 16.4308 9.03029 17.3013C9.0615 17.5888 9.11285 17.8283 9.18685 17.9713C9.28904 18.1688 9.4612 18.2868 9.65753 18.2933C9.78338 18.3003 9.8614 18.2783 12.2254 17.5058C12.2254 17.5058 13.276 17.1658 13.2805 17.1633C13.5423 17.0963 13.7184 16.8513 13.7361 16.5383C13.7527 16.2183 13.5896 15.9348 13.3213 15.8328C13.3213 15.8328 12.5813 15.5258 12.5792 15.5258C10.0391 14.4613 9.92533 14.4193 9.79697 14.4178C9.60115 14.4103 9.42596 14.5103 9.30565 14.7028ZM14.9884 22.6346C15.0297 22.5141 15.0342 22.4306 15.0413 19.9071C15.0413 19.9071 15.0473 18.7926 15.0478 18.7806C15.0644 18.5082 14.8913 18.2597 14.6053 18.1472C14.3118 18.0327 13.9962 18.1037 13.819 18.3287C13.819 18.3287 13.301 18.9536 13.299 18.9536C11.5185 21.0771 11.4455 21.1751 11.4017 21.3011C11.3755 21.3761 11.3644 21.4541 11.374 21.5326C11.3846 21.6446 11.4339 21.7566 11.5175 21.8596C11.9298 22.3586 13.9091 23.0986 14.5409 22.9891C14.7609 22.9481 14.92 22.8226 14.9884 22.6346ZM19.0022 21.7565C19.5987 21.515 20.901 19.8325 20.9926 19.185C21.0239 18.96 20.9549 18.7655 20.8019 18.642C20.7022 18.5655 20.6247 18.5356 18.2627 17.7481C18.2627 17.7481 17.2267 17.4001 17.2131 17.3936C16.9629 17.2951 16.676 17.3856 16.4837 17.6281C16.2844 17.8756 16.2532 18.2011 16.4127 18.4486L16.83 19.138C18.233 21.4525 18.3397 21.616 18.4409 21.696C18.597 21.821 18.7953 21.8415 19.0022 21.7565ZM17.7825 15.7993C20.4671 15.1388 20.5708 15.1033 20.677 15.0328C20.8391 14.9223 20.9207 14.7358 20.9071 14.5088C20.9071 14.5013 20.9081 14.4943 20.9071 14.4858C20.8381 13.8168 19.6823 12.0738 19.1135 11.7913C18.9121 11.6928 18.7097 11.6998 18.5436 11.8133C18.4399 11.8823 18.3629 11.9858 16.9257 13.9828C16.9257 13.9828 16.2758 14.8823 16.2683 14.8908C16.0966 15.1018 16.0951 15.4058 16.2617 15.6658C16.4349 15.9348 16.7279 16.0658 16.9962 15.9903C16.9962 15.9903 16.9851 16.0093 16.9821 16.0133C17.1145 15.9618 17.3516 15.9033 17.7825 15.7993ZM15.0862 13.5469C15.0404 12.4664 14.7208 7.65247 14.683 7.42897C14.6276 7.22747 14.4731 7.08297 14.2491 7.02547C13.5645 6.85247 10.9453 7.59897 10.4595 8.10796C10.3039 8.27296 10.2455 8.47696 10.2924 8.65645C10.3684 8.81645 13.6148 14.0044 13.6148 14.0044C14.095 14.7949 14.4862 14.6724 14.614 14.6319C14.7414 14.5914 15.1305 14.4689 15.0862 13.5469Z" fill="#D32200"/>
</svg>
