<svg width="1400" height="658" fill="none" xmlns="http://www.w3.org/2000/svg">
    <path opacity=".1" d="M1159.3 497.403C765.044 476.065 367.809 468.76-25.576 430.664c-92.353-8.944-192.845-42.723-226.347-106.992-37.929-72.759.736-116.657 99.77-144.781 129.552-36.791 279.167-44.019 419.74-49.512 204.264-7.981 411.498-10.87 617.109-.488 137.194 6.928 276.544 17.544 410.544 44.111 51.63 10.237 128.21 25.943 159.98 60.406 56.39 61.159-53.48 116.084-114.44 144.063-75.24 34.533-165.11 53.997-250.99 73.736-113.088 25.995-224.078 44.493-344.802 49.867-241.034 10.728-477.386-5.59-719.027-22.425-170.085-11.85-386.045-39.025-370.332-185.744 7.422-69.302 114.602-107.129 205.686-115.204 86.376-7.658 174.799.623 261.891 6.691 133.489 9.3 268.772 14.691 400.306 37.316 192.897 33.18 413.368 85.686 572.378 173.974 67.39 37.413 127.29 83.823 124.7 144.304-2.58 60.125-94.63 70.644-170.56 72.042-209.108 3.85-433.981-27.402-627.906-87.838-218.94-68.231-431.108-154.348-641.281-235.332-79.783-30.742-187.28-69.373-227.388-130.478-106.889-162.843 678.044-86.856 753.492-81.6C439.4 86.008 572.44 93.25 703.911 110.823c175.806 23.497 350.229 58.022 522.719 92.671 59.44 11.94 302.22 34.008 228.42 115.651-104.51 115.614-327.92 134.644-512.986 145.487-331.399 19.417-667.26 16.967-999.766 30.082-150.711 5.944-295.707 6.764-447.26-3.795-76.315-5.317-166.926-19.989-230.459-54.369-39.367-21.303-31.682-73.298-16.175-100.863 25.138-44.685 105.191-72.94 166.808-88.723 91.257-23.374 195.709-41.263 293.469-49.49 197.276-16.602 406.645 4.994 604.765 22.978 281.312 25.535 574.881 86.531 817.404 198.647 104.93 48.509 205.3 102.055 310.78 150.275 37.57 17.174 78.49 47.977 118.08 59.919" stroke="#B3304A" stroke-width="4" stroke-linecap="round" stroke-linejoin="round"/>
</svg>
