<svg width="433" height="364" fill="none" xmlns="http://www.w3.org/2000/svg">
    <g opacity=".25" clip-rule="evenodd">
        <path fill-rule="evenodd" d="M413.492 363c-1.152-8.295-2.553-16.702-4.063-22.015-2.183-7.792-3.413-16.817-3.47-25.954 5.261-1.906 6.268-5.774 7.052-14.351.559-6.11 1.455-16.256-1.176-21.918-.167-.392-.559-.616-.951-.672-.392 0-.783.168-1.007.504-.56.841-1.008 1.738-1.455 2.635-.504-3.644-1.567-7.119-3.526-10.034 8.562 1.569 14.83.56 19.251-3.083 7.835-6.503 7.835-20.349 7.835-33.69v-7.287l.001-.294c.112-24.278.251-54.42-20.371-69.048-1.288-.953-2.575-1.906-3.75-2.915 1.231-.224 2.462-.28 3.693-.28.616 0 1.064-.449 1.12-1.065.056-.617-.392-1.121-1.007-1.177-18.3-1.514-20.427-29.71-21.826-48.321-.335-4.428-.615-8.296-1.062-11.267-.504-3.364-.56-7.344-.616-11.548-.112-9.754-.28-20.853-6.827-26.963-5.429-5.045-12.424-6.39-19.419-5.55-10.745-2.074-22.888 4.317-29.38 9.418-.028.028-.056.042-.083.056a.31.31 0 00-.085.056 23.107 23.107 0 00-4.813 3.307c-7.722 6.84-12.255 19.004-12.647 26.963-.167 3.084.056 6.055.504 9.026-.224 1.289-.448 2.578-.504 3.923-.446 6.76 1.275 12.851 2.949 18.774l.017.061c2.91 10.315 5.373 19.228-4.253 28.645a1.13 1.13 0 00-.335 1.009c.056.393.335.673.671.841.448.168 1.007.336 1.567.392-6.547 2.467-12.871 5.606-15.949 13.286-7.331 18.554-10.409 39.8-13.319 60.372-.783 5.774-1.567 11.268-2.462 16.649-2.686 16.593.951 27.58 11.864 35.484 10.353 7.567 11.192 19.9 10.576 32.12a505.337 505.337 0 01-.288 4.831c-.095 1.519-.19 3.031-.271 4.53-.728 11.324-1.455 23.095-.28 34.923.376 3.686.628 6.799.817 9.627h2.26c-.197-2.859-.461-6.01-.839-9.739-1.175-11.659-.447-23.319.28-34.586.224-3.027.392-6.223.56-9.362.447-8.857.112-18.442-4.365-26.178 7.89-3.476 10.409-15.303 8.618-22.591a12.051 12.051 0 00-.378-1.275 21.18 21.18 0 00-.518-1.303c2.687-3.42 5.261-5.326 6.716-4.877.727.224 2.35 1.457 2.406 8.576.112 8.633-2.182 16.929-4.42 25.001-1.791 6.447-3.638 13.118-4.254 19.9-1.622 16.761-.391 35.708.896 48.657.223 2.243.335 4.26.447 6.222l.006.099c.03.493.059.978.09 1.456h2.188c-.033-.514-.065-1.041-.097-1.581l-.004-.086c-.053-.925-.106-1.876-.17-2.863-.072-1.105-.16-2.257-.278-3.471-1.287-12.837-2.462-31.616-.895-48.208.615-6.615 2.406-13.174 4.141-19.508 2.294-8.24 4.589-16.705 4.533-25.618 0-3.643-.448-6.334-1.287-8.128 6.155 4.316 13.374 7.792 18.971 7.119-1.679.673-3.134 1.458-4.254 2.467-4.245 3.805-5.089 14.871-5.704 22.94l-.003.043c-.168 2.074-.28 3.868-.448 5.213-1.176 9.025 1.119 15.359 7.498 21.189 11.778 10.735 32.629 7.752 49.452 5.344l.13-.018c4.086-.617 7.891-1.122 11.304-1.458a30.237 30.237 0 002.575-.28c-2.35 12.444-3.806 23.712-4.477 34.643-.227 3.714 1.41 7.964 4.011 12.261h2.709c-2.839-4.35-4.69-8.627-4.482-12.205.672-10.987 2.183-22.367 4.589-34.979.112 9.081 1.343 18.05 3.582 25.729 1.443 5.099 2.809 13.296 3.94 21.455h2.249zm-75.357-98.196c3.133-2.802 9.233-3.755 16.284-3.755 4.533 0 9.402.392 14.159.897a306.73 306.73 0 017.377 1.933c1.591.434 3.179.876 4.766 1.318l.415.115c6.752 1.87 13.658 3.782 20.403 5.21a9.834 9.834 0 011.342 1.682c2.743 4.092 3.638 9.417 3.582 14.855-.49 2.237-.768 4.528-1.04 6.768l-.023.183a450.36 450.36 0 00-.26 1.944l-.244 1.812a89.945 89.945 0 00-.506 3.666l-.053.426a303.412 303.412 0 00-2.518 11.884c-.952.168-2.015.28-3.191.392-3.469.336-7.33.897-11.415 1.457-16.397 2.355-36.767 5.27-47.791-4.764-5.876-5.326-7.835-10.875-6.772-19.228.156-.973.257-2.162.361-3.492.045-.586.091-1.199.143-1.833l.002-.023c.559-7.287 1.401-18.255 4.979-21.447zm67.824 47.816c.057-3.475.224-6.951.616-10.37.112-.448.224-.953.336-1.457.951-4.037 1.679-8.689 1.791-13.398.447-1.906 1.007-3.756 1.846-5.493 1.399 5.437.672 13.79.224 18.554-.671 7.344-1.287 10.539-4.813 12.164zm-102.464-31.727c-1.568-3.98 2.07-13.79 6.771-20.797l.067.199c.088.253.168.486.212.754 1.512 6.222-.503 16.704-7.05 19.844zm-1.791-115.476c3.021-7.568 9.457-10.203 16.508-12.669-1.287 1.457-2.518 2.915-3.749 4.26-2.015 2.467-3.805 4.541-5.204 5.886-.392.337-.448.897-.225 1.345.224.449.728.673 1.232.561 1.958-.504 4.7-.336 7.666-.224 2.854.168 5.988.28 8.73-.168-1.063 3.027-2.35 5.998-3.581 9.025-4.197 10.09-8.506 20.572-8.226 32.905 0 1.289.223 2.578.447 3.868-2.798-.841-6.323-.729-9.905.336a1.218 1.218 0 00-.783 1.009c-.112 1.513-.616 3.7-1.119 6.054l-.037.165c-1.447 6.461-3.068 13.704.428 16.372.276.225.573.406.898.547.402.174.846.288 1.34.35-1.958 2.074-3.581 4.484-4.42 7.511-1.791 6.503 1.119 9.081 3.917 11.548 1.287 1.121 2.518 2.242 3.525 3.755a.593.593 0 00-.054.069c-.038.054-.076.118-.113.156-4.03 5.717-8.115 14.743-8.059 20.741a23.704 23.704 0 00-3.917-3.476c-10.241-7.456-13.543-17.433-10.969-33.353.84-5.438 1.623-10.931 2.463-16.705 2.91-20.461 5.932-41.594 13.207-59.868zm103.472 103.592l-2.518-.505c-2.854-2.859-6.772-4.653-11.64-5.269a178.66 178.66 0 01-5.708-.897c-4.757-.785-10.521-1.794-16.453-2.466-6.771-1.738-13.486-3.196-20.146-3.924 2.606-4.11 2.026-9.596 1.525-14.331l-.014-.132c-.447-4.092-.839-8.016.895-9.754 1.119-1.121 3.078-1.457 5.988-1.121 12.927 1.514 26.973 6.783 39.341 11.492l.56.224a52.63 52.63 0 011.623.618l.839.335c-.224 4.765.392 9.081 2.63 11.211 2.239 2.13 5.652 1.962 10.129-.561.336-.224.56-.616.56-1.008-.056-5.55-5.876-8.969-11.025-11.156.616-6.839 2.743-14.63 4.197-17.601 1.819-3.809 4.18-7.074 6.495-10.277l.109-.15c5.26-7.231 10.185-14.014 9.01-25.674-1.231-12.332-10.297-24.664-21.993-31.167.055-.028.111-.042.167-.056.056-.014.112-.028.168-.056a74.883 74.883 0 015.093-1.345c1.679 1.457 3.414 2.859 5.316 4.204 19.755 14.07 19.587 43.668 19.419 67.492v7.287c.056 12.893.056 26.178-6.995 32.008-3.862 3.195-9.626 4.092-17.572 2.579zm-16.36-3.827l-.988-.265c1.119.168 2.071.336 2.966.448 2.406.392 4.533 1.009 6.38 1.962-2.805-.652-5.564-1.394-8.358-2.145zm-44.47-5.423a10.697 10.697 0 002.686-1.793c2.239.168 4.477.504 6.716.897-3.414.056-6.604.28-9.402.896zm-33.745-24.272c.448-.673 1.567-.897 3.022-.897 3.134 0 8.003 1.121 11.808 2.018l.73.167c4.15.95 8.033 1.839 10.518 1.627.336 0 .672-.224.84-.505.094-.157.135-.351.134-.55a1.53 1.53 0 00-.078-.459c-1.062-2.574-3.684-3.975-6.198-5.318l-.014-.007c-.839-.448-1.679-.897-2.407-1.345l2.519-.673c6.715-1.738 11.025-2.635 13.431 2.354 2.854 5.83.783 18.667-2.854 23.992-.224.337-.224.729-.056 1.122.102.204.285.387.502.5a.983.983 0 00.449.116h.392a.784.784 0 01-.253.172 1.793 1.793 0 01-.139.052c-8.226 3.7-25.966-9.081-30.555-16.48-2.518-4.036-2.07-5.493-1.791-5.886zm-6.715 7.68c.839-2.803 2.35-4.989 4.253-7.007-.056 1.625.728 3.699 2.406 6.502 1.399 2.299 4.198 5.269 7.723 8.184h-.168c-2.63 0-5.428 2.635-7.499 5.158-1.063-1.458-2.294-2.579-3.469-3.588-2.742-2.41-4.701-4.148-3.246-9.249zm42.307 12.444c-.392-.056-.784-.112-1.175-.112 1.567-3.027 2.798-7.231 3.301-11.435.448 4.372.448 8.632-2.126 11.547zm57.416-2.803c-1.567-1.513-2.07-4.82-1.959-8.688 4.142 1.85 8.394 4.428 8.842 8.128-3.189 1.681-5.484 1.85-6.883.56zm-47.666-24.589a15.737 15.737 0 00-.741-.019c-2.518 0-4.365.616-5.539 1.962-.896.897-1.4 2.018-1.679 3.307-.224-.897-.504-1.738-.896-2.466-1.623-3.308-3.973-4.653-6.659-4.934 3.04-7.695 3.951-16.539 4.835-25.126l.034-.323c1.231-12.276 2.518-24.945 9.849-35.147 3.022-4.204 11.08-11.1 17.739-14.295a27.388 27.388 0 002.183 2.243c-5.484 1.681-10.409 5.213-14.382 10.538-.478.67-1.037 1.177-1.608 1.694l-.295.268c-.615.505-1.231 1.009-1.791 1.682-.28.28-.335.673-.223 1.065.111.336.391.616.783.729 2.518.672 5.596.897 8.786 1.121 2.574.224 5.26.392 7.666.841 2.127.392 4.309.953 6.66 1.513l.159.039c5.154 1.278 10.468 2.594 15.398 2.428a1.193 1.193 0 001.063-1.065c.28-3.644-2.014-9.978-5.316-15.584 1.511-.224 3.022-.504 4.477-.897 12.088 5.718 21.713 18.162 22.944 30.495 1.119 10.818-3.581 17.321-8.562 24.16-2.406 3.307-4.869 6.727-6.827 10.763-1.175 2.41-3.581 10.258-4.309 17.657a48.121 48.121 0 00-1.177-.467 51.044 51.044 0 01-.67-.261l-.56-.224-.663-.249c-12.369-4.648-26.262-9.868-39.237-11.355-.504-.036-.984-.072-1.442-.093zm-30.008 6.203c-4.085-.953-8.059-1.85-11.192-2.018.021 0 .034 0 .04-.007.007-.01-.006-.036-.04-.105 5.596-3.083 6.491-7.007 5.819-11.099 1.456-4.429.224-7.12-1.175-8.633a9.112 9.112 0 00-1.566-1.289 21.553 21.553 0 01-.784-5.045c-.278-11.819 3.927-21.975 7.991-31.79l.068-.162.685-1.686c1.221-2.997 2.418-5.933 3.455-8.909 1.064-.393 2.015-.953 2.798-1.738-3.133 21.133-7.275 51.236.56 61.438.952 1.233 2.015 2.186 3.246 2.803-1.623.28-3.302.728-4.925 1.177-1.567.392-3.189.841-4.757 1.121-.391.112-.727.392-.839.785-.073.258-.05.539.054.782.054.127.13.243.226.339 1.343 1.289 3.078 2.242 4.756 3.139 1.568.841 3.023 1.626 4.03 2.579-2.351-.281-5.429-.953-8.45-1.682zm-20.258-16.368c.447-2.018.895-3.981 1.119-5.55 3.526-.897 6.883-.729 9.122.28a124.442 124.442 0 001.007 3.364l.221.681c.482 1.483.935 2.882 1.178 4.195a2.834 2.834 0 00-.085.199c-.028.069-.055.139-.083.194-1.522 3.704-4.365 6.296-7.4 9.062l-.266.243c-.616.561-1.288 1.177-1.959 1.794-1.791.449-2.742.168-3.302-.224-2.332-1.779-.753-8.853.419-14.109l.029-.129zm12.479 8.072c-.895 1.233-1.902 2.354-2.966 3.419 1.511-1.065 2.406-2.186 2.966-3.419zm18.747-84.589a.956.956 0 00-.167-.561c.032-.065.065-.15.098-.253.023-.074.046-.158.069-.251 1.226-4.298-1.32-8.762-3.994-13.449l-.035-.061c-1.343-2.466-2.798-4.989-3.861-7.624-4.309-10.875-7.387-26.57-3.078-37.894.285-.73.677-1.405 1.127-2.057.344-.5.723-.987 1.111-1.474 1.847.056 3.918-.449 6.044-1.01 2.35-.616 4.813-1.176 6.827-1.008 10.745 1.065 16.956 8.52 23.56 16.48 1.119 1.29 2.238 2.691 3.358 3.98.391.449 1.119.505 1.567.112 2.014-1.625 4.085-2.242 5.652-1.625 1.455.504 2.518 2.074 2.91 4.316.612 3.626-1.102 5.476-3.27 7.813l-.032.035c-.784.841-1.567 1.682-2.351 2.691-5.987 7.96-8.058 16.424-6.491 26.626.616 4.149 2.574 8.857 5.596 12.893-7.275 3.7-15.389 10.987-18.131 14.799-7.67 10.634-8.992 23.534-10.271 36.011l-.026.258-.006.054c-.892 8.781-1.735 17.058-4.583 24.442-1.623-.336-2.91-1.233-4.029-2.69-7.611-9.866-2.91-41.37.224-62.223 1.287-8.352 2.238-15.023 2.182-18.33zm29.604 26.683c-2.295-.169-4.477-.281-6.38-.617 0 0 .015-.014.036-.028a.143.143 0 01.076-.028c.728-.673 1.511-1.346 2.238-2.299 4.03-5.381 9.066-8.8 14.774-10.146 1.791 1.29 3.694 2.299 5.82 2.971 2.183.673 4.253.841 6.38.785 3.022 4.933 5.316 10.707 5.596 14.182-4.365-.056-9.178-1.233-13.822-2.41-2.351-.617-4.589-1.177-6.772-1.57-2.518-.448-5.26-.672-7.946-.84zm-48.407-5.886c-1.399-.056-2.742-.112-3.973-.112-.392 0-.728 0-1.119.056.482-.569.993-1.181 1.533-1.821.525-.623 1.077-1.272 1.656-1.935.576-.657 1.164-1.341 1.766-2.039 1.504-1.746 3.087-3.583 4.726-5.305.226-.085.438-.169.65-.254.208-.084.416-.167.637-.25 2.407-.28 4.701-.336 6.212.448-.504 3.7-1.455 7.288-2.631 10.819-2.35.617-5.596.561-9.457.393zm13.432-6.064c.191-.795.361-1.594.502-2.401.077.462.128.95.134 1.465.002.235-.004.475-.022.721-.112 2.018-.727 3.476-1.791 4.429.431-1.4.837-2.799 1.177-4.214zm52.211-.327c-1.064-.392-2.127-.841-3.134-1.401a23.607 23.607 0 015.932.224c.503.56 1.007 1.233 1.455 1.906a16.093 16.093 0 01-4.253-.729zm6.939.617l-.84-1.177c.189.037.402.075.607.13.1.027.197.057.289.094.728.224 1.455.448 2.127.672-.728.113-1.455.225-2.183.281zm-1.716-3.692c-.399-.08-.796-.156-1.194-.232-2.518-2.971-5.204-5.045-7.667-5.494-1.846-.28-4.085.225-6.491 1.178-2.91-3.812-4.869-8.297-5.484-12.277-1.456-9.586.448-17.489 6.044-24.945.657-.878 1.422-1.702 2.136-2.473l.046-.049c2.294-2.411 4.701-4.989 3.861-9.754-.503-3.083-2.07-5.213-4.309-6.054-2.126-.785-4.589-.337-6.995 1.345a70.765 70.765 0 01-2.63-3.14l-.106-.126c-6.571-7.865-13.387-16.023-24.965-17.138-2.327-.217-4.863.405-7.305 1.003l-.249.062c-1.232.28-2.407.616-3.526.784.223-.28.448-.616.671-.952.84-1.346 1.903-3.588 2.687-5.27.223-.168.391-.392.615-.617 2.686-2.858 5.372-5.717 6.995-8.576 1.735-1.458 3.75-2.747 5.932-3.98 4.309-2.354 9.569-4.316 14.886-4.989a16.15 16.15 0 016.38 2.747c9.849 7.119 12.647 22.87 13.934 34.082l.012.109c.332 2.99.663 5.98.939 8.86 2.071 21.133 4.085 41.201 19.923 56.673l-3.694 1.009c-.533.126-1.049.269-1.558.41-.397.111-.791.22-1.184.319a37.883 37.883 0 00-5.317-1.962 35.066 35.066 0 00-2.387-.553zm-11.211-.176a28.5 28.5 0 01-2.686-2.523c1.791-.672 3.358-.953 4.644-.728 1.456.224 3.023 1.289 4.645 2.859-2.294-.169-4.477 0-6.603.392zm-44.097-1.121a5.421 5.421 0 00-1.064-1.458c.168-1.345.224-2.746.224-4.148a22.912 22.912 0 001.679-1.513c-.168 1.961-.448 4.372-.839 7.119zm-12.144-2.859c-1.679.28-3.414.504-4.813.448 8.842-9.866 6.156-19.339 3.302-29.317l-.277-1.009c-1.204-4.381-2.425-8.829-2.633-13.566 1.902 6.335 4.645 12.389 7.387 18.387.839 1.738 1.623 3.531 2.406 5.269 2.015 4.597 3.134 8.857 3.526 12.949-2.855 1.457-5.708 3.924-8.451 6.783-.084 0-.154.014-.224.028s-.139.028-.223.028zm8.898.056c-.448-.168-.896-.28-1.399-.392a.257.257 0 00.183-.073l.04-.039c.448-.281.84-.505 1.232-.729 0 .448 0 .84-.056 1.233zm-3.19-1.962c1.119-.953 2.239-1.794 3.358-2.467 0 .169 0 .337.055.505l-.42.261c-.607.377-1.25.777-1.93 1.14-.163.109-.34.205-.517.294-.187.094-.374.181-.546.267zm-.941-24.7c-3.554-7.828-7.208-15.877-8.573-24.405.84-4.204 2.631-8.297 4.757-12.22-2.294 11.21.616 24.888 4.477 34.698 1.119 2.803 2.574 5.382 4.029 7.904 2.575 4.485 4.757 8.353 3.806 11.772-.028.112-.07.21-.112.308a1.973 1.973 0 00-.112.309c-.672.112-1.287.224-1.959.448-.503-4.092-1.623-8.352-3.638-12.893-.421-.966-.86-1.917-1.297-2.869-.374-.814-.748-1.629-1.109-2.456l-.269-.596zm43.304-70.035c-.56-.392-1.12-.785-1.735-1.121 4.365.336 8.562 1.85 11.92 5.045 5.872 5.434 5.987 15.516 6.099 25.321v.016c.056 4.317.112 8.353.672 11.884.43 2.746.705 6.37 1.023 10.575l.04.524.074.944c.541 6.972 1.172 15.099 2.724 22.712-2.854-9.586-3.917-20.068-5.036-31.223-.277-2.943-.61-5.941-.942-8.94l-.009-.085c-1.288-11.66-4.254-28.028-14.83-35.652zm-52.436 36.66c.224-4.82 2.071-11.323 5.316-17.04 0 .56.056 1.12.168 1.681.336 1.57 1.064 2.747 2.071 3.532l-.056.112-.193.33c-2.632 4.502-5.45 9.324-7.362 14.413 0-1.01 0-2.018.056-3.027zm7.722-15.807c-1.119-4.765 5.709-10.315 8.73-12.669 1.791-.897 3.638-1.345 5.541-1.457a34.844 34.844 0 00-6.604 7.455c-.174.175-.348.554-.629 1.163-.079.173-.167.364-.266.575-2.127 2.354-4.253 4.709-5.708 7.007-.504-.449-.839-1.121-1.064-2.074zm16.173-16.369c-.391-.056-.839-.056-1.231-.056-.116 0-.226.007-.331.014-.199.012-.382.023-.564-.014 4.085-2.466 8.674-4.372 13.207-5.27-2.183.842-4.253 1.851-6.212 2.916-1.511.84-2.91 1.682-4.253 2.635-.168-.113-.392-.225-.616-.225zM215.992 363h2.229c.334-1.415 1.251-2.137 2.954-3.461a42.726 42.726 0 003.19-2.634c9.154-8.219 6.783-19.282 4.495-29.964l-.018-.082c-.448-2.13-.896-4.317-1.287-6.447-5.093-29.373-1.231-52.749 4.309-80.216 3.19-15.864 4.533-29.206.615-42.883a508.73 508.73 0 00-1.523-5.008c-.433-1.404-.86-2.779-1.275-4.129l-.041-.132c-3.787-12.165-7.06-22.675-5.555-35.969 1.903-16.985-3.525-23.095-15.501-32.12-1.287-.953-3.358-2.971-5.82-5.325l-.046-.044c-7.607-7.283-18.043-17.277-24.913-17.053a5.399 5.399 0 00-3.693 1.4c3.525-3.81 6.044-8.015 7.107-9.921 3.693-6.67 6.603-13.734 8.282-19.956 1.427-5.275.755-9.15.043-13.26l-.043-.25c-.335-1.962-.727-3.923-.839-6.11-.056-.392-.056-.785-.056-1.177.249.717.498 1.417.756 2.07.207.522.419 1.014.643 1.462.168.336.448.56.783.616.336.056.672 0 .952-.224 6.939-5.774 9.065-14.126 6.043-23.6-4.365-13.733-18.915-26.57-31.058-27.523-12.647-.953-34.528 9.641-40.908 22.983-3.133 6.278-2.462 12.5 1.847 18.106-1.959.84-3.358 2.13-4.141 3.812-2.183 4.82 1.343 11.996 3.246 15.808.503.953.951 1.906 1.399 2.746l.085.169c2.635 5.167 4.207 8.25 2.713 14.406l-.088.04c-.101.046-.219.099-.304.184-13.267 10.442-7.599 27.337-3.02 40.987l.054.158c.672 2.019 1.343 3.981 1.902 5.83 2.927 9.348 6.344 18.532 9.661 27.445l.133.359c2.518 6.727 5.092 13.678 7.442 20.629.225.505.392 1.009.56 1.514 0 .51.021 1.009.059 1.508.049.651.126 1.3.221 1.967 1.287 8.465 6.603 19.956 12.256 29.205.335 1.962.615 4.036.671 6.11.168 4.317-1.007 8.801-2.238 13.23-5.261-.281-11.92 2.466-18.915 5.381-6.436 2.691-12.591 5.213-17.74 5.606-1.903-9.754-5.82-19.003-9.681-28.084l-.135-.319c-3.708-8.759-7.555-17.845-9.491-27.205-2.574-12.613-11.528-23.6-22.832-31.616 1.903 1.121 2.799.785 7.275-1.065 1.903-.785 3.526-1.794 5.093-2.747 2.014-1.177 3.917-2.354 6.267-3.083 1.231-.392 2.407-.616 3.582-.841l.07-.013c2.777-.5 5.659-1.019 8.1-3.798 3.28-3.676 3.468-7.684 3.634-11.254l.003-.07.004-.066c.223-4.513.418-8.47 6.488-11.706.28-.168.504-.504.56-.84.056-.337-.056-.729-.336-.953-6.547-6.391-9.793-13.061-10.129-20.853l-.056-.785c-.671-14.967-1.119-24.048-16.06-32.961-11.193-6.67-23.337-13.005-37.83-11.38-14.439 1.626-26.19 9.362-32.178 21.134-3.302 6.558-4.533 12.556-4.197 20.628.055 1.01.112 1.85.167 2.635.224 2.579.28 3.868-.895 6.054-.56.953-1.455 1.401-2.462 1.906-1.679.841-3.806 1.906-4.477 5.438-.112.392.056.784.391 1.064.057.057.168.169.28.225-1.623 1.401-2.853 3.307-3.581 5.605-1.176 3.588-.672 7.456 1.51 11.212 2.407 4.204 6.772 7.735 11.305 9.417a8.979 8.979 0 00-3.134 5.606c-.504 3.195.672 6.67 2.966 9.081-.56 1.401-1.007 2.915-1.455 4.428-1.12 3.644-2.238 7.456-4.645 11.043-7.666 11.38-12.703 26.291-14.27 41.986-1.455 14.575.504 31.897 5.26 46.359 1.96 5.886 4.59 11.492 7.163 16.929 3.638 7.736 7.388 15.752 9.01 24.385 2.326 12.259-.116 27.373-2.282 40.779l-.068.422c-.392 2.354-.783 4.653-1.12 6.839-.903 5.871-2.159 19.175-2.159 19.175h2.199s1.539-15.02 2.143-18.895c.246-1.602.493-3.235.76-4.92a258.1 258.1 0 01.304-1.863c2.238-13.678 4.756-29.205 2.35-41.986-1.735-8.969-5.54-17.097-9.233-24.945-2.575-5.381-5.15-10.987-7.052-16.705-4.7-14.182-6.604-31.167-5.205-45.405 1.512-15.304 6.436-29.878 13.88-40.977 2.63-3.868 3.86-8.017 4.924-11.66.258-.813.492-1.625.733-2.406.125-.404.252-.799.386-1.182 2.686 1.57 6.995 2.523 11.192 3.42l.489.109c2.557.574 4.934 1.108 6.618 1.74.751.317 1.977.718 3.52 1.222.64.21 1.337.438 2.077.685l.033.01c8.189 2.698 27.564 9.078 33.935 14.62.504.729 1.007 1.402 1.51 2.13.085.141.183.267.28.393.099.126.197.252.28.392.04.08.052.16.055.241l.001.095c.056 1.738-3.693 3.98-6.715 5.83-2.574 1.57-5.037 3.027-6.267 4.653-4.718 6.044-6.532 14.89-7.761 20.886l-.074.359c-3.862 19.172-3.302 38.847 1.567 54.039 4.757 14.911 14.83 31.167 22.664 41.369 11.64 15.191 22.105 11.155 37.886 2.691 11.584-6.223 38.725-22.647 40.795-41.706l.01-.139c.053-.732.102-1.418.102-2.103.784.28 1.567.504 2.351.784.582.195 1.182.389 1.79.594.445.15.895.306 1.344.471 1.557.604 3.341 1.615 5.269 2.708l.663.376c3.414 2.018 6.995 4.092 10.073 4.428 5.875.673 7.442-2.803 7.89-4.933 1.399-7.063-5.708-19.9-12.255-22.815.391-1.289.951-2.579 1.511-3.868 1.231-2.69 2.35-5.213 1.119-7.287-1.007-1.682-3.302-2.635-7.499-2.971-1.902-.168-4.588.841-7.387 1.906-3.134 1.177-6.995 2.634-8.338 1.626-.728-.505-.728-1.906-.616-2.971.056-.505-.279-1.01-.783-1.178-.112 0-.28-.056-.448-.112 1.287-4.484 2.406-9.081 2.239-13.678-.03-.299-.044-.583-.059-.868-.014-.248-.027-.496-.053-.757a87.447 87.447 0 002.35 3.363c.168.224.448.393.727.449.28.056.616-.056.84-.225 11.528-8.969 9.961-38.791 7.331-49.721-.951-3.812-3.078-8.689-5.372-13.79-3.918-8.745-8.283-18.555-7.164-24.889 3.845 2.567 5.692 8.525 7.477 14.275l.023.075c1.846 5.942 3.637 11.604 7.498 14.126.28.168.728.224 1.064.056.335-.168.559-.504.615-.896 1.623-14.239 2.91-29.038.896-42.884.447-4.26 0-8.128-2.015-9.697a50.7 50.7 0 00-.952-3.14 3.398 3.398 0 012.071-.672c5.96-.223 16.3 9.716 23.239 16.387l.097.093c2.63 2.467 4.645 4.429 6.044 5.494 12.479 9.417 16.341 15.079 14.606 30.102-1.562 13.747 1.77 24.486 5.617 36.882l.035.115c.895 2.915 1.846 5.942 2.742 9.081 3.749 13.23 2.462 26.291-.671 41.818-5.597 27.692-9.458 51.292-4.31 81.058.297 1.659.659 3.35 1.012 5 .112.524.224 1.045.332 1.558l.015.07c2.288 10.569 4.444 20.519-3.765 27.846a41.998 41.998 0 01-3.022 2.523c-2.284 1.75-3.5 2.813-3.84 5.142zM78.621 183.429c2.803-1.762 5.418-3.406 6.568-5.344 1.4 1.962 2.855 3.868 4.365 5.83.363.447.726.88 1.081 1.307.358.428.709.85 1.046 1.272l.113.139c4.709 5.771 8.806 10.791 11.471 17.743 1.594 4.152 2.027 8.911 2.451 13.556l.067.738.012.142c.444 5.113.901 10.382 2.786 14.881 2.351 5.662 6.323 7.736 11.08 7.848.504 3.307.784 6.615.728 10.034-.47.398-.916.797-1.339 1.18l-.676.614c-.615.56-14.997 13.958-12.423 21.75 1.007 3.083 2.462 4.709 4.365 4.709h.056c4.924 0 9.122-11.492 9.177-11.604 1.903-5.382 2.855-10.539 3.022-15.584 8.73-7.511 22.273-16.368 31.059-8.857l1.175 1.009c0 3.252.616 6.503 2.239 9.698 1.79 3.532 4.029 5.382 6.491 6.559 0 .953 0 1.962-.112 2.915-1.959 17.938-28.372 33.914-39.62 39.968-15.166 8.128-24.288 12.052-35.088-2.074-7.667-10.09-17.572-26.066-22.273-40.697-4.756-14.855-5.316-34.139-1.51-52.917 1.119-5.774 2.91-14.519 7.386-20.293.99-1.266 3.328-2.694 5.584-4.072l.124-.076.595-.374zm41.265 71.453c.111-.112.223-.168.335-.28-.335 4.148-1.231 8.409-2.798 12.781-1.455 4.148-4.925 10.09-7.051 10.09-.784-.056-1.623-1.177-2.295-3.195-1.567-4.709 6.436-14.406 11.809-19.396zm46.867 5.01a20.928 20.928 0 01-1.092-.413c-.671-5.493-3.581-10.763-8.617-15.752.111-3.868 1.175-7.792 2.35-11.828.168 1.234.671 2.131 1.455 2.747 2.338 1.784 6.447.241 10.456-1.265l.065-.024.372-.136c2.341-.854 4.681-1.708 6.063-1.602 4.029.28 5.373 1.177 5.764 1.85.616 1.065-.279 3.083-1.231 5.213-.672 1.57-1.511 3.42-1.903 5.27-.111.616.224 1.177.784 1.345 5.708 1.569 12.927 14.294 11.696 20.573-.504 2.466-2.295 3.531-5.428 3.139-2.471-.316-5.536-2.067-8.588-3.812l-.59-.336-.149-.086c-2.184-1.258-4.258-2.453-6.119-3.166a198.11 198.11 0 00-1.74-.571c-.519-.169-1.019-.331-1.506-.494a48.42 48.42 0 01-2.042-.652zm-7.751-6.467c-1.063-2.13-1.678-4.204-1.903-6.334 3.246 3.587 5.317 7.287 6.1 11.155-1.623-1.009-2.966-2.467-4.197-4.821zm-36.431-3.812c-.056-2.803-.279-5.549-.727-8.24 5.529-.494 11.861-3.079 17.792-5.5l.395-.162c6.156-2.578 12.536-5.213 17.293-5.213h.111c-1.119 3.756-2.182 7.568-2.574 11.38-9.457-7.905-23 .112-32.29 7.735zm-31.282-67.155c-2.014-2.523-3.917-5.157-5.708-7.736-.392-1.065-1.119-2.074-2.239-3.027-3.805-5.381-7.946-10.875-13.598-15.471-3.246-2.691-6.324-4.653-9.066-6.391l-.12-.077c-3.756-2.377-7.017-4.443-9.84-7.771 8.785 1.794 17.906 5.606 25.965 11.043 12.591 8.521 20.874 19.564 23.28 31.112 2.015 9.697 5.932 18.947 9.737 27.916 3.918 9.137 7.667 18.05 9.514 27.243-3.75-.281-6.771-2.13-8.618-6.503-1.735-4.26-2.183-9.137-2.63-14.35l-.016-.166c-.443-4.994-.899-10.144-2.671-14.745-2.798-7.344-7.219-12.781-11.92-18.499a435.839 435.839 0 00-2.07-2.578zm72.035 28.039a140.915 140.915 0 01-1.58-2.478c-1.332-6.835-4.189-13.264-6.973-19.528l-.414-.932c-1.735-3.812-3.525-7.736-4.98-11.772-.107-5.09 1.167-10.436 2.501-16.038l.289-1.218c1.199-5.017 2.422-10.137 2.694-15.256.392-7.064 1.511-12.95 3.693-18.331 2.519-1.009 4.813-2.971 5.765-5.381a7.425 7.425 0 00.111-5.045c0-.028.015-.042.029-.057.014-.014.028-.028.028-.055 1.46 1.515 2.678 3.274 3.969 5.141l.283.408c1.455 2.13 2.966 4.26 4.869 6.334.28.281.672.393 1.007.337.336-.056.672-.281.84-.617.727-1.401 1.399-3.251 1.959-5.213.727 10.819-.168 22.086-1.399 33.017-2.234-2.455-3.566-6.717-4.977-11.233l-.116-.371c-2.127-6.839-4.365-13.902-9.905-16.424a1.234 1.234 0 00-.895 0c-.28.112-.504.392-.616.672-2.351 7.008 2.518 18.051 6.883 27.805l.112.252c2.197 4.951 4.267 9.617 5.092 13.145 2.855 12.052 3.302 38.062-5.652 46.639a85.138 85.138 0 01-2.617-3.801zm-6.337-10.998c-2.182-4.26-4.085-8.633-5.484-12.725.28.561.504 1.121.784 1.682l.331.728c1.567 3.45 3.115 6.858 4.369 10.315zm-27.477-79.824c-4.308-12.781-9.121-27.187.112-36.717-.559 1.457-1.063 2.747-1.622 3.98l-.028.067c-2.169 5.35-3.874 9.552-.14 17.535 1.847 3.923 4.588 7.623 7.219 11.155 2.406 3.251 4.7 6.278 6.379 9.529.168.337.504.561.896.617a1.03 1.03 0 001.007-.448c1.287-1.738 2.91-3.756 4.812-5.718.672 4.372 3.638 5.493 5.037 5.83.84.168 1.735.224 2.631.112-1.903 5.157-2.911 10.819-3.246 17.545-.28 5.045-1.511 10.203-2.743 15.248-.951 3.924-1.902 7.904-2.406 11.884-2.014-5.774-4.141-11.492-6.211-17.042-3.358-8.969-6.828-18.274-9.738-27.691-.615-1.906-1.287-3.812-1.959-5.886zM35.272 152.3c-4.085-.841-8.618-1.85-10.857-3.364 2.015-4.708 5.373-7.792 14.438-8.128 2.742-.112 5.652.112 8.562.505 3.432 4.823 7.465 7.398 11.883 10.219l.149.095.239.153c2.724 1.746 5.56 3.564 8.66 6.069 3.692 2.971 6.658 6.278 9.345 9.754-7.331-4.092-18.636-8.016-29.492-11.548-2.463-.784-4.421-1.457-5.484-1.85-1.903-.728-4.59-1.289-7.443-1.905zm28.093-54.375a4.55 4.55 0 011.734-.337c1.156 0 2.417.39 3.756.802.347.107.7.216 1.057.32 2.182.785 4.42 1.569 6.491 1.177 5.149-1.01 5.652-4.597 6.1-8.016l.006-.046c.278-2.115.563-4.285 1.897-6.233 1.622-2.41 5.092-3.587 8.45-4.708l.005-.002c3.58-1.176 6.99-2.297 8.109-4.987.616-1.458.504-3.027-.335-4.54-4.31-7.624-26.918-13.398-31.45-14.07-12.704-1.85-27.142-1.907-37.999 11.659-5.596 7.007-8.841 15.471-9.345 23.544 0-.265-.026-.555-.042-.854a7.68 7.68 0 01-.014-.436c-.336-7.623.84-13.285 3.974-19.507C31.41 60.535 42.49 53.304 56.202 51.735c13.822-1.626 25.126 4.316 36.43 11.043 13.878 8.296 14.27 16.424 14.942 31.167l.056.785c.336 7.96 3.469 14.742 9.737 21.301-5.924 3.751-6.155 8.396-6.378 12.875l-.002.018c-.168 3.476-.335 6.783-3.078 9.922-1.91 2.188-4.141 2.614-6.691 3.102l-.192.037c-.752.137-1.524.274-2.319.462-.505.12-1.02.261-1.542.435-2.574.785-4.7 2.074-6.715 3.307-1.567.953-3.078 1.85-4.757 2.579-3.026 1.266-3.981 1.666-4.767 1.45-.362-.099-.688-.329-1.165-.665a26.375 26.375 0 00-3.47-2.074c-3.973-2.018-7.61-4.485-11.024-7.624-4.813-4.372-7.443-10.146-6.547-14.35.671-3.027 3.078-5.27 7.163-6.615.559-.168.839-.729.727-1.289-.447-1.962-1.735-3.98-3.022-6.055l-.041-.065c-2-3.174-4.037-6.402-2.98-9.52.727-2.13 1.622-3.475 2.798-4.036zm-52.157 17.041c.784-2.354 2.07-3.98 3.47-5.045a31.251 31.251 0 003.75 1.57c2.126.84 4.085 1.681 5.707 3.083 1.96 1.737 3.134 3.924 4.365 6.222.84 1.57 1.735 3.195 2.855 4.653 2.63 3.307 4.812 4.82 6.77 4.484.84-.112 1.568-.616 2.127-1.401 1.455 2.018 2.742 4.092 3.75 6.39.358.849.736 1.641 1.121 2.387.277.534.557 1.045.838 1.537-2.407-.28-4.757-.336-7.052-.28-9.793.336-13.822 3.924-16.116 8.688-1.4-1.793-2.071-4.204-1.736-6.446.392-2.467 1.847-4.316 4.142-5.269.235-.089.423-.254.542-.464.107-.191.156-.418.13-.658a1.13 1.13 0 00-.896-1.008c-4.869-1.009-9.85-4.653-12.424-9.082-1.287-2.186-2.574-5.605-1.343-9.361zm58.088 30.999c-6.715-3.307-13.71-5.661-20.537-6.727a25.207 25.207 0 01-2.743-5.213c-1.287-2.859-2.966-5.493-4.868-7.96.727-3.924-.672-10.146-3.974-13.902-2.686-3.083-6.715-5.269-10.856-6.222-.056-.112-.112-.28-.168-.393-4.31-10.482-1.511-24.608 6.94-35.147 10.128-12.668 23.28-12.668 35.926-10.818 6.1.896 26.414 6.894 29.772 12.949.504.896.56 1.681.224 2.522-.695 1.66-3.431 2.603-6.357 3.612l-.415.144c-3.525 1.177-7.554 2.522-9.569 5.55-1.623 2.41-2.015 4.988-2.295 7.23-.447 3.308-.783 5.438-4.364 6.167-1.4.28-3.302-.337-5.26-1.065-2.687-.953-5.709-2.018-8.283-.73-1.79.842-3.078 2.58-3.973 5.326-1.343 4.148 1.063 8.073 3.245 11.492.416.685.831 1.349 1.21 1.997.487.835.913 1.642 1.197 2.431-5.316 2.018-7.051 5.382-7.61 7.904-1.064 5.045 1.79 11.492 7.274 16.481 1.79 1.625 3.582 3.083 5.484 4.372zm-50.102-36.499a35.93 35.93 0 01-2.166-.89c.672-.281 1.343-.505 1.903-.561 1.79-.392 3.693-.392 5.652-.056 2.39 5.12 6.047 9.356 9.603 13.475l.078.091c1.511 1.681 2.966 3.363 4.31 5.101v.056c-.168.448-.448 1.065-.952 1.121-.392.112-1.79 0-4.645-3.644-1.007-1.345-1.79-2.802-2.63-4.372l-.092-.172c-1.257-2.356-2.536-4.752-4.72-6.667-1.903-1.682-4.142-2.579-6.324-3.475l-.017-.007zm151.392 9.256c-1.511-2.186-2.966-4.261-4.757-6.11l1.847-2.187c4.197-4.877 6.324-5.381 7.219-5.269a67.124 67.124 0 011.679 8.241c-.336 3.251-1.175 7.007-2.462 10.09-1.081-1.318-2.044-2.676-2.987-4.006l-.539-.759zm-134.53 1.289c-3.079-3.588-6.212-7.231-8.507-11.379 3.022 1.009 5.876 2.746 7.834 5.045 2.295 2.522 3.526 6.614 3.638 9.81-.353-.413-.7-.826-1.044-1.237a87.583 87.583 0 00-1.922-2.239zm117.574 3.251c-2.294-.504-3.47-2.522-3.414-5.773 2.406-2.355 4.981-4.597 7.387-6.447.168-.168.336-.392.392-.617 1.79 1.234 3.022 2.523 3.749 3.812a48.94 48.94 0 00-5.036 8.913c-1.008.281-2.127.337-3.078.112zm-23.56-35.483c.28-.729.616-1.402.896-2.186 2.294 5.661 7.89 9.753 13.374 13.733 2.015 1.458 4.03 2.915 5.764 4.373 2.319 4.092 1.751 4.802.661 6.166l-.045.056-.028.034c-1.005 1.23-2.381 2.914-2.658 6.581a60.766 60.766 0 00-5.485 6.11c-1.58-2.785-3.586-5.464-5.551-8.088l-.156-.209-.21-.282c-2.509-3.387-5.098-6.881-6.785-10.48-3.339-7.078-1.92-10.554.187-15.717l.036-.091zm29.995 33.633a55.705 55.705 0 012.463-4.26c0 .505-.168 1.009-.336 1.514a6.645 6.645 0 01-1.283 1.956 8.734 8.734 0 01-.844.79zm-7.61-10.146c1.007-1.233 1.679-2.298 1.511-3.867.352.448.685.896.99 1.355.228.344.441.694.632 1.055-1.454 1.121-3.021 2.466-4.7 3.98.448-1.121 1.007-1.85 1.567-2.523zm5.594-3.468c-.055-.007-.111-.007-.166-.007-.28 0-.504.112-.784.224-.447-.673-.895-1.345-1.454-2.018 1.958.673 4.029.897 6.099.561 4.533-.729 8.562-3.7 11.808-7.064-.168.28-.223.617-.112.954.155.435.31.87.457 1.306.116.349.227.698.327 1.048-2.183.224-4.869 2.242-8.227 6.054a33.065 33.065 0 00-1.847 2.186 18.657 18.657 0 00-5.931-3.195.476.476 0 00-.17-.049zm-143.549-.64c-.048-.032-.094-.064-.158-.096.56-1.85 1.68-2.466 3.134-3.195 1.231-.617 2.574-1.289 3.414-2.803a9.69 9.69 0 00.83-1.82c.128-.389.222-.77.289-1.15.28 2.578.784 5.044 1.679 7.399-1.735-.169-3.47-.113-5.092.224-1.456.336-2.799.841-3.974 1.513a1.125 1.125 0 01-.122-.072zm122.174-37.766c-.504-2.466-.896-4.82-1.288-7.119.672-5.101 1.847-10.09 3.023-14.182 9.793 3.307 22.888-.392 30.275-4.485 1.331-.74 2.515-1.554 3.602-2.361a84.95 84.95 0 001.602-1.226c3.693-2.803 5.764-4.26 8.786-2.467 1.735 1.01 2.966 3.027 3.973 5.382-.224 2.13-.392 4.372-.224 6.67.101 2.064.427 3.947.736 5.73l.104.605c.727 3.98 1.343 7.68.056 12.557-1.623 6.053-4.477 12.948-8.059 19.451-3.973 7.231-10.744 15.303-17.796 16.424-3.413.561-6.715-.672-9.793-3.531-9.289-8.745-13.375-23.488-14.997-31.448zm7.611 27.075c-5.653-4.148-11.081-8.52-11.977-14.574.032-.126.081-.252.118-.389a1.27 1.27 0 00.051-.34c.158-.477.281-.954.388-1.41.082-.348.154-.685.227-1 .672 3.7 1.903 7.063 3.918 9.866 1.678 2.298 3.805 4.428 5.876 6.446.157.178.322.35.489.516.307.305.62.596.91.885zm-5.429-9.137c-3.078-4.316-4.141-10.146-4.141-16.312 1.119 5.157 3.134 12.444 6.603 19.283a30.086 30.086 0 01-2.462-2.97zm-11.248-62.334c5.82-11.716 25.35-21.75 37.438-21.75.193 0 .386 0 .572.006.301.01.585.037.827.106 11.36.84 24.959 13.005 29.1 25.954 1.846 5.774 2.518 13.79-4.197 20.236l-.2-.53c-.285-.756-.593-1.57-.863-2.385-.448-1.289-.896-2.634-1.456-3.924.168-1.177.28-2.298.448-3.419l.014-.097c.89-6.58 1.751-12.932-3.707-17.841.056-.897-.056-1.682-.168-2.354-1.231-6.335-8.73-11.604-17.852-12.5-12.367-1.234-21.657 1.569-27.756 8.296-5.429 6.053-8.227 15.19-8.395 27.467a1.345 1.345 0 00-.335.617c-.057.336.056.672.335.953.056 5.55.616 11.715 1.679 18.498-.28 2.186-.447 4.373-.559 6.559a24.825 24.825 0 00-.95-2.263c-.488-1.036-1.047-2.106-1.625-3.23-.2-.377-.4-.764-.605-1.163-.254-.492-.515-1.002-.794-1.528-1.735-3.532-4.98-10.035-3.189-13.903.671-1.513 2.07-2.522 4.309-3.083a1.11 1.11 0 00.783-.784c.112-.393.056-.785-.224-1.065-4.701-5.214-5.596-10.931-2.63-16.873zm6.771 30.046a93.608 93.608 0 01-.672-9.305c.84.56 1.679 1.064 2.575 1.457-.616 2.41-1.287 5.045-1.903 7.848zm33.241-13.398c-7.498 4.149-19.754 7.288-28.596 4.26.504-1.793 1.007-3.363 1.399-4.596 4.029-1.009 8.17-1.57 12.535-2.13 7.667-1.009 15.558-2.074 22.832-5.886 5.876-3.083 8.395-6.447 9.346-9.361 3.526 3.98 2.854 8.913 2.015 15.023v.112c-.896-1.402-1.959-2.635-3.302-3.42-4.435-2.61-7.716-.104-11.203 2.559l-.101.076-.64.478c-1.316.985-2.697 2.018-4.285 2.885zm-32.573 2.32a14.084 14.084 0 01-.78-.582c1.176-.56 2.351-.953 3.582-1.345l-.245.845c-.203.699-.413 1.426-.651 2.182a13.286 13.286 0 01-1.906-1.1zm6.495-27.713c4.701-5.213 11.64-7.848 20.706-7.848 1.623 0 3.358.112 5.092.28 8.171.785 14.83 5.27 15.893 10.651.057.056.057.112.057.168-1.567-1.009-3.526-1.962-5.933-2.803-7.331-2.578-14.661-2.242-21.265 1.01-7.89 3.924-14.214 11.827-17.46 21.75a39.288 39.288 0 00-4.925 1.68c.337-11.098 2.911-19.45 7.835-24.888zm15.557 3.42c3.358-1.626 6.94-2.467 10.577-2.467 2.966 0 5.932.56 8.954 1.514 2.854 1.064 5.036 2.186 6.66 3.419-.672 3.363-3.582 6.502-8.562 9.081-6.845 3.594-14.452 4.625-21.801 5.62l-.305.042c-3.805.504-7.666 1.065-11.415 1.906 3.189-8.745 8.897-15.64 15.892-19.116z" fill="#fff"/>
        <path d="M413.492 363c-1.152-8.295-2.553-16.702-4.063-22.015-2.183-7.792-3.413-16.817-3.47-25.954 5.261-1.906 6.268-5.774 7.052-14.351.559-6.11 1.455-16.256-1.176-21.918-.167-.392-.559-.616-.951-.672-.392 0-.783.168-1.007.504-.56.841-1.008 1.738-1.455 2.635-.504-3.644-1.567-7.119-3.526-10.034 8.562 1.569 14.83.56 19.251-3.083 7.835-6.503 7.835-20.349 7.835-33.69v-7.287l.001-.294c.112-24.278.251-54.42-20.371-69.048-1.288-.953-2.575-1.906-3.75-2.915 1.231-.224 2.462-.28 3.693-.28.616 0 1.064-.449 1.12-1.065.056-.617-.392-1.121-1.007-1.177-18.3-1.514-20.427-29.71-21.826-48.321-.335-4.428-.615-8.296-1.062-11.267-.504-3.364-.56-7.344-.616-11.548-.112-9.754-.28-20.853-6.827-26.963-5.429-5.045-12.424-6.39-19.419-5.55-10.745-2.074-22.888 4.317-29.38 9.418-.028.028-.056.042-.083.056a.31.31 0 00-.085.056 23.107 23.107 0 00-4.813 3.307c-7.722 6.84-12.255 19.004-12.647 26.963-.167 3.084.056 6.055.504 9.026-.224 1.289-.448 2.578-.504 3.923-.446 6.76 1.275 12.851 2.949 18.774l.017.061c2.91 10.315 5.373 19.228-4.253 28.645a1.13 1.13 0 00-.335 1.009c.056.393.335.673.671.841.448.168 1.007.336 1.567.392-6.547 2.467-12.871 5.606-15.949 13.286-7.331 18.554-10.409 39.8-13.319 60.372-.783 5.774-1.567 11.268-2.462 16.649-2.686 16.593.951 27.58 11.864 35.484 10.353 7.567 11.192 19.9 10.576 32.12a505.337 505.337 0 01-.288 4.831c-.095 1.519-.19 3.031-.271 4.53-.728 11.324-1.455 23.095-.28 34.923.376 3.686.628 6.799.817 9.627h2.26c-.197-2.859-.461-6.01-.839-9.739-1.175-11.659-.447-23.319.28-34.586.224-3.027.392-6.223.56-9.362.447-8.857.112-18.442-4.365-26.178 7.89-3.476 10.409-15.303 8.618-22.591a12.051 12.051 0 00-.378-1.275 21.18 21.18 0 00-.518-1.303c2.687-3.42 5.261-5.326 6.716-4.877.727.224 2.35 1.457 2.406 8.576.112 8.633-2.182 16.929-4.42 25.001-1.791 6.447-3.638 13.118-4.254 19.9-1.622 16.761-.391 35.708.896 48.657.223 2.243.335 4.26.447 6.222l.006.099c.03.493.059.978.09 1.456h2.188c-.033-.514-.065-1.041-.097-1.581l-.004-.086c-.053-.925-.106-1.876-.17-2.863-.072-1.105-.16-2.257-.278-3.471-1.287-12.837-2.462-31.616-.895-48.208.615-6.615 2.406-13.174 4.141-19.508 2.294-8.24 4.589-16.705 4.533-25.618 0-3.643-.448-6.334-1.287-8.128 6.155 4.316 13.374 7.792 18.971 7.119-1.679.673-3.134 1.458-4.254 2.467-4.245 3.805-5.089 14.871-5.704 22.94l-.003.043c-.168 2.074-.28 3.868-.448 5.213-1.176 9.025 1.119 15.359 7.498 21.189 11.778 10.735 32.629 7.752 49.452 5.344l.13-.018c4.086-.617 7.891-1.122 11.304-1.458a30.237 30.237 0 002.575-.28c-2.35 12.444-3.806 23.712-4.477 34.643-.227 3.714 1.41 7.964 4.011 12.261h2.709c-2.839-4.35-4.69-8.627-4.482-12.205.672-10.987 2.183-22.367 4.589-34.979.112 9.081 1.343 18.05 3.582 25.729 1.443 5.099 2.809 13.296 3.94 21.455h2.249zm-75.357-98.196c3.133-2.802 9.233-3.755 16.284-3.755 4.533 0 9.402.392 14.159.897a306.73 306.73 0 017.377 1.933c1.591.434 3.179.876 4.766 1.318l.415.115c6.752 1.87 13.658 3.782 20.403 5.21a9.834 9.834 0 011.342 1.682c2.743 4.092 3.638 9.417 3.582 14.855-.49 2.237-.768 4.528-1.04 6.768l-.023.183a450.36 450.36 0 00-.26 1.944l-.244 1.812a89.945 89.945 0 00-.506 3.666l-.053.426a303.412 303.412 0 00-2.518 11.884c-.952.168-2.015.28-3.191.392-3.469.336-7.33.897-11.415 1.457-16.397 2.355-36.767 5.27-47.791-4.764-5.876-5.326-7.835-10.875-6.772-19.228.156-.973.257-2.162.361-3.492.045-.586.091-1.199.143-1.833l.002-.023c.559-7.287 1.401-18.255 4.979-21.447zm67.824 47.816c.057-3.475.224-6.951.616-10.37.112-.448.224-.953.336-1.457.951-4.037 1.679-8.689 1.791-13.398.447-1.906 1.007-3.756 1.846-5.493 1.399 5.437.672 13.79.224 18.554-.671 7.344-1.287 10.539-4.813 12.164zm-102.464-31.727c-1.568-3.98 2.07-13.79 6.771-20.797l.067.199c.088.253.168.486.212.754 1.512 6.222-.503 16.704-7.05 19.844zm-1.791-115.476c3.021-7.568 9.457-10.203 16.508-12.669-1.287 1.457-2.518 2.915-3.749 4.26-2.015 2.467-3.805 4.541-5.204 5.886-.392.337-.448.897-.225 1.345.224.449.728.673 1.232.561 1.958-.504 4.7-.336 7.666-.224 2.854.168 5.988.28 8.73-.168-1.063 3.027-2.35 5.998-3.581 9.025-4.197 10.09-8.506 20.572-8.226 32.905 0 1.289.223 2.578.447 3.868-2.798-.841-6.323-.729-9.905.336a1.218 1.218 0 00-.783 1.009c-.112 1.513-.616 3.7-1.119 6.054l-.037.165c-1.447 6.461-3.068 13.704.428 16.372.276.225.573.406.898.547.402.174.846.288 1.34.35-1.958 2.074-3.581 4.484-4.42 7.511-1.791 6.503 1.119 9.081 3.917 11.548 1.287 1.121 2.518 2.242 3.525 3.755a.593.593 0 00-.054.069c-.038.054-.076.118-.113.156-4.03 5.717-8.115 14.743-8.059 20.741a23.704 23.704 0 00-3.917-3.476c-10.241-7.456-13.543-17.433-10.969-33.353.84-5.438 1.623-10.931 2.463-16.705 2.91-20.461 5.932-41.594 13.207-59.868zm103.472 103.592l-2.518-.505c-2.854-2.859-6.772-4.653-11.64-5.269a178.66 178.66 0 01-5.708-.897c-4.757-.785-10.521-1.794-16.453-2.466-6.771-1.738-13.486-3.196-20.146-3.924 2.606-4.11 2.026-9.596 1.525-14.331l-.014-.132c-.447-4.092-.839-8.016.895-9.754 1.119-1.121 3.078-1.457 5.988-1.121 12.927 1.514 26.973 6.783 39.341 11.492l.56.224a52.63 52.63 0 011.623.618l.839.335c-.224 4.765.392 9.081 2.63 11.211 2.239 2.13 5.652 1.962 10.129-.561.336-.224.56-.616.56-1.008-.056-5.55-5.876-8.969-11.025-11.156.616-6.839 2.743-14.63 4.197-17.601 1.819-3.809 4.18-7.074 6.495-10.277l.109-.15c5.26-7.231 10.185-14.014 9.01-25.674-1.231-12.332-10.297-24.664-21.993-31.167.055-.028.111-.042.167-.056.056-.014.112-.028.168-.056a74.883 74.883 0 015.093-1.345c1.679 1.457 3.414 2.859 5.316 4.204 19.755 14.07 19.587 43.668 19.419 67.492v7.287c.056 12.893.056 26.178-6.995 32.008-3.862 3.195-9.626 4.092-17.572 2.579zm-16.36-3.827l-.988-.265c1.119.168 2.071.336 2.966.448 2.406.392 4.533 1.009 6.38 1.962-2.805-.652-5.564-1.394-8.358-2.145zm-44.47-5.423a10.697 10.697 0 002.686-1.793c2.239.168 4.477.504 6.716.897-3.414.056-6.604.28-9.402.896zm-33.745-24.272c.448-.673 1.567-.897 3.022-.897 3.134 0 8.003 1.121 11.808 2.018l.73.167c4.15.95 8.033 1.839 10.518 1.627.336 0 .672-.224.84-.505.094-.157.135-.351.134-.55a1.53 1.53 0 00-.078-.459c-1.062-2.574-3.684-3.975-6.198-5.318l-.014-.007c-.839-.448-1.679-.897-2.407-1.345l2.519-.673c6.715-1.738 11.025-2.635 13.431 2.354 2.854 5.83.783 18.667-2.854 23.992-.224.337-.224.729-.056 1.122.102.204.285.387.502.5a.983.983 0 00.449.116h.392a.784.784 0 01-.253.172 1.793 1.793 0 01-.139.052c-8.226 3.7-25.966-9.081-30.555-16.48-2.518-4.036-2.07-5.493-1.791-5.886zm-6.715 7.68c.839-2.803 2.35-4.989 4.253-7.007-.056 1.625.728 3.699 2.406 6.502 1.399 2.299 4.198 5.269 7.723 8.184h-.168c-2.63 0-5.428 2.635-7.499 5.158-1.063-1.458-2.294-2.579-3.469-3.588-2.742-2.41-4.701-4.148-3.246-9.249zm42.307 12.444c-.392-.056-.784-.112-1.175-.112 1.567-3.027 2.798-7.231 3.301-11.435.448 4.372.448 8.632-2.126 11.547zm57.416-2.803c-1.567-1.513-2.07-4.82-1.959-8.688 4.142 1.85 8.394 4.428 8.842 8.128-3.189 1.681-5.484 1.85-6.883.56zm-47.666-24.589a15.737 15.737 0 00-.741-.019c-2.518 0-4.365.616-5.539 1.962-.896.897-1.4 2.018-1.679 3.307-.224-.897-.504-1.738-.896-2.466-1.623-3.308-3.973-4.653-6.659-4.934 3.04-7.695 3.951-16.539 4.835-25.126l.034-.323c1.231-12.276 2.518-24.945 9.849-35.147 3.022-4.204 11.08-11.1 17.739-14.295a27.388 27.388 0 002.183 2.243c-5.484 1.681-10.409 5.213-14.382 10.538-.478.67-1.037 1.177-1.608 1.694l-.295.268c-.615.505-1.231 1.009-1.791 1.682-.28.28-.335.673-.223 1.065.111.336.391.616.783.729 2.518.672 5.596.897 8.786 1.121 2.574.224 5.26.392 7.666.841 2.127.392 4.309.953 6.66 1.513l.159.039c5.154 1.278 10.468 2.594 15.398 2.428a1.193 1.193 0 001.063-1.065c.28-3.644-2.014-9.978-5.316-15.584 1.511-.224 3.022-.504 4.477-.897 12.088 5.718 21.713 18.162 22.944 30.495 1.119 10.818-3.581 17.321-8.562 24.16-2.406 3.307-4.869 6.727-6.827 10.763-1.175 2.41-3.581 10.258-4.309 17.657a48.121 48.121 0 00-1.177-.467 51.044 51.044 0 01-.67-.261l-.56-.224-.663-.249c-12.369-4.648-26.262-9.868-39.237-11.355-.504-.036-.984-.072-1.442-.093zm-30.008 6.203c-4.085-.953-8.059-1.85-11.192-2.018.021 0 .034 0 .04-.007.007-.01-.006-.036-.04-.105 5.596-3.083 6.491-7.007 5.819-11.099 1.456-4.429.224-7.12-1.175-8.633a9.112 9.112 0 00-1.566-1.289 21.553 21.553 0 01-.784-5.045c-.278-11.819 3.927-21.975 7.991-31.79l.068-.162.685-1.686c1.221-2.997 2.418-5.933 3.455-8.909 1.064-.393 2.015-.953 2.798-1.738-3.133 21.133-7.275 51.236.56 61.438.952 1.233 2.015 2.186 3.246 2.803-1.623.28-3.302.728-4.925 1.177-1.567.392-3.189.841-4.757 1.121-.391.112-.727.392-.839.785-.073.258-.05.539.054.782.054.127.13.243.226.339 1.343 1.289 3.078 2.242 4.756 3.139 1.568.841 3.023 1.626 4.03 2.579-2.351-.281-5.429-.953-8.45-1.682zm-20.258-16.368c.447-2.018.895-3.981 1.119-5.55 3.526-.897 6.883-.729 9.122.28a124.442 124.442 0 001.007 3.364l.221.681c.482 1.483.935 2.882 1.178 4.195a2.834 2.834 0 00-.085.199c-.028.069-.055.139-.083.194-1.522 3.704-4.365 6.296-7.4 9.062l-.266.243c-.616.561-1.288 1.177-1.959 1.794-1.791.449-2.742.168-3.302-.224-2.332-1.779-.753-8.853.419-14.109l.029-.129zm12.479 8.072c-.895 1.233-1.902 2.354-2.966 3.419 1.511-1.065 2.406-2.186 2.966-3.419zm18.747-84.589a.956.956 0 00-.167-.561c.032-.065.065-.15.098-.253.023-.074.046-.158.069-.251 1.226-4.298-1.32-8.762-3.994-13.449l-.035-.061c-1.343-2.466-2.798-4.989-3.861-7.624-4.309-10.875-7.387-26.57-3.078-37.894.285-.73.677-1.405 1.127-2.057.344-.5.723-.987 1.111-1.474 1.847.056 3.918-.449 6.044-1.01 2.35-.616 4.813-1.176 6.827-1.008 10.745 1.065 16.956 8.52 23.56 16.48 1.119 1.29 2.238 2.691 3.358 3.98.391.449 1.119.505 1.567.112 2.014-1.625 4.085-2.242 5.652-1.625 1.455.504 2.518 2.074 2.91 4.316.612 3.626-1.102 5.476-3.27 7.813l-.032.035c-.784.841-1.567 1.682-2.351 2.691-5.987 7.96-8.058 16.424-6.491 26.626.616 4.149 2.574 8.857 5.596 12.893-7.275 3.7-15.389 10.987-18.131 14.799-7.67 10.634-8.992 23.534-10.271 36.011l-.026.258-.006.054c-.892 8.781-1.735 17.058-4.583 24.442-1.623-.336-2.91-1.233-4.029-2.69-7.611-9.866-2.91-41.37.224-62.223 1.287-8.352 2.238-15.023 2.182-18.33zm29.604 26.683c-2.295-.169-4.477-.281-6.38-.617 0 0 .015-.014.036-.028a.143.143 0 01.076-.028c.728-.673 1.511-1.346 2.238-2.299 4.03-5.381 9.066-8.8 14.774-10.146 1.791 1.29 3.694 2.299 5.82 2.971 2.183.673 4.253.841 6.38.785 3.022 4.933 5.316 10.707 5.596 14.182-4.365-.056-9.178-1.233-13.822-2.41-2.351-.617-4.589-1.177-6.772-1.57-2.518-.448-5.26-.672-7.946-.84zm-48.407-5.886c-1.399-.056-2.742-.112-3.973-.112-.392 0-.728 0-1.119.056.482-.569.993-1.181 1.533-1.821.525-.623 1.077-1.272 1.656-1.935.576-.657 1.164-1.341 1.766-2.039 1.504-1.746 3.087-3.583 4.726-5.305.226-.085.438-.169.65-.254.208-.084.416-.167.637-.25 2.407-.28 4.701-.336 6.212.448-.504 3.7-1.455 7.288-2.631 10.819-2.35.617-5.596.561-9.457.393zm13.432-6.064c.191-.795.361-1.594.502-2.401.077.462.128.95.134 1.465.002.235-.004.475-.022.721-.112 2.018-.727 3.476-1.791 4.429.431-1.4.837-2.799 1.177-4.214zm52.211-.327c-1.064-.392-2.127-.841-3.134-1.401a23.607 23.607 0 015.932.224c.503.56 1.007 1.233 1.455 1.906a16.093 16.093 0 01-4.253-.729zm6.939.617l-.84-1.177c.189.037.402.075.607.13.1.027.197.057.289.094.728.224 1.455.448 2.127.672-.728.113-1.455.225-2.183.281zm-1.716-3.692c-.399-.08-.796-.156-1.194-.232-2.518-2.971-5.204-5.045-7.667-5.494-1.846-.28-4.085.225-6.491 1.178-2.91-3.812-4.869-8.297-5.484-12.277-1.456-9.586.448-17.489 6.044-24.945.657-.878 1.422-1.702 2.136-2.473l.046-.049c2.294-2.411 4.701-4.989 3.861-9.754-.503-3.083-2.07-5.213-4.309-6.054-2.126-.785-4.589-.337-6.995 1.345a70.765 70.765 0 01-2.63-3.14l-.106-.126c-6.571-7.865-13.387-16.023-24.965-17.138-2.327-.217-4.863.405-7.305 1.003l-.249.062c-1.232.28-2.407.616-3.526.784.223-.28.448-.616.671-.952.84-1.346 1.903-3.588 2.687-5.27.223-.168.391-.392.615-.617 2.686-2.858 5.372-5.717 6.995-8.576 1.735-1.458 3.75-2.747 5.932-3.98 4.309-2.354 9.569-4.316 14.886-4.989a16.15 16.15 0 016.38 2.747c9.849 7.119 12.647 22.87 13.934 34.082l.012.109c.332 2.99.663 5.98.939 8.86 2.071 21.133 4.085 41.201 19.923 56.673l-3.694 1.009c-.533.126-1.049.269-1.558.41-.397.111-.791.22-1.184.319a37.883 37.883 0 00-5.317-1.962 35.066 35.066 0 00-2.387-.553zm-11.211-.176a28.5 28.5 0 01-2.686-2.523c1.791-.672 3.358-.953 4.644-.728 1.456.224 3.023 1.289 4.645 2.859-2.294-.169-4.477 0-6.603.392zm-44.097-1.121a5.421 5.421 0 00-1.064-1.458c.168-1.345.224-2.746.224-4.148a22.912 22.912 0 001.679-1.513c-.168 1.961-.448 4.372-.839 7.119zm-12.144-2.859c-1.679.28-3.414.504-4.813.448 8.842-9.866 6.156-19.339 3.302-29.317l-.277-1.009c-1.204-4.381-2.425-8.829-2.633-13.566 1.902 6.335 4.645 12.389 7.387 18.387.839 1.738 1.623 3.531 2.406 5.269 2.015 4.597 3.134 8.857 3.526 12.949-2.855 1.457-5.708 3.924-8.451 6.783-.084 0-.154.014-.224.028s-.139.028-.223.028zm8.898.056c-.448-.168-.896-.28-1.399-.392a.257.257 0 00.183-.073l.04-.039c.448-.281.84-.505 1.232-.729 0 .448 0 .84-.056 1.233zm-3.19-1.962c1.119-.953 2.239-1.794 3.358-2.467 0 .169 0 .337.055.505l-.42.261c-.607.377-1.25.777-1.93 1.14-.163.109-.34.205-.517.294-.187.094-.374.181-.546.267zm-.941-24.7c-3.554-7.828-7.208-15.877-8.573-24.405.84-4.204 2.631-8.297 4.757-12.22-2.294 11.21.616 24.888 4.477 34.698 1.119 2.803 2.574 5.382 4.029 7.904 2.575 4.485 4.757 8.353 3.806 11.772-.028.112-.07.21-.112.308a1.973 1.973 0 00-.112.309c-.672.112-1.287.224-1.959.448-.503-4.092-1.623-8.352-3.638-12.893-.421-.966-.86-1.917-1.297-2.869-.374-.814-.748-1.629-1.109-2.456l-.269-.596zm43.304-70.035c-.56-.392-1.12-.785-1.735-1.121 4.365.336 8.562 1.85 11.92 5.045 5.872 5.434 5.987 15.516 6.099 25.321v.016c.056 4.317.112 8.353.672 11.884.43 2.746.705 6.37 1.023 10.575l.04.524.074.944c.541 6.972 1.172 15.099 2.724 22.712-2.854-9.586-3.917-20.068-5.036-31.223-.277-2.943-.61-5.941-.942-8.94l-.009-.085c-1.288-11.66-4.254-28.028-14.83-35.652zm-52.436 36.66c.224-4.82 2.071-11.323 5.316-17.04 0 .56.056 1.12.168 1.681.336 1.57 1.064 2.747 2.071 3.532l-.056.112-.193.33c-2.632 4.502-5.45 9.324-7.362 14.413 0-1.01 0-2.018.056-3.027zm7.722-15.807c-1.119-4.765 5.709-10.315 8.73-12.669 1.791-.897 3.638-1.345 5.541-1.457a34.844 34.844 0 00-6.604 7.455c-.174.175-.348.554-.629 1.163-.079.173-.167.364-.266.575-2.127 2.354-4.253 4.709-5.708 7.007-.504-.449-.839-1.121-1.064-2.074zm16.173-16.369c-.391-.056-.839-.056-1.231-.056-.116 0-.226.007-.331.014-.199.012-.382.023-.564-.014 4.085-2.466 8.674-4.372 13.207-5.27-2.183.842-4.253 1.851-6.212 2.916-1.511.84-2.91 1.682-4.253 2.635-.168-.113-.392-.225-.616-.225zM215.992 363h2.229c.334-1.415 1.251-2.137 2.954-3.461a42.726 42.726 0 003.19-2.634c9.154-8.219 6.783-19.282 4.495-29.964l-.018-.082c-.448-2.13-.896-4.317-1.287-6.447-5.093-29.373-1.231-52.749 4.309-80.216 3.19-15.864 4.533-29.206.615-42.883a508.73 508.73 0 00-1.523-5.008c-.433-1.404-.86-2.779-1.275-4.129l-.041-.132c-3.787-12.165-7.06-22.675-5.555-35.969 1.903-16.985-3.525-23.095-15.501-32.12-1.287-.953-3.358-2.971-5.82-5.325l-.046-.044c-7.607-7.283-18.043-17.277-24.913-17.053a5.399 5.399 0 00-3.693 1.4c3.525-3.81 6.044-8.015 7.107-9.921 3.693-6.67 6.603-13.734 8.282-19.956 1.427-5.275.755-9.15.043-13.26l-.043-.25c-.335-1.962-.727-3.923-.839-6.11-.056-.392-.056-.785-.056-1.177.249.717.498 1.417.756 2.07.207.522.419 1.014.643 1.462.168.336.448.56.783.616.336.056.672 0 .952-.224 6.939-5.774 9.065-14.126 6.043-23.6-4.365-13.733-18.915-26.57-31.058-27.523-12.647-.953-34.528 9.641-40.908 22.983-3.133 6.278-2.462 12.5 1.847 18.106-1.959.84-3.358 2.13-4.141 3.812-2.183 4.82 1.343 11.996 3.246 15.808.503.953.951 1.906 1.399 2.746l.085.169c2.635 5.167 4.207 8.25 2.713 14.406l-.088.04c-.101.046-.219.099-.304.184-13.267 10.442-7.599 27.337-3.02 40.987l.054.158c.672 2.019 1.343 3.981 1.902 5.83 2.927 9.348 6.344 18.532 9.661 27.445l.133.359c2.518 6.727 5.092 13.678 7.442 20.629.225.505.392 1.009.56 1.514 0 .51.021 1.009.059 1.508.049.651.126 1.3.221 1.967 1.287 8.465 6.603 19.956 12.256 29.205.335 1.962.615 4.036.671 6.11.168 4.317-1.007 8.801-2.238 13.23-5.261-.281-11.92 2.466-18.915 5.381-6.436 2.691-12.591 5.213-17.74 5.606-1.903-9.754-5.82-19.003-9.681-28.084l-.135-.319c-3.708-8.759-7.555-17.845-9.491-27.205-2.574-12.613-11.528-23.6-22.832-31.616 1.903 1.121 2.799.785 7.275-1.065 1.903-.785 3.526-1.794 5.093-2.747 2.014-1.177 3.917-2.354 6.267-3.083 1.231-.392 2.407-.616 3.582-.841l.07-.013c2.777-.5 5.659-1.019 8.1-3.798 3.28-3.676 3.468-7.684 3.634-11.254l.003-.07.004-.066c.223-4.513.418-8.47 6.488-11.706.28-.168.504-.504.56-.84.056-.337-.056-.729-.336-.953-6.547-6.391-9.793-13.061-10.129-20.853l-.056-.785c-.671-14.967-1.119-24.048-16.06-32.961-11.193-6.67-23.337-13.005-37.83-11.38-14.439 1.626-26.19 9.362-32.178 21.134-3.302 6.558-4.533 12.556-4.197 20.628.055 1.01.112 1.85.167 2.635.224 2.579.28 3.868-.895 6.054-.56.953-1.455 1.401-2.462 1.906-1.679.841-3.806 1.906-4.477 5.438-.112.392.056.784.391 1.064.057.057.168.169.28.225-1.623 1.401-2.853 3.307-3.581 5.605-1.176 3.588-.672 7.456 1.51 11.212 2.407 4.204 6.772 7.735 11.305 9.417a8.979 8.979 0 00-3.134 5.606c-.504 3.195.672 6.67 2.966 9.081-.56 1.401-1.007 2.915-1.455 4.428-1.12 3.644-2.238 7.456-4.645 11.043-7.666 11.38-12.703 26.291-14.27 41.986-1.455 14.575.504 31.897 5.26 46.359 1.96 5.886 4.59 11.492 7.163 16.929 3.638 7.736 7.388 15.752 9.01 24.385 2.326 12.259-.116 27.373-2.282 40.779l-.068.422c-.392 2.354-.783 4.653-1.12 6.839-.903 5.871-2.159 19.175-2.159 19.175h2.199s1.539-15.02 2.143-18.895c.246-1.602.493-3.235.76-4.92a258.1 258.1 0 01.304-1.863c2.238-13.678 4.756-29.205 2.35-41.986-1.735-8.969-5.54-17.097-9.233-24.945-2.575-5.381-5.15-10.987-7.052-16.705-4.7-14.182-6.604-31.167-5.205-45.405 1.512-15.304 6.436-29.878 13.88-40.977 2.63-3.868 3.86-8.017 4.924-11.66.258-.813.492-1.625.733-2.406.125-.404.252-.799.386-1.182 2.686 1.57 6.995 2.523 11.192 3.42l.489.109c2.557.574 4.934 1.108 6.618 1.74.751.317 1.977.718 3.52 1.222.64.21 1.337.438 2.077.685l.033.01c8.189 2.698 27.564 9.078 33.935 14.62.504.729 1.007 1.402 1.51 2.13.085.141.183.267.28.393.099.126.197.252.28.392.04.08.052.16.055.241l.001.095c.056 1.738-3.693 3.98-6.715 5.83-2.574 1.57-5.037 3.027-6.267 4.653-4.718 6.044-6.532 14.89-7.761 20.886l-.074.359c-3.862 19.172-3.302 38.847 1.567 54.039 4.757 14.911 14.83 31.167 22.664 41.369 11.64 15.191 22.105 11.155 37.886 2.691 11.584-6.223 38.725-22.647 40.795-41.706l.01-.139c.053-.732.102-1.418.102-2.103.784.28 1.567.504 2.351.784.582.195 1.182.389 1.79.594.445.15.895.306 1.344.471 1.557.604 3.341 1.615 5.269 2.708l.663.376c3.414 2.018 6.995 4.092 10.073 4.428 5.875.673 7.442-2.803 7.89-4.933 1.399-7.063-5.708-19.9-12.255-22.815.391-1.289.951-2.579 1.511-3.868 1.231-2.69 2.35-5.213 1.119-7.287-1.007-1.682-3.302-2.635-7.499-2.971-1.902-.168-4.588.841-7.387 1.906-3.134 1.177-6.995 2.634-8.338 1.626-.728-.505-.728-1.906-.616-2.971.056-.505-.279-1.01-.783-1.178-.112 0-.28-.056-.448-.112 1.287-4.484 2.406-9.081 2.239-13.678-.03-.299-.044-.583-.059-.868-.014-.248-.027-.496-.053-.757a87.447 87.447 0 002.35 3.363c.168.224.448.393.727.449.28.056.616-.056.84-.225 11.528-8.969 9.961-38.791 7.331-49.721-.951-3.812-3.078-8.689-5.372-13.79-3.918-8.745-8.283-18.555-7.164-24.889 3.845 2.567 5.692 8.525 7.477 14.275l.023.075c1.846 5.942 3.637 11.604 7.498 14.126.28.168.728.224 1.064.056.335-.168.559-.504.615-.896 1.623-14.239 2.91-29.038.896-42.884.447-4.26 0-8.128-2.015-9.697a50.7 50.7 0 00-.952-3.14 3.398 3.398 0 012.071-.672c5.96-.223 16.3 9.716 23.239 16.387l.097.093c2.63 2.467 4.645 4.429 6.044 5.494 12.479 9.417 16.341 15.079 14.606 30.102-1.562 13.747 1.77 24.486 5.617 36.882l.035.115c.895 2.915 1.846 5.942 2.742 9.081 3.749 13.23 2.462 26.291-.671 41.818-5.597 27.692-9.458 51.292-4.31 81.058.297 1.659.659 3.35 1.012 5 .112.524.224 1.045.332 1.558l.015.07c2.288 10.569 4.444 20.519-3.765 27.846a41.998 41.998 0 01-3.022 2.523c-2.284 1.75-3.5 2.813-3.84 5.142zM78.621 183.429c2.803-1.762 5.418-3.406 6.568-5.344 1.4 1.962 2.855 3.868 4.365 5.83.363.447.726.88 1.081 1.307.358.428.709.85 1.046 1.272l.113.139c4.709 5.771 8.806 10.791 11.471 17.743 1.594 4.152 2.027 8.911 2.451 13.556l.067.738.012.142c.444 5.113.901 10.382 2.786 14.881 2.351 5.662 6.323 7.736 11.08 7.848.504 3.307.784 6.615.728 10.034-.47.398-.916.797-1.339 1.18l-.676.614c-.615.56-14.997 13.958-12.423 21.75 1.007 3.083 2.462 4.709 4.365 4.709h.056c4.924 0 9.122-11.492 9.177-11.604 1.903-5.382 2.855-10.539 3.022-15.584 8.73-7.511 22.273-16.368 31.059-8.857l1.175 1.009c0 3.252.616 6.503 2.239 9.698 1.79 3.532 4.029 5.382 6.491 6.559 0 .953 0 1.962-.112 2.915-1.959 17.938-28.372 33.914-39.62 39.968-15.166 8.128-24.288 12.052-35.088-2.074-7.667-10.09-17.572-26.066-22.273-40.697-4.756-14.855-5.316-34.139-1.51-52.917 1.119-5.774 2.91-14.519 7.386-20.293.99-1.266 3.328-2.694 5.584-4.072l.124-.076.595-.374zm41.265 71.453c.111-.112.223-.168.335-.28-.335 4.148-1.231 8.409-2.798 12.781-1.455 4.148-4.925 10.09-7.051 10.09-.784-.056-1.623-1.177-2.295-3.195-1.567-4.709 6.436-14.406 11.809-19.396zm46.867 5.01a20.928 20.928 0 01-1.092-.413c-.671-5.493-3.581-10.763-8.617-15.752.111-3.868 1.175-7.792 2.35-11.828.168 1.234.671 2.131 1.455 2.747 2.338 1.784 6.447.241 10.456-1.265l.065-.024.372-.136c2.341-.854 4.681-1.708 6.063-1.602 4.029.28 5.373 1.177 5.764 1.85.616 1.065-.279 3.083-1.231 5.213-.672 1.57-1.511 3.42-1.903 5.27-.111.616.224 1.177.784 1.345 5.708 1.569 12.927 14.294 11.696 20.573-.504 2.466-2.295 3.531-5.428 3.139-2.471-.316-5.536-2.067-8.588-3.812l-.59-.336-.149-.086c-2.184-1.258-4.258-2.453-6.119-3.166a198.11 198.11 0 00-1.74-.571c-.519-.169-1.019-.331-1.506-.494a48.42 48.42 0 01-2.042-.652zm-7.751-6.467c-1.063-2.13-1.678-4.204-1.903-6.334 3.246 3.587 5.317 7.287 6.1 11.155-1.623-1.009-2.966-2.467-4.197-4.821zm-36.431-3.812c-.056-2.803-.279-5.549-.727-8.24 5.529-.494 11.861-3.079 17.792-5.5l.395-.162c6.156-2.578 12.536-5.213 17.293-5.213h.111c-1.119 3.756-2.182 7.568-2.574 11.38-9.457-7.905-23 .112-32.29 7.735zm-31.282-67.155c-2.014-2.523-3.917-5.157-5.708-7.736-.392-1.065-1.119-2.074-2.239-3.027-3.805-5.381-7.946-10.875-13.598-15.471-3.246-2.691-6.324-4.653-9.066-6.391l-.12-.077c-3.756-2.377-7.017-4.443-9.84-7.771 8.785 1.794 17.906 5.606 25.965 11.043 12.591 8.521 20.874 19.564 23.28 31.112 2.015 9.697 5.932 18.947 9.737 27.916 3.918 9.137 7.667 18.05 9.514 27.243-3.75-.281-6.771-2.13-8.618-6.503-1.735-4.26-2.183-9.137-2.63-14.35l-.016-.166c-.443-4.994-.899-10.144-2.671-14.745-2.798-7.344-7.219-12.781-11.92-18.499a435.839 435.839 0 00-2.07-2.578zm72.035 28.039a140.915 140.915 0 01-1.58-2.478c-1.332-6.835-4.189-13.264-6.973-19.528l-.414-.932c-1.735-3.812-3.525-7.736-4.98-11.772-.107-5.09 1.167-10.436 2.501-16.038l.289-1.218c1.199-5.017 2.422-10.137 2.694-15.256.392-7.064 1.511-12.95 3.693-18.331 2.519-1.009 4.813-2.971 5.765-5.381a7.425 7.425 0 00.111-5.045c0-.028.015-.042.029-.057.014-.014.028-.028.028-.055 1.46 1.515 2.678 3.274 3.969 5.141l.283.408c1.455 2.13 2.966 4.26 4.869 6.334.28.281.672.393 1.007.337.336-.056.672-.281.84-.617.727-1.401 1.399-3.251 1.959-5.213.727 10.819-.168 22.086-1.399 33.017-2.234-2.455-3.566-6.717-4.977-11.233l-.116-.371c-2.127-6.839-4.365-13.902-9.905-16.424a1.234 1.234 0 00-.895 0c-.28.112-.504.392-.616.672-2.351 7.008 2.518 18.051 6.883 27.805l.112.252c2.197 4.951 4.267 9.617 5.092 13.145 2.855 12.052 3.302 38.062-5.652 46.639a85.138 85.138 0 01-2.617-3.801zm-6.337-10.998c-2.182-4.26-4.085-8.633-5.484-12.725.28.561.504 1.121.784 1.682l.331.728c1.567 3.45 3.115 6.858 4.369 10.315zm-27.477-79.824c-4.308-12.781-9.121-27.187.112-36.717-.559 1.457-1.063 2.747-1.622 3.98l-.028.067c-2.169 5.35-3.874 9.552-.14 17.535 1.847 3.923 4.588 7.623 7.219 11.155 2.406 3.251 4.7 6.278 6.379 9.529.168.337.504.561.896.617a1.03 1.03 0 001.007-.448c1.287-1.738 2.91-3.756 4.812-5.718.672 4.372 3.638 5.493 5.037 5.83.84.168 1.735.224 2.631.112-1.903 5.157-2.911 10.819-3.246 17.545-.28 5.045-1.511 10.203-2.743 15.248-.951 3.924-1.902 7.904-2.406 11.884-2.014-5.774-4.141-11.492-6.211-17.042-3.358-8.969-6.828-18.274-9.738-27.691-.615-1.906-1.287-3.812-1.959-5.886zM35.272 152.3c-4.085-.841-8.618-1.85-10.857-3.364 2.015-4.708 5.373-7.792 14.438-8.128 2.742-.112 5.652.112 8.562.505 3.432 4.823 7.465 7.398 11.883 10.219l.149.095.239.153c2.724 1.746 5.56 3.564 8.66 6.069 3.692 2.971 6.658 6.278 9.345 9.754-7.331-4.092-18.636-8.016-29.492-11.548-2.463-.784-4.421-1.457-5.484-1.85-1.903-.728-4.59-1.289-7.443-1.905zm28.093-54.375a4.55 4.55 0 011.734-.337c1.156 0 2.417.39 3.756.802.347.107.7.216 1.057.32 2.182.785 4.42 1.569 6.491 1.177 5.149-1.01 5.652-4.597 6.1-8.016l.006-.046c.278-2.115.563-4.285 1.897-6.233 1.622-2.41 5.092-3.587 8.45-4.708l.005-.002c3.58-1.176 6.99-2.297 8.109-4.987.616-1.458.504-3.027-.335-4.54-4.31-7.624-26.918-13.398-31.45-14.07-12.704-1.85-27.142-1.907-37.999 11.659-5.596 7.007-8.841 15.471-9.345 23.544 0-.265-.026-.555-.042-.854a7.68 7.68 0 01-.014-.436c-.336-7.623.84-13.285 3.974-19.507C31.41 60.535 42.49 53.304 56.202 51.735c13.822-1.626 25.126 4.316 36.43 11.043 13.878 8.296 14.27 16.424 14.942 31.167l.056.785c.336 7.96 3.469 14.742 9.737 21.301-5.924 3.751-6.155 8.396-6.378 12.875l-.002.018c-.168 3.476-.335 6.783-3.078 9.922-1.91 2.188-4.141 2.614-6.691 3.102l-.192.037c-.752.137-1.524.274-2.319.462-.505.12-1.02.261-1.542.435-2.574.785-4.7 2.074-6.715 3.307-1.567.953-3.078 1.85-4.757 2.579-3.026 1.266-3.981 1.666-4.767 1.45-.362-.099-.688-.329-1.165-.665a26.375 26.375 0 00-3.47-2.074c-3.973-2.018-7.61-4.485-11.024-7.624-4.813-4.372-7.443-10.146-6.547-14.35.671-3.027 3.078-5.27 7.163-6.615.559-.168.839-.729.727-1.289-.447-1.962-1.735-3.98-3.022-6.055l-.041-.065c-2-3.174-4.037-6.402-2.98-9.52.727-2.13 1.622-3.475 2.798-4.036zm-52.157 17.041c.784-2.354 2.07-3.98 3.47-5.045a31.251 31.251 0 003.75 1.57c2.126.84 4.085 1.681 5.707 3.083 1.96 1.737 3.134 3.924 4.365 6.222.84 1.57 1.735 3.195 2.855 4.653 2.63 3.307 4.812 4.82 6.77 4.484.84-.112 1.568-.616 2.127-1.401 1.455 2.018 2.742 4.092 3.75 6.39.358.849.736 1.641 1.121 2.387.277.534.557 1.045.838 1.537-2.407-.28-4.757-.336-7.052-.28-9.793.336-13.822 3.924-16.116 8.688-1.4-1.793-2.071-4.204-1.736-6.446.392-2.467 1.847-4.316 4.142-5.269.235-.089.423-.254.542-.464.107-.191.156-.418.13-.658a1.13 1.13 0 00-.896-1.008c-4.869-1.009-9.85-4.653-12.424-9.082-1.287-2.186-2.574-5.605-1.343-9.361zm58.088 30.999c-6.715-3.307-13.71-5.661-20.537-6.727a25.207 25.207 0 01-2.743-5.213c-1.287-2.859-2.966-5.493-4.868-7.96.727-3.924-.672-10.146-3.974-13.902-2.686-3.083-6.715-5.269-10.856-6.222-.056-.112-.112-.28-.168-.393-4.31-10.482-1.511-24.608 6.94-35.147 10.128-12.668 23.28-12.668 35.926-10.818 6.1.896 26.414 6.894 29.772 12.949.504.896.56 1.681.224 2.522-.695 1.66-3.431 2.603-6.357 3.612l-.415.144c-3.525 1.177-7.554 2.522-9.569 5.55-1.623 2.41-2.015 4.988-2.295 7.23-.447 3.308-.783 5.438-4.364 6.167-1.4.28-3.302-.337-5.26-1.065-2.687-.953-5.709-2.018-8.283-.73-1.79.842-3.078 2.58-3.973 5.326-1.343 4.148 1.063 8.073 3.245 11.492.416.685.831 1.349 1.21 1.997.487.835.913 1.642 1.197 2.431-5.316 2.018-7.051 5.382-7.61 7.904-1.064 5.045 1.79 11.492 7.274 16.481 1.79 1.625 3.582 3.083 5.484 4.372zm-50.102-36.499a35.93 35.93 0 01-2.166-.89c.672-.281 1.343-.505 1.903-.561 1.79-.392 3.693-.392 5.652-.056 2.39 5.12 6.047 9.356 9.603 13.475l.078.091c1.511 1.681 2.966 3.363 4.31 5.101v.056c-.168.448-.448 1.065-.952 1.121-.392.112-1.79 0-4.645-3.644-1.007-1.345-1.79-2.802-2.63-4.372l-.092-.172c-1.257-2.356-2.536-4.752-4.72-6.667-1.903-1.682-4.142-2.579-6.324-3.475l-.017-.007zm151.392 9.256c-1.511-2.186-2.966-4.261-4.757-6.11l1.847-2.187c4.197-4.877 6.324-5.381 7.219-5.269a67.124 67.124 0 011.679 8.241c-.336 3.251-1.175 7.007-2.462 10.09-1.081-1.318-2.044-2.676-2.987-4.006l-.539-.759zm-134.53 1.289c-3.079-3.588-6.212-7.231-8.507-11.379 3.022 1.009 5.876 2.746 7.834 5.045 2.295 2.522 3.526 6.614 3.638 9.81-.353-.413-.7-.826-1.044-1.237a87.583 87.583 0 00-1.922-2.239zm117.574 3.251c-2.294-.504-3.47-2.522-3.414-5.773 2.406-2.355 4.981-4.597 7.387-6.447.168-.168.336-.392.392-.617 1.79 1.234 3.022 2.523 3.749 3.812a48.94 48.94 0 00-5.036 8.913c-1.008.281-2.127.337-3.078.112zm-23.56-35.483c.28-.729.616-1.402.896-2.186 2.294 5.661 7.89 9.753 13.374 13.733 2.015 1.458 4.03 2.915 5.764 4.373 2.319 4.092 1.751 4.802.661 6.166l-.045.056-.028.034c-1.005 1.23-2.381 2.914-2.658 6.581a60.766 60.766 0 00-5.485 6.11c-1.58-2.785-3.586-5.464-5.551-8.088l-.156-.209-.21-.282c-2.509-3.387-5.098-6.881-6.785-10.48-3.339-7.078-1.92-10.554.187-15.717l.036-.091zm29.995 33.633a55.705 55.705 0 012.463-4.26c0 .505-.168 1.009-.336 1.514a6.645 6.645 0 01-1.283 1.956 8.734 8.734 0 01-.844.79zm-7.61-10.146c1.007-1.233 1.679-2.298 1.511-3.867.352.448.685.896.99 1.355.228.344.441.694.632 1.055-1.454 1.121-3.021 2.466-4.7 3.98.448-1.121 1.007-1.85 1.567-2.523zm5.594-3.468c-.055-.007-.111-.007-.166-.007-.28 0-.504.112-.784.224-.447-.673-.895-1.345-1.454-2.018 1.958.673 4.029.897 6.099.561 4.533-.729 8.562-3.7 11.808-7.064-.168.28-.223.617-.112.954.155.435.31.87.457 1.306.116.349.227.698.327 1.048-2.183.224-4.869 2.242-8.227 6.054a33.065 33.065 0 00-1.847 2.186 18.657 18.657 0 00-5.931-3.195.476.476 0 00-.17-.049zm-143.549-.64c-.048-.032-.094-.064-.158-.096.56-1.85 1.68-2.466 3.134-3.195 1.231-.617 2.574-1.289 3.414-2.803a9.69 9.69 0 00.83-1.82c.128-.389.222-.77.289-1.15.28 2.578.784 5.044 1.679 7.399-1.735-.169-3.47-.113-5.092.224-1.456.336-2.799.841-3.974 1.513a1.125 1.125 0 01-.122-.072zm122.174-37.766c-.504-2.466-.896-4.82-1.288-7.119.672-5.101 1.847-10.09 3.023-14.182 9.793 3.307 22.888-.392 30.275-4.485 1.331-.74 2.515-1.554 3.602-2.361a84.95 84.95 0 001.602-1.226c3.693-2.803 5.764-4.26 8.786-2.467 1.735 1.01 2.966 3.027 3.973 5.382-.224 2.13-.392 4.372-.224 6.67.101 2.064.427 3.947.736 5.73l.104.605c.727 3.98 1.343 7.68.056 12.557-1.623 6.053-4.477 12.948-8.059 19.451-3.973 7.231-10.744 15.303-17.796 16.424-3.413.561-6.715-.672-9.793-3.531-9.289-8.745-13.375-23.488-14.997-31.448zm7.611 27.075c-5.653-4.148-11.081-8.52-11.977-14.574.032-.126.081-.252.118-.389a1.27 1.27 0 00.051-.34c.158-.477.281-.954.388-1.41.082-.348.154-.685.227-1 .672 3.7 1.903 7.063 3.918 9.866 1.678 2.298 3.805 4.428 5.876 6.446.157.178.322.35.489.516.307.305.62.596.91.885zm-5.429-9.137c-3.078-4.316-4.141-10.146-4.141-16.312 1.119 5.157 3.134 12.444 6.603 19.283a30.086 30.086 0 01-2.462-2.97zm-11.248-62.334c5.82-11.716 25.35-21.75 37.438-21.75.193 0 .386 0 .572.006.301.01.585.037.827.106 11.36.84 24.959 13.005 29.1 25.954 1.846 5.774 2.518 13.79-4.197 20.236l-.2-.53c-.285-.756-.593-1.57-.863-2.385-.448-1.289-.896-2.634-1.456-3.924.168-1.177.28-2.298.448-3.419l.014-.097c.89-6.58 1.751-12.932-3.707-17.841.056-.897-.056-1.682-.168-2.354-1.231-6.335-8.73-11.604-17.852-12.5-12.367-1.234-21.657 1.569-27.756 8.296-5.429 6.053-8.227 15.19-8.395 27.467a1.345 1.345 0 00-.335.617c-.057.336.056.672.335.953.056 5.55.616 11.715 1.679 18.498-.28 2.186-.447 4.373-.559 6.559a24.825 24.825 0 00-.95-2.263c-.488-1.036-1.047-2.106-1.625-3.23-.2-.377-.4-.764-.605-1.163-.254-.492-.515-1.002-.794-1.528-1.735-3.532-4.98-10.035-3.189-13.903.671-1.513 2.07-2.522 4.309-3.083a1.11 1.11 0 00.783-.784c.112-.393.056-.785-.224-1.065-4.701-5.214-5.596-10.931-2.63-16.873zm6.771 30.046a93.608 93.608 0 01-.672-9.305c.84.56 1.679 1.064 2.575 1.457-.616 2.41-1.287 5.045-1.903 7.848zm33.241-13.398c-7.498 4.149-19.754 7.288-28.596 4.26.504-1.793 1.007-3.363 1.399-4.596 4.029-1.009 8.17-1.57 12.535-2.13 7.667-1.009 15.558-2.074 22.832-5.886 5.876-3.083 8.395-6.447 9.346-9.361 3.526 3.98 2.854 8.913 2.015 15.023v.112c-.896-1.402-1.959-2.635-3.302-3.42-4.435-2.61-7.716-.104-11.203 2.559l-.101.076-.64.478c-1.316.985-2.697 2.018-4.285 2.885zm-32.573 2.32a14.084 14.084 0 01-.78-.582c1.176-.56 2.351-.953 3.582-1.345l-.245.845c-.203.699-.413 1.426-.651 2.182a13.286 13.286 0 01-1.906-1.1zm6.495-27.713c4.701-5.213 11.64-7.848 20.706-7.848 1.623 0 3.358.112 5.092.28 8.171.785 14.83 5.27 15.893 10.651.057.056.057.112.057.168-1.567-1.009-3.526-1.962-5.933-2.803-7.331-2.578-14.661-2.242-21.265 1.01-7.89 3.924-14.214 11.827-17.46 21.75a39.288 39.288 0 00-4.925 1.68c.337-11.098 2.911-19.45 7.835-24.888zm15.557 3.42c3.358-1.626 6.94-2.467 10.577-2.467 2.966 0 5.932.56 8.954 1.514 2.854 1.064 5.036 2.186 6.66 3.419-.672 3.363-3.582 6.502-8.562 9.081-6.845 3.594-14.452 4.625-21.801 5.62l-.305.042c-3.805.504-7.666 1.065-11.415 1.906 3.189-8.745 8.897-15.64 15.892-19.116z" stroke="#fff" stroke-width="2"/>
    </g>
</svg>
