<svg width="725" height="448" fill="none" xmlns="http://www.w3.org/2000/svg">
    <g opacity=".35" stroke="#fff" stroke-width="3" stroke-miterlimit="10" stroke-linecap="round" stroke-linejoin="round">
        <path d="M153.124 123.808c0-5.142-.376-8.435 4.637-11.073 2.435-1.282 4.775-1.582 7.499-1.582 3.087 0 6.034-.254 8.472 2.109.792.769 1.546 1.583 2.318 2.373.428.438.785 2.282 1.116 2.344 2.318.431 5.574-1.738 7.9-2.197 2.112-.418 4.337-1.164 6.411-1.758 4.365-1.251 8.559-3.332 12.908-4.687 5.672-1.767 14.894.4 15.599 7.616.312 3.195-4.089 6.269-6.354 7.617-4.694 2.793-9.775 5.12-14.654 7.557-13.067 6.529-27.913 8.831-41.73 13.182-12.615 3.973-24.426 6.445-37.552 6.445-2.403 0-4.694-3.131-4.694-5.507 0-4.318 2.061-7.082 5.638-9.462 3.171-2.109 7.409-3.355 11.106-4.013 3.564-.635 6.213-2.032 9.531-3.164M246 105.754c17.821 7.709 35.469 15.458 52.834 24.159 7.406 3.711 14.948 7.601 21.031 13.364 7.399 7.01 17.102 11.44 25.135 17.477"/>
        <path d="M14.237 135.907C-.31 140.07 1.25 147.357 3.327 153.082c1.073 2.954 34.104 114.264 66.495 233.163 17.828 65.44 34.516 136.444 47.794 185.282 2.123 7.807 7.792 10.93 14.545 8.327 3.649-1.405 93.032-30.859 167.277-51.004 63.193-17.147 112.557-25.389 119.484-27.064 15.065-3.643 16.104-9.368 14.545-16.654-.855-4-37.176-136.779-67.014-247.216-24.513-90.729-43.505-162.657-44.677-167.586-2.597-10.93-6.753-14.053-16.104-11.97-4.527 1.007-92.962 27.293-160.523 45.279-71.973 19.16-123.41 30.12-130.912 32.268z"/>
        <path d="M323.386 83.847c4.376-.689 6.709-2.13 11.084-2.926 5.704-1.038 14.277 2.381 13.947 9.788-.146 3.279-4.811 5.81-7.179 6.875-4.908 2.208-7.104 2.613-12.139 4.436M348.924 63.076c20.461 12.747 40.703 25.516 60.433 39.439 8.415 5.938 16.965 12.126 23.404 20.435 7.831 10.106 18.931 17.339 27.707 26.323"/>
        <path d="M136.453 104.617c-1.173-6.151-3.566-26.718 10.906-29.079 7.464-1.217 59.642 2.651 131.044-7.55 67.026-9.576 155.148-24.928 159.612-25.367 9.219-.907 12.744 2.846 13.676 14.409.42 5.215 8.364 81.563 18.917 177.94 12.845 117.312 28.715 258.416 28.965 262.635.456 7.686-1.346 13.427-16.24 15.186-6.848.808-55.126 2.775-117.865 12.064-48.278 7.149-103.319 17.542-136.588 24.134"/>
        <path d="M452.498 66.754c12.966.519 113.062 8.297 124.472 9.334 11.41 1.037 12.448 15.557 9.854 48.227-2.593 32.67-22.819 200.688-22.301 246.322.519 45.634-4.668 152.979-9.335 157.646-4.668 4.667-6.743 6.741-26.451 4.667-15.766-1.659-103.727-7.606-145.736-10.372"/>
        <path d="M486.001 66.754c16.322 22.164 36.46 41.989 54.214 63.16 13.872 16.54 26.605 31.559 44.786 43.84M454.001 90.754h25.092c5.817 0 9.241-.161 12.062 5.5 1.268 2.545 1.195 6.277-.797 8.222-3.094 3.021-4.778 3.278-9.217 3.278M584.001 153.795a120.36 120.36 0 0022.144 2.706c2.263.066 5.203.535 7.467 0 1.094-.258 3.787-1.017 4.262-2.28.275-.729 1.239-1.652 1.116-2.372-.527-3.08-4.147-4.377-6.38-5.686-2.55-1.495-5.012-2.825-7.495-4.409M627.001 117.754c5.176 19.124 16.621 37.451 28.287 54.209 11.729 16.849 26.169 32.686 34.968 50.912 3.838 7.95 7.481 16.66 14.745 22.879"/>
        <path d="M352.001 528.616c19.787 4.923 39.448 9.483 59.532 12.991 12.598 2.2 24.61 7.358 37.035 10.277 13.561 3.185 26.662 7.194 40.496 8.949 8.931 1.133 18.533 2.858 27.17 5.428 9.405 2.798 19.636 4.131 28.785 7.794 9.115 3.649 19.401 5.407 29.19 6.495 4.115.458 8.425.608 12.489 1.357 4.022.742 8.581 1.79 12.662 1.79 2.337 0 5.485.535 7.038-1.674a136.582 136.582 0 005.97-9.238c3.237-5.483 6.974-10.711 8.797-16.917 2.931-9.971 5.012-20.019 8.076-29.965 5.441-17.662 12.674-34.571 17.652-52.368 3.716-13.28 5.128-26.99 7.298-40.56 3.43-21.459 6.855-43.273 11.912-64.405 7.05-29.46 16.688-58.386 24.921-87.529 6.153-21.783 12.454-43.569 17.94-65.532 3.317-13.278 3.898-27.168 7.268-40.502 2.131-8.429 3.728-16.956 5.683-25.433.763-3.31 1.618-5.873.663-9.122-2.442-8.31-15.069-8.157-21.719-10.653-6.262-2.35-13.328-2.491-19.729-4.359-8.723-2.547-17.77-3.193-26.737-4.446-8.053-1.124-16.047-2.513-24.113-3.522-5.114-.64-10.462-1.203-15.316-3.002-6.718-2.49-14.685-3.242-21.719-4.388-2.859-.466-5.262-1.328-8.134-1.328"/>
    </g>
</svg>
