<svg width="1400" height="844" fill="none" xmlns="http://www.w3.org/2000/svg">
    <path opacity=".25" d="M-389 633.857C-281.044 615.125-98.54 546.463.807 500.247c42.576-19.806 91.496-46.049 118.345-84.779 11.879-11.506 19.306-9.067 13.624-17.64-104.264 23.011-225.365 73.549-319.8 123.4-10.351 5.463-21.064 11.233-27.995 20.665-8.237 11.207-9.866 25.794-11.221 39.637-3.992 40.752-7.982 81.505-11.972 122.257-2.521 25.743-4.345 54.174 11.102 74.92 58.693-9.49 117.387-18.981 176.082-28.47 15.85-2.563 32.282-5.353 45.505-14.459 20.932-14.414 29.084-41.124 33.86-66.09 8.19-42.822 10.995-102.073 7.577-145.536-21.288 43.517-32.293 80.585-43.789 104.083-8.823 18.038-22.485 46.171-24.333 66.166-2.737 29.604 10.377 58.111 23.173 84.948 8.648 18.138 17.931 37.055 34.235 48.8 22.515 16.218 52.816 14.999 80.41 12.085 134.388-14.189 239.049-55.046 360.02-115.283 20.524-10.22 68.49-18.805 91.289-21.232 27.419-2.917 54.379 6.909 81.61 11.247 59.679 9.506 120.049-7.455 178.1-24.246.122-.035.243-.069.362-.105 8.076-2.344 5.623-14.414-2.724-13.399-66.877 8.13-135.762-.336-198.58-24.728-28.838-11.197-56.711-25.75-87.093-31.579-46.655-8.949-94.903 3.441-142.201-.992-43.062-4.035-83.478-21.783-125.312-32.765-41.833-10.982-89.015-14.46-125.946 8.052 52.329 11.02 106.665 12.421 159.492 4.112-13.289-27.018-25.887-23.581-39.176-50.599 32.69 15.314 73.958-11.271 101.809-34.238 27.853-22.968 25.04-77.659-9.643-87.674 4.024 14.885 9.574 40.502 6.001 55.495-1.941 8.147-20.467 9.907-24.022 2.325-18.936-40.396-32.067-64.041-37.97-99.975 26.004 45.425 52.737 77.229 39.52 127.875-10.938 4.953-25.257 1.936-28.974-9.483-14.024-43.062-34.492-83.854-48.514-126.917 23.235 34.604 46.428 65.629 51.917 106.951.54 4.071 4.334 12.519 1.927 15.846-9.265 12.806-28.753-3.056-35.981-17.469-18.765-37.413-29.785-59.388-48.551-96.801 17.178 17.887 29.288 35.944 37.29 59.413 3.579 10.498-8.016 19.811-17.451 13.981-18.275-11.296-31.842-36.129-49.594-48.594-17.751-12.463-34.353 4.65-47.267-30.224-2.552-6.89-9.779-19.041-16.274-22.476-10.7-5.657-22.253 2.926-34.096 5.426-84.464 17.825-193.148 16.03-264.239-7.749-18.518-6.194-48.075-92.649-50.509-115.539-5.919-55.687-32.559-216.908-38.478-272.594-.333-3.169 185.567-2.853 189.19-.343 4.163 2.884-1.936 107.436-1.057 112.423 7.275 41.228-14.2 160.391 6.243 164.196 44.427 8.266 117.776 21.96 167.393 25.69 42.153 3.17 74.855 26.983 111.57 43.543 38.814 17.508 81.471 28.297 120.094 50.783 9.113 5.305 20.015 17.711 29.981 28.096 6.276 6.538 2.063 17.547-6.987 18.032-10.656.572-21.9-1.56-30.728-5.462 20.9 16.784 33.668 29.438 56.048 44.191 22.378 14.755 57.558-36.048 59.412-62.791-10.474 12.324-85.238 86.8-20.148-31-17.844.738-23.656 27.269-30.406 43.805-4.184 10.253-11.226 25.336-21.085 19.724-2.824-1.606-4.653-4.53-5.231-7.727-5.257-29.059 6.823-60.406 29.925-78.688 10.346-8.188 38.73-32.528 48.893-40.94 32.92-27.245 20.385-59.793 3.857-99.202-16.527-39.409-59.234-153.779-78.472-226.63 31.828-2.94 197.763-11.845 203.484-.063 15.37 31.657 2.13 294.103-10.576 312.179-7.482 10.645-19.841 27.088-8.042 32.57 47.243-64.893 135.06-98.112 212.86-78.388 77.8 19.725 139.774 92.431 144.584 172.557 1.139 18.974-.772 38.53-8.885 55.72-8.328 17.644-22.574 31.673-36.532 45.301-38.168 37.272-79.44 76.232-131.769 86.602-1.631-23.984 30.174-46.233 17.908-66.907-9.206-15.518-32.434-10.49-49.943-14.844-31.995-7.956-54.725-39.721-58.113-72.518-3.389-32.797 2.762-79.574-27.152-93.432-47.004-21.774-76.882 43.539-128.663 44.978 28.6-17.515 33.078-33.254 46.239-64.103 0-42.848-98.158 61.002-80.548 90.194-64.202 50.546-99.878 126.441-102.625 208.114-.412 12.274 22.249 37.484 33.096 43.244 6.913 3.669 123.996 5.263 167.377.775 42.39-4.386 60.191-4.505 99.186-21.699 72.065-31.776 139.929-46.217 197.839-94.159 9.466-7.839 18.937-16.438 30.757-19.803 10.244-2.917 21.156-1.567 31.718-.196 22.615 2.937 45.228 5.873 67.843 8.812 37.013 4.807 78.393 12.139 99.833 42.688 18.24 25.979 24.3 68.977 55.92 71.698 28.66 2.464 44.34-38.994 28.83-63.216-15.51-24.223-53.32-46.497-82.05-47.75-98.741-4.308-187.222 60.324-286.045 58.549-31.039-.556-83.298 23.654-108.272 21.295-24.973-2.359-64.782 5.235-68.13 30.098 174.6 21.971 324.213 100.976 589.987 41.987 224.03-49.723 454.04 3.773 454.04 3.773" stroke="#fff" stroke-width="3" stroke-miterlimit="10" stroke-linecap="round" stroke-linejoin="round"/>
</svg>
