<svg width="193" height="18" fill="none" xmlns="http://www.w3.org/2000/svg">
    <path fill-rule="evenodd" clip-rule="evenodd" d="M3.676 17.974H0V0h3.676v17.974zM50.09 15.52v2.459H48.5a486.86 486.86 0 01-4.187-.007 6.346 6.346 0 01-1.288-.13c-1.163-.254-1.802-.951-1.98-2.132a8.96 8.96 0 01-.096-1.225 818.286 818.286 0 01-.004-4.701v-.005-1.881c0-.564.036-1.127.197-1.673.313-1.057 1.03-1.649 2.104-1.807.288-.042.583-.056.874-.06 1.931-.003 3.863-.003 5.794-.003h.186v2.525h-4.105a2.98 2.98 0 00-.435.028c-.559.074-.85.377-.868.944a39.46 39.46 0 00-.013 1.342V11.018h4.564v2.546h-4.537c0 .123-.003.245-.007.364-.008.267-.016.525.018.778.063.486.456.771 1.011.792.277.01.553.01.83.008H49.889c.067.013.127.013.2.013zM28.993 4.375V17.97h3.733v-4.396c.224 0 .447-.001.668-.003h.001c.493-.003.978-.006 1.462.007.674.014.808.169.808.838v.34c0 .679-.001 1.358.014 2.037.003.201.052.409.123.6.137.376.467.584.864.584H40.208l-.01-.01-.019-.018c-.034-.031-.053-.05-.072-.064-.52-.363-.706-.87-.696-1.49.014-.979.007-1.962 0-2.94 0-.25-.014-.508-.066-.751-.197-.895-.825-1.35-1.654-1.589a1.214 1.214 0 00-.186-.035 1.392 1.392 0 01-.02-.003l-.007-.002-.012-.002a9.797 9.797 0 00-.232-.046c.9-.317 1.401-.961 1.542-1.838.147-.951.15-1.92-.05-2.871-.203-.972-.803-1.6-1.78-1.79a8.91 8.91 0 00-1.618-.158c-1.49-.013-2.98-.01-4.47-.008h-.001l-1.674.001c-.04 0-.08.003-.12.006a3.18 3.18 0 01-.07.005zm3.74 6.66V6.907c.128 0 .255-.003.382-.006.278-.007.553-.013.826.013.621.064.986.416 1.053 1.036.074.694.084 1.395-.028 2.089-.102.627-.481.958-1.113.993-.253.014-.505.01-.762.007a23.392 23.392 0 00-.358-.004zm-20.657 6.94h3.686c0-.071 0-.124.008-.177 0-3.346 0-6.692-.004-10.038 0-.31-.025-.624-.074-.93-.109-.687-.386-1.29-.94-1.737-.598-.482-1.296-.697-2.052-.704-1.615-.014-3.23-.021-4.845.003-1.145.018-2.023.529-2.539 1.582-.288.585-.379 1.215-.379 1.863v9.915c0 .055.003.112.006.174l.001.02h3.694V8.24v-.075c-.001-.075-.002-.15.003-.225.053-.662.408-1.063.994-1.085.474-.017.948-.017 1.422 0 .453.018.78.243.917.687.063.208.098.437.098.655.005 2.383.005 4.766.004 7.15V17.973zm8.343-11.103v11.095c1.242 0 2.468 0 3.704.004V6.869h3.332v-2.49H17.01v2.493h3.41zm31.125-2.496a1.966 1.966 0 01-.071.01c0 4.532 0 9.062.003 13.595h3.75v-4.399h.208l.761.001c.636.002 1.273.003 1.907-.005.32-.003.643-.02.959-.077 1.018-.176 1.759-.715 2.082-1.73.105-.334.183-.697.19-1.05.024-1.073.017-2.148.01-3.222a5.412 5.412 0 00-.077-.785c-.18-1.12-.8-1.846-1.896-2.16-.523-.148-1.057-.19-1.598-.19H51.68a.998.998 0 00-.136.012zm3.693 6.66V6.89c.133 0 .264-.003.395-.006.302-.007.6-.013.894.016.554.057.934.437.969 1.036.042.69.035 1.395-.025 2.085-.06.659-.439.972-1.095 1.01-.258.015-.513.012-.774.008-.12-.002-.241-.004-.364-.004zm12.855-6.65h.172l1.588-.002c1.588 0 3.176-.002 4.764.008.4.004.808.04 1.201.12 1.187.243 1.868 1.004 2.09 2.18.066.356.101.722.101 1.085.01 2.265.007 4.53.004 6.795 0 .518-.057 1.032-.243 1.521-.421 1.106-1.236 1.702-2.39 1.85a5.8 5.8 0 01-.7.035c-1.416.002-2.831.001-4.246 0H68.088c.004-4.519.004-9.027.004-13.56v-.033zm3.757 2.507v8.58c.16 0 .32.003.48.006.354.006.705.012 1.055-.012.46-.036.765-.314.842-.783.053-.31.095-.627.099-.94.01-1.719.007-3.438.003-5.16 0-.18-.014-.363-.035-.543-.098-.75-.439-1.095-1.162-1.137a11.72 11.72 0 00-.917-.014c-.12.002-.242.003-.365.003zm-5.358-2.522h-3.676v13.6h3.676V4.37zM91.321 11.067l-.018-.004a3.605 3.605 0 01-.071-.017c.632-.162 1.05-.525 1.352-1.043.235-.416.284-.874.284-1.342V7.378c.001-1.28.002-2.561-.003-3.842 0-.345-.021-.694-.063-1.036-.151-1.278-.798-2.032-2.044-2.328A6.507 6.507 0 0089.301.01C87.822-.003 86.345 0 84.869.002l-1.66.001H83v11.05h-.15c-.117.002-.228.004-.338-.004-.119-.007-.186.028-.242.141-.232.469-.468.936-.703 1.404l-.424.843a1.362 1.362 0 00-.063.143l-.007.02h1.924v4.392h2.553c1.556.001 3.113.002 4.67 0 .256 0 .512-.011.769-.036 1.345-.123 2.219-.933 2.356-2.271.08-.783.07-1.582.06-2.371-.011-.835-.38-1.494-1.131-1.892-.182-.098-.38-.169-.576-.24l-.151-.055a1.515 1.515 0 00-.181-.05l-.032-.007-.014-.003zm-4.587-.018V2.486c.143.007.287.01.43.013.315.007.629.014.936.058.506.074.815.437.895.972.028.166.039.338.039.507.003 1.765.007 3.533 0 5.298 0 .25-.021.503-.067.75-.116.62-.463.926-1.095.962-.255.014-.512.01-.773.007-.12-.002-.242-.004-.365-.004zm.053 4.465a1.758 1.758 0 00-.06-.006V13.6l.01-.002.018-.005c.02-.006.037-.01.056-.01h.744c.495 0 .99 0 1.486.01.446.007.66.24.667.683v.154c.001.155.002.31-.003.463-.011.349-.169.535-.513.61a1.544 1.544 0 01-.313.031 377.47 377.47 0 01-2.019-.014c-.022 0-.047-.003-.073-.005zm71.494-4.32l.002 1.166c.002.909.004 1.818-.005 2.726-.004.465-.123.915-.306 1.349-.39.93-1.099 1.412-2.082 1.525a6.098 6.098 0 01-.716.035l-.657.002h-.003c-1.319.003-2.64.007-3.958-.005-.948-.008-1.759-.353-2.373-1.096-.503-.606-.706-1.324-.71-2.092-.01-2.395-.01-4.79.004-7.186.003-.377.059-.76.147-1.13.274-1.163 1.043-1.807 2.195-2.015.263-.046.534-.07.804-.07 1.52-.008 3.044-.015 4.565.003.386.004.786.056 1.158.155 1.092.289 1.679 1.057 1.858 2.145.067.405.091.817.095 1.226.01.76.007 1.52.005 2.281l-.002.977c-.007.004-.014.004-.021.004zm-3.683-.008h.021l.001-.691c.002-.615.005-1.23-.008-1.845a4.431 4.431 0 00-.134-.986c-.112-.444-.432-.694-.884-.729a11.368 11.368 0 00-1.296-.021c-.439.018-.759.25-.896.673-.091.281-.168.58-.168.873a361.29 361.29 0 000 5.51c.003.288.056.584.133.862.13.465.418.687.896.694.439.007.878-.004 1.313-.039.516-.042.783-.274.916-.775.053-.19.099-.39.102-.588.006-.734.005-1.469.004-2.204v-.733zM129.804 4.4h3.75v9.76c0 .279.028.55.148.807a.873.873 0 00.734.528c.256.025.516.036.769.014.604-.049.955-.422.99-1.028.007-.106.007-.212.007-.317l.014-4.782.014-4.781v-.183h3.659v.225l-.001 1.907v.001c0 2.54-.001 5.079.008 7.62 0 .268.07.546.158.8.116.327.39.496.727.524.274.025.551.028.821.007.509-.042.85-.384.913-.89.018-.152.028-.304.028-.459V4.41h3.687v10.126c0 .525-.063 1.043-.242 1.54-.407 1.155-1.412 1.89-2.658 1.912-1.02.016-2.037.01-3.056.003l-.106-.001-.279-.002c-.214 0-.432-.035-.643-.074-.527-.095-.92-.387-1.18-.856a1.122 1.122 0 00-.04-.069c-.014-.024-.03-.05-.047-.082-.018.035-.029.056-.036.074-.27.725-.825 1.01-1.562 1.01l-.94.003h-.002c-.734.002-1.468.004-2.201-.006a5.77 5.77 0 01-1.13-.106c-1.254-.267-2.076-1.19-2.23-2.465a30.308 30.308 0 01-.035-.314l-.035-.313c-.004-3.463-.004-6.929-.004-10.391zM94.691 7.393l.037-.25c.026-.183.052-.367.093-.546.298-1.303 1.176-2.057 2.51-2.163.264-.02.527-.031.79-.031l.762-.003c1.144-.004 2.288-.008 3.434.01.418.007.847.049 1.247.155 1.102.285 1.689 1.056 1.868 2.155.063.391.095.793.095 1.19.01 2.202.007 4.404.003 6.601 0 .624-.063 1.24-.291 1.829-.386.993-1.117 1.518-2.16 1.62a7.338 7.338 0 01-.681.032h-.003c-1.533.003-3.063.007-4.597-.004-.892-.007-1.671-.306-2.286-.98-.47-.51-.702-1.126-.783-1.806a1.431 1.431 0 00-.035-.17c-.003-2.542-.003-5.092-.003-7.64zm7.131 3.797h.021c0-.242.001-.483.003-.724.002-.604.005-1.208-.01-1.812a4.42 4.42 0 00-.14-1.004c-.113-.437-.436-.68-.878-.711a11.363 11.363 0 00-1.296-.022c-.439.018-.758.25-.895.67-.091.281-.169.58-.172.873a358.727 358.727 0 000 5.51c.003.295.056.594.137.88.126.45.418.672.892.68.439.007.878-.004 1.313-.04.516-.038.783-.274.916-.774.053-.197.099-.402.102-.606.009-.778.008-1.558.008-2.336l-.001-.584zm5.095-6.78v13.585h2.348c1.415.002 2.831.002 4.247 0 .231 0 .467-.007.698-.035 1.156-.145 1.97-.74 2.391-1.846.19-.497.243-1.014.243-1.54l.001-1.926v-.002c.001-1.61.003-3.22-.005-4.83a6 6 0 00-.105-1.117c-.225-1.162-.892-1.92-2.068-2.163a6.174 6.174 0 00-1.219-.126c-1.588-.011-3.176-.01-4.763-.008h-1.589a3.06 3.06 0 00-.168.007h-.011zm4.236 11.111l-.479.015V6.904c.463 0 .934-.021 1.394.029.608.063.892.334 1.015.94.049.232.074.475.074.715.003 1.726.007 3.452-.004 5.178 0 .32-.045.64-.101.958-.078.426-.352.7-.78.743-.37.035-.743.045-1.119.056zm14.03-11.133h3.701l.001.02c.003.052.006.099.006.146v5.759c0 .49-.084.969-.253 1.43-.424 1.155-1.425 1.85-2.703 1.88-.13.003-.261.003-.398.002h-.001a34.399 34.399 0 00-.216-.001v4.364h-3.701v-4.346c-.101-.006-.2-.01-.297-.014a5.767 5.767 0 01-.542-.036c-1.124-.148-2.008-.644-2.458-1.743a3.586 3.586 0 01-.253-1.36c-.004-1.198-.004-2.395-.005-3.593v-.009c0-.795 0-1.59-.002-2.386 0-.02.003-.038.007-.058a.374.374 0 00.007-.051h3.67v.236l-.001 1.272v.004c0 1.271-.001 2.541.004 3.814 0 .225.028.461.091.676.137.447.464.683.927.7.474.019.948.019 1.423 0 .544-.017.927-.408.976-.964.01-.127.014-.257.014-.388V4.617c.003-.077.003-.144.003-.229zm44.099 7.101a2.725 2.725 0 00-1.264-.436l.054-.03a.19.19 0 01.016-.01c.829-.295 1.314-.911 1.461-1.746.176-.99.172-2-.046-2.99-.207-.938-.807-1.547-1.755-1.73a9.175 9.175 0 00-1.672-.162c-1.476-.013-2.954-.01-4.431-.009h-.001l-1.66.002h-.196v13.607h3.725v-4.393c.226 0 .45-.001.672-.003h.001c.498-.003.991-.005 1.483.007.646.017.78.176.783.828l.002.684c.001.57.002 1.14.012 1.71.004.19.046.388.109.568.137.394.471.613.881.613h3.54l-.191-.167c-.046-.04-.09-.077-.132-.115a1.344 1.344 0 01-.457-.958c-.01-.187-.017-.377-.017-.564-.003-.33-.003-.66-.003-.99 0-.716 0-1.431-.022-2.145-.017-.665-.326-1.197-.892-1.57zm-5.39-.44a21.091 21.091 0 00-.375-.003V6.882c.147.007.294.01.44.013.309.007.615.013.915.054.516.07.874.451.906 1.018.035.69.032 1.384-.032 2.071-.056.63-.446.958-1.074 1.004-.256.017-.515.012-.78.008zm18.452-6.66c-.958 2.233-1.906 4.441-2.872 6.685h.221c.114.003.228.002.342.002.238-.001.476-.003.708.033.832.13 1.479.824 1.619 1.687.032.19.049.384.049.578.004 1.49.004 2.98.004 4.473 0 .034-.003.065-.005.102a.315.315 0 00-.002.032h-3.698v-3.589c0-.099-.003-.201-.021-.296-.042-.254-.14-.36-.393-.405a3.725 3.725 0 00-.558-.064c-.38-.004-.759-.004-1.138-.005-.253 0-.506 0-.759-.002a.98.98 0 00-.079.005h-.001l-.035.002v4.35h-3.733V4.392h3.726v6.636c.142.027.212.04.258.013.043-.025.066-.085.11-.203l1.189-3.147 1.188-3.148c.036-.098.064-.172.201-.169.89.006 1.782.005 2.673.004h.891a.94.94 0 01.106.01h.009zm10.106 2.539h.228c0-.077 0-.14.007-.2l-.001-.614c-.001-.512-.003-1.025.005-1.535.003-.166-.053-.201-.207-.201-1.84.003-3.677.003-5.513.003-.228 0-.457 0-.685.021-1.116.106-1.938.645-2.409 1.677-.242.532-.333 1.1-.34 1.677-.011.768-.011 1.539 0 2.307.003.31.024.623.067.93.172 1.243.962 2.145 2.166 2.437.34.08.698.105 1.052.13l.198.015c.178.012.358.012.537.011.167 0 .333 0 .499.01.439.024.618.222.642.655.015.222.029.447.029.67 0 .284-.113.457-.39.531-.2.053-.415.078-.622.078-.956.005-1.914.004-2.871.003h-1.163v2.459h.144c.782-.002 1.563-.002 2.345-.001 1.302 0 2.603 0 3.905-.006.453 0 .913-.043 1.362-.106.664-.095 1.159-.43 1.352-1.11.06-.207.113-.422.113-.637v-.25c0-1.08 0-2.158-.039-3.234-.028-.757-.421-1.208-1.155-1.377a8.108 8.108 0 00-1.335-.176c-.413-.025-.826-.03-1.24-.034-.236-.003-.472-.005-.708-.012-.741-.018-1.159-.447-1.163-1.187a39.702 39.702 0 010-.845l.002-.268c.001-.326.002-.653.026-.98.036-.468.281-.725.741-.802.172-.032.348-.039.523-.039h3.898z" fill="#fff"/>
</svg>
