<svg width="120" height="45" fill="none" xmlns="http://www.w3.org/2000/svg">
    <path fill-rule="evenodd" clip-rule="evenodd" d="M22.058 19.288h-3.946V0h3.946v19.288zm49.805-2.634v2.638h-1.705c-1.498.002-2.996.004-4.493-.008a6.82 6.82 0 01-1.383-.14c-1.247-.272-1.933-1.02-2.125-2.286a9.631 9.631 0 01-.102-1.316c-.008-1.68-.007-3.362-.005-5.044v-.006l.001-2.018c0-.605.038-1.21.211-1.795.336-1.134 1.104-1.77 2.257-1.94a7.07 7.07 0 01.938-.063c2.073-.004 4.145-.004 6.218-.004h.2v2.71H67.47a3.2 3.2 0 00-.468.03c-.599.08-.911.405-.93 1.013-.016.48-.015.96-.015 1.44v1.959h4.898v2.732h-4.868c0 .132-.004.262-.008.39-.009.287-.017.563.02.835.067.521.489.827 1.084.85.297.011.594.01.89.009l.297-.001h3.278a.993.993 0 00.215.015zM49.225 4.694v14.59h4.005v-4.717c.242 0 .48-.001.717-.003h.002c.529-.003 1.049-.006 1.569.007.723.015.866.181.866.9v.364c0 .73 0 1.458.015 2.187.004.215.057.438.132.643.147.404.501.627.927.627h3.802l-.012-.011-.02-.019a.82.82 0 00-.077-.068c-.558-.39-.758-.934-.746-1.6.015-1.05.007-2.105 0-3.155 0-.269-.016-.544-.072-.805-.211-.96-.886-1.448-1.775-1.705-.052-.015-.105-.023-.159-.032l-.04-.006a9.462 9.462 0 01-.022-.004l-.007-.001-.013-.002c-.072-.016-.147-.03-.249-.05.965-.34 1.504-1.031 1.655-1.973.158-1.02.162-2.06-.053-3.08-.219-1.043-.863-1.716-1.91-1.92a9.56 9.56 0 00-1.738-.17 479.257 479.257 0 00-4.796-.01h-.001l-1.797.002c-.043 0-.085.003-.129.007l-.074.004zm4.013 7.148v-4.43c.138 0 .274-.003.41-.006.299-.008.593-.015.886.014.667.068 1.059.446 1.13 1.111.08.745.09 1.497-.03 2.241-.109.673-.516 1.028-1.194 1.066-.271.016-.542.012-.818.008a25.527 25.527 0 00-.384-.004zM31.07 19.288h3.956c0-.075 0-.132.008-.189 0-3.59 0-7.181-.004-10.772 0-.333-.027-.67-.08-.998-.116-.737-.414-1.383-1.01-1.863-.64-.518-1.39-.749-2.2-.756a216.71 216.71 0 00-5.2.003c-1.228.02-2.17.567-2.724 1.698-.309.627-.407 1.304-.407 1.999v10.64c0 .058.003.12.007.186v.022h3.965V8.841v-.08c-.001-.08-.002-.162.003-.241.057-.711.438-1.142 1.067-1.165a20.542 20.542 0 011.526 0c.486.02.836.261.983.737.068.224.106.47.106.704.006 2.557.005 5.114.004 7.67v2.822zm8.952-11.914v11.907c1.334 0 2.65 0 3.976.003V7.371h3.575V4.698h-11.21v2.676h3.66zm33.4-2.678l-.075.01c0 4.864 0 9.725.004 14.59h4.024v-4.721h.222l.817.001c.683.002 1.366.003 2.047-.005.343-.004.69-.023 1.028-.083 1.093-.19 1.888-.767 2.235-1.856.113-.36.196-.748.203-1.126.027-1.153.02-2.306.012-3.459a5.783 5.783 0 00-.083-.843c-.192-1.202-.86-1.98-2.035-2.317-.561-.158-1.134-.204-1.714-.204H73.57c-.05 0-.098.007-.146.013zm3.964 7.146V7.393c.142 0 .284-.003.424-.006.324-.007.643-.014.959.018.595.06 1.002.468 1.04 1.11.045.742.038 1.498-.026 2.239-.065.706-.472 1.043-1.176 1.084-.276.016-.55.012-.83.008a26.392 26.392 0 00-.39-.004zm13.795-7.136h.184l1.705-.001c1.704-.002 3.408-.003 5.112.008.43.004.866.042 1.288.129 1.274.26 2.005 1.077 2.242 2.34.072.381.11.774.11 1.164.011 2.43.007 4.86.003 7.29 0 .557-.06 1.108-.26 1.634-.452 1.187-1.326 1.825-2.566 1.984-.248.03-.5.038-.75.038-1.519.002-3.038.002-4.556 0h-2.516c.004-4.849.004-9.687.004-14.55v-.036zm4.031 2.691v9.208c.173 0 .344.002.515.005.38.007.757.013 1.132-.013.494-.038.822-.336.904-.84.057-.332.102-.672.106-1.008.011-1.845.007-3.69.004-5.538 0-.192-.015-.389-.038-.582-.105-.805-.47-1.175-1.247-1.22-.326-.022-.651-.019-.984-.015-.13.002-.26.003-.392.003zm-5.75-2.706h-3.945v14.593h3.945V4.691zM10.997 36.597l-.02-.004a3.208 3.208 0 01-.076-.02c.678-.173 1.127-.562 1.45-1.118.253-.446.306-.937.306-1.44v-1.377c0-1.374.002-2.748-.004-4.123 0-.37-.023-.744-.068-1.11-.162-1.373-.855-2.182-2.193-2.5a6.982 6.982 0 00-1.564-.173c-1.586-.014-3.171-.012-4.755-.01h-.001c-.594.002-1.187.002-1.781.002h-.222v11.857l-.161.002a4.563 4.563 0 01-.363-.005c-.128-.008-.2.03-.26.15-.25.504-.502 1.005-.755 1.507l-.455.905a1.44 1.44 0 00-.067.154l-.008.02h2.065v4.714h2.739c1.67.001 3.34.002 5.012 0 .275 0 .55-.012.825-.038 1.443-.132 2.381-1.002 2.528-2.438.087-.84.076-1.697.064-2.544-.011-.896-.407-1.602-1.213-2.03-.195-.105-.407-.181-.618-.258l-.162-.06c-.06-.02-.12-.035-.195-.051l-.034-.008-.014-.004zm-4.923-.02V27.39c.154.007.307.01.46.014h.001c.339.007.675.015 1.005.062.542.079.874.468.96 1.043.03.178.042.363.042.544.004 1.894.008 3.791 0 5.685 0 .268-.023.54-.072.805-.124.665-.497.994-1.175 1.032-.274.016-.549.012-.83.007-.129-.001-.26-.003-.391-.003zm.057 4.792c-.02-.002-.041-.005-.065-.006v-2.049a.327.327 0 00.012-.002l.019-.006a.22.22 0 01.06-.01h.798c.531 0 1.062 0 1.595.01.478.008.708.258.716.734v.165c0 .165.001.332-.004.496-.012.375-.181.575-.55.654-.11.023-.223.034-.336.034-.723-.003-1.443-.007-2.166-.015a.778.778 0 01-.08-.005zm76.72-4.636l.002 1.252c.003.975.005 1.95-.006 2.924-.003.5-.132.983-.328 1.448-.418.998-1.179 1.516-2.234 1.637a6.53 6.53 0 01-.769.037l-.704.002h-.003a360.09 360.09 0 01-4.248-.005c-1.017-.008-1.887-.378-2.547-1.176-.539-.65-.757-1.421-.76-2.245-.012-2.57-.012-5.14.003-7.71.004-.405.064-.817.158-1.214.294-1.247 1.12-1.94 2.355-2.162.283-.05.573-.076.863-.076 1.632-.007 3.267-.015 4.898.004.415.004.844.06 1.244.166 1.172.31 1.801 1.134 1.993 2.302.072.435.098.877.102 1.316.01.815.008 1.632.006 2.448l-.002 1.048c-.008.004-.015.004-.023.004zm-3.953-.008h.023c0-.247 0-.495.002-.742.002-.66.004-1.32-.01-1.98a4.768 4.768 0 00-.143-1.058c-.12-.476-.463-.744-.95-.782a12.196 12.196 0 00-1.39-.023c-.47.02-.814.269-.96.722-.098.303-.181.624-.181.938-.015 1.969-.015 3.942 0 5.911.004.31.06.628.143.926.14.5.448.737.96.745.472.007.943-.004 1.41-.042.554-.045.84-.295.983-.831a2.58 2.58 0 00.11-.632c.005-.788.005-1.576.004-2.364v-.788zm-26.605-7.284h4.024v10.474c0 .299.03.59.158.866.158.336.426.529.788.567.275.026.553.038.825.015.648-.053 1.025-.454 1.062-1.104.008-.113.008-.227.008-.34l.015-5.131.015-5.131v-.197h3.926V31.75c0 2.726-.001 5.45.008 8.177 0 .287.075.585.17.858.124.351.418.533.78.563.293.026.59.03.881.007.546-.045.912-.412.98-.956.018-.163.03-.325.03-.491V29.452h3.956V40.32c0 .563-.068 1.118-.26 1.651-.437 1.24-1.515 2.03-2.852 2.053-1.095.017-2.186.01-3.28.002h-.113l-.3-.002c-.23 0-.463-.038-.69-.08-.565-.102-.986-.415-1.265-.918l-.043-.074a2.956 2.956 0 01-.052-.088c-.018.037-.03.06-.037.079-.29.779-.886 1.085-1.677 1.085-.336 0-.672 0-1.009.002h-.002c-.787.002-1.575.004-2.361-.006a6.202 6.202 0 01-1.214-.114c-1.345-.287-2.227-1.277-2.392-2.645-.014-.112-.026-.224-.038-.337a38.408 38.408 0 00-.038-.336c-.004-3.716-.004-7.435-.004-11.15zm-37.68 3.213c.014-.088.026-.178.039-.267.028-.197.056-.395.1-.587.32-1.399 1.262-2.207 2.694-2.32.282-.023.565-.035.848-.035l.817-.002c1.228-.005 2.455-.009 3.686.01.448.007.908.053 1.337.166 1.183.306 1.813 1.134 2.005 2.313.067.42.101.85.101 1.278.012 2.362.008 4.725.004 7.083 0 .67-.068 1.33-.313 1.962-.414 1.066-1.198 1.629-2.317 1.739-.241.022-.49.034-.73.034h-.004c-1.645.003-3.287.007-4.933-.004-.957-.008-1.793-.329-2.453-1.05-.505-.549-.753-1.21-.84-1.94-.008-.06-.023-.12-.038-.181-.004-2.73-.004-5.466-.004-8.199zm7.652 4.075h.023l.002-.777c.003-.648.006-1.296-.01-1.944a4.73 4.73 0 00-.15-1.078c-.121-.468-.468-.73-.942-.763a12.196 12.196 0 00-1.39-.023c-.472.019-.815.268-.962.718-.098.303-.18.624-.184.938-.015 1.969-.015 3.942 0 5.911.003.318.06.639.147.945.135.484.448.722.957.73.47.007.942-.004 1.409-.042.554-.042.84-.295.983-.832a2.73 2.73 0 00.11-.65c.009-.834.008-1.671.008-2.507v-.626zm5.468-7.276V44.03h.24l2.275.001h.004c1.518.001 3.038.002 4.557 0 .249 0 .501-.008.75-.038 1.24-.155 2.114-.794 2.566-1.981.203-.533.26-1.089.26-1.652l.001-2.067v-.002c.002-1.728.003-3.456-.005-5.184 0-.397-.038-.805-.113-1.198-.241-1.248-.957-2.06-2.22-2.321-.429-.09-.87-.132-1.307-.136-1.704-.011-3.408-.01-5.112-.009l-1.704.001a3.26 3.26 0 00-.18.007h-.012zm4.545 11.924l-.514.016V32.13c.497 0 1.002-.023 1.496.03.652.068.957.36 1.09 1.01.052.249.078.51.078.767.004 1.852.008 3.704-.003 5.556 0 .344-.05.688-.11 1.028-.083.457-.377.752-.836.797-.398.038-.797.049-1.2.06zM47.334 29.43h3.971l.002.02c.003.056.006.107.006.158v6.18c0 .525-.09 1.04-.272 1.534-.455 1.24-1.53 1.985-2.9 2.019-.14.002-.281.001-.428 0a960.062 960.062 0 00-.232 0v4.683h-3.972V39.36c-.109-.007-.215-.01-.32-.014-.198-.008-.39-.014-.58-.04-1.206-.158-2.156-.691-2.638-1.87a3.857 3.857 0 01-.271-1.46c-.005-1.285-.005-2.57-.006-3.855v-.01c0-.853 0-1.706-.002-2.56 0-.02.004-.04.008-.062.002-.017.006-.035.007-.055h3.938V31.056c-.001 1.365-.002 2.728.004 4.093 0 .242.03.495.098.726.147.48.497.733.994.752.51.019 1.018.019 1.526 0 .584-.02.995-.439 1.048-1.036.011-.136.015-.276.015-.416v-5.5c.004-.082.004-.154.004-.245zm47.322 7.62a2.927 2.927 0 00-1.356-.468.82.82 0 00.075-.042c.89-.318 1.41-.98 1.568-1.875a8.216 8.216 0 00-.05-3.209c-.222-1.005-.866-1.66-1.883-1.856a9.837 9.837 0 00-1.794-.174c-1.584-.013-3.17-.011-4.755-.009h-.001l-1.781.002h-.211V44.02h3.997v-4.713c.242 0 .483-.002.722-.003.535-.003 1.064-.007 1.592.006.693.02.837.19.84.889l.002.734c.001.612.003 1.223.013 1.836.004.204.05.416.117.608.147.424.505.658.946.658h3.798a13.165 13.165 0 00-.205-.178l-.142-.124a1.444 1.444 0 01-.49-1.028c-.01-.2-.018-.405-.018-.605-.003-.355-.003-.71-.003-1.064 0-.767 0-1.535-.024-2.3-.019-.714-.35-1.285-.957-1.686zm-5.784-.471a23.208 23.208 0 00-.403-.005v-4.468c.159.008.316.01.473.014.332.007.66.014.982.058.553.076.938.484.972 1.092.037.741.034 1.486-.034 2.223-.06.676-.479 1.028-1.153 1.077-.275.018-.553.013-.837.008zm19.801-7.149a7128.991 7128.991 0 01-3.082 7.174h.237c.122.004.245.003.367.002a4.82 4.82 0 01.76.036c.893.14 1.586.884 1.737 1.81.034.205.053.413.053.62.004 1.6.004 3.198.004 4.8 0 .036-.003.07-.006.11l-.002.034h-3.968v-3.851c0-.106-.003-.216-.022-.318-.045-.272-.151-.385-.422-.434a3.998 3.998 0 00-.599-.069 121.21 121.21 0 00-1.221-.005c-.271 0-.543 0-.814-.002-.028 0-.053.002-.086.005l-.038.002v4.669h-4.006v-14.58h3.998v7.122c.153.03.228.043.277.015.047-.028.071-.093.119-.22l1.275-3.376 1.276-3.377c.037-.106.067-.186.214-.182.956.006 1.913.005 2.87.004h.955c.028 0 .057.003.114.01l.01.001zm10.845 2.725h.245c0-.083 0-.15.007-.215l-.001-.659c-.002-.549-.003-1.099.005-1.647.004-.177-.057-.215-.222-.215-1.975.004-3.946.004-5.916.004-.245 0-.49 0-.735.022-1.198.114-2.08.692-2.585 1.8-.26.57-.358 1.179-.365 1.799a85.138 85.138 0 000 2.475c.003.333.026.67.071.998.185 1.334 1.033 2.302 2.325 2.616.365.086.749.113 1.129.14.071.004.142.01.212.015.192.014.384.013.577.013.179-.001.357-.001.535.01.471.026.663.238.69.703.015.238.03.48.03.718 0 .306-.121.491-.418.57a2.647 2.647 0 01-.667.084 502.472 502.472 0 01-4.108.003h-.222v2.639h.155c.839-.002 1.678-.002 2.516-.001 1.398 0 2.794 0 4.191-.007.486 0 .979-.045 1.462-.113.712-.102 1.243-.461 1.45-1.19.064-.224.121-.454.121-.685v-.268c0-1.158 0-2.316-.042-3.47-.03-.813-.452-1.297-1.239-1.478a8.702 8.702 0 00-1.432-.19c-.444-.026-.887-.03-1.331-.036-.253-.003-.507-.005-.76-.012-.795-.02-1.244-.48-1.247-1.274a34.286 34.286 0 010-.907l.001-.287c.001-.35.002-.7.029-1.051.037-.503.301-.779.795-.862a3.09 3.09 0 01.561-.042h4.183z" fill="#fff"/>
</svg>
