<?xml version="1.0" encoding="UTF-8"?><!DOCTYPE svg PUBLIC "-//W3C//DTD SVG 1.1//EN" "http://www.w3.org/Graphics/SVG/1.1/DTD/svg11.dtd"><svg xmlns="http://www.w3.org/2000/svg" xmlns:xlink="http://www.w3.org/1999/xlink"><symbol id="arrow">
    <path d="M2 13h35m0 0L27 3m10 10L27 23" stroke-width="4" stroke-linecap="square" stroke-linejoin="round"/>
</symbol><symbol id="quote">
    <path d="M34.4 0C40 0 43.867 1.333 46 4c2.267 2.533 3.4 5.267 3.4 8.2 0 1.2-.133 2.6-.4 4.2l-.8 4.4c-.667 3.067-1.8 6.333-3.4 9.8-1.6 3.467-3.667 6.933-6.2 10.4-2.4 3.467-5.2 6.867-8.4 10.2C27 54.533 23.6 57.467 20 60H.2c5.6-4.267 10.267-8.4 14-12.4 3.733-4 7-8.533 9.8-13.6-3.733-.8-6.4-2.267-8-4.4-1.467-2.133-2.2-4.333-2.2-6.6 0-1.067.133-2.4.4-4 .4-1.733.733-3.333 1-4.8.8-4 2.8-7.333 6-10C24.4 1.4 28.8 0 34.4 0zm46.8 0c5.6 0 9.467 1.333 11.6 4 2.267 2.533 3.4 5.267 3.4 8.2 0 1.2-.133 2.6-.4 4.2l-.8 4.4c-.667 3.067-1.8 6.333-3.4 9.8-1.6 3.467-3.667 6.933-6.2 10.4-2.4 3.467-5.2 6.867-8.4 10.2-3.2 3.333-6.6 6.267-10.2 8.8H47c5.6-4.267 10.267-8.4 14-12.4 3.733-4 7-8.533 9.8-13.6-3.733-.8-6.4-2.267-8-4.4-1.467-2.133-2.2-4.333-2.2-6.6 0-1.067.133-2.4.4-4 .4-1.733.733-3.333 1-4.8.8-4 2.8-7.333 6-10C71.2 1.4 75.6 0 81.2 0z"/>
</symbol><symbol id="star">
    <path d="M7.049.927c.3-.921 1.603-.921 1.902 0l1.07 3.292a1 1 0 00.95.69h3.462c.969 0 1.371 1.24.588 1.81l-2.8 2.034a1 1 0 00-.364 1.118l1.07 3.292c.3.921-.755 1.688-1.539 1.118l-2.8-2.034a1 1 0 00-1.176 0l-2.8 2.034c-.784.57-1.838-.197-1.539-1.118l1.07-3.292a1 1 0 00-.363-1.118L.98 6.72c-.784-.57-.382-1.81.587-1.81h3.461a1 1 0 00.951-.69L7.05.927z"/>
</symbol></svg>