<?xml version="1.0" encoding="UTF-8"?><!DOCTYPE svg PUBLIC "-//W3C//DTD SVG 1.1//EN" "http://www.w3.org/Graphics/SVG/1.1/DTD/svg11.dtd"><svg xmlns="http://www.w3.org/2000/svg" xmlns:xlink="http://www.w3.org/1999/xlink"><defs>
        <radialGradient id="paint0_radial" cx="0" cy="0" r="1" gradientUnits="userSpaceOnUse" gradientTransform="matrix(-20.82995 14.58637 -10.59282 -15.127 10.23 23.347)">
            <stop stop-color="#FBE18A"/>
            <stop offset=".031" stop-color="#FBBB45"/>
            <stop offset=".158" stop-color="#F88330"/>
            <stop offset=".26" stop-color="#F86737"/>
            <stop offset=".378" stop-color="#F8443E"/>
            <stop offset=".536" stop-color="#F4306D"/>
            <stop offset=".689" stop-color="#D53592"/>
            <stop offset=".888" stop-color="#903ACD"/>
            <stop offset=".943" stop-color="#544CED"/>
            <stop offset="1" stop-color="#395DFA"/>
        </radialGradient>
    </defs><symbol id="social__fb">
    <path fill-rule="evenodd" clip-rule="evenodd" d="M0 15C0 6.716 6.716 0 15 0c8.284 0 15 6.716 15 15 0 8.284-6.716 15-15 15-8.284 0-15-6.716-15-15z" fill="#fff"/>
    <path fill-rule="evenodd" clip-rule="evenodd" d="M18.553 10.367h-2.256c-.266 0-.563.35-.563.818v1.63h2.819v2.32h-2.82v6.97h-2.662v-6.97h-2.413v-2.32h2.413v-1.368c0-1.959 1.36-3.553 3.226-3.553h2.256v2.473z" fill="#425497"/>
</symbol><symbol id="social__gplus">
    <path fill-rule="evenodd" clip-rule="evenodd" d="M0 15C0 6.716 6.716 0 15 0c8.284 0 15 6.716 15 15 0 8.284-6.716 15-15 15-8.284 0-15-6.716-15-15z" fill="#fff"/>
    <path fill-rule="evenodd" clip-rule="evenodd" d="M12.121 9.005C8.967 8.902 6.07 11.609 6.016 14.7c-.2 2.527 1.493 5.005 3.887 5.898 2.384.9 5.441.287 6.963-1.813 1.006-1.326 1.222-3.034 1.105-4.638 0 0-3.9-.006-5.85 0-.002.583 0 1.162.001 1.744l.001.296c.716.022 1.432.025 2.149.027.45.002.902.003 1.352.01-.514 2.535-4.033 3.358-5.894 1.702-1.914-1.453-1.823-4.638.167-5.987 1.391-1.09 3.37-.82 4.76.123a21.57 21.57 0 001.552-1.576c-1.158-.905-2.578-1.55-4.088-1.481zM23.001 12h-1.998c-.004.376-.003.753-.001 1.132 0 .29.002.579 0 .868h-.89c-.372-.002-.744-.003-1.112 0v1.999c.332.004.667.002 1.002 0 .334-.002.67-.004 1 0 .004.34.003.683 0 1.026 0 .326-.002.652 0 .975h1.999L23 17.135A78.25 78.25 0 0123 16c.334-.004.668-.002 1.002 0 .333.002.666.004.998 0V14c-.323-.003-.649-.001-.974 0-.343.002-.685.004-1.025 0A77.913 77.913 0 0123 12.866c0-.29.002-.579 0-.866z" fill="#DD4241"/>
</symbol><symbol id="social__instagram">
    <path fill-rule="evenodd" clip-rule="evenodd" d="M0 15C0 6.716 6.716 0 15 0c8.284 0 15 6.716 15 15 0 8.284-6.716 15-15 15-8.284 0-15-6.716-15-15z" fill="#fff"/>
    <path fill-rule="evenodd" clip-rule="evenodd" d="M15 7c-2.173 0-2.445.01-3.298.048-.852.039-1.433.174-1.942.372a3.922 3.922 0 00-1.417.923c-.445.444-.719.89-.923 1.417-.198.509-.333 1.09-.372 1.942C7.01 12.555 7 12.827 7 15s.01 2.445.048 3.298c.039.852.174 1.433.372 1.942.204.526.478.973.923 1.417.444.445.89.719 1.417.923.509.198 1.09.333 1.942.372.853.039 1.125.048 3.298.048s2.445-.01 3.298-.048c.852-.039 1.433-.174 1.942-.372a3.922 3.922 0 001.417-.923c.445-.445.719-.89.923-1.417.198-.509.333-1.09.372-1.942.039-.853.048-1.125.048-3.298s-.01-2.445-.048-3.298c-.039-.852-.174-1.433-.372-1.942a3.922 3.922 0 00-.923-1.417 3.922 3.922 0 00-1.417-.923c-.509-.198-1.09-.333-1.942-.372C17.445 7.01 17.173 7 15 7zm0 1.441c2.136 0 2.39.009 3.233.047.78.036 1.203.166 1.485.276.374.145.64.318.92.598.28.28.453.546.598.92.11.282.24.705.276 1.485.038.844.047 1.097.047 3.233s-.009 2.39-.047 3.233c-.036.78-.166 1.203-.276 1.485-.145.374-.318.64-.598.92-.28.28-.546.453-.92.598-.282.11-.705.24-1.485.276-.844.038-1.097.047-3.233.047s-2.39-.009-3.233-.047c-.78-.036-1.203-.166-1.485-.276a2.48 2.48 0 01-.92-.598 2.479 2.479 0 01-.598-.92c-.11-.282-.24-.705-.276-1.485-.038-.844-.047-1.097-.047-3.233s.009-2.39.047-3.233c.036-.78.166-1.203.276-1.485.145-.374.318-.64.598-.92.28-.28.546-.453.92-.598.282-.11.705-.24 1.485-.276.844-.038 1.097-.047 3.233-.047zM10.892 15a4.108 4.108 0 118.216 0 4.108 4.108 0 01-8.216 0zM15 17.667a2.667 2.667 0 110-5.334 2.667 2.667 0 010 5.334zm4.27-5.977a.96.96 0 100-1.92.96.96 0 000 1.92z" fill="url(#paint0_radial)"/>
    
</symbol><symbol id="social__linkdin">
    <path fill-rule="evenodd" clip-rule="evenodd" d="M0 15C0 6.716 6.716 0 15 0c8.284 0 15 6.716 15 15 0 8.284-6.716 15-15 15-8.284 0-15-6.716-15-15z" fill="#fff"/>
    <path fill-rule="evenodd" clip-rule="evenodd" d="M18.7 11c-1.6 0-2.7.8-3.1 1.4l-.2-1H13v9.7h2.7v-5.8c0-.3 0-.6.1-.7.2-.5.9-1.1 1.7-1.1 1.1 0 1.8.8 1.8 2.1v5.6H22v-6c0-3-1.4-4.2-3.3-4.2zM8.3 21H11v-9.7H8.3V21zM9.7 7C8.7 7 8 7.6 8 8.5S8.7 10 9.7 10c1.1 0 1.7-.6 1.7-1.5-.1-.9-.7-1.5-1.7-1.5z" fill="#007EBB"/>
</symbol><symbol id="social__pinterest">
    <path fill-rule="evenodd" clip-rule="evenodd" d="M0 15C0 6.716 6.716 0 15 0c8.284 0 15 6.716 15 15 0 8.284-6.716 15-15 15-8.284 0-15-6.716-15-15z" fill="#fff"/>
    <path fill-rule="evenodd" clip-rule="evenodd" d="M15 7a8 8 0 00-3.21 15.327c-.023-.558-.004-1.23.138-1.837l1.03-4.359s-.256-.51-.256-1.266c0-1.185.688-2.07 1.543-2.07.727 0 1.08.546 1.08 1.2 0 .732-.467 1.826-.707 2.84-.2.849.425 1.54 1.262 1.54 1.516 0 2.536-1.946 2.536-4.253 0-1.753-1.18-3.065-3.328-3.065-2.426 0-3.938 1.809-3.938 3.83 0 .698.205 1.189.527 1.569.148.176.168.245.114.447l-.162.641c-.054.203-.218.276-.4.2-1.119-.456-1.639-1.68-1.639-3.056 0-2.272 1.916-4.998 5.717-4.998 3.055 0 5.065 2.212 5.065 4.583 0 3.139-1.744 5.483-4.317 5.483-.863 0-1.675-.466-1.954-.996 0 0-.465 1.843-.563 2.198-.169.617-.501 1.234-.805 1.714A8 8 0 0023 15 8 8 0 0015 7z" fill="#CC2127"/>
</symbol><symbol id="social__twitter">
    <path fill-rule="evenodd" clip-rule="evenodd" d="M0 15C0 6.716 6.716 0 15 0c8.284 0 15 6.716 15 15 0 8.284-6.716 15-15 15-8.284 0-15-6.716-15-15z" fill="#fff"/>
    <path fill-rule="evenodd" clip-rule="evenodd" d="M21.1 12.29c.006.126.01.253.01.382 0 3.904-2.973 8.406-8.407 8.406a8.365 8.365 0 01-4.53-1.328 5.925 5.925 0 004.375-1.225 2.959 2.959 0 01-2.76-2.05c.18.035.367.052.557.052.269 0 .53-.035.778-.103a2.958 2.958 0 01-2.371-2.897v-.037c.399.221.856.354 1.34.37a2.95 2.95 0 01-1.314-2.46c0-.54.145-1.048.399-1.484a8.385 8.385 0 006.089 3.086 2.995 2.995 0 01-.075-.674 2.953 2.953 0 015.109-2.02 5.844 5.844 0 001.877-.718 2.957 2.957 0 01-1.3 1.635 5.882 5.882 0 001.699-.465 6.04 6.04 0 01-1.475 1.53z" fill="#00AAEC"/>
</symbol><symbol id="social__vimeo">
    <path fill-rule="evenodd" clip-rule="evenodd" d="M0 15C0 6.716 6.716 0 15 0c8.284 0 15 6.716 15 15 0 8.284-6.716 15-15 15-8.284 0-15-6.716-15-15z" fill="#fff"/>
    <path d="M23.165 11.433c-.075 1.671-1.244 3.96-3.505 6.865-2.334 3.036-4.312 4.554-5.927 4.554-1.003 0-1.848-.924-2.54-2.771-.463-1.694-.923-3.389-1.387-5.083-.515-1.847-1.063-2.77-1.652-2.77-.13 0-.58.268-1.346.807L6 11.995c.85-.743 1.685-1.49 2.506-2.233 1.133-.974 1.978-1.49 2.544-1.54 1.337-.13 2.158.784 2.47 2.738.334 2.112.566 3.42.696 3.936.385 1.75.807 2.623 1.271 2.623.358 0 .9-.567 1.62-1.704.72-1.137 1.105-2 1.156-2.595.102-.979-.283-1.471-1.156-1.471-.413 0-.835.093-1.271.283.844-2.762 2.455-4.108 4.836-4.029 1.764.051 2.595 1.193 2.493 3.43z" fill="#1AB7EA"/>
</symbol><symbol id="social__yelp">
    <path fill-rule="evenodd" clip-rule="evenodd" d="M0 15C0 6.716 6.716 0 15 0c8.284 0 15 6.716 15 15 0 8.284-6.716 15-15 15-8.284 0-15-6.716-15-15z" fill="#fff"/>
    <path fill-rule="evenodd" clip-rule="evenodd" d="M9.306 14.703c-.256.416-.364 1.728-.276 2.598.032.288.083.527.157.67.102.198.274.316.47.322.126.007.204-.015 2.568-.787 0 0 1.051-.34 1.056-.343.261-.067.437-.312.455-.625.017-.32-.146-.603-.415-.705l-.742-.307c-2.54-1.065-2.654-1.107-2.782-1.108-.196-.008-.371.092-.491.285zm5.682 7.932c.042-.12.046-.204.053-2.728l.007-1.126c.016-.273-.157-.521-.443-.634-.293-.114-.609-.043-.786.182 0 0-.518.625-.52.625-1.78 2.123-1.854 2.221-1.897 2.347a.51.51 0 00-.028.232c.01.112.06.224.143.327.413.499 2.392 1.239 3.024 1.13.22-.042.379-.167.447-.355zm4.014-.879c.597-.241 1.899-1.924 1.99-2.571.032-.225-.037-.42-.19-.543-.1-.076-.177-.106-2.54-.894 0 0-1.035-.348-1.049-.354-.25-.099-.537-.008-.73.234-.199.248-.23.573-.07.82l.417.69c1.403 2.314 1.51 2.478 1.61 2.558.157.125.355.145.562.06zm-1.22-5.957c2.685-.66 2.789-.696 2.895-.766.162-.11.244-.297.23-.524v-.023c-.069-.67-1.225-2.412-1.794-2.695-.2-.098-.403-.091-.57.022-.103.07-.18.173-1.617 2.17 0 0-.65.9-.658.908-.171.21-.173.515-.006.775.173.269.466.4.734.324 0 0-.01.02-.014.023.133-.051.37-.11.8-.214zm-2.696-2.252c-.046-1.08-.365-5.895-.403-6.118a.572.572 0 00-.434-.404c-.684-.173-3.304.574-3.79 1.083-.155.165-.213.369-.167.548.076.16 3.323 5.348 3.323 5.348.48.79.871.668.999.628.127-.04.516-.163.472-1.085z" fill="#D32200"/>
</symbol><symbol id="social__youtube">
    <path fill-rule="evenodd" clip-rule="evenodd" d="M0 15C0 6.716 6.716 0 15 0c8.284 0 15 6.716 15 15 0 8.284-6.716 15-15 15-8.284 0-15-6.716-15-15z" fill="#fff"/>
    <path fill-rule="evenodd" clip-rule="evenodd" d="M13.221 17.213v-4.794l4.577 2.405-4.577 2.389zm10.109-5.625s-.166-1.175-.676-1.693c-.646-.68-1.37-.683-1.703-.722C18.572 9 15.004 9 15.004 9h-.008s-3.568 0-5.947.173c-.333.04-1.057.042-1.704.722-.51.518-.675 1.694-.675 1.694s-.17 1.38-.17 2.76v1.295c0 1.381.17 2.762.17 2.762s.166 1.175.675 1.693c.647.68 1.497.658 1.875.73C10.58 20.958 15 21 15 21s3.572-.005 5.951-.178c.332-.04 1.057-.043 1.703-.723.51-.518.676-1.693.676-1.693s.17-1.38.17-2.762V14.35c0-1.38-.17-2.761-.17-2.761z" fill="#CE1312"/>
</symbol></svg>