<svg width="97" height="60" viewBox="0 0 97 60" fill="none" xmlns="http://www.w3.org/2000/svg">
<path d="M34.4 -1.19209e-05C40 -1.19209e-05 43.8667 1.33332 46 4C48.2667 6.53333 49.4 9.26666 49.4 12.2C49.4 13.4 49.2667 14.8 49 16.4C48.7333 17.8667 48.4667 19.3333 48.2 20.8C47.5333 23.8667 46.4 27.1333 44.8 30.6C43.2 34.0667 41.1333 37.5333 38.6 41C36.2 44.4667 33.4 47.8667 30.2 51.2C27 54.5333 23.6 57.4667 20 60H0.2C5.8 55.7333 10.4667 51.6 14.2 47.6C17.9333 43.6 21.2 39.0667 24 34C20.2667 33.2 17.6 31.7333 16 29.6C14.5333 27.4667 13.8 25.2667 13.8 23C13.8 21.9333 13.9333 20.6 14.2 19C14.6 17.2667 14.9333 15.6667 15.2 14.2C16 10.2 18 6.86666 21.2 4.19999C24.4 1.39999 28.8 -1.19209e-05 34.4 -1.19209e-05ZM81.2 -1.19209e-05C86.8 -1.19209e-05 90.6667 1.33332 92.8 4C95.0667 6.53333 96.2 9.26666 96.2 12.2C96.2 13.4 96.0667 14.8 95.8 16.4C95.5333 17.8667 95.2667 19.3333 95 20.8C94.3333 23.8667 93.2 27.1333 91.6 30.6C90 34.0667 87.9333 37.5333 85.4 41C83 44.4667 80.2 47.8667 77 51.2C73.8 54.5333 70.4 57.4667 66.8 60H47C52.6 55.7333 57.2667 51.6 61 47.6C64.7333 43.6 68 39.0667 70.8 34C67.0667 33.2 64.4 31.7333 62.8 29.6C61.3333 27.4667 60.6 25.2667 60.6 23C60.6 21.9333 60.7333 20.6 61 19C61.4 17.2667 61.7333 15.6667 62 14.2C62.8 10.2 64.8 6.86666 68 4.19999C71.2 1.39999 75.6 -1.19209e-05 81.2 -1.19209e-05Z" fill="white"/>
</svg>
