<svg width="30" height="30" viewBox="0 0 30 30" fill="none" xmlns="http://www.w3.org/2000/svg">
<path fill-rule="evenodd" clip-rule="evenodd" d="M0 15C0 6.71573 6.71573 0 15 0C23.2843 0 30 6.71573 30 15C30 23.2843 23.2843 30 15 30C6.71573 30 0 23.2843 0 15Z" fill="white"/>
<path fill-rule="evenodd" clip-rule="evenodd" d="M12.1212 9.00481C8.9672 8.90181 6.0692 11.6088 6.0162 14.6998C5.8152 17.2268 7.5092 19.7048 9.9032 20.5978C12.2872 21.4978 15.3442 20.8848 16.8662 18.7848C17.8722 17.4588 18.0882 15.7508 17.9712 14.1468C17.9712 14.1468 14.0702 14.1408 12.1212 14.1468C12.1186 14.7301 12.1205 15.3089 12.1223 15.8909C12.1226 15.9895 12.1229 16.0881 12.1232 16.1868C12.8387 16.2095 13.5553 16.2119 14.2716 16.2143C14.7227 16.2157 15.1737 16.2172 15.6242 16.2238C15.1102 18.7588 11.5912 19.5818 9.7302 17.9258C7.8162 16.4728 7.9072 13.2878 9.8972 11.9388C11.2882 10.8498 13.2662 11.1188 14.6572 12.0618C15.2042 11.5658 15.7152 11.0358 16.2092 10.4858C15.0512 9.58081 13.6312 8.93581 12.1212 9.00481ZM23.0006 12H21.0026C20.9986 12.3756 21.0001 12.7534 21.0016 13.1317C21.0028 13.4212 21.0039 13.7109 21.0026 14C20.7061 14.0013 20.4086 14.0003 20.1113 13.9993C19.7397 13.998 19.3684 13.9967 18.9996 14V15.999C19.3316 16.0025 19.6667 16.0008 20.0016 15.999C20.3364 15.9973 20.6711 15.9955 21.0026 15.999C21.0062 16.339 21.0045 16.6822 21.0029 17.0253C21.0013 17.3512 20.9997 17.677 21.0026 18H23.0006C23.0019 17.7129 23.0008 17.4244 22.9996 17.1353C22.9981 16.7567 22.9966 16.3772 23.0006 15.999C23.3337 15.9955 23.6678 15.9973 24.0016 15.999C24.3351 16.0008 24.6682 16.0025 24.9996 15.999V14C24.6766 13.9971 24.3513 13.9987 24.0259 14.0003C23.6833 14.0019 23.3406 14.0036 23.0006 14C22.9966 13.6242 22.9981 13.2448 22.9996 12.8659C23.0008 12.5764 23.0019 12.2872 23.0006 12Z" fill="#DD4241"/>
</svg>
