<svg width="30" height="30" viewBox="0 0 30 30" fill="none" xmlns="http://www.w3.org/2000/svg">
<path fill-rule="evenodd" clip-rule="evenodd" d="M0 15C0 6.71573 6.71573 0 15 0C23.2843 0 30 6.71573 30 15C30 23.2843 23.2843 30 15 30C6.71573 30 0 23.2843 0 15Z" fill="white"/>
<path d="M23.1646 11.4334C23.0904 13.1044 21.9207 15.3927 19.6602 18.2983C17.3255 21.3339 15.3482 22.8517 13.7329 22.8517C12.7303 22.8517 11.8855 21.9281 11.1939 20.0807C10.7298 18.3865 10.2703 16.6923 9.80611 14.9982C9.29089 13.1508 8.74318 12.2271 8.1537 12.2271C8.02374 12.2271 7.5735 12.4963 6.80764 13.0348L6 11.9951C6.84941 11.2524 7.6849 10.5051 8.50646 9.76244C9.63901 8.78771 10.4838 8.27249 11.0501 8.22143C12.3868 8.09147 13.2084 9.00586 13.5194 10.96C13.8536 13.0719 14.0857 14.3808 14.2156 14.8961C14.6009 16.6459 15.0233 17.5186 15.4874 17.5186C15.8448 17.5186 16.3879 16.9523 17.1073 15.8151C17.8268 14.6779 18.212 13.8146 18.2631 13.2204C18.3652 12.2411 17.98 11.749 17.1073 11.749C16.6942 11.749 16.2719 11.8419 15.8355 12.0322C16.6803 9.27043 18.291 7.92437 20.6721 8.00328C22.4359 8.05433 23.2667 9.19617 23.1646 11.4334Z" fill="#1AB7EA"/>
</svg>
