<svg width="16" height="15" viewBox="0 0 16 15" fill="none" xmlns="http://www.w3.org/2000/svg">
<path d="M7.04894 0.927067C7.3483 0.00575608 8.6517 0.00575656 8.95106 0.927067L10.0206 4.21886C10.1545 4.63089 10.5385 4.90985 10.9717 4.90985H14.4329C15.4016 4.90985 15.8044 6.14946 15.0207 6.71886L12.2205 8.75331C11.87 9.00795 11.7234 9.45932 11.8572 9.87134L12.9268 13.1631C13.2261 14.0844 12.1717 14.8506 11.388 14.2812L8.58778 12.2467C8.2373 11.9921 7.7627 11.9921 7.41221 12.2467L4.61204 14.2812C3.82833 14.8506 2.77385 14.0844 3.0732 13.1631L4.14277 9.87134C4.27665 9.45932 4.12999 9.00795 3.7795 8.75331L0.979332 6.71886C0.195619 6.14946 0.598394 4.90985 1.56712 4.90985H5.02832C5.46154 4.90985 5.8455 4.63089 5.97937 4.21886L7.04894 0.927067Z" fill="white"/>
</svg>
