<svg width="1400" height="658" viewBox="0 0 1400 658" fill="none" xmlns="http://www.w3.org/2000/svg">
<path opacity="0.1" d="M1159.3 497.403C765.044 476.065 367.809 468.76 -25.5765 430.664C-117.929 421.72 -218.421 387.941 -251.923 323.672C-289.852 250.913 -251.187 207.015 -152.153 178.891C-22.6009 142.1 127.014 134.872 267.587 129.379C471.851 121.398 679.085 118.509 884.696 128.891C1021.89 135.819 1161.24 146.435 1295.24 173.002C1346.87 183.239 1423.45 198.945 1455.22 233.408C1511.61 294.567 1401.74 349.492 1340.78 377.471C1265.54 412.004 1175.67 431.468 1089.79 451.207C976.702 477.202 865.712 495.7 744.988 501.074C503.954 511.802 267.602 495.484 25.9612 478.649C-144.124 466.799 -360.084 439.624 -344.371 292.905C-336.949 223.603 -229.769 185.776 -138.685 177.701C-52.3095 170.043 36.1138 178.324 123.206 184.392C256.695 193.692 391.978 199.083 523.512 221.708C716.409 254.888 936.88 307.394 1095.89 395.682C1163.28 433.095 1223.18 479.505 1220.59 539.986C1218.01 600.111 1125.96 610.63 1050.03 612.028C840.922 615.878 616.049 584.626 422.124 524.19C203.184 455.959 -8.98412 369.842 -219.157 288.858C-298.94 258.116 -406.437 219.485 -446.545 158.38C-553.434 -4.46288 231.499 71.5238 306.947 76.7803C439.4 86.0084 572.44 93.2507 703.911 110.823C879.717 134.32 1054.14 168.845 1226.63 203.494C1286.07 215.434 1528.85 237.502 1455.05 319.145C1350.54 434.759 1127.13 453.789 942.064 464.632C610.665 484.049 274.804 481.599 -57.7023 494.714C-208.413 500.658 -353.409 501.478 -504.962 490.919C-581.277 485.602 -671.888 470.93 -735.421 436.55C-774.788 415.247 -767.103 363.252 -751.596 335.687C-726.458 291.002 -646.405 262.747 -584.788 246.964C-493.531 223.59 -389.079 205.701 -291.319 197.474C-94.0433 180.872 115.326 202.468 313.446 220.452C594.758 245.987 888.327 306.983 1130.85 419.099C1235.78 467.608 1336.15 521.154 1441.63 569.374C1479.2 586.548 1520.12 617.351 1559.71 629.293" stroke="#B3304A" stroke-width="4" stroke-linecap="round" stroke-linejoin="round"/>
</svg>
