<svg width="433" height="364" viewBox="0 0 433 364" fill="none" xmlns="http://www.w3.org/2000/svg">
<g opacity="0.25">
<path fill-rule="evenodd" clip-rule="evenodd" d="M413.492 363C412.34 354.705 410.939 346.298 409.429 340.985C407.246 333.193 406.016 324.168 405.959 315.031C411.22 313.125 412.227 309.257 413.011 300.68C413.57 294.57 414.466 284.424 411.835 278.762C411.668 278.37 411.276 278.146 410.884 278.09C410.492 278.09 410.101 278.258 409.877 278.594C409.317 279.435 408.869 280.332 408.422 281.229C407.918 277.585 406.855 274.11 404.896 271.195C413.458 272.764 419.726 271.755 424.147 268.112C431.982 261.609 431.982 247.763 431.982 234.422V227.135L431.983 226.841C432.095 202.563 432.234 172.421 411.612 157.793C410.324 156.84 409.037 155.887 407.862 154.878C409.093 154.654 410.324 154.598 411.555 154.598C412.171 154.598 412.619 154.149 412.675 153.533C412.731 152.916 412.283 152.412 411.668 152.356C393.368 150.842 391.241 122.646 389.842 104.035C389.507 99.6067 389.227 95.7387 388.78 92.7678C388.276 89.4043 388.22 85.4244 388.164 81.2203C388.052 71.4664 387.884 60.3672 381.337 54.257C375.908 49.212 368.913 47.8667 361.918 48.7076C351.173 46.6335 339.03 53.0238 332.538 58.125C332.51 58.1529 332.482 58.1669 332.455 58.181C332.427 58.195 332.399 58.2091 332.37 58.2372C330.747 59.078 329.125 60.1429 327.557 61.5445C319.835 68.3834 315.302 80.5475 314.91 88.5074C314.743 91.5905 314.966 94.5617 315.414 97.5326C315.19 98.8217 314.966 100.111 314.91 101.456C314.464 108.216 316.185 114.307 317.859 120.23L317.876 120.291C320.786 130.606 323.249 139.519 313.623 148.936C313.344 149.216 313.231 149.553 313.288 149.945C313.344 150.338 313.623 150.618 313.959 150.786C314.407 150.954 314.966 151.122 315.526 151.178C308.979 153.645 302.655 156.784 299.577 164.464C292.246 183.018 289.168 204.264 286.258 224.836C285.475 230.61 284.691 236.104 283.796 241.485C281.11 258.078 284.747 269.065 295.66 276.969C306.013 284.536 306.852 296.869 306.236 309.089C306.15 310.702 306.049 312.315 305.948 313.92C305.853 315.439 305.758 316.951 305.677 318.45C304.949 329.774 304.222 341.545 305.397 353.373C305.773 357.059 306.025 360.172 306.214 363H308.474C308.277 360.141 308.013 356.99 307.635 353.261C306.46 341.602 307.188 329.942 307.915 318.675C308.139 315.648 308.307 312.452 308.475 309.313C308.922 300.456 308.587 290.871 304.11 283.135C312 279.659 314.519 267.832 312.728 260.544C312.623 260.096 312.493 259.673 312.35 259.269C312.188 258.813 312.011 258.381 311.832 257.966C314.519 254.546 317.093 252.64 318.548 253.089C319.275 253.313 320.898 254.546 320.954 261.665C321.066 270.298 318.772 278.594 316.534 286.666C314.743 293.113 312.896 299.784 312.28 306.566C310.658 323.327 311.889 342.274 313.176 355.223C313.399 357.466 313.511 359.483 313.623 361.445L313.629 361.544C313.659 362.037 313.688 362.522 313.719 363H315.907C315.874 362.486 315.842 361.959 315.81 361.419L315.806 361.333C315.753 360.408 315.7 359.457 315.636 358.47C315.564 357.365 315.476 356.213 315.358 354.999C314.071 342.162 312.896 323.383 314.463 306.791C315.078 300.176 316.869 293.617 318.604 287.283C320.898 279.043 323.193 270.578 323.137 261.665C323.137 258.022 322.689 255.331 321.85 253.537C328.005 257.853 335.224 261.329 340.821 260.656C339.142 261.329 337.687 262.114 336.567 263.123C332.322 266.928 331.478 277.994 330.863 286.063L330.86 286.106C330.692 288.18 330.58 289.974 330.412 291.319C329.236 300.344 331.531 306.678 337.91 312.508C349.688 323.243 370.539 320.26 387.362 317.852L387.492 317.834C391.578 317.217 395.383 316.712 398.796 316.376C399.748 316.32 400.587 316.208 401.371 316.096C399.021 328.54 397.565 339.808 396.894 350.739C396.667 354.453 398.304 358.703 400.905 363H403.614C400.775 358.65 398.924 354.373 399.132 350.795C399.804 339.808 401.315 328.428 403.721 315.816C403.833 324.897 405.064 333.866 407.303 341.545C408.746 346.644 410.112 354.841 411.243 363H413.492ZM338.135 264.804C341.268 262.002 347.368 261.049 354.419 261.049C358.952 261.049 363.821 261.441 368.578 261.946C371.053 262.557 373.508 263.21 375.955 263.879C377.546 264.313 379.134 264.755 380.721 265.197L381.136 265.312C387.888 267.182 394.794 269.094 401.539 270.522C402.042 271.027 402.49 271.587 402.881 272.204C405.624 276.296 406.519 281.621 406.463 287.059C405.973 289.296 405.695 291.587 405.423 293.827L405.4 294.01C405.313 294.648 405.226 295.302 405.14 295.954L404.896 297.766C404.696 298.97 404.54 300.219 404.39 301.432L404.337 301.858C403.385 305.95 402.546 309.93 401.819 313.742C400.867 313.91 399.804 314.022 398.628 314.134C395.159 314.47 391.298 315.031 387.213 315.591C370.816 317.946 350.446 320.861 339.422 310.827C333.546 305.501 331.587 299.952 332.65 291.599C332.806 290.626 332.907 289.437 333.011 288.107C333.056 287.521 333.102 286.908 333.154 286.274L333.156 286.251C333.715 278.964 334.557 267.996 338.135 264.804ZM405.959 312.62C406.016 309.145 406.183 305.669 406.575 302.25C406.687 301.802 406.799 301.297 406.911 300.793C407.862 296.756 408.59 292.104 408.702 287.395C409.149 285.489 409.709 283.639 410.548 281.902C411.947 287.339 411.22 295.692 410.772 300.456C410.101 307.8 409.485 310.995 405.959 312.62ZM303.495 280.893C301.927 276.913 305.565 267.103 310.266 260.096L310.333 260.295C310.421 260.548 310.501 260.781 310.545 261.049C312.057 267.271 310.042 277.753 303.495 280.893ZM301.704 165.417C304.725 157.849 311.161 155.214 318.212 152.748C316.925 154.205 315.694 155.663 314.463 157.008C312.448 159.475 310.658 161.549 309.259 162.894C308.867 163.231 308.811 163.791 309.034 164.239C309.258 164.688 309.762 164.912 310.266 164.8C312.224 164.296 314.966 164.464 317.932 164.576C320.786 164.744 323.92 164.856 326.662 164.408C325.599 167.435 324.312 170.406 323.081 173.433C318.884 183.523 314.575 194.005 314.855 206.338C314.855 207.627 315.078 208.916 315.302 210.206C312.504 209.365 308.979 209.477 305.397 210.542C304.949 210.71 304.669 211.103 304.614 211.551C304.502 213.064 303.998 215.251 303.495 217.605L303.458 217.77C302.011 224.231 300.39 231.474 303.886 234.142C304.162 234.367 304.459 234.548 304.784 234.689C305.186 234.863 305.63 234.977 306.124 235.039C304.166 237.113 302.543 239.523 301.704 242.55C299.913 249.053 302.823 251.631 305.621 254.098C306.908 255.219 308.139 256.34 309.146 257.853C309.128 257.872 309.11 257.896 309.092 257.922C309.054 257.976 309.016 258.04 308.979 258.078C304.949 263.795 300.864 272.821 300.92 278.819C299.801 277.585 298.514 276.408 297.003 275.343C286.762 267.887 283.46 257.91 286.034 241.99C286.874 236.552 287.657 231.059 288.497 225.285C291.407 204.824 294.429 183.691 301.704 165.417ZM405.176 269.009L402.658 268.504C399.804 265.645 395.886 263.851 391.018 263.235C389.451 263.011 387.548 262.73 385.31 262.338C380.553 261.553 374.789 260.544 368.857 259.872C362.086 258.134 355.371 256.676 348.711 255.948C351.317 251.838 350.737 246.352 350.236 241.617L350.222 241.485C349.775 237.393 349.383 233.469 351.117 231.731C352.236 230.61 354.195 230.274 357.105 230.61C370.032 232.124 384.078 237.393 396.446 242.102L397.006 242.326C397.528 242.513 398.074 242.724 398.629 242.944L399.468 243.279C399.244 248.044 399.86 252.36 402.098 254.49C404.337 256.62 407.75 256.452 412.227 253.929C412.563 253.705 412.787 253.313 412.787 252.921C412.731 247.371 406.911 243.952 401.762 241.765C402.378 234.926 404.505 227.135 405.959 224.164C407.778 220.355 410.139 217.09 412.454 213.887L412.563 213.737C417.823 206.506 422.748 199.723 421.573 188.063C420.342 175.731 411.276 163.399 399.58 156.896C399.635 156.868 399.691 156.854 399.747 156.84C399.803 156.826 399.859 156.812 399.915 156.784C401.594 156.279 403.273 155.831 405.008 155.439C406.687 156.896 408.422 158.298 410.324 159.643C430.079 173.713 429.911 203.311 429.743 227.135V234.422C429.799 247.315 429.799 260.6 422.748 266.43C418.886 269.625 413.122 270.522 405.176 269.009ZM388.816 265.182L387.828 264.917C388.947 265.085 389.899 265.253 390.794 265.365C393.2 265.757 395.327 266.374 397.174 267.327C394.369 266.675 391.61 265.933 388.816 265.182ZM344.346 259.759C345.409 259.255 346.305 258.638 347.032 257.966C349.271 258.134 351.509 258.47 353.748 258.863C350.334 258.919 347.144 259.143 344.346 259.759ZM310.601 235.487C311.049 234.814 312.168 234.59 313.623 234.59C316.757 234.59 321.626 235.711 325.431 236.608L326.161 236.775C330.311 237.725 334.194 238.614 336.679 238.402C337.015 238.402 337.351 238.178 337.519 237.897C337.613 237.74 337.654 237.546 337.653 237.347C337.651 237.193 337.624 237.035 337.575 236.888C336.513 234.314 333.891 232.913 331.377 231.57L331.363 231.563C330.524 231.115 329.684 230.666 328.956 230.218L331.475 229.545C338.19 227.807 342.5 226.91 344.906 231.899C347.76 237.729 345.689 250.566 342.052 255.891C341.828 256.228 341.828 256.62 341.996 257.013C342.098 257.217 342.281 257.4 342.498 257.513C342.639 257.586 342.793 257.629 342.947 257.629H343.339C343.261 257.707 343.184 257.758 343.086 257.801C343.044 257.819 342.998 257.836 342.947 257.853C334.721 261.553 316.981 248.772 312.392 241.373C309.874 237.337 310.322 235.88 310.601 235.487ZM303.886 243.167C304.725 240.364 306.236 238.178 308.139 236.16C308.083 237.785 308.867 239.859 310.545 242.662C311.944 244.961 314.743 247.931 318.268 250.846H318.1C315.47 250.846 312.672 253.481 310.601 256.004C309.538 254.546 308.307 253.425 307.132 252.416C304.39 250.006 302.431 248.268 303.886 243.167ZM346.193 255.611C345.801 255.555 345.409 255.499 345.018 255.499C346.585 252.472 347.816 248.268 348.319 244.064C348.767 248.436 348.767 252.696 346.193 255.611ZM403.609 252.808C402.042 251.295 401.539 247.988 401.65 244.12C405.792 245.97 410.044 248.548 410.492 252.248C407.303 253.929 405.008 254.098 403.609 252.808ZM355.943 228.219C355.689 228.207 355.442 228.2 355.202 228.2C352.684 228.2 350.837 228.816 349.663 230.162C348.767 231.059 348.263 232.18 347.984 233.469C347.76 232.572 347.48 231.731 347.088 231.003C345.465 227.695 343.115 226.35 340.429 226.069C343.469 218.374 344.38 209.53 345.264 200.943L345.298 200.62C346.529 188.344 347.816 175.675 355.147 165.473C358.169 161.269 366.227 154.373 372.886 151.178C373.558 151.963 374.285 152.692 375.069 153.421C369.585 155.102 364.66 158.634 360.687 163.959C360.209 164.629 359.65 165.136 359.079 165.653L358.784 165.921C358.169 166.426 357.553 166.93 356.993 167.603C356.713 167.883 356.658 168.276 356.77 168.668C356.881 169.004 357.161 169.284 357.553 169.397C360.071 170.069 363.149 170.294 366.339 170.518C368.913 170.742 371.599 170.91 374.005 171.359C376.132 171.751 378.314 172.312 380.665 172.872L380.824 172.911C385.978 174.189 391.292 175.505 396.222 175.339C396.782 175.282 397.23 174.834 397.285 174.274C397.565 170.63 395.271 164.296 391.969 158.69C393.48 158.466 394.991 158.186 396.446 157.793C408.534 163.511 418.159 175.955 419.39 188.288C420.509 199.106 415.809 205.609 410.828 212.448C408.422 215.755 405.959 219.175 404.001 223.211C402.826 225.621 400.42 233.469 399.692 240.868C399.278 240.696 398.886 240.544 398.515 240.401C398.283 240.312 398.06 240.226 397.845 240.14L397.285 239.916L396.622 239.667C384.253 235.019 370.36 229.799 357.385 228.312C356.881 228.276 356.401 228.24 355.943 228.219ZM325.935 234.422C321.85 233.469 317.876 232.572 314.743 232.404C314.764 232.404 314.777 232.404 314.783 232.397C314.79 232.387 314.777 232.361 314.743 232.292C320.339 229.209 321.234 225.285 320.562 221.193C322.018 216.764 320.786 214.073 319.387 212.56C318.94 212.111 318.436 211.663 317.821 211.271C317.373 209.645 317.093 207.964 317.037 206.226C316.759 194.407 320.964 184.251 325.028 174.436L325.096 174.274L325.781 172.588C327.002 169.591 328.199 166.655 329.236 163.679C330.3 163.286 331.251 162.726 332.034 161.941C328.901 183.074 324.759 213.177 332.594 223.379C333.546 224.612 334.609 225.565 335.84 226.182C334.217 226.462 332.538 226.91 330.915 227.359C329.348 227.751 327.726 228.2 326.158 228.48C325.767 228.592 325.431 228.872 325.319 229.265C325.246 229.523 325.269 229.804 325.373 230.047C325.427 230.174 325.503 230.29 325.599 230.386C326.942 231.675 328.677 232.628 330.355 233.525C331.923 234.366 333.378 235.151 334.385 236.104C332.034 235.823 328.956 235.151 325.935 234.422ZM305.677 218.054C306.124 216.036 306.572 214.073 306.796 212.504C310.322 211.607 313.679 211.775 315.918 212.784C316.17 213.67 316.423 214.524 316.676 215.346C316.759 215.617 316.842 215.884 316.925 216.148L317.146 216.829C317.628 218.312 318.081 219.711 318.324 221.024C318.296 221.081 318.267 221.152 318.239 221.223C318.211 221.292 318.184 221.362 318.156 221.417C316.634 225.121 313.791 227.713 310.756 230.479L310.49 230.722C309.874 231.283 309.202 231.899 308.531 232.516C306.74 232.965 305.789 232.684 305.229 232.292C302.897 230.513 304.476 223.439 305.648 218.183L305.677 218.054ZM318.156 226.126C317.261 227.359 316.254 228.48 315.19 229.545C316.701 228.48 317.596 227.359 318.156 226.126ZM336.903 141.537C336.903 141.313 336.847 141.144 336.736 140.976C336.768 140.911 336.801 140.826 336.834 140.723C336.857 140.649 336.88 140.565 336.903 140.472C338.129 136.174 335.583 131.71 332.909 127.023L332.874 126.962C331.531 124.496 330.076 121.973 329.013 119.338C324.704 108.463 321.626 92.7678 325.935 81.4443C326.22 80.7148 326.612 80.0392 327.062 79.3868C327.406 78.8861 327.785 78.3996 328.173 77.913C330.02 77.9689 332.091 77.4644 334.217 76.9038C336.567 76.2871 339.03 75.7267 341.044 75.8948C351.789 76.9599 358 84.4155 364.604 92.3754C365.723 93.6646 366.842 95.0661 367.962 96.3553C368.353 96.8038 369.081 96.8598 369.529 96.4674C371.543 94.8419 373.614 94.2253 375.181 94.8419C376.636 95.3463 377.699 96.916 378.091 99.1581C378.703 102.784 376.989 104.634 374.821 106.971L374.789 107.006C374.005 107.847 373.222 108.688 372.438 109.697C366.451 117.657 364.38 126.121 365.947 136.323C366.563 140.472 368.521 145.18 371.543 149.216C364.268 152.916 356.154 160.203 353.412 164.015C345.742 174.649 344.42 187.549 343.141 200.026L343.115 200.284L343.109 200.338C342.217 209.119 341.374 217.396 338.526 224.78C336.903 224.444 335.616 223.547 334.497 222.09C326.886 212.224 331.587 180.72 334.721 159.867C336.008 151.515 336.959 144.844 336.903 141.537ZM366.507 168.22C364.212 168.051 362.03 167.939 360.127 167.603C360.127 167.603 360.142 167.589 360.163 167.575C360.184 167.561 360.211 167.547 360.239 167.547C360.967 166.874 361.75 166.201 362.477 165.248C366.507 159.867 371.543 156.448 377.251 155.102C379.042 156.392 380.945 157.401 383.071 158.073C385.254 158.746 387.324 158.914 389.451 158.858C392.473 163.791 394.767 169.565 395.047 173.04C390.682 172.984 385.869 171.807 381.225 170.63C378.874 170.013 376.636 169.453 374.453 169.06C371.935 168.612 369.193 168.388 366.507 168.22ZM318.1 162.334C316.701 162.278 315.358 162.222 314.127 162.222C313.735 162.222 313.399 162.222 313.008 162.278C313.49 161.709 314.001 161.097 314.541 160.457C315.066 159.834 315.618 159.185 316.197 158.522C316.773 157.865 317.361 157.181 317.963 156.483C319.467 154.737 321.05 152.9 322.689 151.178C322.915 151.093 323.127 151.009 323.339 150.924C323.547 150.84 323.755 150.757 323.976 150.674C326.383 150.394 328.677 150.338 330.188 151.122C329.684 154.822 328.733 158.41 327.557 161.941C325.207 162.558 321.961 162.502 318.1 162.334ZM331.532 156.27C331.723 155.475 331.893 154.676 332.034 153.869C332.111 154.331 332.162 154.819 332.168 155.334C332.17 155.569 332.164 155.809 332.146 156.055C332.034 158.073 331.419 159.531 330.355 160.484C330.786 159.084 331.192 157.685 331.532 156.27ZM383.743 155.943C382.679 155.551 381.616 155.102 380.609 154.542C382.512 154.374 384.526 154.43 386.541 154.766C387.044 155.326 387.548 155.999 387.996 156.672C386.597 156.616 385.142 156.392 383.743 155.943ZM390.682 156.56L389.842 155.383C390.031 155.42 390.244 155.458 390.449 155.513C390.549 155.54 390.646 155.57 390.738 155.607C391.466 155.831 392.193 156.055 392.865 156.279C392.137 156.392 391.41 156.504 390.682 156.56ZM388.966 152.868C388.567 152.788 388.17 152.712 387.772 152.636C385.254 149.665 382.568 147.591 380.105 147.142C378.259 146.862 376.02 147.367 373.614 148.32C370.704 144.508 368.745 140.023 368.13 136.043C366.674 126.457 368.578 118.554 374.174 111.098C374.831 110.22 375.596 109.396 376.31 108.625L376.356 108.576C378.65 106.165 381.057 103.587 380.217 98.8217C379.714 95.7387 378.147 93.6086 375.908 92.7678C373.782 91.9831 371.319 92.4314 368.913 94.1131C368.018 93.1042 367.122 92.039 366.283 90.9739L366.177 90.8467C359.606 82.982 352.79 74.8235 341.212 73.7086C338.885 73.4917 336.349 74.1137 333.907 74.7124L333.658 74.7737C332.426 75.0539 331.251 75.3903 330.132 75.5584C330.355 75.2782 330.58 74.9418 330.803 74.6056C331.643 73.2603 332.706 71.0179 333.49 69.3361C333.713 69.168 333.881 68.9438 334.105 68.7195C336.791 65.8607 339.477 63.002 341.1 60.1429C342.835 58.6854 344.85 57.3963 347.032 56.1631C351.341 53.8088 356.601 51.8465 361.918 51.174C364.212 51.6225 366.339 52.5193 368.298 53.9206C378.147 61.04 380.945 76.7916 382.232 88.003L382.244 88.112C382.576 91.1026 382.907 94.0919 383.183 96.9719C385.254 118.105 387.268 138.173 403.106 153.645L399.412 154.654C398.879 154.78 398.363 154.923 397.854 155.064C397.457 155.175 397.063 155.284 396.67 155.383C394.935 154.598 393.144 153.925 391.353 153.421C390.539 153.198 389.748 153.025 388.966 152.868ZM377.755 152.692C376.803 151.907 375.908 151.066 375.069 150.169C376.86 149.497 378.427 149.216 379.713 149.441C381.169 149.665 382.736 150.73 384.358 152.3C382.064 152.131 379.881 152.3 377.755 152.692ZM333.658 151.571C333.378 151.01 333.042 150.562 332.594 150.113C332.762 148.768 332.818 147.367 332.818 145.965C333.433 145.461 333.993 144.956 334.497 144.452C334.329 146.413 334.049 148.824 333.658 151.571ZM321.514 148.712C319.835 148.992 318.1 149.216 316.701 149.16C325.543 139.294 322.857 129.821 320.003 119.843L319.726 118.834C318.522 114.453 317.301 110.005 317.093 105.268C318.995 111.603 321.738 117.657 324.48 123.655C325.319 125.393 326.103 127.186 326.886 128.924C328.901 133.521 330.02 137.781 330.412 141.873C327.557 143.33 324.704 145.797 321.961 148.656C321.877 148.656 321.807 148.67 321.737 148.684C321.667 148.698 321.598 148.712 321.514 148.712ZM330.412 148.768C329.964 148.6 329.516 148.488 329.013 148.376C329.098 148.376 329.151 148.343 329.196 148.303L329.236 148.264C329.684 147.983 330.076 147.759 330.468 147.535C330.468 147.983 330.468 148.375 330.412 148.768ZM327.222 146.806C328.341 145.853 329.461 145.012 330.58 144.339C330.58 144.508 330.58 144.676 330.635 144.844L330.215 145.105C329.608 145.482 328.965 145.882 328.285 146.245C328.122 146.354 327.945 146.45 327.768 146.539C327.581 146.633 327.394 146.72 327.222 146.806ZM326.281 122.106C322.727 114.278 319.073 106.229 317.708 97.7006C318.548 93.4965 320.339 89.4043 322.465 85.4803C320.171 96.6917 323.081 110.369 326.942 120.179C328.061 122.982 329.516 125.561 330.971 128.083C333.546 132.568 335.728 136.436 334.777 139.855C334.749 139.967 334.707 140.065 334.665 140.163C334.623 140.261 334.581 140.359 334.553 140.472C333.881 140.584 333.266 140.696 332.594 140.92C332.091 136.828 330.971 132.568 328.956 128.027C328.535 127.061 328.096 126.11 327.659 125.158C327.285 124.344 326.911 123.529 326.55 122.702L326.281 122.106ZM369.585 52.0708C369.025 51.6785 368.465 51.2861 367.85 50.9497C372.215 51.2861 376.412 52.7996 379.77 55.9947C385.642 61.4293 385.757 71.5111 385.869 81.3163V81.3324C385.925 85.6487 385.981 89.6847 386.541 93.2163C386.971 95.9617 387.246 99.5857 387.564 103.791L387.604 104.315L387.678 105.259C388.219 112.231 388.85 120.358 390.402 127.971C387.548 118.385 386.485 107.903 385.366 96.7476C385.089 93.8048 384.756 90.8068 384.424 87.8086L384.415 87.7228C383.127 76.0629 380.161 59.6946 369.585 52.0708ZM317.149 88.7317C317.373 83.911 319.22 77.4082 322.465 71.6907C322.465 72.2511 322.521 72.8118 322.633 73.3722C322.969 74.9418 323.697 76.1191 324.704 76.9038L324.648 77.0159L324.455 77.3454C321.823 81.8481 319.005 86.6699 317.093 91.7588C317.093 90.7496 317.093 89.7407 317.149 88.7317ZM324.871 72.9239C323.752 68.1591 330.58 62.6094 333.601 60.2551C335.392 59.3582 337.239 58.9097 339.142 58.7976C336.567 60.9838 334.385 63.4502 332.538 66.2531C332.364 66.4278 332.19 66.8066 331.909 67.416C331.83 67.589 331.742 67.7803 331.643 67.9908C329.516 70.3453 327.39 72.6996 325.935 74.998C325.431 74.5495 325.096 73.8769 324.871 72.9239ZM341.044 56.5554C340.653 56.4995 340.205 56.4995 339.813 56.4995C339.697 56.4995 339.587 56.5061 339.482 56.5125C339.283 56.5248 339.1 56.536 338.918 56.4995C343.003 54.0328 347.592 52.127 352.125 51.2299C349.942 52.0708 347.872 53.08 345.913 54.1449C344.402 54.9858 343.003 55.8267 341.66 56.7797C341.492 56.6675 341.268 56.5554 341.044 56.5554Z" fill="white"/>
<path fill-rule="evenodd" clip-rule="evenodd" d="M215.992 363H218.221C218.555 361.585 219.472 360.863 221.175 359.539C222.07 358.867 223.134 358.026 224.365 356.905C233.519 348.686 231.148 337.623 228.86 326.941L228.842 326.859C228.394 324.729 227.946 322.542 227.555 320.412C222.462 291.039 226.324 267.663 231.864 240.196C235.054 224.332 236.397 210.99 232.479 197.313C231.969 195.598 231.458 193.932 230.956 192.305C230.523 190.901 230.096 189.526 229.681 188.176L229.64 188.044C225.853 175.879 222.58 165.369 224.085 152.075C225.988 135.09 220.56 128.98 208.584 119.955C207.297 119.002 205.226 116.984 202.764 114.63L202.718 114.586C195.111 107.303 184.675 97.3088 177.805 97.5326C176.35 97.5326 175.119 98.037 174.112 98.9339C177.637 95.1221 180.156 90.9179 181.219 89.0119C184.912 82.3414 187.822 75.2782 189.501 69.0559C190.928 63.7808 190.256 59.9061 189.544 55.7952L189.501 55.5465C189.166 53.5845 188.774 51.6225 188.662 49.4363C188.606 49.044 188.606 48.6514 188.606 48.259C188.855 48.976 189.104 49.6759 189.362 50.3293C189.569 50.8509 189.781 51.3428 190.005 51.7906C190.173 52.127 190.453 52.3513 190.788 52.4072C191.124 52.4634 191.46 52.4072 191.74 52.1829C198.679 46.4092 200.805 38.0569 197.783 28.5832C193.418 14.8495 178.868 2.0126 166.725 1.05959C154.078 0.106836 132.197 10.7013 125.817 24.0427C122.684 30.3212 123.355 36.5432 127.664 42.1489C125.705 42.9898 124.306 44.2792 123.523 45.9607C121.34 50.7817 124.866 57.9567 126.769 61.7687C127.272 62.7215 127.72 63.6745 128.168 64.5154L128.253 64.684C130.888 69.8511 132.46 72.9344 130.966 79.09C130.939 79.1033 130.909 79.1165 130.878 79.1306C130.777 79.1761 130.659 79.2289 130.574 79.3142C117.307 89.7562 122.975 106.651 127.554 120.301L127.608 120.459C128.28 122.478 128.951 124.44 129.51 126.289C132.437 135.637 135.854 144.821 139.171 153.734L139.304 154.093C141.822 160.82 144.396 167.771 146.746 174.722C146.971 175.227 147.138 175.731 147.306 176.236C147.306 176.746 147.327 177.245 147.365 177.744C147.414 178.395 147.491 179.044 147.586 179.711C148.873 188.176 154.189 199.667 159.842 208.916C160.177 210.878 160.457 212.952 160.513 215.026C160.681 219.343 159.506 223.827 158.275 228.256C153.014 227.975 146.355 230.722 139.36 233.637C132.924 236.328 126.769 238.85 121.62 239.243C119.717 229.489 115.8 220.24 111.939 211.159L111.804 210.84C108.096 202.081 104.249 192.995 102.313 183.635C99.7392 171.022 90.7853 160.035 79.4815 152.019C81.3841 153.14 82.2795 152.804 86.7564 150.954C88.659 150.169 90.2817 149.16 91.8488 148.207C93.8632 147.03 95.7659 145.853 98.1164 145.124C99.3474 144.732 100.523 144.508 101.698 144.283L101.768 144.27C104.545 143.77 107.427 143.251 109.868 140.472C113.148 136.796 113.336 132.788 113.502 129.218L113.505 129.148L113.509 129.082C113.732 124.569 113.927 120.612 119.997 117.376C120.277 117.208 120.501 116.872 120.557 116.536C120.613 116.199 120.501 115.807 120.221 115.583C113.674 109.192 110.428 102.522 110.092 94.7297L110.036 93.945C109.365 78.9779 108.917 69.8968 93.9751 60.9838C82.7831 54.3132 70.6395 47.9788 56.1453 49.6044C41.7074 51.2299 29.9555 58.9659 23.9678 70.7377C20.6661 77.2963 19.4347 83.2944 19.7708 91.3662C19.8264 92.3754 19.8826 93.2163 19.9383 94.001C20.162 96.5796 20.2182 97.869 19.0429 100.055C18.4836 101.008 17.5882 101.456 16.5805 101.961C14.9021 102.802 12.7752 103.867 12.1036 107.399C11.9917 107.791 12.1597 108.183 12.4953 108.463C12.5515 108.52 12.6634 108.632 12.7752 108.688C11.1525 110.089 9.92154 111.995 9.1937 114.293C8.01841 117.881 8.52203 121.749 10.7046 125.505C13.1113 129.709 17.4759 133.24 22.0089 134.922C20.33 136.323 19.2109 138.285 18.8754 140.528C18.3712 143.723 19.5465 147.198 21.8409 149.609C21.2816 151.01 20.8337 152.524 20.3862 154.037C19.2666 157.681 18.1475 161.493 15.7413 165.08C8.0746 176.46 3.03788 191.371 1.47134 207.066C0.0161557 221.641 1.97496 238.963 6.73127 253.425C8.69007 259.311 11.3205 264.917 13.8943 270.354C17.532 278.09 21.2816 286.106 22.9043 294.739C25.2304 306.998 22.7879 322.112 20.6222 335.518L20.5538 335.94C20.162 338.294 19.7708 340.593 19.4347 342.779C18.5311 348.65 17.2751 361.954 17.2751 361.954H19.4735C19.4735 361.954 21.0129 346.934 21.6172 343.059C21.8634 341.457 22.1096 339.824 22.3777 338.139C22.4753 337.525 22.5759 336.905 22.6806 336.276C24.9188 322.598 27.4374 307.071 25.0307 294.29C23.2961 285.321 19.4908 277.193 15.7975 269.345C13.2232 263.964 10.6489 258.358 8.74626 252.64C4.04563 238.458 2.1425 221.473 3.5415 207.235C5.05287 191.931 9.97722 177.357 17.4202 166.258C20.0501 162.39 21.2816 158.241 22.3445 154.598C22.6025 153.785 22.8369 152.973 23.078 152.192C23.2031 151.788 23.3303 151.393 23.4641 151.01C26.1503 152.58 30.4591 153.533 34.6562 154.43L35.1445 154.539C37.7024 155.113 40.0795 155.647 41.7635 156.279C42.5144 156.596 43.7402 156.997 45.2828 157.501C45.9238 157.711 46.62 157.939 47.3596 158.186L47.3933 158.196C55.5819 160.894 74.957 167.274 81.3279 172.816C81.8315 173.545 82.3351 174.218 82.8388 174.946C82.9225 175.087 83.0206 175.213 83.1187 175.339C83.2167 175.465 83.3148 175.591 83.3986 175.731C83.4384 175.811 83.4496 175.891 83.4527 175.972C83.4542 176.004 83.4542 176.035 83.4542 176.067C83.5104 177.805 79.7608 180.047 76.7391 181.897C74.1648 183.467 71.7024 184.924 70.4715 186.55C65.754 192.594 63.9402 201.44 62.7108 207.436L62.6367 207.795C58.7753 226.967 59.3351 246.642 64.2038 261.834C68.9606 276.745 79.0335 293.001 86.8682 303.203C98.5082 318.394 108.973 314.358 124.754 305.894C136.338 299.671 163.479 283.247 165.549 264.188L165.559 264.049C165.612 263.317 165.661 262.631 165.661 261.946C166.445 262.226 167.228 262.45 168.012 262.73C168.594 262.925 169.194 263.119 169.802 263.324C170.247 263.474 170.697 263.63 171.146 263.795C172.703 264.399 174.487 265.41 176.415 266.503L177.078 266.879C180.492 268.897 184.073 270.971 187.151 271.307C193.026 271.98 194.593 268.504 195.041 266.374C196.44 259.311 189.333 246.474 182.786 243.559C183.177 242.27 183.737 240.98 184.297 239.691C185.528 237.001 186.647 234.478 185.416 232.404C184.409 230.722 182.114 229.769 177.917 229.433C176.015 229.265 173.329 230.274 170.53 231.339C167.396 232.516 163.535 233.973 162.192 232.965C161.464 232.46 161.464 231.059 161.576 229.994C161.632 229.489 161.297 228.984 160.793 228.816C160.681 228.816 160.513 228.76 160.345 228.704C161.632 224.22 162.751 219.623 162.584 215.026C162.554 214.727 162.54 214.443 162.525 214.158C162.511 213.91 162.498 213.662 162.472 213.401C163.255 214.578 164.039 215.699 164.822 216.764C164.99 216.988 165.27 217.157 165.549 217.213C165.829 217.269 166.165 217.157 166.389 216.988C177.917 208.019 176.35 178.197 173.72 167.267C172.769 163.455 170.642 158.578 168.348 153.477C164.43 144.732 160.065 134.922 161.184 128.588C165.029 131.155 166.876 137.113 168.661 142.863L168.684 142.938C170.53 148.88 172.321 154.542 176.182 157.064C176.462 157.232 176.91 157.288 177.246 157.12C177.581 156.952 177.805 156.616 177.861 156.224C179.484 141.985 180.771 127.186 178.757 113.34C179.204 109.08 178.757 105.212 176.742 103.643C176.462 102.578 176.127 101.512 175.79 100.503C176.406 100.055 177.078 99.8309 177.861 99.8309C183.821 99.6077 194.161 109.547 201.1 116.218L201.197 116.311C203.827 118.778 205.842 120.74 207.241 121.805C219.72 131.222 223.582 136.884 221.847 151.907C220.285 165.654 223.617 176.393 227.464 188.789L227.499 188.904C228.394 191.819 229.345 194.846 230.241 197.985C233.99 211.215 232.703 224.276 229.57 239.803C223.973 267.495 220.112 291.095 225.26 320.861C225.557 322.52 225.919 324.211 226.272 325.861C226.384 326.385 226.496 326.906 226.604 327.419L226.619 327.489C228.907 338.058 231.063 348.008 222.854 355.335C221.679 356.4 220.728 357.185 219.832 357.858C217.548 359.608 216.332 360.671 215.992 363ZM78.6208 183.429C81.4239 181.667 84.0391 180.023 85.1893 178.085C86.5883 180.047 88.0435 181.953 89.5544 183.915C89.917 184.362 90.2797 184.795 90.6352 185.222C90.9927 185.65 91.3436 186.072 91.6807 186.494L91.7941 186.633C96.5029 192.404 100.6 197.424 103.265 204.376C104.859 208.528 105.292 213.287 105.716 217.932L105.783 218.67L105.795 218.812C106.239 223.925 106.696 229.194 108.581 233.693C110.932 239.355 114.904 241.429 119.661 241.541C120.165 244.848 120.445 248.156 120.389 251.575C119.919 251.973 119.473 252.372 119.05 252.755L118.374 253.369C117.759 253.929 103.377 267.327 105.951 275.119C106.958 278.202 108.413 279.828 110.316 279.828H110.372C115.296 279.828 119.494 268.336 119.549 268.224C121.452 262.842 122.404 257.685 122.571 252.64C131.301 245.129 144.844 236.272 153.63 243.783L154.805 244.792C154.805 248.044 155.421 251.295 157.044 254.49C158.834 258.022 161.073 259.872 163.535 261.049C163.535 262.002 163.535 263.011 163.423 263.964C161.464 281.902 135.051 297.878 123.803 303.932C108.637 312.06 99.5154 315.984 88.7147 301.858C81.048 291.768 71.1431 275.792 66.442 261.161C61.6857 246.306 61.1259 227.022 64.9311 208.244C66.0507 202.47 67.8415 193.725 72.3184 187.951C73.3073 186.685 75.6456 185.257 77.9022 183.879L78.0263 183.803L78.6208 183.429ZM119.886 254.882C119.997 254.77 120.109 254.714 120.221 254.602C119.886 258.75 118.99 263.011 117.423 267.383C115.968 271.531 112.498 277.473 110.372 277.473C109.588 277.417 108.749 276.296 108.077 274.278C106.51 269.569 114.513 259.872 119.886 254.882ZM166.753 259.892C166.376 259.76 166.011 259.624 165.661 259.479C164.99 253.986 162.08 248.716 157.044 243.727C157.155 239.859 158.219 235.935 159.394 231.899C159.562 233.133 160.065 234.03 160.849 234.646C163.187 236.43 167.296 234.887 171.305 233.381L171.37 233.357L171.742 233.221C174.083 232.367 176.423 231.513 177.805 231.619C181.834 231.899 183.178 232.796 183.569 233.469C184.185 234.534 183.29 236.552 182.338 238.682C181.666 240.252 180.827 242.102 180.435 243.952C180.324 244.568 180.659 245.129 181.219 245.297C186.927 246.866 194.146 259.591 192.915 265.87C192.411 268.336 190.62 269.401 187.487 269.009C185.016 268.693 181.951 266.942 178.899 265.197L178.309 264.861L178.16 264.775C175.976 263.517 173.902 262.322 172.041 261.609C171.434 261.406 170.856 261.218 170.301 261.038C169.782 260.869 169.282 260.707 168.795 260.544C168.088 260.332 167.403 260.119 166.753 259.892ZM159.002 253.425C157.939 251.295 157.324 249.221 157.099 247.091C160.345 250.678 162.416 254.378 163.199 258.246C161.576 257.237 160.233 255.779 159.002 253.425ZM122.571 249.613C122.515 246.81 122.292 244.064 121.844 241.373C127.373 240.879 133.705 238.294 139.636 235.873L140.031 235.711C146.187 233.133 152.567 230.498 157.324 230.498H157.435C156.316 234.254 155.253 238.066 154.861 241.878C145.404 233.973 131.861 241.99 122.571 249.613ZM91.289 182.458C89.2745 179.935 87.3718 177.301 85.5811 174.722C85.1893 173.657 84.462 172.648 83.3424 171.695C79.5371 166.314 75.3958 160.82 69.7441 156.224C66.4982 153.533 63.4202 151.571 60.6784 149.833L60.5574 149.756C56.8022 147.379 53.5409 145.313 50.7174 141.985C59.5031 143.779 68.6245 147.591 76.6829 153.028C89.2745 161.549 97.5566 172.592 99.9629 184.14C101.978 193.837 105.895 203.087 109.7 212.056C113.618 221.193 117.367 230.106 119.214 239.299C115.464 239.018 112.443 237.169 110.596 232.796C108.861 228.536 108.413 223.659 107.966 218.446L107.95 218.28C107.507 213.286 107.051 208.136 105.279 203.535C102.481 196.191 98.0602 190.754 93.3596 185.036C92.688 184.195 92.0163 183.355 91.289 182.458ZM163.324 210.497C162.797 209.691 162.271 208.863 161.744 208.019C160.412 201.184 157.555 194.755 154.771 188.491L154.357 187.559C152.622 183.747 150.832 179.823 149.377 175.787C149.27 170.697 150.544 165.351 151.878 159.749L152.167 158.531C153.366 153.514 154.589 148.394 154.861 143.275C155.253 136.211 156.372 130.325 158.554 124.944C161.073 123.935 163.367 121.973 164.319 119.563C164.71 118.554 165.158 116.704 164.43 114.518C164.43 114.49 164.445 114.476 164.459 114.461C164.473 114.447 164.487 114.433 164.487 114.406C165.947 115.921 167.165 117.68 168.456 119.547L168.739 119.955C170.194 122.085 171.705 124.215 173.608 126.289C173.888 126.57 174.28 126.682 174.615 126.626C174.951 126.57 175.287 126.345 175.455 126.009C176.182 124.608 176.854 122.758 177.414 120.796C178.141 131.615 177.246 142.882 176.015 153.813C173.781 151.358 172.449 147.096 171.038 142.58L170.922 142.209C168.795 135.37 166.557 128.307 161.017 125.785C160.737 125.673 160.401 125.673 160.122 125.785C159.842 125.897 159.618 126.177 159.506 126.457C157.155 133.465 162.024 144.508 166.389 154.262L166.501 154.514C168.698 159.465 170.768 164.131 171.593 167.659C174.448 179.711 174.895 205.721 165.941 214.298C165.069 213.109 164.196 211.833 163.324 210.497ZM156.987 199.499C154.805 195.239 152.902 190.866 151.503 186.774C151.783 187.335 152.007 187.895 152.287 188.456L152.618 189.184C154.185 192.634 155.733 196.042 156.987 199.499ZM129.51 119.675C125.202 106.894 120.389 92.4876 129.622 82.958C129.063 84.4155 128.559 85.7046 128 86.9378L127.972 87.0053C125.803 92.3545 124.098 96.5571 127.832 104.54C129.679 108.463 132.42 112.163 135.051 115.695C137.457 118.946 139.751 121.973 141.43 125.224C141.598 125.561 141.934 125.785 142.326 125.841C142.717 125.897 143.109 125.729 143.333 125.393C144.62 123.655 146.243 121.637 148.145 119.675C148.817 124.047 151.783 125.168 153.182 125.505C154.022 125.673 154.917 125.729 155.813 125.617C153.91 130.774 152.902 136.436 152.567 143.162C152.287 148.207 151.056 153.365 149.824 158.41C148.873 162.334 147.922 166.314 147.418 170.294C145.404 164.52 143.277 158.802 141.207 153.252C137.849 144.283 134.379 134.978 131.469 125.561C130.854 123.655 130.182 121.749 129.51 119.675ZM35.2716 152.3C31.1865 151.459 26.6539 150.45 24.4152 148.936C26.4297 144.228 29.7875 141.144 38.8532 140.808C41.5955 140.696 44.5054 140.92 47.4152 141.313C50.8466 146.136 54.8801 148.711 59.2983 151.532L59.447 151.627L59.686 151.78C62.4104 153.526 65.2463 155.344 68.3451 157.849C72.0385 160.82 75.0045 164.127 77.6907 167.603C70.3596 163.511 59.0552 159.587 48.1987 156.055C45.7363 155.271 43.778 154.598 42.7146 154.205C40.812 153.477 38.1258 152.916 35.2716 152.3ZM63.3646 97.9249C63.9239 97.7006 64.4837 97.5885 65.0992 97.5885C66.255 97.5885 67.5161 97.9775 68.8554 98.3903C69.2022 98.4973 69.5546 98.6059 69.9116 98.7098C72.0942 99.4945 74.3329 100.279 76.4035 99.8869C81.5516 98.8779 82.0552 95.2904 82.5032 91.8709L82.5093 91.825C82.7872 89.7095 83.0722 87.5404 84.4058 85.5925C86.0285 83.1822 89.4982 82.005 92.856 80.8839L92.8606 80.8823C96.4406 79.7056 99.8515 78.5845 100.97 75.8948C101.586 74.4373 101.474 72.8677 100.635 71.3543C96.3257 63.7307 73.7174 57.9567 69.1843 57.2841C56.4809 55.4343 42.0429 55.3781 31.1865 68.9438C25.5905 75.951 22.3445 84.4155 21.8409 92.4876C21.8409 92.2227 21.8154 91.9325 21.799 91.6339C21.7908 91.4898 21.7852 91.344 21.7852 91.1981C21.4491 83.5746 22.6244 77.913 25.7585 71.6907C31.4102 60.5355 42.4909 53.304 56.2015 51.7347C70.0235 50.1089 81.3279 56.0509 92.6323 62.7777C106.51 71.0741 106.902 79.2021 107.574 93.945L107.63 94.7297C107.966 102.69 111.099 109.472 117.367 116.031C111.443 119.782 111.212 124.427 110.989 128.906L110.987 128.924C110.819 132.4 110.652 135.707 107.909 138.846C105.999 141.034 103.768 141.46 101.218 141.948L101.026 141.985C100.274 142.122 99.5016 142.259 98.7074 142.447C98.2017 142.567 97.6874 142.708 97.1649 142.882C94.5906 143.667 92.4642 144.956 90.4498 146.189C88.8827 147.142 87.3718 148.039 85.6929 148.768C82.6666 150.034 81.712 150.434 80.9264 150.218C80.5643 150.119 80.2379 149.889 79.7608 149.553C79.0335 149.048 77.9701 148.32 76.2912 147.479C72.3184 145.461 68.6807 142.994 65.2672 139.855C60.4542 135.483 57.8242 129.709 58.7196 125.505C59.3913 122.478 61.7975 120.235 65.8827 118.89C66.442 118.722 66.7219 118.161 66.61 117.601C66.1626 115.639 64.8754 113.621 63.5883 111.546L63.5469 111.481C61.5462 108.307 59.5103 105.079 60.5661 101.961C61.2939 99.8309 62.1893 98.4856 63.3646 97.9249ZM11.2082 114.966C11.9917 112.612 13.2788 110.986 14.6778 109.921C15.9093 110.538 17.1403 111.042 18.4274 111.491C20.5538 112.331 22.5126 113.172 24.1353 114.574C26.0941 116.311 27.2694 118.498 28.5003 120.796C29.34 122.366 30.2354 123.991 31.3545 125.449C33.9845 128.756 36.167 130.269 38.1258 129.933C38.965 129.821 39.6929 129.317 40.2522 128.532C41.7074 130.55 42.9945 132.624 44.0017 134.922C44.3603 135.771 44.7378 136.563 45.1234 137.309C45.3997 137.843 45.6801 138.354 45.9605 138.846C43.5543 138.566 41.2037 138.51 38.9094 138.566C29.1158 138.902 25.0869 142.49 22.7925 147.254C21.3935 145.461 20.7218 143.05 21.0574 140.808C21.4491 138.341 22.9043 136.492 25.1987 135.539C25.4337 135.45 25.6221 135.285 25.7406 135.075C25.8479 134.884 25.8969 134.657 25.8704 134.417C25.8142 133.913 25.4786 133.521 24.975 133.409C20.1063 132.4 15.1258 128.756 12.5515 124.327C11.2644 122.141 9.97722 118.722 11.2082 114.966ZM69.2962 145.965C62.5811 142.658 55.5855 140.304 48.7586 139.238C47.7513 137.781 46.7997 136.043 46.0162 134.025C44.7291 131.166 43.0502 128.532 41.1475 126.065C41.8754 122.141 40.4764 115.919 37.1743 112.163C34.4881 109.08 30.4592 106.894 26.3178 105.941C26.2621 105.829 26.206 105.661 26.1503 105.548C21.8409 95.0661 24.6389 80.9398 33.0891 70.4013C43.2182 57.7327 56.3691 57.7327 69.0163 59.5825C75.1164 60.4793 95.4303 66.4773 98.7876 72.5316C99.2917 73.4284 99.3474 74.2131 99.0118 75.0539C98.3167 76.7135 95.5805 77.6573 92.6553 78.6665L92.2405 78.8098C88.7147 79.9868 84.6857 81.3324 82.6712 84.3593C81.048 86.7698 80.6562 89.3483 80.3763 91.5905C79.9289 94.8978 79.5933 97.0281 76.0118 97.7568C74.6128 98.037 72.7096 97.4204 70.7514 96.6917C68.0652 95.7387 65.043 94.6738 62.4692 95.9629C60.6784 96.8038 59.3913 98.5415 58.4959 101.288C57.1526 105.436 59.5588 109.361 61.7413 112.78C62.1571 113.465 62.5724 114.129 62.9503 114.777C63.4381 115.612 63.8641 116.419 64.1476 117.208C58.8315 119.226 57.0969 122.59 56.5371 125.112C55.4737 130.157 58.3279 136.604 63.812 141.593C65.6028 143.218 67.3935 144.676 69.2962 145.965ZM19.1941 109.466C18.4724 109.188 17.7501 108.909 17.0284 108.576C17.7001 108.295 18.3712 108.071 18.931 108.015C20.7218 107.623 22.6244 107.623 24.5832 107.959C26.9721 113.079 30.6297 117.315 34.1862 121.434L34.2644 121.525C35.7753 123.206 37.2304 124.888 38.5733 126.626V126.682C38.4057 127.13 38.1258 127.747 37.6222 127.803C37.2304 127.915 35.8314 127.803 32.9773 124.159C31.97 122.814 31.1865 121.357 30.3473 119.787L30.2554 119.615C28.9983 117.259 27.7194 114.863 25.5343 112.948C23.6317 111.266 21.3935 110.369 19.2109 109.473L19.1941 109.466ZM170.586 118.722C169.075 116.536 167.62 114.461 165.829 112.612L167.676 110.425C171.873 105.548 174 105.044 174.895 105.156C175.623 107.847 176.182 110.594 176.574 113.397C176.238 116.648 175.399 120.404 174.112 123.487C173.031 122.169 172.068 120.811 171.125 119.481L170.586 118.722ZM36.0552 120.011C32.9773 116.423 29.8437 112.78 27.5493 108.632C30.571 109.641 33.4252 111.378 35.3835 113.677C37.6779 116.199 38.9094 120.291 39.0212 123.487C38.6678 123.074 38.3209 122.661 37.9767 122.25C37.3392 121.49 36.7089 120.739 36.0552 120.011ZM153.63 123.262C151.336 122.758 150.16 120.74 150.216 117.489C152.622 115.134 155.197 112.892 157.603 111.042C157.771 110.874 157.939 110.65 157.995 110.425C159.785 111.659 161.017 112.948 161.744 114.237C159.674 117.152 158.051 120.067 156.708 123.15C155.7 123.431 154.581 123.487 153.63 123.262ZM130.07 87.7787C130.35 87.05 130.686 86.3774 130.966 85.5925C133.26 91.2543 138.856 95.3463 144.34 99.3264C146.355 100.784 148.37 102.241 150.104 103.699C152.423 107.791 151.855 108.501 150.765 109.865L150.72 109.921L150.692 109.955C149.687 111.185 148.311 112.869 148.034 116.536C146.019 118.498 144.117 120.628 142.549 122.646C140.969 119.861 138.963 117.182 136.998 114.558L136.842 114.349L136.632 114.067C134.123 110.68 131.534 107.186 129.847 103.587C126.508 96.5088 127.927 93.0326 130.034 87.8696L130.07 87.7787ZM160.065 121.412C160.793 120.011 161.632 118.554 162.528 117.152C162.528 117.657 162.36 118.161 162.192 118.666C161.888 119.389 161.454 120.036 160.909 120.622C160.652 120.898 160.37 121.161 160.065 121.412ZM152.455 111.266C153.462 110.033 154.134 108.968 153.966 107.399C154.318 107.847 154.651 108.295 154.956 108.754C155.184 109.098 155.397 109.448 155.588 109.809C154.134 110.93 152.567 112.275 150.888 113.789C151.336 112.668 151.895 111.939 152.455 111.266ZM158.049 107.798C157.994 107.791 157.938 107.791 157.883 107.791C157.603 107.791 157.379 107.903 157.099 108.015C156.652 107.342 156.204 106.67 155.645 105.997C157.603 106.67 159.674 106.894 161.744 106.558C166.277 105.829 170.306 102.858 173.552 99.4945C173.384 99.7747 173.329 100.111 173.44 100.448C173.595 100.883 173.75 101.318 173.897 101.754C174.013 102.103 174.124 102.452 174.224 102.802C172.041 103.026 169.355 105.044 165.997 108.856C165.631 109.253 165.281 109.651 164.948 110.049C164.67 110.38 164.405 110.711 164.15 111.042C162.528 109.753 160.625 108.632 158.219 107.847C158.162 107.818 158.106 107.804 158.049 107.798ZM14.5001 107.158C14.4516 107.126 14.4061 107.094 14.3423 107.062C14.9021 105.212 16.0212 104.596 17.4759 103.867C18.7073 103.25 20.0501 102.578 20.8898 101.064C21.2591 100.425 21.5278 99.8261 21.7199 99.2437C21.8475 98.8554 21.9415 98.4743 22.0089 98.0932C22.2889 100.672 22.7925 103.138 23.6879 105.493C21.9528 105.324 20.2182 105.38 18.5955 105.717C17.1403 106.053 15.7975 106.558 14.6222 107.23C14.5742 107.206 14.5364 107.182 14.5001 107.158ZM136.674 69.3923C136.17 66.9259 135.778 64.5716 135.386 62.2732C136.058 57.172 137.233 52.1829 138.409 48.091C148.202 51.3983 161.297 47.6986 168.684 43.6064C170.015 42.8656 171.199 42.0516 172.286 41.2447C172.844 40.8303 173.376 40.4181 173.888 40.0188C177.581 37.216 179.652 35.7585 182.674 37.5524C184.409 38.5614 185.64 40.5793 186.647 42.9338C186.423 45.0639 186.255 47.306 186.423 49.6044C186.524 51.668 186.85 53.551 187.159 55.3342L187.263 55.9388C187.99 59.9187 188.606 63.6186 187.319 68.4955C185.696 74.5495 182.842 81.4443 179.26 87.947C175.287 95.1783 168.516 103.25 161.464 104.371C158.051 104.932 154.749 103.699 151.671 100.84C142.382 92.095 138.296 77.3523 136.674 69.3923ZM144.285 96.4674C138.632 92.3192 133.204 87.947 132.308 81.8928C132.34 81.7666 132.389 81.6405 132.426 81.5041C132.455 81.3983 132.477 81.2864 132.477 81.1641C132.635 80.6872 132.758 80.2103 132.865 79.7541C132.947 79.4057 133.019 79.069 133.092 78.7536C133.764 82.4535 134.995 85.8167 137.01 88.6196C138.688 90.9179 140.815 93.048 142.886 95.0661C143.043 95.2442 143.208 95.4153 143.375 95.5821C143.682 95.8873 143.995 96.1775 144.285 96.4674ZM138.856 87.3304C135.778 83.0139 134.715 77.1842 134.715 71.0179C135.834 76.175 137.849 83.4624 141.318 90.3013C140.423 89.3483 139.583 88.3394 138.856 87.3304ZM127.608 24.9957C133.428 13.2799 152.958 3.24582 165.046 3.24582C165.239 3.24582 165.432 3.24582 165.618 3.25221C165.919 3.26217 166.203 3.28873 166.445 3.35795C177.805 4.19883 191.404 16.3629 195.545 29.312C197.391 35.086 198.063 43.1019 191.348 49.5484L191.148 49.0174C190.863 48.2621 190.555 47.4478 190.285 46.6335C189.837 45.3441 189.389 43.9987 188.829 42.7095C188.997 41.5323 189.109 40.4112 189.277 39.2901L189.291 39.1928C190.181 32.6132 191.042 26.2611 185.584 21.352C185.64 20.4552 185.528 19.6702 185.416 18.9977C184.185 12.6633 176.686 7.39401 167.564 6.49719C155.197 5.26397 145.907 8.06681 139.808 14.7936C134.379 20.8475 131.581 29.9848 131.413 42.261C131.246 42.4293 131.134 42.6534 131.078 42.8776C131.021 43.214 131.134 43.5504 131.413 43.8306C131.469 49.3801 132.029 55.5465 133.092 62.3292C132.812 64.5154 132.645 66.7016 132.533 68.8878C132.27 68.1466 131.946 67.3951 131.583 66.6247C131.095 65.5892 130.536 64.5195 129.958 63.3943C129.758 63.018 129.558 62.6306 129.353 62.2321C129.099 61.7396 128.838 61.2303 128.559 60.7036C126.824 57.172 123.579 50.6695 125.37 46.8015C126.041 45.2881 127.44 44.2792 129.679 43.7185C130.07 43.6064 130.35 43.3262 130.462 42.9338C130.574 42.5412 130.518 42.1489 130.238 41.8687C125.537 36.6553 124.642 30.9378 127.608 24.9957ZM134.379 55.042C133.987 51.7906 133.764 48.6514 133.707 45.7367C134.547 46.2971 135.386 46.8015 136.282 47.1939C135.666 49.6044 134.995 52.2391 134.379 55.042ZM167.62 41.6444C160.122 45.7926 147.866 48.9318 139.024 45.9047C139.528 44.1108 140.031 42.5412 140.423 41.308C144.452 40.2991 148.593 39.7386 152.958 39.178C160.625 38.169 168.516 37.1039 175.79 33.2921C181.666 30.209 184.185 26.8455 185.136 23.9306C188.662 27.9107 187.99 32.8436 187.151 38.9537V39.0658C186.255 37.6645 185.192 36.4311 183.849 35.6464C179.414 33.0369 176.133 35.5419 172.646 38.2045L172.545 38.2812L171.905 38.7586C170.589 39.7437 169.208 40.777 167.62 41.6444ZM135.047 43.9637C134.782 43.7801 134.522 43.5862 134.267 43.3821C135.443 42.8217 136.618 42.4293 137.849 42.0367L137.604 42.8817C137.401 43.5808 137.191 44.3083 136.953 45.0639C136.29 44.7515 135.655 44.3849 135.047 43.9637ZM141.542 16.2511C146.243 11.0377 153.182 8.40296 162.248 8.40296C163.871 8.40296 165.606 8.51509 167.34 8.68342C175.511 9.4681 182.17 13.9527 183.233 19.3341C183.29 19.39 183.29 19.4462 183.29 19.5022C181.723 18.4932 179.764 17.5402 177.357 16.6993C170.026 14.1208 162.696 14.4572 156.092 17.7083C148.202 21.6325 141.878 29.5362 138.632 39.4582C136.953 39.9067 135.331 40.4671 133.707 41.1399C134.044 30.0407 136.618 21.6884 141.542 16.2511ZM157.099 19.6705C160.457 18.0447 164.039 17.2038 167.676 17.2038C170.642 17.2038 173.608 17.7645 176.63 18.7175C179.484 19.7824 181.666 20.9037 183.29 22.1369C182.618 25.5002 179.708 28.6394 174.728 31.218C167.883 34.8119 160.276 35.8426 152.927 36.8382L152.622 36.8796C148.817 37.3841 144.956 37.9448 141.207 38.7856C144.396 30.0407 150.104 23.1459 157.099 19.6705Z" fill="white"/>
<path fill-rule="evenodd" clip-rule="evenodd" d="M413.492 363C412.34 354.705 410.939 346.298 409.429 340.985C407.246 333.193 406.016 324.168 405.959 315.031C411.22 313.125 412.227 309.257 413.011 300.68C413.57 294.57 414.466 284.424 411.835 278.762C411.668 278.37 411.276 278.146 410.884 278.09C410.492 278.09 410.101 278.258 409.877 278.594C409.317 279.435 408.869 280.332 408.422 281.229C407.918 277.585 406.855 274.11 404.896 271.195C413.458 272.764 419.726 271.755 424.147 268.112C431.982 261.609 431.982 247.763 431.982 234.422V227.135L431.983 226.841C432.095 202.563 432.234 172.421 411.612 157.793C410.324 156.84 409.037 155.887 407.862 154.878C409.093 154.654 410.324 154.598 411.555 154.598C412.171 154.598 412.619 154.149 412.675 153.533C412.731 152.916 412.283 152.412 411.668 152.356C393.368 150.842 391.241 122.646 389.842 104.035C389.507 99.6067 389.227 95.7387 388.78 92.7678C388.276 89.4043 388.22 85.4244 388.164 81.2203C388.052 71.4664 387.884 60.3672 381.337 54.257C375.908 49.212 368.913 47.8667 361.918 48.7076C351.173 46.6335 339.03 53.0238 332.538 58.125C332.51 58.1529 332.482 58.1669 332.455 58.181C332.427 58.195 332.399 58.2091 332.37 58.2372C330.747 59.078 329.125 60.1429 327.557 61.5445C319.835 68.3834 315.302 80.5475 314.91 88.5074C314.743 91.5905 314.966 94.5617 315.414 97.5326C315.19 98.8217 314.966 100.111 314.91 101.456C314.464 108.216 316.185 114.307 317.859 120.23L317.876 120.291C320.786 130.606 323.249 139.519 313.623 148.936C313.344 149.216 313.231 149.553 313.288 149.945C313.344 150.338 313.623 150.618 313.959 150.786C314.407 150.954 314.966 151.122 315.526 151.178C308.979 153.645 302.655 156.784 299.577 164.464C292.246 183.018 289.168 204.264 286.258 224.836C285.475 230.61 284.691 236.104 283.796 241.485C281.11 258.078 284.747 269.065 295.66 276.969C306.013 284.536 306.852 296.869 306.236 309.089C306.15 310.702 306.049 312.315 305.948 313.92C305.853 315.439 305.758 316.951 305.677 318.45C304.949 329.774 304.222 341.545 305.397 353.373C305.773 357.059 306.025 360.172 306.214 363H308.474C308.277 360.141 308.013 356.99 307.635 353.261C306.46 341.602 307.188 329.942 307.915 318.675C308.139 315.648 308.307 312.452 308.475 309.313C308.922 300.456 308.587 290.871 304.11 283.135C312 279.659 314.519 267.832 312.728 260.544C312.623 260.096 312.493 259.673 312.35 259.269C312.188 258.813 312.011 258.381 311.832 257.966C314.519 254.546 317.093 252.64 318.548 253.089C319.275 253.313 320.898 254.546 320.954 261.665C321.066 270.298 318.772 278.594 316.534 286.666C314.743 293.113 312.896 299.784 312.28 306.566C310.658 323.327 311.889 342.274 313.176 355.223C313.399 357.466 313.511 359.483 313.623 361.445L313.629 361.544C313.659 362.037 313.688 362.522 313.719 363H315.907C315.874 362.486 315.842 361.959 315.81 361.419L315.806 361.333C315.753 360.408 315.7 359.457 315.636 358.47C315.564 357.365 315.476 356.213 315.358 354.999C314.071 342.162 312.896 323.383 314.463 306.791C315.078 300.176 316.869 293.617 318.604 287.283C320.898 279.043 323.193 270.578 323.137 261.665C323.137 258.022 322.689 255.331 321.85 253.537C328.005 257.853 335.224 261.329 340.821 260.656C339.142 261.329 337.687 262.114 336.567 263.123C332.322 266.928 331.478 277.994 330.863 286.063L330.86 286.106C330.692 288.18 330.58 289.974 330.412 291.319C329.236 300.344 331.531 306.678 337.91 312.508C349.688 323.243 370.539 320.26 387.362 317.852L387.492 317.834C391.578 317.217 395.383 316.712 398.796 316.376C399.748 316.32 400.587 316.208 401.371 316.096C399.021 328.54 397.565 339.808 396.894 350.739C396.667 354.453 398.304 358.703 400.905 363H403.614C400.775 358.65 398.924 354.373 399.132 350.795C399.804 339.808 401.315 328.428 403.721 315.816C403.833 324.897 405.064 333.866 407.303 341.545C408.746 346.644 410.112 354.841 411.243 363H413.492ZM338.135 264.804C341.268 262.002 347.368 261.049 354.419 261.049C358.952 261.049 363.821 261.441 368.578 261.946C371.053 262.557 373.508 263.21 375.955 263.879C377.546 264.313 379.134 264.755 380.721 265.197L381.136 265.312C387.888 267.182 394.794 269.094 401.539 270.522C402.042 271.027 402.49 271.587 402.881 272.204C405.624 276.296 406.519 281.621 406.463 287.059C405.973 289.296 405.695 291.587 405.423 293.827L405.4 294.01C405.313 294.648 405.226 295.302 405.14 295.954L404.896 297.766C404.696 298.97 404.54 300.219 404.39 301.432L404.337 301.858C403.385 305.95 402.546 309.93 401.819 313.742C400.867 313.91 399.804 314.022 398.628 314.134C395.159 314.47 391.298 315.031 387.213 315.591C370.816 317.946 350.446 320.861 339.422 310.827C333.546 305.501 331.587 299.952 332.65 291.599C332.806 290.626 332.907 289.437 333.011 288.107C333.056 287.521 333.102 286.908 333.154 286.274L333.156 286.251C333.715 278.964 334.557 267.996 338.135 264.804ZM405.959 312.62C406.016 309.145 406.183 305.669 406.575 302.25C406.687 301.802 406.799 301.297 406.911 300.793C407.862 296.756 408.59 292.104 408.702 287.395C409.149 285.489 409.709 283.639 410.548 281.902C411.947 287.339 411.22 295.692 410.772 300.456C410.101 307.8 409.485 310.995 405.959 312.62ZM303.495 280.893C301.927 276.913 305.565 267.103 310.266 260.096L310.333 260.295C310.421 260.548 310.501 260.781 310.545 261.049C312.057 267.271 310.042 277.753 303.495 280.893ZM301.704 165.417C304.725 157.849 311.161 155.214 318.212 152.748C316.925 154.205 315.694 155.663 314.463 157.008C312.448 159.475 310.658 161.549 309.259 162.894C308.867 163.231 308.811 163.791 309.034 164.239C309.258 164.688 309.762 164.912 310.266 164.8C312.224 164.296 314.966 164.464 317.932 164.576C320.786 164.744 323.92 164.856 326.662 164.408C325.599 167.435 324.312 170.406 323.081 173.433C318.884 183.523 314.575 194.005 314.855 206.338C314.855 207.627 315.078 208.916 315.302 210.206C312.504 209.365 308.979 209.477 305.397 210.542C304.949 210.71 304.669 211.103 304.614 211.551C304.502 213.064 303.998 215.251 303.495 217.605L303.458 217.77C302.011 224.231 300.39 231.474 303.886 234.142C304.162 234.367 304.459 234.548 304.784 234.689C305.186 234.863 305.63 234.977 306.124 235.039C304.166 237.113 302.543 239.523 301.704 242.55C299.913 249.053 302.823 251.631 305.621 254.098C306.908 255.219 308.139 256.34 309.146 257.853C309.128 257.872 309.11 257.896 309.092 257.922C309.054 257.976 309.016 258.04 308.979 258.078C304.949 263.795 300.864 272.821 300.92 278.819C299.801 277.585 298.514 276.408 297.003 275.343C286.762 267.887 283.46 257.91 286.034 241.99C286.874 236.552 287.657 231.059 288.497 225.285C291.407 204.824 294.429 183.691 301.704 165.417ZM405.176 269.009L402.658 268.504C399.804 265.645 395.886 263.851 391.018 263.235C389.451 263.011 387.548 262.73 385.31 262.338C380.553 261.553 374.789 260.544 368.857 259.872C362.086 258.134 355.371 256.676 348.711 255.948C351.317 251.838 350.737 246.352 350.236 241.617L350.222 241.485C349.775 237.393 349.383 233.469 351.117 231.731C352.236 230.61 354.195 230.274 357.105 230.61C370.032 232.124 384.078 237.393 396.446 242.102L397.006 242.326C397.528 242.513 398.074 242.724 398.629 242.944L399.468 243.279C399.244 248.044 399.86 252.36 402.098 254.49C404.337 256.62 407.75 256.452 412.227 253.929C412.563 253.705 412.787 253.313 412.787 252.921C412.731 247.371 406.911 243.952 401.762 241.765C402.378 234.926 404.505 227.135 405.959 224.164C407.778 220.355 410.139 217.09 412.454 213.887L412.563 213.737C417.823 206.506 422.748 199.723 421.573 188.063C420.342 175.731 411.276 163.399 399.58 156.896C399.635 156.868 399.691 156.854 399.747 156.84C399.803 156.826 399.859 156.812 399.915 156.784C401.594 156.279 403.273 155.831 405.008 155.439C406.687 156.896 408.422 158.298 410.324 159.643C430.079 173.713 429.911 203.311 429.743 227.135V234.422C429.799 247.315 429.799 260.6 422.748 266.43C418.886 269.625 413.122 270.522 405.176 269.009ZM388.816 265.182L387.828 264.917C388.947 265.085 389.899 265.253 390.794 265.365C393.2 265.757 395.327 266.374 397.174 267.327C394.369 266.675 391.61 265.933 388.816 265.182ZM344.346 259.759C345.409 259.255 346.305 258.638 347.032 257.966C349.271 258.134 351.509 258.47 353.748 258.863C350.334 258.919 347.144 259.143 344.346 259.759ZM310.601 235.487C311.049 234.814 312.168 234.59 313.623 234.59C316.757 234.59 321.626 235.711 325.431 236.608L326.161 236.775C330.311 237.725 334.194 238.614 336.679 238.402C337.015 238.402 337.351 238.178 337.519 237.897C337.613 237.74 337.654 237.546 337.653 237.347C337.651 237.193 337.624 237.035 337.575 236.888C336.513 234.314 333.891 232.913 331.377 231.57L331.363 231.563C330.524 231.115 329.684 230.666 328.956 230.218L331.475 229.545C338.19 227.807 342.5 226.91 344.906 231.899C347.76 237.729 345.689 250.566 342.052 255.891C341.828 256.228 341.828 256.62 341.996 257.013C342.098 257.217 342.281 257.4 342.498 257.513C342.639 257.586 342.793 257.629 342.947 257.629H343.339C343.261 257.707 343.184 257.758 343.086 257.801C343.044 257.819 342.998 257.836 342.947 257.853C334.721 261.553 316.981 248.772 312.392 241.373C309.874 237.337 310.322 235.88 310.601 235.487ZM303.886 243.167C304.725 240.364 306.236 238.178 308.139 236.16C308.083 237.785 308.867 239.859 310.545 242.662C311.944 244.961 314.743 247.931 318.268 250.846H318.1C315.47 250.846 312.672 253.481 310.601 256.004C309.538 254.546 308.307 253.425 307.132 252.416C304.39 250.006 302.431 248.268 303.886 243.167ZM346.193 255.611C345.801 255.555 345.409 255.499 345.018 255.499C346.585 252.472 347.816 248.268 348.319 244.064C348.767 248.436 348.767 252.696 346.193 255.611ZM403.609 252.808C402.042 251.295 401.539 247.988 401.65 244.12C405.792 245.97 410.044 248.548 410.492 252.248C407.303 253.929 405.008 254.098 403.609 252.808ZM355.943 228.219C355.689 228.207 355.442 228.2 355.202 228.2C352.684 228.2 350.837 228.816 349.663 230.162C348.767 231.059 348.263 232.18 347.984 233.469C347.76 232.572 347.48 231.731 347.088 231.003C345.465 227.695 343.115 226.35 340.429 226.069C343.469 218.374 344.38 209.53 345.264 200.943L345.298 200.62C346.529 188.344 347.816 175.675 355.147 165.473C358.169 161.269 366.227 154.373 372.886 151.178C373.558 151.963 374.285 152.692 375.069 153.421C369.585 155.102 364.66 158.634 360.687 163.959C360.209 164.629 359.65 165.136 359.079 165.653L358.784 165.921C358.169 166.426 357.553 166.93 356.993 167.603C356.713 167.883 356.658 168.276 356.77 168.668C356.881 169.004 357.161 169.284 357.553 169.397C360.071 170.069 363.149 170.294 366.339 170.518C368.913 170.742 371.599 170.91 374.005 171.359C376.132 171.751 378.314 172.312 380.665 172.872L380.824 172.911C385.978 174.189 391.292 175.505 396.222 175.339C396.782 175.282 397.23 174.834 397.285 174.274C397.565 170.63 395.271 164.296 391.969 158.69C393.48 158.466 394.991 158.186 396.446 157.793C408.534 163.511 418.159 175.955 419.39 188.288C420.509 199.106 415.809 205.609 410.828 212.448C408.422 215.755 405.959 219.175 404.001 223.211C402.826 225.621 400.42 233.469 399.692 240.868C399.278 240.696 398.886 240.544 398.515 240.401C398.283 240.312 398.06 240.226 397.845 240.14L397.285 239.916L396.622 239.667C384.253 235.019 370.36 229.799 357.385 228.312C356.881 228.276 356.401 228.24 355.943 228.219ZM325.935 234.422C321.85 233.469 317.876 232.572 314.743 232.404C314.764 232.404 314.777 232.404 314.783 232.397C314.79 232.387 314.777 232.361 314.743 232.292C320.339 229.209 321.234 225.285 320.562 221.193C322.018 216.764 320.786 214.073 319.387 212.56C318.94 212.111 318.436 211.663 317.821 211.271C317.373 209.645 317.093 207.964 317.037 206.226C316.759 194.407 320.964 184.251 325.028 174.436L325.096 174.274L325.781 172.588C327.002 169.591 328.199 166.655 329.236 163.679C330.3 163.286 331.251 162.726 332.034 161.941C328.901 183.074 324.759 213.177 332.594 223.379C333.546 224.612 334.609 225.565 335.84 226.182C334.217 226.462 332.538 226.91 330.915 227.359C329.348 227.751 327.726 228.2 326.158 228.48C325.767 228.592 325.431 228.872 325.319 229.265C325.246 229.523 325.269 229.804 325.373 230.047C325.427 230.174 325.503 230.29 325.599 230.386C326.942 231.675 328.677 232.628 330.355 233.525C331.923 234.366 333.378 235.151 334.385 236.104C332.034 235.823 328.956 235.151 325.935 234.422ZM305.677 218.054C306.124 216.036 306.572 214.073 306.796 212.504C310.322 211.607 313.679 211.775 315.918 212.784C316.17 213.67 316.423 214.524 316.676 215.346C316.759 215.617 316.842 215.884 316.925 216.148L317.146 216.829C317.628 218.312 318.081 219.711 318.324 221.024C318.296 221.081 318.267 221.152 318.239 221.223C318.211 221.292 318.184 221.362 318.156 221.417C316.634 225.121 313.791 227.713 310.756 230.479L310.49 230.722C309.874 231.283 309.202 231.899 308.531 232.516C306.74 232.965 305.789 232.684 305.229 232.292C302.897 230.513 304.476 223.439 305.648 218.183L305.677 218.054ZM318.156 226.126C317.261 227.359 316.254 228.48 315.19 229.545C316.701 228.48 317.596 227.359 318.156 226.126ZM336.903 141.537C336.903 141.313 336.847 141.144 336.736 140.976C336.768 140.911 336.801 140.826 336.834 140.723C336.857 140.649 336.88 140.565 336.903 140.472C338.129 136.174 335.583 131.71 332.909 127.023L332.874 126.962C331.531 124.496 330.076 121.973 329.013 119.338C324.704 108.463 321.626 92.7678 325.935 81.4443C326.22 80.7148 326.612 80.0392 327.062 79.3868C327.406 78.8861 327.785 78.3996 328.173 77.913C330.02 77.9689 332.091 77.4644 334.217 76.9038C336.567 76.2871 339.03 75.7267 341.044 75.8948C351.789 76.9599 358 84.4155 364.604 92.3754C365.723 93.6646 366.842 95.0661 367.962 96.3553C368.353 96.8038 369.081 96.8598 369.529 96.4674C371.543 94.8419 373.614 94.2253 375.181 94.8419C376.636 95.3463 377.699 96.916 378.091 99.1581C378.703 102.784 376.989 104.634 374.821 106.971L374.789 107.006C374.005 107.847 373.222 108.688 372.438 109.697C366.451 117.657 364.38 126.121 365.947 136.323C366.563 140.472 368.521 145.18 371.543 149.216C364.268 152.916 356.154 160.203 353.412 164.015C345.742 174.649 344.42 187.549 343.141 200.026L343.115 200.284L343.109 200.338C342.217 209.119 341.374 217.396 338.526 224.78C336.903 224.444 335.616 223.547 334.497 222.09C326.886 212.224 331.587 180.72 334.721 159.867C336.008 151.515 336.959 144.844 336.903 141.537ZM366.507 168.22C364.212 168.051 362.03 167.939 360.127 167.603C360.127 167.603 360.142 167.589 360.163 167.575C360.184 167.561 360.211 167.547 360.239 167.547C360.967 166.874 361.75 166.201 362.477 165.248C366.507 159.867 371.543 156.448 377.251 155.102C379.042 156.392 380.945 157.401 383.071 158.073C385.254 158.746 387.324 158.914 389.451 158.858C392.473 163.791 394.767 169.565 395.047 173.04C390.682 172.984 385.869 171.807 381.225 170.63C378.874 170.013 376.636 169.453 374.453 169.06C371.935 168.612 369.193 168.388 366.507 168.22ZM318.1 162.334C316.701 162.278 315.358 162.222 314.127 162.222C313.735 162.222 313.399 162.222 313.008 162.278C313.49 161.709 314.001 161.097 314.541 160.457C315.066 159.834 315.618 159.185 316.197 158.522C316.773 157.865 317.361 157.181 317.963 156.483C319.467 154.737 321.05 152.9 322.689 151.178C322.915 151.093 323.127 151.009 323.339 150.924C323.547 150.84 323.755 150.757 323.976 150.674C326.383 150.394 328.677 150.338 330.188 151.122C329.684 154.822 328.733 158.41 327.557 161.941C325.207 162.558 321.961 162.502 318.1 162.334ZM331.532 156.27C331.723 155.475 331.893 154.676 332.034 153.869C332.111 154.331 332.162 154.819 332.168 155.334C332.17 155.569 332.164 155.809 332.146 156.055C332.034 158.073 331.419 159.531 330.355 160.484C330.786 159.084 331.192 157.685 331.532 156.27ZM383.743 155.943C382.679 155.551 381.616 155.102 380.609 154.542C382.512 154.374 384.526 154.43 386.541 154.766C387.044 155.326 387.548 155.999 387.996 156.672C386.597 156.616 385.142 156.392 383.743 155.943ZM390.682 156.56L389.842 155.383C390.031 155.42 390.244 155.458 390.449 155.513C390.549 155.54 390.646 155.57 390.738 155.607C391.466 155.831 392.193 156.055 392.865 156.279C392.137 156.392 391.41 156.504 390.682 156.56ZM388.966 152.868C388.567 152.788 388.17 152.712 387.772 152.636C385.254 149.665 382.568 147.591 380.105 147.142C378.259 146.862 376.02 147.367 373.614 148.32C370.704 144.508 368.745 140.023 368.13 136.043C366.674 126.457 368.578 118.554 374.174 111.098C374.831 110.22 375.596 109.396 376.31 108.625L376.356 108.576C378.65 106.165 381.057 103.587 380.217 98.8217C379.714 95.7387 378.147 93.6086 375.908 92.7678C373.782 91.9831 371.319 92.4314 368.913 94.1131C368.018 93.1042 367.122 92.039 366.283 90.9739L366.177 90.8467C359.606 82.982 352.79 74.8235 341.212 73.7086C338.885 73.4917 336.349 74.1137 333.907 74.7124L333.658 74.7737C332.426 75.0539 331.251 75.3903 330.132 75.5584C330.355 75.2782 330.58 74.9418 330.803 74.6056C331.643 73.2603 332.706 71.0179 333.49 69.3361C333.713 69.168 333.881 68.9438 334.105 68.7195C336.791 65.8607 339.477 63.002 341.1 60.1429C342.835 58.6854 344.85 57.3963 347.032 56.1631C351.341 53.8088 356.601 51.8465 361.918 51.174C364.212 51.6225 366.339 52.5193 368.298 53.9206C378.147 61.04 380.945 76.7916 382.232 88.003L382.244 88.112C382.576 91.1026 382.907 94.0919 383.183 96.9719C385.254 118.105 387.268 138.173 403.106 153.645L399.412 154.654C398.879 154.78 398.363 154.923 397.854 155.064C397.457 155.175 397.063 155.284 396.67 155.383C394.935 154.598 393.144 153.925 391.353 153.421C390.539 153.198 389.748 153.025 388.966 152.868ZM377.755 152.692C376.803 151.907 375.908 151.066 375.069 150.169C376.86 149.497 378.427 149.216 379.713 149.441C381.169 149.665 382.736 150.73 384.358 152.3C382.064 152.131 379.881 152.3 377.755 152.692ZM333.658 151.571C333.378 151.01 333.042 150.562 332.594 150.113C332.762 148.768 332.818 147.367 332.818 145.965C333.433 145.461 333.993 144.956 334.497 144.452C334.329 146.413 334.049 148.824 333.658 151.571ZM321.514 148.712C319.835 148.992 318.1 149.216 316.701 149.16C325.543 139.294 322.857 129.821 320.003 119.843L319.726 118.834C318.522 114.453 317.301 110.005 317.093 105.268C318.995 111.603 321.738 117.657 324.48 123.655C325.319 125.393 326.103 127.186 326.886 128.924C328.901 133.521 330.02 137.781 330.412 141.873C327.557 143.33 324.704 145.797 321.961 148.656C321.877 148.656 321.807 148.67 321.737 148.684C321.667 148.698 321.598 148.712 321.514 148.712ZM330.412 148.768C329.964 148.6 329.516 148.488 329.013 148.376C329.098 148.376 329.151 148.343 329.196 148.303L329.236 148.264C329.684 147.983 330.076 147.759 330.468 147.535C330.468 147.983 330.468 148.375 330.412 148.768ZM327.222 146.806C328.341 145.853 329.461 145.012 330.58 144.339C330.58 144.508 330.58 144.676 330.635 144.844L330.215 145.105C329.608 145.482 328.965 145.882 328.285 146.245C328.122 146.354 327.945 146.45 327.768 146.539C327.581 146.633 327.394 146.72 327.222 146.806ZM326.281 122.106C322.727 114.278 319.073 106.229 317.708 97.7006C318.548 93.4965 320.339 89.4043 322.465 85.4803C320.171 96.6917 323.081 110.369 326.942 120.179C328.061 122.982 329.516 125.561 330.971 128.083C333.546 132.568 335.728 136.436 334.777 139.855C334.749 139.967 334.707 140.065 334.665 140.163C334.623 140.261 334.581 140.359 334.553 140.472C333.881 140.584 333.266 140.696 332.594 140.92C332.091 136.828 330.971 132.568 328.956 128.027C328.535 127.061 328.096 126.11 327.659 125.158C327.285 124.344 326.911 123.529 326.55 122.702L326.281 122.106ZM369.585 52.0708C369.025 51.6785 368.465 51.2861 367.85 50.9497C372.215 51.2861 376.412 52.7996 379.77 55.9947C385.642 61.4293 385.757 71.5111 385.869 81.3163V81.3324C385.925 85.6487 385.981 89.6847 386.541 93.2163C386.971 95.9617 387.246 99.5857 387.564 103.791L387.604 104.315L387.678 105.259C388.219 112.231 388.85 120.358 390.402 127.971C387.548 118.385 386.485 107.903 385.366 96.7476C385.089 93.8048 384.756 90.8068 384.424 87.8086L384.415 87.7228C383.127 76.0629 380.161 59.6946 369.585 52.0708ZM317.149 88.7317C317.373 83.911 319.22 77.4082 322.465 71.6907C322.465 72.2511 322.521 72.8118 322.633 73.3722C322.969 74.9418 323.697 76.1191 324.704 76.9038L324.648 77.0159L324.455 77.3454C321.823 81.8481 319.005 86.6699 317.093 91.7588C317.093 90.7496 317.093 89.7407 317.149 88.7317ZM324.871 72.9239C323.752 68.1591 330.58 62.6094 333.601 60.2551C335.392 59.3582 337.239 58.9097 339.142 58.7976C336.567 60.9838 334.385 63.4502 332.538 66.2531C332.364 66.4278 332.19 66.8066 331.909 67.416C331.83 67.589 331.742 67.7803 331.643 67.9908C329.516 70.3453 327.39 72.6996 325.935 74.998C325.431 74.5495 325.096 73.8769 324.871 72.9239ZM341.044 56.5554C340.653 56.4995 340.205 56.4995 339.813 56.4995C339.697 56.4995 339.587 56.5061 339.482 56.5125C339.283 56.5248 339.1 56.536 338.918 56.4995C343.003 54.0328 347.592 52.127 352.125 51.2299C349.942 52.0708 347.872 53.08 345.913 54.1449C344.402 54.9858 343.003 55.8267 341.66 56.7797C341.492 56.6675 341.268 56.5554 341.044 56.5554Z" stroke="white" stroke-width="2"/>
<path fill-rule="evenodd" clip-rule="evenodd" d="M215.992 363H218.221C218.555 361.585 219.472 360.863 221.175 359.539C222.07 358.867 223.134 358.026 224.365 356.905C233.519 348.686 231.148 337.623 228.86 326.941L228.842 326.859C228.394 324.729 227.946 322.542 227.555 320.412C222.462 291.039 226.324 267.663 231.864 240.196C235.054 224.332 236.397 210.99 232.479 197.313C231.969 195.598 231.458 193.932 230.956 192.305C230.523 190.901 230.096 189.526 229.681 188.176L229.64 188.044C225.853 175.879 222.58 165.369 224.085 152.075C225.988 135.09 220.56 128.98 208.584 119.955C207.297 119.002 205.226 116.984 202.764 114.63L202.718 114.586C195.111 107.303 184.675 97.3088 177.805 97.5326C176.35 97.5326 175.119 98.037 174.112 98.9339C177.637 95.1221 180.156 90.9179 181.219 89.0119C184.912 82.3414 187.822 75.2782 189.501 69.0559C190.928 63.7808 190.256 59.9061 189.544 55.7952L189.501 55.5465C189.166 53.5845 188.774 51.6225 188.662 49.4363C188.606 49.044 188.606 48.6514 188.606 48.259C188.855 48.976 189.104 49.6759 189.362 50.3293C189.569 50.8509 189.781 51.3428 190.005 51.7906C190.173 52.127 190.453 52.3513 190.788 52.4072C191.124 52.4634 191.46 52.4072 191.74 52.1829C198.679 46.4092 200.805 38.0569 197.783 28.5832C193.418 14.8495 178.868 2.0126 166.725 1.05959C154.078 0.106836 132.197 10.7013 125.817 24.0427C122.684 30.3212 123.355 36.5432 127.664 42.1489C125.705 42.9898 124.306 44.2792 123.523 45.9607C121.34 50.7817 124.866 57.9567 126.769 61.7687C127.272 62.7215 127.72 63.6745 128.168 64.5154L128.253 64.684C130.888 69.8511 132.46 72.9344 130.966 79.09C130.939 79.1033 130.909 79.1165 130.878 79.1306C130.777 79.1761 130.659 79.2289 130.574 79.3142C117.307 89.7562 122.975 106.651 127.554 120.301L127.608 120.459C128.28 122.478 128.951 124.44 129.51 126.289C132.437 135.637 135.854 144.821 139.171 153.734L139.304 154.093C141.822 160.82 144.396 167.771 146.746 174.722C146.971 175.227 147.138 175.731 147.306 176.236C147.306 176.746 147.327 177.245 147.365 177.744C147.414 178.395 147.491 179.044 147.586 179.711C148.873 188.176 154.189 199.667 159.842 208.916C160.177 210.878 160.457 212.952 160.513 215.026C160.681 219.343 159.506 223.827 158.275 228.256C153.014 227.975 146.355 230.722 139.36 233.637C132.924 236.328 126.769 238.85 121.62 239.243C119.717 229.489 115.8 220.24 111.939 211.159L111.804 210.84C108.096 202.081 104.249 192.995 102.313 183.635C99.7392 171.022 90.7853 160.035 79.4815 152.019C81.3841 153.14 82.2795 152.804 86.7564 150.954C88.659 150.169 90.2817 149.16 91.8488 148.207C93.8632 147.03 95.7659 145.853 98.1164 145.124C99.3474 144.732 100.523 144.508 101.698 144.283L101.768 144.27C104.545 143.77 107.427 143.251 109.868 140.472C113.148 136.796 113.336 132.788 113.502 129.218L113.505 129.148L113.509 129.082C113.732 124.569 113.927 120.612 119.997 117.376C120.277 117.208 120.501 116.872 120.557 116.536C120.613 116.199 120.501 115.807 120.221 115.583C113.674 109.192 110.428 102.522 110.092 94.7297L110.036 93.945C109.365 78.9779 108.917 69.8968 93.9751 60.9838C82.7831 54.3132 70.6395 47.9788 56.1453 49.6044C41.7074 51.2299 29.9555 58.9659 23.9678 70.7377C20.6661 77.2963 19.4347 83.2944 19.7708 91.3662C19.8264 92.3754 19.8826 93.2163 19.9383 94.001C20.162 96.5796 20.2182 97.869 19.0429 100.055C18.4836 101.008 17.5882 101.456 16.5805 101.961C14.9021 102.802 12.7752 103.867 12.1036 107.399C11.9917 107.791 12.1597 108.183 12.4953 108.463C12.5515 108.52 12.6634 108.632 12.7752 108.688C11.1525 110.089 9.92154 111.995 9.1937 114.293C8.01841 117.881 8.52203 121.749 10.7046 125.505C13.1113 129.709 17.4759 133.24 22.0089 134.922C20.33 136.323 19.2109 138.285 18.8754 140.528C18.3712 143.723 19.5465 147.198 21.8409 149.609C21.2816 151.01 20.8337 152.524 20.3862 154.037C19.2666 157.681 18.1475 161.493 15.7413 165.08C8.0746 176.46 3.03788 191.371 1.47134 207.066C0.0161557 221.641 1.97496 238.963 6.73127 253.425C8.69007 259.311 11.3205 264.917 13.8943 270.354C17.532 278.09 21.2816 286.106 22.9043 294.739C25.2304 306.998 22.7879 322.112 20.6222 335.518L20.5538 335.94C20.162 338.294 19.7708 340.593 19.4347 342.779C18.5311 348.65 17.2751 361.954 17.2751 361.954H19.4735C19.4735 361.954 21.0129 346.934 21.6172 343.059C21.8634 341.457 22.1096 339.824 22.3777 338.139C22.4753 337.525 22.5759 336.905 22.6806 336.276C24.9188 322.598 27.4374 307.071 25.0307 294.29C23.2961 285.321 19.4908 277.193 15.7975 269.345C13.2232 263.964 10.6489 258.358 8.74626 252.64C4.04563 238.458 2.1425 221.473 3.5415 207.235C5.05287 191.931 9.97722 177.357 17.4202 166.258C20.0501 162.39 21.2816 158.241 22.3445 154.598C22.6025 153.785 22.8369 152.973 23.078 152.192C23.2031 151.788 23.3303 151.393 23.4641 151.01C26.1503 152.58 30.4591 153.533 34.6562 154.43L35.1445 154.539C37.7024 155.113 40.0795 155.647 41.7635 156.279C42.5144 156.596 43.7402 156.997 45.2828 157.501C45.9238 157.711 46.62 157.939 47.3596 158.186L47.3933 158.196C55.5819 160.894 74.957 167.274 81.3279 172.816C81.8315 173.545 82.3351 174.218 82.8388 174.946C82.9225 175.087 83.0206 175.213 83.1187 175.339C83.2167 175.465 83.3148 175.591 83.3986 175.731C83.4384 175.811 83.4496 175.891 83.4527 175.972C83.4542 176.004 83.4542 176.035 83.4542 176.067C83.5104 177.805 79.7608 180.047 76.7391 181.897C74.1648 183.467 71.7024 184.924 70.4715 186.55C65.754 192.594 63.9402 201.44 62.7108 207.436L62.6367 207.795C58.7753 226.967 59.3351 246.642 64.2038 261.834C68.9606 276.745 79.0335 293.001 86.8682 303.203C98.5082 318.394 108.973 314.358 124.754 305.894C136.338 299.671 163.479 283.247 165.549 264.188L165.559 264.049C165.612 263.317 165.661 262.631 165.661 261.946C166.445 262.226 167.228 262.45 168.012 262.73C168.594 262.925 169.194 263.119 169.802 263.324C170.247 263.474 170.697 263.63 171.146 263.795C172.703 264.399 174.487 265.41 176.415 266.503L177.078 266.879C180.492 268.897 184.073 270.971 187.151 271.307C193.026 271.98 194.593 268.504 195.041 266.374C196.44 259.311 189.333 246.474 182.786 243.559C183.177 242.27 183.737 240.98 184.297 239.691C185.528 237.001 186.647 234.478 185.416 232.404C184.409 230.722 182.114 229.769 177.917 229.433C176.015 229.265 173.329 230.274 170.53 231.339C167.396 232.516 163.535 233.973 162.192 232.965C161.464 232.46 161.464 231.059 161.576 229.994C161.632 229.489 161.297 228.984 160.793 228.816C160.681 228.816 160.513 228.76 160.345 228.704C161.632 224.22 162.751 219.623 162.584 215.026C162.554 214.727 162.54 214.443 162.525 214.158C162.511 213.91 162.498 213.662 162.472 213.401C163.255 214.578 164.039 215.699 164.822 216.764C164.99 216.988 165.27 217.157 165.549 217.213C165.829 217.269 166.165 217.157 166.389 216.988C177.917 208.019 176.35 178.197 173.72 167.267C172.769 163.455 170.642 158.578 168.348 153.477C164.43 144.732 160.065 134.922 161.184 128.588C165.029 131.155 166.876 137.113 168.661 142.863L168.684 142.938C170.53 148.88 172.321 154.542 176.182 157.064C176.462 157.232 176.91 157.288 177.246 157.12C177.581 156.952 177.805 156.616 177.861 156.224C179.484 141.985 180.771 127.186 178.757 113.34C179.204 109.08 178.757 105.212 176.742 103.643C176.462 102.578 176.127 101.512 175.79 100.503C176.406 100.055 177.078 99.8309 177.861 99.8309C183.821 99.6077 194.161 109.547 201.1 116.218L201.197 116.311C203.827 118.778 205.842 120.74 207.241 121.805C219.72 131.222 223.582 136.884 221.847 151.907C220.285 165.654 223.617 176.393 227.464 188.789L227.499 188.904C228.394 191.819 229.345 194.846 230.241 197.985C233.99 211.215 232.703 224.276 229.57 239.803C223.973 267.495 220.112 291.095 225.26 320.861C225.557 322.52 225.919 324.211 226.272 325.861C226.384 326.385 226.496 326.906 226.604 327.419L226.619 327.489C228.907 338.058 231.063 348.008 222.854 355.335C221.679 356.4 220.728 357.185 219.832 357.858C217.548 359.608 216.332 360.671 215.992 363ZM78.6208 183.429C81.4239 181.667 84.0391 180.023 85.1893 178.085C86.5883 180.047 88.0435 181.953 89.5544 183.915C89.917 184.362 90.2797 184.795 90.6352 185.222C90.9927 185.65 91.3436 186.072 91.6807 186.494L91.7941 186.633C96.5029 192.404 100.6 197.424 103.265 204.376C104.859 208.528 105.292 213.287 105.716 217.932L105.783 218.67L105.795 218.812C106.239 223.925 106.696 229.194 108.581 233.693C110.932 239.355 114.904 241.429 119.661 241.541C120.165 244.848 120.445 248.156 120.389 251.575C119.919 251.973 119.473 252.372 119.05 252.755L118.374 253.369C117.759 253.929 103.377 267.327 105.951 275.119C106.958 278.202 108.413 279.828 110.316 279.828H110.372C115.296 279.828 119.494 268.336 119.549 268.224C121.452 262.842 122.404 257.685 122.571 252.64C131.301 245.129 144.844 236.272 153.63 243.783L154.805 244.792C154.805 248.044 155.421 251.295 157.044 254.49C158.834 258.022 161.073 259.872 163.535 261.049C163.535 262.002 163.535 263.011 163.423 263.964C161.464 281.902 135.051 297.878 123.803 303.932C108.637 312.06 99.5154 315.984 88.7147 301.858C81.048 291.768 71.1431 275.792 66.442 261.161C61.6857 246.306 61.1259 227.022 64.9311 208.244C66.0507 202.47 67.8415 193.725 72.3184 187.951C73.3073 186.685 75.6456 185.257 77.9022 183.879L78.0263 183.803L78.6208 183.429ZM119.886 254.882C119.997 254.77 120.109 254.714 120.221 254.602C119.886 258.75 118.99 263.011 117.423 267.383C115.968 271.531 112.498 277.473 110.372 277.473C109.588 277.417 108.749 276.296 108.077 274.278C106.51 269.569 114.513 259.872 119.886 254.882ZM166.753 259.892C166.376 259.76 166.011 259.624 165.661 259.479C164.99 253.986 162.08 248.716 157.044 243.727C157.155 239.859 158.219 235.935 159.394 231.899C159.562 233.133 160.065 234.03 160.849 234.646C163.187 236.43 167.296 234.887 171.305 233.381L171.37 233.357L171.742 233.221C174.083 232.367 176.423 231.513 177.805 231.619C181.834 231.899 183.178 232.796 183.569 233.469C184.185 234.534 183.29 236.552 182.338 238.682C181.666 240.252 180.827 242.102 180.435 243.952C180.324 244.568 180.659 245.129 181.219 245.297C186.927 246.866 194.146 259.591 192.915 265.87C192.411 268.336 190.62 269.401 187.487 269.009C185.016 268.693 181.951 266.942 178.899 265.197L178.309 264.861L178.16 264.775C175.976 263.517 173.902 262.322 172.041 261.609C171.434 261.406 170.856 261.218 170.301 261.038C169.782 260.869 169.282 260.707 168.795 260.544C168.088 260.332 167.403 260.119 166.753 259.892ZM159.002 253.425C157.939 251.295 157.324 249.221 157.099 247.091C160.345 250.678 162.416 254.378 163.199 258.246C161.576 257.237 160.233 255.779 159.002 253.425ZM122.571 249.613C122.515 246.81 122.292 244.064 121.844 241.373C127.373 240.879 133.705 238.294 139.636 235.873L140.031 235.711C146.187 233.133 152.567 230.498 157.324 230.498H157.435C156.316 234.254 155.253 238.066 154.861 241.878C145.404 233.973 131.861 241.99 122.571 249.613ZM91.289 182.458C89.2745 179.935 87.3718 177.301 85.5811 174.722C85.1893 173.657 84.462 172.648 83.3424 171.695C79.5371 166.314 75.3958 160.82 69.7441 156.224C66.4982 153.533 63.4202 151.571 60.6784 149.833L60.5574 149.756C56.8022 147.379 53.5409 145.313 50.7174 141.985C59.5031 143.779 68.6245 147.591 76.6829 153.028C89.2745 161.549 97.5566 172.592 99.9629 184.14C101.978 193.837 105.895 203.087 109.7 212.056C113.618 221.193 117.367 230.106 119.214 239.299C115.464 239.018 112.443 237.169 110.596 232.796C108.861 228.536 108.413 223.659 107.966 218.446L107.95 218.28C107.507 213.286 107.051 208.136 105.279 203.535C102.481 196.191 98.0602 190.754 93.3596 185.036C92.688 184.195 92.0163 183.355 91.289 182.458ZM163.324 210.497C162.797 209.691 162.271 208.863 161.744 208.019C160.412 201.184 157.555 194.755 154.771 188.491L154.357 187.559C152.622 183.747 150.832 179.823 149.377 175.787C149.27 170.697 150.544 165.351 151.878 159.749L152.167 158.531C153.366 153.514 154.589 148.394 154.861 143.275C155.253 136.211 156.372 130.325 158.554 124.944C161.073 123.935 163.367 121.973 164.319 119.563C164.71 118.554 165.158 116.704 164.43 114.518C164.43 114.49 164.445 114.476 164.459 114.461C164.473 114.447 164.487 114.433 164.487 114.406C165.947 115.921 167.165 117.68 168.456 119.547L168.739 119.955C170.194 122.085 171.705 124.215 173.608 126.289C173.888 126.57 174.28 126.682 174.615 126.626C174.951 126.57 175.287 126.345 175.455 126.009C176.182 124.608 176.854 122.758 177.414 120.796C178.141 131.615 177.246 142.882 176.015 153.813C173.781 151.358 172.449 147.096 171.038 142.58L170.922 142.209C168.795 135.37 166.557 128.307 161.017 125.785C160.737 125.673 160.401 125.673 160.122 125.785C159.842 125.897 159.618 126.177 159.506 126.457C157.155 133.465 162.024 144.508 166.389 154.262L166.501 154.514C168.698 159.465 170.768 164.131 171.593 167.659C174.448 179.711 174.895 205.721 165.941 214.298C165.069 213.109 164.196 211.833 163.324 210.497ZM156.987 199.499C154.805 195.239 152.902 190.866 151.503 186.774C151.783 187.335 152.007 187.895 152.287 188.456L152.618 189.184C154.185 192.634 155.733 196.042 156.987 199.499ZM129.51 119.675C125.202 106.894 120.389 92.4876 129.622 82.958C129.063 84.4155 128.559 85.7046 128 86.9378L127.972 87.0053C125.803 92.3545 124.098 96.5571 127.832 104.54C129.679 108.463 132.42 112.163 135.051 115.695C137.457 118.946 139.751 121.973 141.43 125.224C141.598 125.561 141.934 125.785 142.326 125.841C142.717 125.897 143.109 125.729 143.333 125.393C144.62 123.655 146.243 121.637 148.145 119.675C148.817 124.047 151.783 125.168 153.182 125.505C154.022 125.673 154.917 125.729 155.813 125.617C153.91 130.774 152.902 136.436 152.567 143.162C152.287 148.207 151.056 153.365 149.824 158.41C148.873 162.334 147.922 166.314 147.418 170.294C145.404 164.52 143.277 158.802 141.207 153.252C137.849 144.283 134.379 134.978 131.469 125.561C130.854 123.655 130.182 121.749 129.51 119.675ZM35.2716 152.3C31.1865 151.459 26.6539 150.45 24.4152 148.936C26.4297 144.228 29.7875 141.144 38.8532 140.808C41.5955 140.696 44.5054 140.92 47.4152 141.313C50.8466 146.136 54.8801 148.711 59.2983 151.532L59.447 151.627L59.686 151.78C62.4104 153.526 65.2463 155.344 68.3451 157.849C72.0385 160.82 75.0045 164.127 77.6907 167.603C70.3596 163.511 59.0552 159.587 48.1987 156.055C45.7363 155.271 43.778 154.598 42.7146 154.205C40.812 153.477 38.1258 152.916 35.2716 152.3ZM63.3646 97.9249C63.9239 97.7006 64.4837 97.5885 65.0992 97.5885C66.255 97.5885 67.5161 97.9775 68.8554 98.3903C69.2022 98.4973 69.5546 98.6059 69.9116 98.7098C72.0942 99.4945 74.3329 100.279 76.4035 99.8869C81.5516 98.8779 82.0552 95.2904 82.5032 91.8709L82.5093 91.825C82.7872 89.7095 83.0722 87.5404 84.4058 85.5925C86.0285 83.1822 89.4982 82.005 92.856 80.8839L92.8606 80.8823C96.4406 79.7056 99.8515 78.5845 100.97 75.8948C101.586 74.4373 101.474 72.8677 100.635 71.3543C96.3257 63.7307 73.7174 57.9567 69.1843 57.2841C56.4809 55.4343 42.0429 55.3781 31.1865 68.9438C25.5905 75.951 22.3445 84.4155 21.8409 92.4876C21.8409 92.2227 21.8154 91.9325 21.799 91.6339C21.7908 91.4898 21.7852 91.344 21.7852 91.1981C21.4491 83.5746 22.6244 77.913 25.7585 71.6907C31.4102 60.5355 42.4909 53.304 56.2015 51.7347C70.0235 50.1089 81.3279 56.0509 92.6323 62.7777C106.51 71.0741 106.902 79.2021 107.574 93.945L107.63 94.7297C107.966 102.69 111.099 109.472 117.367 116.031C111.443 119.782 111.212 124.427 110.989 128.906L110.987 128.924C110.819 132.4 110.652 135.707 107.909 138.846C105.999 141.034 103.768 141.46 101.218 141.948L101.026 141.985C100.274 142.122 99.5016 142.259 98.7074 142.447C98.2017 142.567 97.6874 142.708 97.1649 142.882C94.5906 143.667 92.4642 144.956 90.4498 146.189C88.8827 147.142 87.3718 148.039 85.6929 148.768C82.6666 150.034 81.712 150.434 80.9264 150.218C80.5643 150.119 80.2379 149.889 79.7608 149.553C79.0335 149.048 77.9701 148.32 76.2912 147.479C72.3184 145.461 68.6807 142.994 65.2672 139.855C60.4542 135.483 57.8242 129.709 58.7196 125.505C59.3913 122.478 61.7975 120.235 65.8827 118.89C66.442 118.722 66.7219 118.161 66.61 117.601C66.1626 115.639 64.8754 113.621 63.5883 111.546L63.5469 111.481C61.5462 108.307 59.5103 105.079 60.5661 101.961C61.2939 99.8309 62.1893 98.4856 63.3646 97.9249ZM11.2082 114.966C11.9917 112.612 13.2788 110.986 14.6778 109.921C15.9093 110.538 17.1403 111.042 18.4274 111.491C20.5538 112.331 22.5126 113.172 24.1353 114.574C26.0941 116.311 27.2694 118.498 28.5003 120.796C29.34 122.366 30.2354 123.991 31.3545 125.449C33.9845 128.756 36.167 130.269 38.1258 129.933C38.965 129.821 39.6929 129.317 40.2522 128.532C41.7074 130.55 42.9945 132.624 44.0017 134.922C44.3603 135.771 44.7378 136.563 45.1234 137.309C45.3997 137.843 45.6801 138.354 45.9605 138.846C43.5543 138.566 41.2037 138.51 38.9094 138.566C29.1158 138.902 25.0869 142.49 22.7925 147.254C21.3935 145.461 20.7218 143.05 21.0574 140.808C21.4491 138.341 22.9043 136.492 25.1987 135.539C25.4337 135.45 25.6221 135.285 25.7406 135.075C25.8479 134.884 25.8969 134.657 25.8704 134.417C25.8142 133.913 25.4786 133.521 24.975 133.409C20.1063 132.4 15.1258 128.756 12.5515 124.327C11.2644 122.141 9.97722 118.722 11.2082 114.966ZM69.2962 145.965C62.5811 142.658 55.5855 140.304 48.7586 139.238C47.7513 137.781 46.7997 136.043 46.0162 134.025C44.7291 131.166 43.0502 128.532 41.1475 126.065C41.8754 122.141 40.4764 115.919 37.1743 112.163C34.4881 109.08 30.4592 106.894 26.3178 105.941C26.2621 105.829 26.206 105.661 26.1503 105.548C21.8409 95.0661 24.6389 80.9398 33.0891 70.4013C43.2182 57.7327 56.3691 57.7327 69.0163 59.5825C75.1164 60.4793 95.4303 66.4773 98.7876 72.5316C99.2917 73.4284 99.3474 74.2131 99.0118 75.0539C98.3167 76.7135 95.5805 77.6573 92.6553 78.6665L92.2405 78.8098C88.7147 79.9868 84.6857 81.3324 82.6712 84.3593C81.048 86.7698 80.6562 89.3483 80.3763 91.5905C79.9289 94.8978 79.5933 97.0281 76.0118 97.7568C74.6128 98.037 72.7096 97.4204 70.7514 96.6917C68.0652 95.7387 65.043 94.6738 62.4692 95.9629C60.6784 96.8038 59.3913 98.5415 58.4959 101.288C57.1526 105.436 59.5588 109.361 61.7413 112.78C62.1571 113.465 62.5724 114.129 62.9503 114.777C63.4381 115.612 63.8641 116.419 64.1476 117.208C58.8315 119.226 57.0969 122.59 56.5371 125.112C55.4737 130.157 58.3279 136.604 63.812 141.593C65.6028 143.218 67.3935 144.676 69.2962 145.965ZM19.1941 109.466C18.4724 109.188 17.7501 108.909 17.0284 108.576C17.7001 108.295 18.3712 108.071 18.931 108.015C20.7218 107.623 22.6244 107.623 24.5832 107.959C26.9721 113.079 30.6297 117.315 34.1862 121.434L34.2644 121.525C35.7753 123.206 37.2304 124.888 38.5733 126.626V126.682C38.4057 127.13 38.1258 127.747 37.6222 127.803C37.2304 127.915 35.8314 127.803 32.9773 124.159C31.97 122.814 31.1865 121.357 30.3473 119.787L30.2554 119.615C28.9983 117.259 27.7194 114.863 25.5343 112.948C23.6317 111.266 21.3935 110.369 19.2109 109.473L19.1941 109.466ZM170.586 118.722C169.075 116.536 167.62 114.461 165.829 112.612L167.676 110.425C171.873 105.548 174 105.044 174.895 105.156C175.623 107.847 176.182 110.594 176.574 113.397C176.238 116.648 175.399 120.404 174.112 123.487C173.031 122.169 172.068 120.811 171.125 119.481L170.586 118.722ZM36.0552 120.011C32.9773 116.423 29.8437 112.78 27.5493 108.632C30.571 109.641 33.4252 111.378 35.3835 113.677C37.6779 116.199 38.9094 120.291 39.0212 123.487C38.6678 123.074 38.3209 122.661 37.9767 122.25C37.3392 121.49 36.7089 120.739 36.0552 120.011ZM153.63 123.262C151.336 122.758 150.16 120.74 150.216 117.489C152.622 115.134 155.197 112.892 157.603 111.042C157.771 110.874 157.939 110.65 157.995 110.425C159.785 111.659 161.017 112.948 161.744 114.237C159.674 117.152 158.051 120.067 156.708 123.15C155.7 123.431 154.581 123.487 153.63 123.262ZM130.07 87.7787C130.35 87.05 130.686 86.3774 130.966 85.5925C133.26 91.2543 138.856 95.3463 144.34 99.3264C146.355 100.784 148.37 102.241 150.104 103.699C152.423 107.791 151.855 108.501 150.765 109.865L150.72 109.921L150.692 109.955C149.687 111.185 148.311 112.869 148.034 116.536C146.019 118.498 144.117 120.628 142.549 122.646C140.969 119.861 138.963 117.182 136.998 114.558L136.842 114.349L136.632 114.067C134.123 110.68 131.534 107.186 129.847 103.587C126.508 96.5088 127.927 93.0326 130.034 87.8696L130.07 87.7787ZM160.065 121.412C160.793 120.011 161.632 118.554 162.528 117.152C162.528 117.657 162.36 118.161 162.192 118.666C161.888 119.389 161.454 120.036 160.909 120.622C160.652 120.898 160.37 121.161 160.065 121.412ZM152.455 111.266C153.462 110.033 154.134 108.968 153.966 107.399C154.318 107.847 154.651 108.295 154.956 108.754C155.184 109.098 155.397 109.448 155.588 109.809C154.134 110.93 152.567 112.275 150.888 113.789C151.336 112.668 151.895 111.939 152.455 111.266ZM158.049 107.798C157.994 107.791 157.938 107.791 157.883 107.791C157.603 107.791 157.379 107.903 157.099 108.015C156.652 107.342 156.204 106.67 155.645 105.997C157.603 106.67 159.674 106.894 161.744 106.558C166.277 105.829 170.306 102.858 173.552 99.4945C173.384 99.7747 173.329 100.111 173.44 100.448C173.595 100.883 173.75 101.318 173.897 101.754C174.013 102.103 174.124 102.452 174.224 102.802C172.041 103.026 169.355 105.044 165.997 108.856C165.631 109.253 165.281 109.651 164.948 110.049C164.67 110.38 164.405 110.711 164.15 111.042C162.528 109.753 160.625 108.632 158.219 107.847C158.162 107.818 158.106 107.804 158.049 107.798ZM14.5001 107.158C14.4516 107.126 14.4061 107.094 14.3423 107.062C14.9021 105.212 16.0212 104.596 17.4759 103.867C18.7073 103.25 20.0501 102.578 20.8898 101.064C21.2591 100.425 21.5278 99.8261 21.7199 99.2437C21.8475 98.8554 21.9415 98.4743 22.0089 98.0932C22.2889 100.672 22.7925 103.138 23.6879 105.493C21.9528 105.324 20.2182 105.38 18.5955 105.717C17.1403 106.053 15.7975 106.558 14.6222 107.23C14.5742 107.206 14.5364 107.182 14.5001 107.158ZM136.674 69.3923C136.17 66.9259 135.778 64.5716 135.386 62.2732C136.058 57.172 137.233 52.1829 138.409 48.091C148.202 51.3983 161.297 47.6986 168.684 43.6064C170.015 42.8656 171.199 42.0516 172.286 41.2447C172.844 40.8303 173.376 40.4181 173.888 40.0188C177.581 37.216 179.652 35.7585 182.674 37.5524C184.409 38.5614 185.64 40.5793 186.647 42.9338C186.423 45.0639 186.255 47.306 186.423 49.6044C186.524 51.668 186.85 53.551 187.159 55.3342L187.263 55.9388C187.99 59.9187 188.606 63.6186 187.319 68.4955C185.696 74.5495 182.842 81.4443 179.26 87.947C175.287 95.1783 168.516 103.25 161.464 104.371C158.051 104.932 154.749 103.699 151.671 100.84C142.382 92.095 138.296 77.3523 136.674 69.3923ZM144.285 96.4674C138.632 92.3192 133.204 87.947 132.308 81.8928C132.34 81.7666 132.389 81.6405 132.426 81.5041C132.455 81.3983 132.477 81.2864 132.477 81.1641C132.635 80.6872 132.758 80.2103 132.865 79.7541C132.947 79.4057 133.019 79.069 133.092 78.7536C133.764 82.4535 134.995 85.8167 137.01 88.6196C138.688 90.9179 140.815 93.048 142.886 95.0661C143.043 95.2442 143.208 95.4153 143.375 95.5821C143.682 95.8873 143.995 96.1775 144.285 96.4674ZM138.856 87.3304C135.778 83.0139 134.715 77.1842 134.715 71.0179C135.834 76.175 137.849 83.4624 141.318 90.3013C140.423 89.3483 139.583 88.3394 138.856 87.3304ZM127.608 24.9957C133.428 13.2799 152.958 3.24582 165.046 3.24582C165.239 3.24582 165.432 3.24582 165.618 3.25221C165.919 3.26217 166.203 3.28873 166.445 3.35795C177.805 4.19883 191.404 16.3629 195.545 29.312C197.391 35.086 198.063 43.1019 191.348 49.5484L191.148 49.0174C190.863 48.2621 190.555 47.4478 190.285 46.6335C189.837 45.3441 189.389 43.9987 188.829 42.7095C188.997 41.5323 189.109 40.4112 189.277 39.2901L189.291 39.1928C190.181 32.6132 191.042 26.2611 185.584 21.352C185.64 20.4552 185.528 19.6702 185.416 18.9977C184.185 12.6633 176.686 7.39401 167.564 6.49719C155.197 5.26397 145.907 8.06681 139.808 14.7936C134.379 20.8475 131.581 29.9848 131.413 42.261C131.246 42.4293 131.134 42.6534 131.078 42.8776C131.021 43.214 131.134 43.5504 131.413 43.8306C131.469 49.3801 132.029 55.5465 133.092 62.3292C132.812 64.5154 132.645 66.7016 132.533 68.8878C132.27 68.1466 131.946 67.3951 131.583 66.6247C131.095 65.5892 130.536 64.5195 129.958 63.3943C129.758 63.018 129.558 62.6306 129.353 62.2321C129.099 61.7396 128.838 61.2303 128.559 60.7036C126.824 57.172 123.579 50.6695 125.37 46.8015C126.041 45.2881 127.44 44.2792 129.679 43.7185C130.07 43.6064 130.35 43.3262 130.462 42.9338C130.574 42.5412 130.518 42.1489 130.238 41.8687C125.537 36.6553 124.642 30.9378 127.608 24.9957ZM134.379 55.042C133.987 51.7906 133.764 48.6514 133.707 45.7367C134.547 46.2971 135.386 46.8015 136.282 47.1939C135.666 49.6044 134.995 52.2391 134.379 55.042ZM167.62 41.6444C160.122 45.7926 147.866 48.9318 139.024 45.9047C139.528 44.1108 140.031 42.5412 140.423 41.308C144.452 40.2991 148.593 39.7386 152.958 39.178C160.625 38.169 168.516 37.1039 175.79 33.2921C181.666 30.209 184.185 26.8455 185.136 23.9306C188.662 27.9107 187.99 32.8436 187.151 38.9537V39.0658C186.255 37.6645 185.192 36.4311 183.849 35.6464C179.414 33.0369 176.133 35.5419 172.646 38.2045L172.545 38.2812L171.905 38.7586C170.589 39.7437 169.208 40.777 167.62 41.6444ZM135.047 43.9637C134.782 43.7801 134.522 43.5862 134.267 43.3821C135.443 42.8217 136.618 42.4293 137.849 42.0367L137.604 42.8817C137.401 43.5808 137.191 44.3083 136.953 45.0639C136.29 44.7515 135.655 44.3849 135.047 43.9637ZM141.542 16.2511C146.243 11.0377 153.182 8.40296 162.248 8.40296C163.871 8.40296 165.606 8.51509 167.34 8.68342C175.511 9.4681 182.17 13.9527 183.233 19.3341C183.29 19.39 183.29 19.4462 183.29 19.5022C181.723 18.4932 179.764 17.5402 177.357 16.6993C170.026 14.1208 162.696 14.4572 156.092 17.7083C148.202 21.6325 141.878 29.5362 138.632 39.4582C136.953 39.9067 135.331 40.4671 133.707 41.1399C134.044 30.0407 136.618 21.6884 141.542 16.2511ZM157.099 19.6705C160.457 18.0447 164.039 17.2038 167.676 17.2038C170.642 17.2038 173.608 17.7645 176.63 18.7175C179.484 19.7824 181.666 20.9037 183.29 22.1369C182.618 25.5002 179.708 28.6394 174.728 31.218C167.883 34.8119 160.276 35.8426 152.927 36.8382L152.622 36.8796C148.817 37.3841 144.956 37.9448 141.207 38.7856C144.396 30.0407 150.104 23.1459 157.099 19.6705Z" stroke="white" stroke-width="2"/>
</g>
</svg>
