<svg width="725" height="448" viewBox="0 0 725 448" fill="none" xmlns="http://www.w3.org/2000/svg">
<g opacity="0.35">
<path d="M153.124 123.808C153.124 118.666 152.748 115.373 157.761 112.735C160.196 111.453 162.536 111.153 165.26 111.153C168.347 111.153 171.294 110.899 173.732 113.262C174.524 114.031 175.278 114.845 176.05 115.635C176.478 116.073 176.835 117.917 177.166 117.979C179.484 118.41 182.74 116.241 185.066 115.782C187.178 115.364 189.403 114.618 191.477 114.024C195.842 112.773 200.036 110.692 204.385 109.337C210.057 107.57 219.279 109.737 219.984 116.953C220.296 120.148 215.895 123.222 213.63 124.57C208.936 127.363 203.855 129.69 198.976 132.127C185.909 138.656 171.063 140.958 157.246 145.309C144.631 149.282 132.82 151.754 119.694 151.754C117.291 151.754 115 148.623 115 146.247C115 141.929 117.061 139.165 120.638 136.785C123.809 134.676 128.047 133.43 131.744 132.772C135.308 132.137 137.957 130.74 141.275 129.608" stroke="white" stroke-width="3" stroke-miterlimit="10" stroke-linecap="round" stroke-linejoin="round"/>
<path d="M246 105.754C263.821 113.463 281.469 121.212 298.834 129.913C306.24 133.624 313.782 137.514 319.865 143.277C327.264 150.287 336.967 154.717 345 160.754" stroke="white" stroke-width="3" stroke-miterlimit="10" stroke-linecap="round" stroke-linejoin="round"/>
<path d="M14.2369 135.907C-0.308858 140.07 1.24962 147.357 3.32759 153.082C4.39983 156.036 37.4312 267.346 69.8223 386.245C87.6497 451.685 104.338 522.689 117.616 571.527C119.739 579.334 125.408 582.457 132.161 579.854C135.81 578.449 225.193 548.995 299.438 528.85C362.631 511.703 411.995 503.461 418.922 501.786C433.987 498.143 435.026 492.418 433.467 485.132C432.612 481.132 396.291 348.353 366.453 237.916C341.94 147.187 322.948 75.259 321.776 70.3296C319.179 59.4001 315.023 56.2773 305.672 58.3591C301.145 59.3671 212.71 85.6532 145.149 103.639C73.1762 122.799 21.7398 133.759 14.2369 135.907Z" stroke="white" stroke-width="3" stroke-miterlimit="10" stroke-linecap="round" stroke-linejoin="round"/>
<path d="M323.386 83.8465C327.762 83.158 330.095 81.7165 334.47 80.9206C340.174 79.8828 348.747 83.3025 348.417 90.7087C348.271 93.9878 343.606 96.5189 341.238 97.5841C336.33 99.792 334.134 100.197 329.099 102.02" stroke="white" stroke-width="3" stroke-miterlimit="10" stroke-linecap="round" stroke-linejoin="round"/>
<path d="M348.924 63.0763C369.385 75.823 389.627 88.592 409.357 102.515C417.772 108.453 426.322 114.641 432.761 122.95C440.592 133.056 451.692 140.289 460.468 149.273" stroke="white" stroke-width="3" stroke-miterlimit="10" stroke-linecap="round" stroke-linejoin="round"/>
<path d="M136.453 104.617C135.28 98.4655 132.887 77.8993 147.359 75.5384C154.823 74.3206 207.001 78.1894 278.403 67.988C345.429 58.4118 433.551 43.0601 438.015 42.6209C447.234 41.7139 450.759 45.4669 451.691 57.03C452.111 62.2452 460.055 138.593 470.608 234.97C483.453 352.282 499.323 493.386 499.573 497.605C500.029 505.291 498.227 511.032 483.333 512.791C476.485 513.599 428.207 515.566 365.468 524.855C317.19 532.004 262.149 542.397 228.88 548.989" stroke="white" stroke-width="3" stroke-miterlimit="10" stroke-linecap="round" stroke-linejoin="round"/>
<path d="M452.498 66.754C465.464 67.2726 565.56 75.0511 576.97 76.0883C588.38 77.1254 589.418 91.6454 586.824 124.315C584.231 156.985 564.005 325.003 564.523 370.637C565.042 416.271 559.855 523.616 555.188 528.283C550.52 532.95 548.445 535.024 528.737 532.95C512.971 531.291 425.01 525.344 383.001 522.578" stroke="white" stroke-width="3" stroke-miterlimit="10" stroke-linecap="round" stroke-linejoin="round"/>
<path d="M486.001 66.754C502.323 88.9185 522.461 108.743 540.215 129.914C554.087 146.454 566.82 161.473 585.001 173.754" stroke="white" stroke-width="3" stroke-miterlimit="10" stroke-linecap="round" stroke-linejoin="round"/>
<path d="M454.001 90.7545C462.365 90.7545 470.729 90.7545 479.093 90.7545C484.91 90.7545 488.334 90.5927 491.155 96.2543C492.423 98.799 492.35 102.531 490.358 104.476C487.264 107.497 485.58 107.754 481.141 107.754" stroke="white" stroke-width="3" stroke-miterlimit="10" stroke-linecap="round" stroke-linejoin="round"/>
<path d="M584.001 153.795C591.333 155.385 598.653 156.283 606.145 156.501C608.408 156.567 611.348 157.036 613.612 156.501C614.706 156.243 617.399 155.484 617.874 154.221C618.149 153.492 619.113 152.569 618.99 151.849C618.463 148.769 614.843 147.472 612.61 146.163C610.06 144.668 607.598 143.338 605.115 141.754" stroke="white" stroke-width="3" stroke-miterlimit="10" stroke-linecap="round" stroke-linejoin="round"/>
<path d="M627.001 117.754C632.177 136.878 643.622 155.205 655.288 171.963C667.017 188.812 681.457 204.649 690.256 222.875C694.094 230.825 697.737 239.535 705.001 245.754" stroke="white" stroke-width="3" stroke-miterlimit="10" stroke-linecap="round" stroke-linejoin="round"/>
<path d="M352.001 528.616C371.788 533.539 391.449 538.099 411.533 541.607C424.131 543.807 436.143 548.965 448.568 551.884C462.129 555.069 475.23 559.078 489.064 560.833C497.995 561.966 507.597 563.691 516.234 566.261C525.639 569.059 535.87 570.392 545.019 574.055C554.134 577.704 564.42 579.462 574.209 580.55C578.324 581.008 582.634 581.158 586.698 581.907C590.72 582.649 595.279 583.697 599.36 583.697C601.697 583.697 604.845 584.232 606.398 582.023C608.541 578.974 610.472 575.996 612.368 572.785C615.605 567.302 619.342 562.074 621.165 555.868C624.096 545.897 626.177 535.849 629.241 525.903C634.682 508.241 641.915 491.332 646.893 473.535C650.609 460.255 652.021 446.545 654.191 432.975C657.621 411.516 661.046 389.702 666.103 368.57C673.153 339.11 682.791 310.184 691.024 281.041C697.177 259.258 703.478 237.472 708.964 215.509C712.281 202.231 712.862 188.341 716.232 175.007C718.363 166.578 719.96 158.051 721.915 149.574C722.678 146.264 723.533 143.701 722.578 140.452C720.136 132.142 707.509 132.295 700.859 129.799C694.597 127.449 687.531 127.308 681.13 125.44C672.407 122.893 663.36 122.247 654.393 120.994C646.34 119.87 638.346 118.481 630.28 117.472C625.166 116.832 619.818 116.269 614.964 114.47C608.246 111.98 600.279 111.228 593.245 110.082C590.386 109.616 587.983 108.754 585.111 108.754" stroke="white" stroke-width="3" stroke-miterlimit="10" stroke-linecap="round" stroke-linejoin="round"/>
</g>
</svg>
