<svg width="1274" height="800" viewBox="0 0 1274 800" fill="none" xmlns="http://www.w3.org/2000/svg">
<g opacity="0.35">
<path d="M485 229.322C516.541 221.523 547.853 213.485 577.983 201.194C589.926 196.322 601.663 190.76 614.699 189.433C648.442 185.997 684.516 186.014 718.278 189.679C742.124 192.268 760.106 195.814 779.965 210.981C813.111 236.295 838.547 270.966 855.452 308.938C861.655 322.87 867.286 341.415 866.377 356.888C864.561 387.808 846.851 417.821 832.453 444.316C820.539 466.24 806.125 485.768 796.64 509.127C788.539 529.077 779.618 549.226 769.862 568.427C766.246 575.543 759.08 587.291 751.134 590.223C742.929 593.249 742.609 586.942 744.399 579.859C749.2 560.858 765.282 540.318 776.926 525.001C782.814 517.256 790.401 510.336 795.326 501.889C819.095 461.119 833.652 412.326 847.895 367.58C857.119 338.604 862.765 308.725 846.91 281.138C829.476 250.805 794.894 230.326 762.88 218.877C748.279 213.655 733.465 209.203 718.442 205.306C702.118 201.072 682.171 201.219 666.858 194.121C659.119 190.533 652.179 173.356 661.848 167.884C670.975 162.718 682.395 160.423 692.322 157.11C697.534 155.37 708.253 154.646 712.364 150.53C716.815 146.073 704.177 160.679 708.914 160.975C717.792 161.531 721.958 147.671 721.482 141.236C720.85 132.699 718.747 133.356 718.607 141.647C718.478 149.227 716.702 156.719 715.321 164.183C712.883 177.365 711.495 153.757 710.968 152.01C701.917 122.019 688.533 93.5112 679.015 63.6769C677.709 59.5818 676.131 55.2456 675.812 50.9286C675.14 41.8494 676.18 33.219 669.815 26.5012C665.954 22.4259 658.152 14.5371 658.152 8.32463C658.152 2.3357 665.814 17.5261 669.815 21.9776C671.773 24.1553 681.225 35.7929 685.751 30.6136C685.821 30.5332 678.084 25.473 677.29 24.2806C672.494 17.0768 674.251 6.5522 674.251 -1.62727C674.251 -16.636 674.833 -33.4141 666.858 -46.8632C662.889 -53.5569 662.423 -34.2372 662.423 -32.5522C662.423 -30.4417 660.672 -15.4861 659.794 -17.4187C653.433 -31.4309 653.258 -47.4339 647.638 -61.6676C644.866 -68.6884 638.349 -76.4353 637.288 -83.8743C633.746 -108.699 632.111 -137.357 638.109 -161.927C638.298 -162.7 645.637 -179.644 647.309 -177.636C649.87 -174.558 643.881 -158.397 646.488 -165.792C650.307 -176.627 654.627 -190.97 653.47 -202.557C653.111 -206.148 646.149 -202.169 646.406 -202.639C648.993 -207.389 663.331 -220.58 661.437 -225.997C660.653 -228.241 653.97 -222.847 658.152 -227.313C671.872 -241.968 688.161 -254.291 701.029 -269.753C706.238 -276.012 702.025 -273.702 698.647 -276.332C689.929 -283.122 715.967 -297.64 719.675 -300.349C722.133 -302.145 742.443 -318.4 741.935 -318.443C728.71 -319.546 755.735 -327.298 758.855 -327.819C768.803 -329.479 779.581 -329.198 789.576 -328.148C792.114 -327.881 799.594 -324.336 802.143 -325.187C811.754 -328.395 823.728 -320.187 831.467 -315.564C835.837 -312.954 854.918 -300.046 839.846 -309.478C834.799 -312.636 824.947 -316.969 834.999 -321.322C844.623 -325.489 861.818 -329.062 870.566 -321.733C882.088 -312.079 867.073 -313.442 858.409 -312.521C845.462 -311.145 832.643 -309.071 819.803 -306.928C805.436 -304.531 789.515 -303.239 776.187 -296.894C765.218 -291.673 751.558 -280 755.077 -266.545C756.14 -262.481 760.695 -250.804 760.005 -254.948C759.008 -260.941 751.784 -269.282 755.57 -275.51C756.504 -277.046 768.155 -282.117 760.17 -278.964C752.47 -275.924 745.142 -271.679 738.156 -267.285C732.187 -263.531 716.318 -256.392 715.732 -247.875C715.61 -246.106 714.626 -238.014 717.785 -242.118C723.322 -249.31 729.695 -255.043 737.006 -260.459C750.252 -270.27 764.782 -278.167 778.076 -288.012C785.542 -293.54 792.115 -300.518 800.254 -305.119C816.081 -314.065 834.232 -319.216 851.92 -322.72C853.517 -323.036 878.901 -329.527 878.041 -322.638C877.824 -320.9 871.218 -312.619 874.837 -311.37C887.086 -307.14 904.485 -315.196 917.058 -315.482C928.433 -315.741 936.992 -313.72 946.135 -306.599C948.081 -305.084 964.803 -293.829 956.567 -302.076C946.382 -312.274 961.015 -305.648 968.313 -302.98C982.016 -297.971 995.738 -292.463 1008.48 -285.297C1012.6 -282.983 1019.9 -279.679 1020.23 -274.03C1020.38 -271.263 1015.42 -268.108 1015.71 -268.108C1023.21 -268.108 1031.67 -269.033 1035.34 -260.705C1036.27 -258.587 1040.87 -238.167 1037.15 -237.101C1033.98 -236.195 1029.89 -238.7 1030.9 -233.399C1033.2 -221.424 1047.59 -218.23 1050.95 -207.738C1051.76 -205.2 1041.9 -213.058 1043.47 -210.782C1052.36 -197.919 1061.48 -183.802 1067.29 -169.247C1068.51 -166.188 1071.2 -153.949 1070.99 -154.771C1069.41 -160.906 1064.31 -176.362 1062.77 -162.174C1061.7 -152.273 1061.05 -142.591 1056.53 -133.552C1054.53 -129.547 1051.27 -125.469 1051.27 -120.885C1051.27 -106.932 1058.98 -95.841 1058.67 -81.9004C1058.54 -76.4032 1054.5 -72.3967 1051.27 -68.2474C1047.39 -63.2421 1045.98 -57.461 1043.8 -51.6335C1038.11 -36.4493 1034.43 -20.6249 1026.96 -6.06861C1020.1 7.30597 1005.74 4.29452 992.873 4.29452C985.761 4.29452 979.269 5.01232 972.913 1.66262C969.655 -0.0543757 968.318 -3.02462 965.192 -4.91714C960.514 -7.74899 956.254 -8.63282 950.735 -9.35848C943.826 -10.2669 927.068 -15.0273 920.507 -11.0857C914.627 -7.55263 913.204 -1.77577 908.515 2.73182C901.951 9.04107 898.699 11.1338 897.18 1.49812C895.893 -6.66269 880.927 -4.58817 874.837 -4.58817C870.856 -4.58817 861.99 -4.54588 859.067 -0.887048C856.719 2.0517 844.73 -0.559396 841.981 -0.969297C833.251 -2.27124 820.887 -8.58354 812.082 -5.73961C805.159 -3.50327 801.96 -0.753154 793.683 -1.95625C787.328 -2.87999 778.903 -5.15279 775.694 -11.3324C774.755 -13.1409 773.322 -21.846 772.409 -20.6263C765.572 -11.4985 747.235 -6.18671 746.699 -22.847C746.422 -31.4446 747.115 -37.5745 753.352 -43.82C762.454 -52.9343 761.778 -41.1154 763.784 -32.7167C764.752 -28.6621 766.235 -25.0749 767.891 -21.2843C771.2 -13.7114 758.736 -35.0467 754.42 -42.0928C744.471 -58.3337 739.329 -66.77 729.614 -83.0519C727.183 -87.1245 724.823 -91.2386 722.385 -95.3067C721.289 -97.1367 720.467 -101.253 719.264 -98.8433C717.107 -94.5248 716.272 -89.5835 714.171 -85.1903C712.754 -82.2276 711.022 -79.4719 710.064 -76.3076C709.217 -73.5081 707.717 -80.9235 707.271 -81.9004C702.675 -91.9823 697.361 -109.96 688.543 -117.184C687.916 -117.698 688.082 -103.391 688.708 -100.817C690.007 -95.4693 690.515 -90.6716 690.515 -85.1903C690.515 -81.2596 689.97 -77.2211 686.818 -74.4159C686.562 -74.1879 673.659 -94.9783 671.294 -97.6096C666.983 -102.406 656.633 -111.095 649.938 -109.371C644.482 -107.966 643.202 -106.056 643.202 -100.817C643.202 -98.235 644.775 -96.565 646.159 -99.3368" stroke="white" stroke-width="3" stroke-miterlimit="10" stroke-linecap="round" stroke-linejoin="round"/>
<path d="M1048.5 -51.5472C1052.79 -54.0713 1066.25 -65.518 1071.75 -60.9239C1076.59 -56.8815 1078.21 -50.636 1076.08 -44.8025C1072.44 -34.816 1066.24 -25.2148 1062 -15.3564C1058.05 -6.15964 1055.31 3.8827 1053 13.5963C1051.12 21.4765 1048.13 29.1138 1044.75 36.4623C1042.39 41.5791 1044.04 37.8608 1041.83 31.5272C1039.3 24.2648 1038.97 22.4895 1031.25 27.0033C1021.65 32.6209 1026.68 24.0625 1027.42 16.8041C1028.04 10.6362 1026.97 14.1021 1026.33 18.3669C1025.01 27.236 1025.42 36.2184 1024.17 45.0165C1021.52 63.6234 1017 82.474 1017 101.277C1017 110.199 1015.96 119.407 1018.83 127.926C1020.05 131.531 1020.79 134.303 1017 130.558C1013.24 126.843 1012.79 131.473 1011 135" stroke="white" stroke-width="3" stroke-miterlimit="10" stroke-linecap="round" stroke-linejoin="round"/>
<path d="M982 113C1012.86 134.394 1045.47 154.349 1078.9 171.436C1089.81 177.015 1101.6 181.005 1113 185.49C1123.02 189.429 1133.86 190.195 1143.74 194.284C1149.3 196.587 1155.28 197.011 1161 198.805C1173.15 202.617 1147.58 193.281 1144.97 192.23C1141.86 190.972 1134.1 191.534 1135.6 188.531C1136.07 187.606 1144.74 188.698 1145.38 188.778C1160.85 190.689 1176.63 198.908 1190.09 206.366C1201.61 212.748 1213.03 219.302 1225.1 224.612C1229.76 226.662 1231.74 229.923 1233.81 234.31C1236.09 239.113 1226.63 240.12 1223.13 240.885C1217.24 242.173 1219.59 239.928 1224.03 237.926C1234.47 233.228 1245.25 232.899 1256.5 232.831C1276.98 232.706 1296.58 232.697 1314.36 232.831C1340.06 233.024 1364.76 239.432 1389.97 243.844C1408.79 247.138 1427.55 250.395 1446.18 254.693C1457.76 257.366 1469.15 260.81 1480.53 264.227C1487.05 266.181 1496.48 267.602 1501.9 272.034C1505.81 275.233 1512.47 281.355 1506.91 284.691C1498.67 289.641 1485.85 291.705 1476.42 292.006C1474.41 292.07 1461.11 294.168 1469.93 292.746C1486.5 290.073 1504.57 292.006 1521.3 292.006C1535.84 292.006 1550.39 292.006 1564.94 292.006C1590.05 292.006 1613.64 297.856 1638.16 302.691C1666.02 308.185 1694.43 315.492 1720.84 325.703C1771.57 345.32 1818.14 369.035 1864.5 397.865C1875.25 404.552 1887.09 411.398 1894.91 421.699C1902 431.052 1908.92 440.495 1916.28 449.644C1932.99 470.417 1948 496.555 1948 524.188C1948 563.265 1928.25 597.358 1898.52 621.746C1885.3 632.597 1872.97 642.913 1858.91 652.649C1847.44 660.591 1837.36 668.758 1826.78 677.963C1822.07 682.055 1808.5 694.862 1812.56 690.127C1822.1 678.99 1829.95 668.399 1841.57 658.895C1855.62 647.397 1873.64 637.469 1885.21 623.39C1896.03 610.233 1902.11 594.491 1913.98 581.967C1922.2 573.289 1907.31 573.535 1901.98 577.035C1893.34 582.703 1885.97 588.933 1879.62 597.089C1866.44 614.044 1851.25 628.395 1837.21 644.594C1805.9 680.73 1779.38 724.687 1743.11 756.535C1733.05 765.372 1722.49 773.836 1711.64 781.684C1695.56 793.306 1677.34 799.282 1659.53 807.574C1627.92 822.291 1594.62 832.963 1563.38 848.586C1534.95 862.799 1510.89 883.79 1488.42 906.118C1467.25 927.154 1445.35 951.265 1430.24 977.293C1428.82 979.728 1417.68 1001.43 1415.44 994.717" stroke="white" stroke-width="3" stroke-miterlimit="10" stroke-linecap="round" stroke-linejoin="round"/>
<path d="M1330.98 827.104C1337.52 779.786 1345.15 732.452 1353.15 685.314C1357.44 660.045 1354.63 632.767 1354.63 607.181C1354.63 579.995 1352.06 551.284 1357.67 524.607C1364.49 492.152 1391.17 463.887 1391.59 430.025C1391.76 416.541 1391.59 403.045 1391.59 389.56C1391.59 385.174 1391.59 380.788 1391.59 376.401C1391.59 375.407 1391.24 365.381 1392.41 370.397C1395.93 385.485 1397.56 401.274 1398.66 416.701C1400.16 437.798 1392 460.286 1383.46 479.29C1377.34 492.902 1375.9 510.036 1380.67 524.36C1383.31 532.3 1390.89 541.823 1397.51 546.977C1401.15 549.819 1409.65 559.727 1408.68 555.202C1406.74 546.16 1396.43 538.68 1392.41 530.282C1391.77 528.926 1386.2 518.174 1389.95 523.455C1393.98 529.123 1399.02 534.016 1403.91 538.917C1406.35 541.361 1412.63 544.918 1414.02 547.964C1414.43 548.869 1389.7 558.98 1387.32 560.712C1383.87 563.224 1380.98 567.177 1378.61 570.664C1375.41 575.377 1372.86 580.547 1370.32 585.633C1368.54 589.197 1367.79 599.142 1364.98 596.324C1359.92 591.258 1375.72 571.783 1379.11 568.855C1403.77 547.567 1437.66 557.33 1462.56 573.954C1471.17 579.705 1477.61 588.175 1485.56 594.762C1495.86 603.299 1506.37 607.444 1519.07 610.964C1536.23 615.722 1589.97 615.716 1572.46 612.527C1570.32 612.138 1567.16 613.251 1565.23 612.115C1562.81 610.688 1573.32 604.978 1573.77 604.713C1587.71 596.483 1597.49 583.187 1599.73 567.045C1601.63 553.316 1605.25 541.443 1611.31 528.719C1620.98 508.411 1636.36 491.094 1645.07 470.49C1645.37 469.771 1649.84 459.349 1649.99 459.798C1651.11 463.15 1646.93 468.842 1645.72 471.641C1641.72 480.93 1638.07 490.504 1636.36 500.509C1636.25 501.134 1634.62 511.509 1635.54 511.777C1642.43 513.79 1668.31 500.152 1671.35 498.864C1684.78 493.171 1698.04 487.116 1711.43 481.346C1729.65 473.498 1673.06 492.343 1655.42 501.414C1627.8 515.611 1616.58 546.742 1602.19 572.144C1596.46 582.265 1591.66 592.712 1585.35 602.575C1579.88 611.142 1573.17 615.633 1564.49 621.327C1548.36 631.911 1532.89 642.02 1517.43 653.731C1506.09 662.317 1494.58 669.021 1481.78 675.115C1476.14 677.801 1473.83 680.466 1469.95 684.902C1465.89 689.55 1468.13 694.188 1465.19 699.46C1463.71 702.111 1461.35 705.246 1466.17 702.092C1472.53 697.929 1478.44 692.965 1484.41 688.274C1488.88 684.757 1493.08 680.834 1497.88 677.747C1502.98 674.463 1501.6 675.236 1498.62 679.392C1489.26 692.426 1478.92 704.756 1468.8 717.225C1449.64 740.837 1426.2 760.389 1407.2 784.008C1373.11 826.379 1319.38 826.755 1272 841.25C1248.49 848.444 1228.02 878.308 1215.33 897.506C1205.62 912.188 1195.67 922.391 1181.65 932.871C1173.1 939.261 1165.63 947.079 1157.26 953.597C1151.92 957.75 1140.75 956.925 1134.42 957.298C1122.25 958.015 1112.21 954.62 1100.99 949.978C1086.7 944.064 1071.28 940.393 1055.82 939.533C1050.83 939.256 1035.62 933.345 1031.18 936.983C1028.74 938.982 1025.76 941.748 1023.46 944.056C1014.12 953.409 1033.4 963.05 1038.49 965.522C1045.76 969.057 1053.32 971.946 1060.75 975.145C1062.47 975.89 1072.42 978.789 1065.35 977.777C1052.64 975.959 1040.29 972.814 1028.71 968.072C1017.58 963.51 1001.04 965.405 992.244 954.831C986.794 948.282 1003.89 967.667 1011.3 971.855C1031.47 983.249 1054.86 985.544 1076.68 992.828C1099.87 1000.57 1125.35 1000.69 1149.04 1005.58C1158.37 1007.5 1167.54 1007.27 1176.89 1008.87C1186.04 1010.43 1183.24 1010.28 1179.35 1018.08C1177.9 1020.98 1177.68 1026.62 1174.83 1028.52C1165.35 1034.85 1149.51 1034.65 1138.45 1035.51C1122.7 1036.74 1107.01 1034.56 1091.46 1038.06C1082.08 1040.18 1072.14 1042.39 1062.55 1043.16C1040.74 1044.91 956.442 1034.83 971.874 1078.61C979.197 1099.38 1001.56 1103.8 1021.48 1103.53C1047.3 1103.18 1123.68 1091.46 1097.87 1090.62C1086.08 1090.23 1072.83 1090.37 1061.32 1087.66C1054.22 1085.98 1047.37 1083.84 1040.13 1082.56C1039.49 1082.44 1025.59 1079.45 1033.31 1080.99C1050.63 1084.46 1067.97 1085.25 1085.55 1086.5C1099.91 1087.53 1114.83 1089.05 1129.08 1086.09C1138.07 1084.23 1146.76 1080.76 1155.86 1079.1C1161.26 1078.12 1167.53 1074.61 1172.78 1074.33C1180.55 1073.92 1195.04 1063.66 1203.17 1071.37C1206.68 1074.7 1199.02 1082.28 1196.93 1084.04C1182.84 1095.89 1164.47 1099.49 1146.91 1102.46C1119.75 1107.05 1090.1 1107.74 1064.03 1116.61C1056.97 1119.01 1050.01 1119.87 1042.59 1120.31C1035.85 1120.71 1023.63 1121.16 1018.28 1125.32C1013.57 1128.99 1011.82 1141.25 1013.44 1146.54C1015.25 1152.48 1031.62 1156.65 1036.93 1157.98C1054.09 1162.27 1069.75 1163.16 1087.36 1163.16C1106.85 1163.16 1124.8 1156.95 1144.03 1154.6C1159.25 1152.75 1175.97 1151.89 1186.66 1138.81C1188.49 1136.58 1170.36 1144.02 1167.85 1145.06C1162.26 1147.4 1160.34 1148.92 1163.17 1141.69C1164.86 1137.36 1169.62 1133.65 1169.82 1140.95C1170.05 1148.9 1169.78 1153.74 1165.72 1160.53C1158.96 1171.8 1150.12 1178.82 1142.23 1188.98C1135.39 1197.78 1123.31 1205.14 1118.08 1214.31C1115.57 1218.71 1114.76 1224.38 1114.13 1229.28C1113.89 1231.17 1111.05 1257.2 1112.25 1257C1114.66 1256.6 1117.13 1255.48 1119.56 1254.94C1132.83 1251.99 1144.42 1244.37 1154.71 1235.7C1166.3 1225.94 1174.43 1211.68 1187.24 1203.13C1197.49 1196.29 1204.24 1185.57 1214.09 1178.78C1220.88 1174.11 1229.48 1170.42 1234.14 1163.16C1241.2 1152.16 1247.04 1140.43 1254.1 1129.44C1260.61 1119.28 1269.56 1112.63 1280.63 1107.64C1282.99 1106.58 1289.51 1100.87 1292.21 1101.64C1292.45 1101.71 1273.99 1113.15 1272.33 1113.81C1264 1117.14 1255.51 1118.01 1246.7 1118.74" stroke="white" stroke-width="3" stroke-miterlimit="10" stroke-linecap="round" stroke-linejoin="round"/>
<path d="M419.745 317C429.688 339.539 439.386 360.638 443.422 385.076C445.304 396.476 444.062 407.907 445.642 419.278C447.015 429.169 445.732 439.134 446.71 449.041C448.354 465.682 453.705 478.319 459.453 493.767C470.414 523.225 481.824 552.755 492.914 582.232C495.901 590.173 499.921 597.65 502.533 605.747C505.658 615.436 506.344 625.414 508.617 635.262C513.938 658.325 515.671 682.591 515.933 706.216C516.173 727.756 519.995 748.617 521.524 770.016C522.402 782.303 523.134 795.416 525.552 807.507C526.2 810.746 526.092 813.969 526.621 817.209C527.557 822.944 526.767 818.565 524.155 815.4C515.309 804.682 506.157 796.018 495.874 786.789C489.584 781.144 481.807 777.161 475.896 771.25C472.783 768.137 469.484 765.405 465.948 762.781C437.681 741.808 413.334 712.588 388.997 687.47C359.143 656.658 335.869 624.803 313.608 588.481C304.896 574.266 300.745 558.423 290.671 544.906C284.278 536.328 275.988 524.266 265.514 520.076C259.346 517.609 251.444 513.684 259.266 522.132C269.625 533.32 276.531 549.186 279.49 563.98C284.725 590.159 291.552 613.769 314.677 629.754C325.769 637.421 338.224 642.894 349.288 650.555C353.974 653.799 341.844 634.216 340.163 632.22C336.126 627.431 332.191 622.065 328.817 616.764C324.653 610.219 347.668 606.482 350.85 605.253C365.672 599.531 384.058 593.659 395.739 582.232C402.465 575.652 407.505 567.082 412.345 559.129C415.469 553.998 423.832 543.202 416.785 556.416C412.332 564.766 405.589 575.048 408.975 584.946C415.256 603.308 437.841 616.467 451.232 629.178C463.047 640.393 472.657 653.217 480.418 667.409C488.165 681.576 491.657 698.422 493.736 714.273C495.376 726.776 495.479 742.26 501.135 753.573" stroke="white" stroke-width="3" stroke-miterlimit="10" stroke-linecap="round" stroke-linejoin="round"/>
<path d="M488.083 228C480.53 231.132 472.152 234.897 464.087 236.547C463.175 236.733 445.307 240.915 453.568 242.463C465.674 244.733 480.751 243.267 492.85 241.888C499.959 241.078 520.835 237.666 513.723 236.875C489.392 234.172 463.253 236.875 438.775 236.875C413.062 236.875 388.39 238.522 363.006 242.792C347.236 245.445 333.574 250.786 318.629 256.105C303.308 261.558 288.085 270.991 274.252 279.444C263.174 286.214 254.74 292.045 247.626 303.111C245.602 306.259 245.097 307.548 249.68 307.796C262.505 308.489 275.548 307.969 288.387 307.878C298.779 307.804 309.032 306.55 319.451 306.399C332.524 306.209 345.533 304.919 358.732 304.919C369.545 304.919 379.5 309.086 390.125 311.165C398.658 312.834 407.81 317.172 415.601 320.862C425.204 325.411 399.287 333.238 393.741 333.025C389.299 332.854 387.373 324.045 391.111 321.52C397.074 317.49 409.815 319.284 417.08 319.712C426.037 320.239 409.925 320.335 407.054 320.04C392.667 318.565 378.092 318.899 363.663 317.904C342.632 316.453 321.623 316.753 300.549 316.753C276.58 316.753 252.958 315.331 229.546 320.533C214.561 323.864 201.11 325.926 187.799 334.175C171.834 344.069 153.519 354.004 138.984 365.896C132.919 370.858 128.631 377.597 122.548 382.496C115.932 387.826 109.189 391.321 103.483 397.782C97.1293 404.974 91.6452 410.247 86.8823 418.491C80.5579 429.437 74.8746 440.726 67.981 451.362C64.7377 456.366 61.5767 460.979 57.5442 465.415C45.0026 479.21 33.0695 492.707 22.1248 508.066C2.57915 535.494 -2.4724 575.782 5.85324 608.159C12.8847 635.504 26.3163 658.091 43.9846 679.984C60.2029 700.08 74.8885 721.104 90.9913 741.289C103.791 757.333 116.597 771.385 133.396 783.036C144.871 790.994 158.564 795.088 171.527 800.129C202.014 811.985 230.73 826.958 258.638 844.013C274.41 853.651 289.622 861.953 306.137 869.981C319.7 876.574 333.962 881.625 346.57 889.869C362.598 900.348 380.155 911.789 397.521 919.946C408.943 925.311 418.939 933.449 430.393 939.176C451.711 949.835 473.291 962.13 473.291 988.648C473.291 1002.8 472.624 1016.08 476.578 1029.74C481.695 1047.41 503.517 1061.44 515.86 1073.78C525.45 1083.37 528.86 1098.83 532.131 1111.92C533.18 1116.11 535.84 1122.82 535.419 1127.04C534.955 1131.67 529.61 1119.7 527.365 1115.61C525.35 1111.95 522.611 1108.83 520.626 1105.18C517.47 1099.36 511.214 1073.07 511.751 1091.86C512.151 1105.89 523.869 1113.96 529.502 1125.23C531.161 1128.55 531.655 1135.02 534.268 1137.39C536.52 1139.44 549.421 1143.78 551.361 1140.68C553.413 1137.4 557.277 1137.51 558.758 1133.28C560.422 1128.53 555.66 1118.88 554.32 1114.05C551.52 1103.97 546.243 1093.8 541.664 1084.47C541.373 1083.88 538.006 1075.63 537.637 1075.92C534.214 1078.66 540.836 1093.46 541.664 1096.14C550.057 1123.32 557.152 1150.58 565.332 1177.66C574.879 1209.26 583.063 1240.91 574.207 1273.48C569.011 1292.59 564.136 1311.39 560.894 1330.84C560.468 1333.4 557.607 1353.57 557.607 1344.81" stroke="white" stroke-width="3" stroke-miterlimit="10" stroke-linecap="round" stroke-linejoin="round"/>
<path d="M1170 212C1162.47 218.498 1154.76 226.556 1144.66 228.824C1136.04 230.76 1126.46 229.726 1117.68 229.726C1102.8 229.726 1108.09 242.213 1113.73 252.541C1117.58 259.571 1122.5 265.375 1127.72 271.416C1140.96 286.74 1151.78 303.516 1156.34 323.446C1164.3 358.212 1165.77 400.891 1143.35 430.953C1142.47 432.131 1133.68 443.129 1134.79 437.354C1137.07 425.507 1142.59 414.481 1144.74 402.394C1151.65 363.65 1148.48 307.418 1115.54 279.787C1110.69 275.712 1118.96 298.084 1119.41 299.483C1128.23 326.897 1142.67 353.023 1148.28 381.385C1153.06 405.516 1138.81 424.858 1131.83 447.366C1126.31 465.162 1133.16 479.745 1151.41 485.281C1165.09 489.431 1179.51 492.579 1193.52 495.457C1206.28 498.077 1217.05 499.193 1217.05 483.229C1217.05 474.97 1215.18 467.127 1213.1 459.183C1206.87 435.377 1201.28 411.452 1199.61 386.801C1198.95 377.005 1198.09 370.996 1207.01 367.433C1210.69 365.965 1214.25 364.645 1217.71 362.674C1229.42 355.999 1236.28 343.072 1248.55 337.561C1255.8 334.307 1262.78 329.98 1271.01 330.175C1281.99 330.436 1292.23 337.856 1302.19 341.829C1324.53 350.745 1289.5 333.904 1287.3 330.175C1285.88 327.773 1295.96 328.698 1296.67 328.698C1307.17 328.698 1313.5 334.45 1321.6 340.434C1335.69 350.844 1347.61 363.362 1361 374.491" stroke="white" stroke-width="3" stroke-miterlimit="10" stroke-linecap="round" stroke-linejoin="round"/>
<path d="M444.735 414.221C440.963 396.327 437.572 371.944 450.65 356.947C462.427 343.443 485.85 341.849 502.409 341.849C511.74 341.849 521.428 340.601 530.178 344.393C541.702 349.387 552.995 355.799 563.37 362.855C585.261 377.746 611.429 387.891 630.492 406.344C638.658 414.249 646.597 421.708 655.549 428.662C657.035 429.816 659 433.198 659 428.827C659 417.218 644.193 406.091 635.996 400.19C609.525 381.13 580.626 363.546 551.292 349.316C535.58 341.694 512.967 327.888 495.344 338.403C488.745 342.34 485.912 350.02 484.663 357.193C484.357 358.951 483.929 362.293 481.706 362.527C465.849 364.194 457.533 375.49 441.613 366.137C429.652 359.11 412.335 351.471 410.804 336.188C410.464 332.791 409.97 329.499 409.572 326.095C407.954 312.271 399.984 292.829 404.232 279.16C408.588 265.142 428.581 250.99 442.106 247.487C458.812 243.161 478.605 245.778 495.672 245.846C518.813 245.939 540.762 248.665 563.534 252.493C581.538 255.519 611.263 259.915 615.457 281.458C621.532 312.663 569.248 319.154 548.253 322.649" stroke="white" stroke-width="3" stroke-miterlimit="10" stroke-linecap="round" stroke-linejoin="round"/>
<path d="M695 178C710.406 144.093 749.841 149.82 779.877 140.856C797.407 135.625 797.329 114.14 794.759 98.6061C793.782 92.6992 790.103 95.9407 787.154 98.4414C766.905 115.617 743.156 128.41 723.783 146.621C719.485 150.662 704.485 164.131 704.485 171.411C704.485 173.728 707.245 167.702 708.574 165.811C712.543 160.161 716.351 154.405 719.694 148.351C744.039 104.278 740.887 52.9568 729.589 5.45824C727.989 -1.26826 726.744 -11.5046 723.292 -17.6846C722.388 -19.3039 721.757 -14.2525 721.493 -12.4136C720.306 -4.11859 720.072 4.25589 720.022 12.6235C719.829 44.5455 721.493 76.3581 721.493 108.242C721.493 120.611 721.741 134.572 715.606 145.386" stroke="white" stroke-width="3" stroke-miterlimit="10" stroke-linecap="round" stroke-linejoin="round"/>
<path d="M1096 181C1051.18 185.776 1011.4 203.138 968.119 214.191C962.87 215.531 950.138 218.107 947.217 223.064C943.715 229.007 938.546 233.958 934.544 239.577C926.533 250.823 924.293 264.678 919.896 277.533C919.268 279.37 919 288.285 916.522 285.502C909.063 277.124 903.26 267.11 895.867 258.555C891.372 253.354 886.555 248.469 881.384 243.931C880.428 243.092 858.898 225.506 859 231.443C859.078 235.953 866.668 249.532 867.723 251.489C874.843 264.701 875.654 264.821 882.371 277.615C887.966 288.271 892.309 299.496 895.373 311.134C901.469 334.283 897.513 357.703 897.513 381.213C897.513 383.661 898.994 385.538 898.994 388.032C898.994 400.314 896.109 412.481 896.032 424.837C895.907 444.722 894.557 465.381 897.019 485.14C900.415 512.389 904.817 538.361 904.919 565.981C905.022 593.793 905.139 621.547 901.792 649.204C898.011 680.448 892.886 711.589 888.625 742.779C882.619 786.756 872.83 831.541 872.332 876.035C872.176 889.971 872.332 903.916 872.332 917.852C872.332 921.857 872.793 933.616 873.895 929.765C877.056 918.719 882.165 910.828 883.523 899.203C885.524 882.081 888.323 865.003 890.765 847.938C891.539 842.527 891.124 827.398 897.184 824.606C901.68 822.534 905.82 820.374 910.021 817.705C912.428 816.176 915.197 810.07 916.769 812.447C921.382 819.425 918.844 829.065 919.073 837.422C919.584 856.022 919.683 890.281 919.732 908.569C919.776 925.219 919.732 941.869 919.732 958.519C919.732 970.635 920.288 982.908 919.402 994.997C918.835 1002.73 916.769 1010.24 916.769 1018" stroke="white" stroke-width="3" stroke-miterlimit="10" stroke-linecap="round" stroke-linejoin="round"/>
</g>
</svg>
