<svg width="193" height="18" viewBox="0 0 193 18" fill="none" xmlns="http://www.w3.org/2000/svg">
<path fill-rule="evenodd" clip-rule="evenodd" d="M3.67639 17.9743H0V0H3.67639V17.9743ZM50.0894 15.5193V17.9779H49.8962C49.431 17.9779 48.9657 17.9783 48.5005 17.9787H48.4997C47.1042 17.9801 45.7087 17.9814 44.3132 17.9708C43.8848 17.9673 43.4459 17.9321 43.0245 17.8405C41.8623 17.5869 41.2232 16.8895 41.0441 15.7095C40.9844 15.3044 40.9528 14.8923 40.9493 14.4837C40.9418 12.9178 40.9432 11.35 40.9447 9.78304V9.77892V9.77855V9.7782V9.77785V9.7775V9.77715C40.9452 9.15027 40.9458 8.5235 40.9458 7.89702C40.9458 7.33345 40.9809 6.76988 41.1424 6.22392C41.455 5.16723 42.1713 4.57548 43.2457 4.41698C43.5337 4.37471 43.8286 4.36062 44.1201 4.35709C46.0513 4.35357 47.9826 4.35357 49.9138 4.35357H50.0999V6.87907H49.8927H45.9951C45.8476 6.87907 45.7037 6.88611 45.5597 6.90725C45.0014 6.98121 44.71 7.28413 44.6924 7.85123C44.6778 8.29756 44.6784 8.74557 44.679 9.19294V9.19302V9.1931V9.19317V9.19325C44.6792 9.39186 44.6795 9.59035 44.6784 9.7885V11.0178H49.2431V13.5644H44.7065C44.7065 13.6875 44.7028 13.8086 44.6991 13.9279L44.6991 13.9286C44.691 14.195 44.6831 14.4528 44.717 14.7056C44.7802 15.1917 45.1735 15.477 45.7283 15.4982C46.0047 15.5087 46.2812 15.5074 46.5576 15.5061H46.5578C46.65 15.5056 46.7422 15.5052 46.8343 15.5052H49.8892C49.9559 15.5193 50.0156 15.5193 50.0894 15.5193ZM28.9932 4.37471V17.9708H32.7257V13.575C32.9505 13.575 33.1729 13.5736 33.3936 13.5723H33.394H33.3944H33.3948H33.3953H33.3954C33.888 13.5693 34.3726 13.5663 34.8571 13.5785C35.5313 13.5926 35.6647 13.7476 35.6647 14.4168C35.6647 14.4915 35.6647 14.5663 35.6647 14.641L35.6646 14.7567C35.6642 15.4359 35.6637 16.1151 35.6788 16.7944C35.6823 16.9951 35.7315 17.203 35.8017 17.3932C35.9386 17.7701 36.2687 17.9779 36.6655 17.9779H39.9837H40.2084L40.1974 17.9676L40.179 17.9502C40.1455 17.9186 40.1261 17.9002 40.1066 17.8863C39.5869 17.5235 39.4008 17.0163 39.4114 16.3963C39.4254 15.4171 39.4184 14.4344 39.4114 13.4552C39.4114 13.2051 39.3973 12.948 39.3446 12.705C39.148 11.8103 38.5195 11.3559 37.6908 11.1164C37.6422 11.1025 37.5922 11.0947 37.5426 11.087C37.5299 11.085 37.5172 11.083 37.5046 11.0809C37.4979 11.0798 37.4913 11.0787 37.4846 11.0775L37.4781 11.0764C37.4741 11.0757 37.4701 11.0749 37.4661 11.0741C37.3993 11.0601 37.3291 11.046 37.2343 11.0284C38.1332 10.7113 38.6353 10.0668 38.7758 9.1897C38.9233 8.23868 38.9268 7.27005 38.7266 6.31902C38.523 5.34687 37.9225 4.71989 36.9464 4.52969C36.4162 4.42755 35.8684 4.37471 35.3277 4.37119C33.8387 4.35838 32.3478 4.36047 30.8578 4.36257H30.8574H30.8571H30.8567H30.8564C30.2983 4.36335 29.7404 4.36414 29.1828 4.36414C29.1422 4.36414 29.1031 4.36706 29.0626 4.37008H29.0625H29.0624H29.0623C29.0399 4.37175 29.017 4.37345 28.9932 4.37471ZM32.7328 11.0354V6.90725C32.8611 6.90725 32.9884 6.90416 33.1148 6.90109C33.3933 6.89432 33.6678 6.88765 33.9407 6.91429C34.5622 6.9777 34.9274 7.32993 34.9941 7.94985C35.0678 8.64375 35.0784 9.34469 34.966 10.0386C34.8642 10.6656 34.4849 10.9967 33.8529 11.0319C33.6003 11.0463 33.3478 11.0426 33.0907 11.0389L33.0905 11.0389C32.9724 11.0371 32.8533 11.0354 32.7328 11.0354ZM12.0755 17.9743H15.7624C15.7624 17.9039 15.7624 17.8511 15.7695 17.7982C15.7695 14.452 15.7695 11.1058 15.7659 7.75965C15.7659 7.44968 15.7414 7.1362 15.6922 6.82976C15.5834 6.14291 15.306 5.54059 14.7512 5.09326C14.1542 4.6107 13.4555 4.39584 12.7005 4.3888C11.0853 4.37471 9.47011 4.36766 7.85489 4.39232C6.71019 4.40993 5.83235 4.92067 5.31617 5.97384C5.02825 6.55854 4.93696 7.18903 4.93696 7.83714V17.7524C4.93696 17.8066 4.93982 17.8636 4.94296 17.926L4.94399 17.9462H8.63791V17.7137V8.23868C8.63791 8.21413 8.63769 8.18937 8.63747 8.16449V8.16417C8.63682 8.08922 8.63615 8.01326 8.64143 7.93929C8.6941 7.27709 9.04875 6.87555 9.63513 6.85441C10.1092 6.8368 10.5832 6.8368 11.0572 6.85441C11.5102 6.87202 11.8368 7.09745 11.9737 7.54126C12.0369 7.74908 12.072 7.97803 12.072 8.19642C12.0773 10.5793 12.0766 12.9622 12.076 15.3451V15.3658C12.0757 16.1637 12.0755 16.9616 12.0755 17.7595V17.9743ZM20.4185 6.87203V17.9673C21.6615 17.9673 22.8869 17.9673 24.1229 17.9708V6.8685H27.4552V4.37823H17.009V6.87203H20.4185ZM51.5437 4.37646C51.5203 4.37966 51.4967 4.38288 51.4728 4.38527C51.4728 8.91849 51.4728 13.4482 51.4763 17.9814H55.2265V13.582H55.4336C55.6872 13.582 55.941 13.5826 56.195 13.5832H56.1953H56.1954H56.1955C56.8312 13.5846 57.4676 13.5861 58.1022 13.5785C58.4218 13.575 58.7448 13.5574 59.0608 13.501C60.0791 13.3249 60.82 12.786 61.1431 11.7716C61.2484 11.4369 61.3257 11.0741 61.3327 10.7219C61.3573 9.6476 61.3502 8.5733 61.3432 7.499C61.3397 7.23834 61.3081 6.97417 61.266 6.71352C61.0869 5.59343 60.4654 4.86783 59.3698 4.55435C58.8467 4.40641 58.3129 4.36414 57.7722 4.36414H51.68C51.6337 4.36414 51.5889 4.37027 51.5437 4.37646ZM55.237 11.0354V6.88964C55.3695 6.88964 55.5011 6.88675 55.6318 6.88387C55.934 6.87723 56.2315 6.8707 56.5257 6.9002C57.0804 6.95656 57.4597 7.33697 57.4948 7.93576C57.5369 8.62614 57.5299 9.3306 57.4702 10.021C57.4105 10.6796 57.0313 10.9931 56.3747 11.0319C56.1174 11.0463 55.8618 11.0426 55.6011 11.0389C55.481 11.0371 55.3599 11.0354 55.237 11.0354ZM68.092 4.38527H68.2641C68.7935 4.38527 69.3229 4.38483 69.8523 4.38439C71.4403 4.38307 73.0282 4.38175 74.6161 4.39232C75.0164 4.39584 75.4237 4.43106 75.817 4.51208C77.0038 4.75512 77.685 5.51593 77.9062 6.69239C77.973 7.04814 78.0081 7.41446 78.0081 7.77726C78.0186 10.0421 78.0151 12.3069 78.0116 14.5718C78.0116 15.0896 77.9554 15.6038 77.7693 16.0934C77.3479 17.1994 76.5333 17.7947 75.3781 17.9426C75.1463 17.9708 74.9111 17.9779 74.6793 17.9779C73.2635 17.9802 71.8477 17.9794 70.433 17.9786H70.4308H70.4301C69.723 17.9783 69.0162 17.9779 68.3097 17.9779H68.0885C68.092 13.4592 68.092 8.95099 68.092 4.41836V4.38527ZM71.8492 6.89316V15.4735C72.0098 15.4735 72.1694 15.4762 72.3282 15.4789L72.3285 15.4789C72.6834 15.4849 73.0344 15.4908 73.3836 15.4665C73.8436 15.4312 74.1491 15.153 74.2263 14.6845C74.279 14.3745 74.3212 14.0575 74.3247 13.744C74.3352 12.0252 74.3317 10.3063 74.3282 8.58387C74.3282 8.40423 74.3141 8.22107 74.2931 8.04143C74.1947 7.29118 73.8541 6.94599 73.1308 6.90373C72.8274 6.88344 72.5241 6.88688 72.2141 6.89041C72.0936 6.89178 71.9721 6.89316 71.8492 6.89316ZM66.4909 4.37118H62.8145V17.9708H66.4909V4.37118Z" fill="white"/>
<path fill-rule="evenodd" clip-rule="evenodd" d="M91.3214 11.0674C91.3155 11.066 91.3094 11.0646 91.3033 11.0631C91.2809 11.0578 91.2572 11.0521 91.232 11.0456C91.8641 10.8836 92.2819 10.5208 92.5839 10.003C92.8191 9.58735 92.8683 9.12945 92.8683 8.66098C92.8683 8.23416 92.8685 7.80735 92.8687 7.38053V7.37775C92.8694 6.09718 92.8701 4.8166 92.8648 3.53602C92.8648 3.19083 92.8437 2.84212 92.8016 2.50046C92.6506 1.22186 92.0045 0.468091 90.758 0.172216C90.2875 0.0594996 89.7889 0.0137121 89.3008 0.0101907C87.8221 -0.00261809 86.3452 -0.000524142 84.8688 0.00156981H84.8686H84.8683C84.315 0.00235665 83.7618 0.0031435 83.2086 0.0031435H83.0014V11.0526C82.9501 11.0526 82.9003 11.0532 82.8516 11.0538C82.7338 11.0552 82.6227 11.0566 82.5134 11.0491C82.394 11.0421 82.3272 11.0773 82.2711 11.19C82.0386 11.6586 81.8033 12.1259 81.5679 12.5935C81.4265 12.8745 81.2849 13.1556 81.1439 13.4372C81.1217 13.4787 81.1051 13.5202 81.0813 13.5801L81.0737 13.5993H82.9979V17.9916H83.2191C83.996 17.9916 84.7734 17.992 85.5509 17.9924C87.1068 17.9931 88.6638 17.9939 90.2208 17.9916C90.4771 17.9916 90.7334 17.981 90.9897 17.9564C92.3346 17.8331 93.2089 17.0229 93.3459 15.6845C93.4266 14.9025 93.4161 14.1029 93.4055 13.3139C93.395 12.4792 93.0263 11.8205 92.2749 11.4225C92.0932 11.3243 91.8959 11.253 91.6991 11.1818L91.6988 11.1817C91.6484 11.1635 91.5981 11.1452 91.548 11.1266C91.4925 11.1065 91.4356 11.0935 91.3666 11.0778C91.3563 11.0754 91.3456 11.073 91.3347 11.0705L91.3214 11.0674ZM86.734 11.0491V2.48637C86.8772 2.49296 87.0205 2.49612 87.1633 2.49928H87.1634H87.1635H87.1635H87.1636C87.4793 2.50625 87.7929 2.51318 88.0999 2.55682C88.6055 2.63079 88.9145 2.99358 88.9953 3.52897C89.0234 3.69453 89.0339 3.86712 89.0339 4.03619C89.0374 5.80086 89.0409 7.56906 89.0339 9.33374C89.0339 9.58382 89.0128 9.83743 88.9672 10.084C88.8513 10.7039 88.5037 11.0104 87.8717 11.0456C87.6168 11.0601 87.3603 11.0564 87.0987 11.0526C86.9783 11.0509 86.8569 11.0491 86.734 11.0491ZM86.7866 15.5137C86.7682 15.5118 86.7485 15.5098 86.727 15.5083V13.5993C86.7306 13.5984 86.7341 13.5976 86.7376 13.5967C86.7437 13.5951 86.7497 13.5935 86.7554 13.5919L86.7557 13.5918C86.7748 13.5865 86.7922 13.5816 86.8112 13.5816C87.0594 13.5828 87.3072 13.5828 87.5548 13.5828H87.5551C88.0502 13.5828 88.5448 13.5828 89.0409 13.5922C89.4869 13.5993 89.7011 13.8317 89.7081 14.2755C89.7081 14.3265 89.7083 14.3776 89.7085 14.4289V14.4292C89.7092 14.5835 89.7099 14.7387 89.7046 14.8919C89.694 15.2407 89.536 15.4273 89.1919 15.5013C89.0901 15.5224 88.9848 15.533 88.8794 15.533C88.2052 15.5295 87.5346 15.526 86.8604 15.5189C86.8375 15.5189 86.8134 15.5164 86.7866 15.5137ZM158.281 11.1935C158.281 11.5822 158.282 11.9712 158.283 12.3603C158.285 13.2689 158.287 14.1781 158.278 15.0857C158.274 15.5506 158.155 16.0015 157.972 16.4347C157.582 17.3646 156.873 17.8472 155.89 17.9599C155.651 17.9881 155.412 17.9951 155.174 17.9951C154.955 17.9956 154.736 17.9962 154.517 17.9967L154.516 17.9967H154.515H154.514C153.195 18.0002 151.874 18.0037 150.556 17.9916C149.608 17.9845 148.797 17.6393 148.183 16.8961C147.68 16.2903 147.477 15.5717 147.473 14.8039C147.463 12.4087 147.463 10.0135 147.477 7.61837C147.48 7.24149 147.536 6.85756 147.624 6.48771C147.898 5.32535 148.667 4.68077 149.819 4.47295C150.082 4.42716 150.353 4.40251 150.623 4.40251C152.143 4.39546 153.667 4.38842 155.188 4.40603C155.574 4.40955 155.974 4.46239 156.346 4.56101C157.438 4.84984 158.025 5.6177 158.204 6.70609C158.271 7.11116 158.295 7.52327 158.299 7.93186C158.309 8.69144 158.306 9.45274 158.304 10.2134C158.303 10.5391 158.302 10.8647 158.302 11.19C158.295 11.1935 158.288 11.1935 158.281 11.1935ZM154.598 11.1865H154.619C154.619 10.956 154.62 10.7255 154.62 10.495C154.622 9.88015 154.625 9.26529 154.612 8.65041C154.605 8.31931 154.559 7.98469 154.478 7.66417C154.366 7.22036 154.046 6.97027 153.594 6.93504C153.162 6.90334 152.73 6.8963 152.298 6.91391C151.859 6.93152 151.539 7.164 151.402 7.58667C151.311 7.86846 151.234 8.16785 151.234 8.46021C151.22 10.2953 151.22 12.134 151.234 13.9691C151.237 14.2579 151.29 14.5538 151.367 14.8321C151.497 15.297 151.785 15.5189 152.263 15.526C152.702 15.533 153.141 15.5224 153.576 15.4872C154.092 15.4449 154.359 15.2125 154.492 14.7123C154.545 14.5221 154.591 14.3213 154.594 14.1241C154.6 13.3896 154.599 12.655 154.598 11.9205C154.598 11.6758 154.598 11.4312 154.598 11.1865ZM129.804 4.39898H133.554V4.63145V14.1593C133.554 14.4376 133.582 14.7088 133.702 14.9659C133.849 15.2794 134.099 15.459 134.436 15.4943C134.692 15.5189 134.952 15.5295 135.205 15.5083C135.809 15.459 136.16 15.0857 136.195 14.4798C136.202 14.3742 136.202 14.2685 136.202 14.1628C136.207 12.569 136.211 10.9751 136.216 9.38129C136.22 7.78744 136.225 6.1936 136.23 4.59975V4.41659H139.889V4.64202C139.889 5.27769 139.889 5.91321 139.888 6.54865V6.54891V6.54916V6.54942V6.54968V6.54994V6.5502V6.55045C139.888 9.09041 139.887 11.629 139.896 14.1699C139.896 14.4376 139.966 14.7158 140.054 14.9694C140.17 15.297 140.444 15.4661 140.781 15.4943C141.055 15.5189 141.332 15.5224 141.602 15.5013C142.111 15.459 142.452 15.1174 142.515 14.6102C142.533 14.4587 142.543 14.3072 142.543 14.1523V4.64202V4.40955H146.23V4.60328V14.5362C146.23 15.061 146.167 15.5788 145.988 16.0754C145.581 17.2308 144.576 17.9669 143.33 17.9881C142.31 18.0037 141.293 17.9971 140.274 17.9905L140.168 17.9898C140.075 17.9892 139.982 17.9886 139.889 17.9881C139.675 17.9881 139.457 17.9528 139.246 17.9141C138.719 17.819 138.326 17.5266 138.066 17.0582C138.054 17.0353 138.041 17.0133 138.026 16.989C138.012 16.9648 137.996 16.9384 137.979 16.9067C137.961 16.9419 137.95 16.9631 137.943 16.9807C137.673 17.7063 137.118 17.9916 136.381 17.9916C136.068 17.9916 135.755 17.9925 135.441 17.9935H135.441H135.44H135.44H135.44H135.439H135.439C134.705 17.9957 133.971 17.9979 133.238 17.9881C132.859 17.9845 132.476 17.9599 132.108 17.8824C130.854 17.6147 130.032 16.6918 129.878 15.4168C129.866 15.3129 129.854 15.2082 129.843 15.1034L129.843 15.1034L129.843 15.1033C129.831 14.9985 129.82 14.8937 129.808 14.7898C129.804 11.3274 129.804 7.86141 129.804 4.39898ZM94.6907 7.39295C94.7039 7.31043 94.7156 7.22721 94.7275 7.14385C94.7535 6.96036 94.7796 6.77613 94.8206 6.5969C95.1191 5.29365 95.9969 4.53988 97.3312 4.43421C97.5946 4.41307 97.8579 4.40251 98.1213 4.40251C98.3753 4.40187 98.6293 4.40099 98.8833 4.40012H98.8836C100.027 4.39619 101.171 4.39226 102.317 4.40955C102.735 4.4166 103.164 4.45886 103.564 4.56453C104.666 4.84984 105.253 5.62123 105.432 6.72018C105.495 7.11116 105.527 7.5127 105.527 7.91073C105.537 10.1122 105.534 12.3136 105.53 14.5115C105.53 15.135 105.467 15.7514 105.239 16.3396C104.853 17.3329 104.122 17.8577 103.079 17.9599C102.855 17.981 102.623 17.9916 102.398 17.9916L102.395 17.9916C100.862 17.9951 99.3318 17.9986 97.7982 17.9881C96.9064 17.981 96.1268 17.6816 95.5124 17.0089C95.0418 16.4981 94.8101 15.8817 94.7293 15.2019C94.7223 15.1455 94.7083 15.0892 94.6942 15.0328C94.6907 12.4897 94.6907 9.93958 94.6907 7.39295ZM101.822 11.19H101.843C101.843 10.9485 101.844 10.707 101.846 10.4656C101.848 9.86169 101.851 9.25781 101.836 8.65393C101.829 8.31931 101.78 7.97413 101.696 7.65008C101.583 7.21331 101.26 6.97027 100.818 6.93857C100.386 6.90687 99.9542 6.89983 99.5223 6.91744C99.0834 6.93505 98.7639 7.16752 98.6269 7.58668C98.5356 7.86846 98.4584 8.16786 98.4549 8.46021C98.4408 10.2953 98.4408 12.134 98.4549 13.9691C98.4584 14.265 98.511 14.5644 98.5918 14.8497C98.7182 15.3005 99.0097 15.5224 99.4837 15.5295C99.9226 15.5365 100.362 15.526 100.797 15.4907C101.313 15.452 101.58 15.216 101.713 14.7158C101.766 14.5186 101.812 14.3143 101.815 14.11C101.824 13.3323 101.823 12.5523 101.823 11.7737V11.7734V11.7732C101.822 11.5787 101.822 11.3843 101.822 11.19ZM106.917 4.40955V17.9951H107.142C107.848 17.9951 108.555 17.9955 109.261 17.9959H109.262H109.263H109.265C110.68 17.9967 112.096 17.9974 113.512 17.9951C113.743 17.9951 113.979 17.9881 114.21 17.9599C115.366 17.8155 116.18 17.2202 116.601 16.1142C116.791 15.6175 116.844 15.0998 116.844 14.5749C116.844 13.933 116.844 13.2908 116.845 12.6483V12.6477V12.6471V12.6465V12.6459C116.846 11.0367 116.848 9.42614 116.84 7.81562C116.84 7.44578 116.805 7.06537 116.735 6.69905C116.51 5.53669 115.843 4.77939 114.667 4.53635C114.266 4.45182 113.856 4.41307 113.448 4.40955C111.86 4.39898 110.272 4.4003 108.685 4.40162C108.155 4.40207 107.626 4.40251 107.096 4.40251C107.043 4.40251 106.987 4.40564 106.928 4.40895L106.928 4.40896L106.917 4.40955ZM111.153 15.5215L111.153 15.5215C110.994 15.5258 110.835 15.5303 110.674 15.5365V6.90335C111.137 6.90335 111.608 6.88173 112.068 6.93152C112.676 6.99493 112.96 7.26614 113.083 7.87198C113.132 8.10445 113.157 8.34749 113.157 8.58701C113.16 10.3129 113.164 12.0389 113.153 13.7648C113.153 14.0853 113.108 14.4059 113.052 14.7229C112.974 15.1491 112.7 15.4238 112.272 15.4661C111.902 15.5008 111.529 15.511 111.153 15.5215ZM125.183 4.38842H128.884L128.885 4.40731C128.888 4.45954 128.891 4.50675 128.891 4.55397V10.3129C128.891 10.8025 128.807 11.2816 128.638 11.743C128.214 12.8983 127.213 13.5922 125.935 13.6239C125.805 13.6262 125.674 13.6255 125.537 13.6247H125.537H125.536C125.502 13.6245 125.467 13.6243 125.432 13.6242C125.396 13.624 125.358 13.6239 125.32 13.6239V17.9881H121.619V13.6415C121.518 13.6355 121.419 13.6319 121.322 13.6284C121.136 13.6218 120.957 13.6153 120.78 13.5922C119.656 13.4443 118.772 12.9476 118.322 11.8487C118.146 11.4154 118.069 10.9575 118.069 10.4891C118.065 9.29074 118.065 8.09369 118.064 6.89639V6.88723V6.88714V6.88705C118.064 6.092 118.064 5.29685 118.062 4.50113C118.062 4.48152 118.065 4.46301 118.069 4.44316C118.072 4.42735 118.075 4.41068 118.076 4.39194H121.746V4.62794C121.746 5.05223 121.745 5.4763 121.745 5.90025V5.90334V5.90366V5.90398C121.745 7.17521 121.744 8.44545 121.749 9.71767C121.749 9.9431 121.777 10.1791 121.84 10.394C121.977 10.8413 122.304 11.0773 122.767 11.0949C123.241 11.1125 123.715 11.1125 124.19 11.0949C124.734 11.0773 125.117 10.6863 125.166 10.1298C125.176 10.003 125.18 9.87265 125.18 9.74233V4.61737C125.183 4.53988 125.183 4.47295 125.183 4.38842ZM169.282 11.4894C168.907 11.2393 168.492 11.1019 168.018 11.0526C168.045 11.0392 168.06 11.0301 168.072 11.0234C168.078 11.0195 168.083 11.0165 168.088 11.0139C168.917 10.718 169.402 10.1016 169.549 9.26682C169.725 8.27705 169.721 7.26614 169.503 6.27637C169.296 5.33944 168.696 4.73008 167.748 4.54692C167.2 4.44125 166.635 4.38842 166.076 4.3849C164.6 4.37209 163.122 4.37418 161.645 4.37628H161.644H161.644C161.091 4.37706 160.537 4.37785 159.984 4.37785H159.788V17.9845H163.513V13.5922C163.739 13.5922 163.963 13.5909 164.185 13.5895L164.186 13.5895C164.684 13.5865 165.177 13.5836 165.669 13.5957C166.315 13.6133 166.449 13.7718 166.452 14.4235C166.453 14.6518 166.454 14.8798 166.454 15.1077V15.108C166.455 15.6781 166.456 16.2475 166.466 16.8186C166.47 17.0089 166.512 17.2061 166.575 17.3857C166.712 17.7802 167.046 17.9986 167.456 17.9986H170.775H170.996C170.924 17.9346 170.862 17.8813 170.805 17.8321L170.805 17.832C170.759 17.792 170.715 17.7548 170.673 17.7168C170.388 17.4597 170.237 17.1392 170.216 16.7588C170.206 16.5721 170.199 16.3819 170.199 16.1952C170.196 15.8648 170.196 15.5344 170.196 15.2041V15.2041C170.196 14.4886 170.196 13.7736 170.174 13.0603C170.157 12.3946 169.848 11.8628 169.282 11.4894ZM163.892 11.0499C163.768 11.0477 163.643 11.0456 163.517 11.0456V6.88221C163.664 6.889 163.811 6.89215 163.957 6.89529H163.957H163.957C164.266 6.90192 164.572 6.90848 164.872 6.94914C165.388 7.01958 165.746 7.39999 165.778 7.96708C165.813 8.65745 165.81 9.35135 165.746 10.0382C165.69 10.6687 165.3 10.9963 164.672 11.0421C164.416 11.0589 164.157 11.0544 163.892 11.0499H163.892ZM182.344 4.38842C181.386 6.62156 180.438 8.83005 179.472 11.0738H179.693C179.807 11.0772 179.921 11.0765 180.035 11.0759C180.273 11.0746 180.511 11.0732 180.743 11.109C181.575 11.2393 182.222 11.9332 182.362 12.7962C182.394 12.9864 182.411 13.1801 182.411 13.3738C182.415 14.8638 182.415 16.3537 182.415 17.8472C182.415 17.8806 182.412 17.9118 182.41 17.9494C182.409 17.9595 182.408 17.9699 182.408 17.981H178.71V17.7732V14.3918C178.71 14.2932 178.707 14.191 178.689 14.0959C178.647 13.8423 178.549 13.7366 178.296 13.6908C178.113 13.6591 177.924 13.631 177.738 13.6274C177.358 13.6232 176.979 13.6228 176.6 13.6224C176.347 13.6221 176.094 13.6218 175.841 13.6204C175.816 13.6204 175.792 13.6223 175.762 13.6247L175.761 13.6247C175.75 13.6256 175.739 13.6265 175.726 13.6274V17.9775H171.993V4.39194H175.719V11.028C175.861 11.0552 175.931 11.0684 175.977 11.0415C176.02 11.0163 176.043 10.9556 176.087 10.8378C176.484 9.78811 176.88 8.73935 177.276 7.69058C177.672 6.64181 178.068 5.59305 178.464 4.5434C178.5 4.44477 178.528 4.37081 178.665 4.37433C179.555 4.37961 180.447 4.37895 181.338 4.37829H181.339C181.635 4.37807 181.932 4.37785 182.229 4.37785C182.255 4.37785 182.282 4.38098 182.335 4.38726L182.344 4.38842ZM192.45 6.928H192.678C192.678 6.85051 192.678 6.78711 192.685 6.72723C192.685 6.52289 192.685 6.31826 192.684 6.11351C192.683 5.6018 192.681 5.08931 192.689 4.57862C192.692 4.41307 192.636 4.37785 192.482 4.37785C190.642 4.38137 188.805 4.38137 186.969 4.38137C186.741 4.38137 186.512 4.38137 186.284 4.4025C185.168 4.50817 184.346 5.04709 183.875 6.07913C183.633 6.61099 183.542 7.17809 183.535 7.75574C183.524 8.52361 183.524 9.29499 183.535 10.0629C183.538 10.3728 183.559 10.6863 183.602 10.9927C183.774 12.2361 184.564 13.1378 185.768 13.4302C186.108 13.5103 186.466 13.5354 186.82 13.5603C186.886 13.5649 186.952 13.5696 187.018 13.5746C187.196 13.5874 187.376 13.5869 187.555 13.5864C187.722 13.586 187.888 13.5856 188.054 13.5957C188.493 13.6204 188.672 13.8176 188.696 14.2509C188.711 14.4728 188.725 14.6982 188.725 14.9201C188.725 15.2054 188.612 15.378 188.335 15.452C188.135 15.5048 187.92 15.5295 187.713 15.5295C186.757 15.5348 185.799 15.5341 184.842 15.5334C184.523 15.5332 184.204 15.533 183.886 15.533H183.679V17.9916H183.823C184.605 17.9903 185.386 17.9904 186.168 17.9906C187.47 17.9909 188.771 17.9911 190.073 17.9845C190.526 17.9845 190.986 17.9423 191.435 17.8789C192.099 17.7838 192.594 17.4491 192.787 16.7693C192.847 16.5615 192.9 16.3467 192.9 16.1318C192.9 16.0485 192.9 15.9652 192.9 15.8819C192.9 14.8028 192.9 13.724 192.861 12.6482C192.833 11.8909 192.44 11.4401 191.706 11.271C191.27 11.1724 190.817 11.1195 190.371 11.0949C189.958 11.0702 189.545 11.0655 189.131 11.0609C188.895 11.0582 188.659 11.0555 188.423 11.0491C187.682 11.0315 187.264 10.6018 187.26 9.86208C187.257 9.5803 187.257 9.29851 187.26 9.01673C187.261 8.92762 187.261 8.83852 187.262 8.74941C187.263 8.42288 187.264 8.09636 187.288 7.76983C187.324 7.30137 187.569 7.04424 188.029 6.96675C188.201 6.93504 188.377 6.928 188.552 6.928H192.45Z" fill="white"/>
</svg>
