<svg width="120" height="45" viewBox="0 0 120 45" fill="none" xmlns="http://www.w3.org/2000/svg">
<path fill-rule="evenodd" clip-rule="evenodd" d="M22.0575 19.2882H18.1124V0H22.0575V19.2882ZM71.8631 16.6537V19.292H71.6559C71.1566 19.292 70.6574 19.2925 70.1581 19.2929H70.1573C68.6598 19.2943 67.1623 19.2958 65.6648 19.2844C65.2051 19.2806 64.7341 19.2428 64.2819 19.1446C63.0347 18.8724 62.3489 18.124 62.1567 16.8578C62.0927 16.4231 62.0588 15.9809 62.055 15.5424C62.0469 13.862 62.0485 12.1797 62.05 10.4981V10.4937V10.4933V10.493V10.4926V10.4922V10.4918C62.0506 9.81912 62.0512 9.14654 62.0512 8.47426C62.0512 7.86949 62.0889 7.26473 62.2622 6.67886C62.5976 5.54493 63.3663 4.90993 64.5193 4.73984C64.8283 4.69448 65.1448 4.67936 65.4575 4.67558C67.5299 4.6718 69.6023 4.6718 71.6747 4.6718H71.8745V7.3819H71.6521H67.4697C67.3114 7.3819 67.1569 7.38946 67.0024 7.41214C66.4033 7.49152 66.0906 7.81658 66.0717 8.42513C66.0561 8.90408 66.0567 9.38484 66.0573 9.86491V9.865V9.86508V9.86516V9.86525C66.0575 10.0784 66.0578 10.2914 66.0566 10.504V11.8231H70.9551V14.5559H66.0868C66.0868 14.688 66.0828 14.8179 66.0789 14.946L66.0789 14.9468C66.0701 15.2326 66.0617 15.5093 66.0981 15.7806C66.1659 16.3022 66.5879 16.6083 67.1833 16.631C67.4799 16.6424 67.7766 16.6409 68.0733 16.6395H68.0734C68.1724 16.6391 68.2713 16.6386 68.3702 16.6386H71.6484C71.72 16.6537 71.784 16.6537 71.8631 16.6537ZM49.2249 4.69449V19.2844H53.2303V14.5673C53.4715 14.5673 53.7101 14.5658 53.947 14.5644H53.9474H53.9479H53.9483H53.9488H53.949C54.4776 14.5612 54.9975 14.558 55.5175 14.571C56.241 14.5862 56.3841 14.7525 56.3841 15.4706C56.3841 15.5508 56.3841 15.631 56.3841 15.7112L56.384 15.8354C56.3835 16.5642 56.3831 17.2931 56.3992 18.022C56.403 18.2374 56.4557 18.4604 56.5311 18.6645C56.6781 19.069 57.0322 19.292 57.458 19.292H61.0188H61.26L61.2482 19.2809L61.2283 19.2622C61.1925 19.2284 61.1716 19.2087 61.1507 19.1937C60.593 18.8044 60.3933 18.2601 60.4046 17.5949C60.4197 16.5441 60.4121 15.4895 60.4046 14.4388C60.4046 14.1704 60.3895 13.8945 60.333 13.6337C60.122 12.6736 59.4475 12.186 58.5583 11.929C58.5062 11.914 58.4525 11.9057 58.3992 11.8974C58.3856 11.8952 58.372 11.8931 58.3585 11.8909C58.3513 11.8897 58.3442 11.8885 58.3371 11.8873L58.3301 11.886C58.3258 11.8852 58.3214 11.8844 58.3171 11.8836C58.2455 11.8685 58.1702 11.8534 58.0684 11.8345C59.0331 11.4943 59.5719 10.8026 59.7226 9.86144C59.8809 8.8409 59.8846 7.80146 59.6698 6.78092C59.4513 5.7377 58.807 5.0649 57.7595 4.8608C57.1905 4.75118 56.6027 4.69449 56.0224 4.69071C54.4246 4.67696 52.8248 4.67921 51.2258 4.68146H51.2255H51.2251H51.2247H51.2243C50.6255 4.6823 50.0268 4.68315 49.4284 4.68315C49.3848 4.68315 49.3428 4.68628 49.2994 4.68952H49.2993H49.2992H49.2991C49.275 4.69131 49.2504 4.69314 49.2249 4.69449ZM53.2379 11.842V7.41215C53.3755 7.41215 53.5121 7.40883 53.6479 7.40553C53.9467 7.39827 54.2412 7.39111 54.534 7.4197C55.201 7.48774 55.5929 7.86572 55.6645 8.53096C55.7436 9.27557 55.7549 10.0278 55.6343 10.7724C55.525 11.4452 55.1181 11.8005 54.4398 11.8383C54.1688 11.8538 53.8978 11.8498 53.622 11.8458L53.6217 11.8458C53.4949 11.8439 53.3671 11.842 53.2379 11.842ZM31.0706 19.2882H35.027C35.027 19.2126 35.027 19.1559 35.0346 19.0992C35.0346 15.5084 35.0346 11.9176 35.0308 8.32685C35.0308 7.99423 35.0044 7.65783 34.9517 7.32899C34.8349 6.59193 34.5372 5.94559 33.9419 5.46556C33.3013 4.94773 32.5515 4.71716 31.7413 4.70961C30.0081 4.69449 28.2748 4.68692 26.5415 4.71339C25.3131 4.73228 24.3711 5.28035 23.8172 6.41051C23.5082 7.03795 23.4103 7.71452 23.4103 8.41V19.0501C23.4103 19.1082 23.4133 19.1693 23.4167 19.2364L23.4178 19.258H27.3817V19.0085V8.8409C27.3817 8.81456 27.3815 8.78798 27.3813 8.76129V8.76094C27.3806 8.68051 27.3798 8.599 27.3855 8.51962C27.442 7.80902 27.8226 7.37813 28.4519 7.35545C28.9605 7.33655 29.4692 7.33655 29.9779 7.35545C30.464 7.37434 30.8144 7.61625 30.9614 8.0925C31.0292 8.31551 31.0669 8.5612 31.0669 8.79554C31.0725 11.3526 31.0718 13.9097 31.0711 16.4668V16.489C31.0709 17.3452 31.0706 18.2014 31.0706 19.0576V19.2882ZM40.0234 7.37435V19.2806C41.3573 19.2806 42.6723 19.2806 43.9987 19.2844V7.37057H47.5745V4.69827H36.3647V7.37435H40.0234ZM73.4237 4.69636C73.3987 4.6998 73.3734 4.70325 73.3477 4.70582C73.3477 9.5704 73.3477 14.4312 73.3515 19.2958H77.3757V14.5748H77.5981C77.8701 14.5748 78.1425 14.5754 78.4151 14.5761H78.4155H78.4155H78.4156C79.0978 14.5776 79.7807 14.5791 80.4617 14.571C80.8046 14.5673 81.1513 14.5484 81.4904 14.4879C82.5832 14.2989 83.3782 13.7206 83.7249 12.632C83.8379 12.2729 83.9208 11.8836 83.9283 11.5056C83.9547 10.3528 83.9472 9.19998 83.9396 8.04715C83.9359 7.76744 83.902 7.48396 83.8567 7.20426C83.6646 6.00229 82.9976 5.22366 81.822 4.88725C81.2606 4.7285 80.6878 4.68315 80.1076 4.68315H73.5701C73.5204 4.68315 73.4723 4.68972 73.4237 4.69636ZM77.3871 11.842V7.39324C77.5293 7.39324 77.6705 7.39014 77.8107 7.38706C78.135 7.37994 78.4543 7.37292 78.7699 7.40458C79.3653 7.46506 79.7722 7.87328 79.8099 8.51584C79.8551 9.25668 79.8476 10.0126 79.7835 10.7535C79.7194 11.4603 79.3125 11.7967 78.6079 11.8383C78.3318 11.8538 78.0575 11.8498 77.7778 11.8458C77.6489 11.8439 77.5189 11.842 77.3871 11.842ZM91.1817 4.70582H91.3664C91.9345 4.70582 92.5026 4.70535 93.0707 4.70487C94.7747 4.70346 96.4787 4.70204 98.1827 4.71338C98.6123 4.71716 99.0494 4.75496 99.4714 4.84189C100.745 5.1027 101.476 5.91913 101.713 7.18158C101.785 7.56333 101.823 7.95643 101.823 8.34575C101.834 10.7761 101.83 13.2065 101.826 15.6369C101.826 16.1926 101.766 16.7444 101.566 17.2698C101.114 18.4567 100.24 19.0954 99.0004 19.2542C98.7517 19.2844 98.4992 19.292 98.2505 19.292C96.7313 19.2945 95.212 19.2937 93.6938 19.2928H93.6915H93.6907C92.9319 19.2924 92.1734 19.292 91.4154 19.292H91.178C91.1817 14.443 91.1817 9.60528 91.1817 4.74133V4.70582ZM95.2135 7.39702V16.6046C95.3859 16.6046 95.5571 16.6074 95.7276 16.6103L95.7279 16.6103C96.1087 16.6168 96.4853 16.6231 96.8602 16.597C97.3538 16.5592 97.6816 16.2606 97.7645 15.7579C97.821 15.4253 97.8662 15.0851 97.87 14.7487C97.8813 12.9042 97.8775 11.0596 97.8737 9.21132C97.8737 9.01855 97.8587 8.822 97.8361 8.62923C97.7306 7.82414 97.3651 7.45372 96.5888 7.40836C96.2633 7.38659 95.9378 7.39029 95.6052 7.39407C95.4758 7.39554 95.3454 7.39702 95.2135 7.39702ZM89.4635 4.6907H85.5184V19.2844H89.4635V4.6907Z" fill="#7400A3"/>
<path fill-rule="evenodd" clip-rule="evenodd" d="M10.9968 36.5973C10.9904 36.5958 10.9839 36.5943 10.9773 36.5927C10.9533 36.5871 10.9279 36.5809 10.9009 36.5739C11.5791 36.4001 12.0275 36.0107 12.3515 35.4551C12.604 35.0091 12.6568 34.5177 12.6568 34.015C12.6568 33.557 12.657 33.099 12.6572 32.641V32.638C12.6579 31.2638 12.6586 29.8896 12.653 28.5154C12.653 28.145 12.6304 27.7708 12.5852 27.4042C12.4231 26.0321 11.7298 25.2233 10.3922 24.9058C9.88726 24.7848 9.3522 24.7357 8.82845 24.7319C7.24163 24.7181 5.6568 24.7204 4.07252 24.7226H4.07227H4.07202C3.47827 24.7235 2.88461 24.7243 2.29095 24.7243H2.06864V36.5815C2.01356 36.5815 1.96009 36.5821 1.90787 36.5828C1.78143 36.5843 1.66221 36.5857 1.54489 36.5777C1.41678 36.5701 1.34518 36.6079 1.28489 36.7289C1.03539 37.2318 0.782967 37.7332 0.530346 38.235C0.378549 38.5365 0.226688 38.8382 0.0753603 39.1404C0.0514606 39.1849 0.0337429 39.2294 0.00820573 39.2937L0 39.3143H2.06486V44.0276H2.30225C3.13596 44.0276 3.97008 44.0281 4.80449 44.0285C6.47414 44.0293 8.14491 44.0302 9.81568 44.0276C10.0907 44.0276 10.3658 44.0163 10.6409 43.9898C12.084 43.8576 13.0223 42.9882 13.1692 41.5519C13.2559 40.7128 13.2446 39.8548 13.2333 39.0081C13.222 38.1123 12.8263 37.4055 12.02 36.9784C11.825 36.873 11.6133 36.7965 11.402 36.7201L11.4018 36.72C11.3477 36.7004 11.2937 36.6809 11.24 36.6609C11.1804 36.6393 11.1193 36.6254 11.0453 36.6085C11.0342 36.6059 11.0228 36.6033 11.0111 36.6006L10.9968 36.5973ZM6.07404 36.5777V27.3891C6.22776 27.3961 6.38147 27.3995 6.53473 27.4029H6.53481H6.53489H6.53497H6.53506C6.87383 27.4104 7.21038 27.4178 7.53979 27.4647C8.08239 27.544 8.41397 27.9334 8.50063 28.5079C8.53078 28.6855 8.54209 28.8707 8.54209 29.0522C8.54585 30.9458 8.54962 32.8433 8.54209 34.737C8.54209 35.0053 8.51947 35.2775 8.47049 35.542C8.34614 36.2073 7.97311 36.5361 7.29487 36.5739C7.02137 36.5895 6.74611 36.5855 6.46545 36.5814C6.33624 36.5796 6.20589 36.5777 6.07404 36.5777ZM6.13052 41.3686C6.11072 41.3666 6.08956 41.3644 6.0665 41.3629V39.3143C6.07039 39.3134 6.07418 39.3125 6.07789 39.3115C6.08451 39.3099 6.09086 39.3081 6.09704 39.3064L6.09729 39.3063C6.11778 39.3006 6.13649 39.2954 6.15693 39.2954C6.42322 39.2966 6.6891 39.2966 6.95483 39.2966H6.95519C7.48648 39.2966 8.01721 39.2966 8.54962 39.3067C9.02816 39.3143 9.25801 39.5637 9.26554 40.04C9.26554 40.0946 9.26578 40.1495 9.26601 40.2045V40.2049C9.26672 40.3704 9.26742 40.537 9.26177 40.7014C9.25046 41.0756 9.08091 41.276 8.71165 41.3553C8.60237 41.378 8.48933 41.3894 8.37629 41.3894C7.65283 41.3856 6.93314 41.3818 6.20968 41.3742C6.18514 41.3742 6.15927 41.3716 6.13052 41.3686ZM82.8511 36.7327C82.8511 37.1498 82.8521 37.5672 82.8531 37.9848C82.8555 38.9598 82.8579 39.9355 82.8473 40.9093C82.8435 41.4083 82.7154 41.8921 82.5195 42.357C82.1012 43.3548 81.3401 43.8727 80.2851 43.9936C80.0288 44.0239 79.7726 44.0314 79.5164 44.0314C79.2816 44.032 79.0467 44.0326 78.8117 44.0332L78.8104 44.0332H78.8093H78.8089C77.3935 44.0369 75.9761 44.0406 74.5614 44.0276C73.5441 44.0201 72.6737 43.6497 72.0143 42.8521C71.4754 42.202 71.2569 41.4309 71.2531 40.6069C71.2418 38.0367 71.2418 35.4664 71.2569 32.8962C71.2607 32.4918 71.321 32.0798 71.4152 31.6829C71.7091 30.4356 72.5343 29.7439 73.7702 29.5209C74.0528 29.4717 74.3429 29.4453 74.633 29.4453C76.2646 29.4377 77.8999 29.4301 79.5315 29.449C79.9459 29.4528 80.3755 29.5095 80.7749 29.6154C81.9468 29.9253 82.576 30.7493 82.7682 31.9172C82.8398 32.3519 82.8661 32.7941 82.8699 33.2326C82.8805 34.0477 82.8781 34.8647 82.8757 35.6809C82.8747 36.0304 82.8737 36.3798 82.8737 36.7289C82.8662 36.7327 82.8586 36.7327 82.8511 36.7327ZM78.8984 36.7251H78.9211C78.9211 36.4778 78.9219 36.2305 78.9227 35.9831C78.925 35.3233 78.9272 34.6635 78.9135 34.0037C78.906 33.6484 78.857 33.2893 78.7703 32.9453C78.6497 32.4691 78.3069 32.2007 77.8208 32.1629C77.3573 32.1289 76.8939 32.1213 76.4304 32.1402C75.9594 32.1591 75.6165 32.4086 75.4695 32.8622C75.3716 33.1646 75.2887 33.4858 75.2887 33.7996C75.2736 35.7688 75.2736 37.7419 75.2887 39.7111C75.2925 40.0211 75.349 40.3386 75.4319 40.6372C75.5713 41.1361 75.8803 41.3742 76.3927 41.3818C76.8637 41.3894 77.3347 41.378 77.8019 41.3402C78.3558 41.2949 78.6422 41.0454 78.7854 40.5087C78.8419 40.3046 78.8909 40.0891 78.8947 39.8774C78.9003 39.0892 78.8996 38.301 78.8989 37.5128C78.8987 37.2502 78.8984 36.9877 78.8984 36.7251ZM52.2925 29.4415H56.3167V29.6909V39.9152C56.3167 40.2138 56.3469 40.5049 56.475 40.7808C56.6332 41.1172 56.9008 41.31 57.2625 41.3478C57.5376 41.3742 57.8164 41.3856 58.0877 41.3629C58.7358 41.31 59.1126 40.9093 59.1503 40.2592C59.1578 40.1458 59.1578 40.0324 59.1578 39.919C59.1635 38.2087 59.1682 36.4983 59.1729 34.788C59.1776 33.0776 59.1823 31.3673 59.188 29.6569V29.4604H63.1142V29.7023C63.1142 30.3844 63.1141 31.0664 63.1139 31.7483V31.7486V31.7488V31.7491V31.7494V31.7497V31.7499V31.7502C63.1133 34.4758 63.1127 37.2 63.1218 39.9266C63.1218 40.2138 63.1971 40.5124 63.2913 40.7846C63.4157 41.1361 63.7096 41.3175 64.0713 41.3478C64.3652 41.3742 64.6629 41.378 64.953 41.3553C65.4994 41.31 65.8649 40.9433 65.9327 40.3991C65.9515 40.2365 65.9629 40.074 65.9629 39.9077V29.7023V29.4528H69.9193V29.6607V40.3197C69.9193 40.8829 69.8514 41.4385 69.6593 41.9714C69.2222 43.2112 68.1445 44.0012 66.8069 44.0239C65.7124 44.0406 64.621 44.0336 63.5272 44.0265L63.4138 44.0258C63.3139 44.0251 63.2141 44.0245 63.1142 44.0239C62.8844 44.0239 62.6508 43.9861 62.4247 43.9445C61.8595 43.8424 61.4375 43.5287 61.1586 43.026C61.1454 43.0014 61.1313 42.9778 61.1158 42.9518C61.1002 42.9258 61.0833 42.8975 61.0644 42.8635C61.0456 42.9013 61.0343 42.9239 61.0267 42.9428C60.7366 43.7215 60.1413 44.0276 59.35 44.0276C59.0141 44.0276 58.6778 44.0287 58.3414 44.0297H58.341H58.3406H58.3402H58.3398H58.3394H58.339C57.5517 44.0321 56.7637 44.0344 55.9776 44.0239C55.5707 44.0201 55.16 43.9936 54.7643 43.9105C53.4191 43.6232 52.5374 42.6329 52.3716 41.2646C52.3584 41.1532 52.3462 41.0408 52.334 40.9284L52.334 40.9283L52.3339 40.9282C52.3217 40.8158 52.3094 40.7033 52.2963 40.5918C52.2925 36.8763 52.2925 33.157 52.2925 29.4415ZM14.6124 32.6543C14.6265 32.5657 14.6391 32.4764 14.6518 32.387C14.6797 32.1901 14.7077 31.9924 14.7518 31.8001C15.0721 30.4015 16.0141 29.5927 17.4459 29.4793C17.7285 29.4566 18.0111 29.4453 18.2937 29.4453C18.5663 29.4446 18.8388 29.4436 19.1114 29.4427H19.1117C20.3388 29.4385 21.5664 29.4343 22.7965 29.4528C23.2449 29.4604 23.7046 29.5057 24.1341 29.6191C25.3173 29.9253 25.9465 30.7531 26.1387 31.9324C26.2065 32.3519 26.2404 32.7828 26.2404 33.2099C26.2518 35.5723 26.248 37.9346 26.2442 40.2932C26.2442 40.9622 26.1764 41.6237 25.9315 42.2549C25.517 43.3208 24.7332 43.884 23.6141 43.9936C23.373 44.0163 23.1243 44.0276 22.8831 44.0276L22.8803 44.0276C21.2346 44.0314 19.5927 44.0352 17.947 44.0239C16.99 44.0163 16.1535 43.695 15.4941 42.9731C14.9892 42.425 14.7405 41.7636 14.6538 41.0341C14.6463 40.9736 14.6312 40.9131 14.6161 40.8526C14.6124 38.1236 14.6124 35.3871 14.6124 32.6543ZM22.2652 36.7289H22.2878C22.2878 36.4698 22.289 36.2106 22.2903 35.9515C22.2933 35.3035 22.2964 34.6555 22.2803 34.0075C22.2727 33.6484 22.22 33.278 22.1295 32.9302C22.009 32.4615 21.6623 32.2007 21.1875 32.1667C20.7241 32.1327 20.2606 32.1251 19.7971 32.144C19.3261 32.1629 18.9833 32.4124 18.8363 32.8622C18.7383 33.1646 18.6554 33.4858 18.6517 33.7996C18.6366 35.7688 18.6366 37.7419 18.6517 39.7111C18.6554 40.0286 18.712 40.3499 18.7986 40.6561C18.9343 41.1399 19.247 41.378 19.7557 41.3856C20.2267 41.3931 20.6977 41.3818 21.1649 41.344C21.7188 41.3024 22.0052 41.0492 22.1484 40.5124C22.2049 40.3008 22.2539 40.0816 22.2577 39.8623C22.2667 39.0278 22.2661 38.1908 22.2655 37.3553V37.355V37.3547C22.2653 37.146 22.2652 36.9374 22.2652 36.7289ZM27.7326 29.4528V44.0314H27.9737C28.7315 44.0314 29.4897 44.0318 30.2482 44.0323H30.249H30.2499H30.2522C31.7703 44.0331 33.2896 44.0339 34.8089 44.0314C35.0576 44.0314 35.3101 44.0239 35.5587 43.9936C36.7984 43.8387 37.6726 43.1999 38.1248 42.013C38.3282 41.4801 38.3848 40.9244 38.3848 40.3613C38.3848 39.6724 38.3854 38.9832 38.386 38.2938V38.2932V38.2925V38.2919V38.2912C38.3875 36.5643 38.3891 34.8361 38.381 33.1079C38.381 32.711 38.3433 32.3028 38.2679 31.9097C38.0268 30.6624 37.3109 29.8497 36.0486 29.5889C35.619 29.4982 35.1782 29.4566 34.7411 29.4528C33.0371 29.4415 31.3331 29.4429 29.6291 29.4443C29.061 29.4448 28.4929 29.4453 27.9247 29.4453C27.8679 29.4453 27.8077 29.4486 27.7441 29.4522L27.7439 29.4522L27.7326 29.4528ZM32.2781 41.377L32.2777 41.377C32.1075 41.3817 31.9364 41.3864 31.7644 41.3931V32.1289C32.2606 32.1289 32.7663 32.1057 33.2603 32.1591C33.9121 32.2272 34.2173 32.5182 34.3492 33.1683C34.402 33.4178 34.4283 33.6786 34.4283 33.9356C34.4321 35.7877 34.4359 37.6398 34.4246 39.4919C34.4246 39.8359 34.3756 40.1798 34.3153 40.52C34.2324 40.9774 33.9385 41.2722 33.4788 41.3175C33.0813 41.3548 32.6819 41.3658 32.2781 41.377ZM47.3338 29.4301H51.3053L51.3065 29.4504C51.3098 29.5065 51.3128 29.5571 51.3128 29.6078V35.7877C51.3128 36.3131 51.2224 36.8272 51.0415 37.3223C50.5856 38.5621 49.5117 39.3067 48.1401 39.3407C48.0009 39.3432 47.86 39.3424 47.7132 39.3416H47.7131H47.7127C47.676 39.3414 47.6388 39.3412 47.6013 39.341C47.5616 39.3408 47.5215 39.3407 47.4807 39.3407V44.0239H43.5093V39.3596C43.4004 39.3531 43.2942 39.3493 43.1899 39.3456C42.991 39.3384 42.799 39.3315 42.6087 39.3067C41.4029 39.148 40.4534 38.615 39.9711 37.4357C39.7827 36.9708 39.6998 36.4794 39.6998 35.9767C39.6953 34.6908 39.6948 33.4063 39.6944 32.1214V32.1116V32.1115V32.1114C39.6941 31.2583 39.6938 30.405 39.6923 29.5511C39.6923 29.5301 39.6958 29.5102 39.6995 29.4889C39.7025 29.4719 39.7057 29.454 39.7073 29.4339H43.6449V29.6872C43.6449 30.1425 43.6447 30.5975 43.6444 31.0525V31.0558V31.0561V31.0565C43.6437 32.4206 43.643 33.7837 43.6487 35.1489C43.6487 35.3909 43.6788 35.6441 43.7466 35.8747C43.8936 36.3547 44.244 36.6079 44.7414 36.6268C45.2501 36.6457 45.7588 36.6457 46.2674 36.6268C46.8515 36.6079 47.2622 36.1884 47.3149 35.5912C47.3263 35.4551 47.33 35.3153 47.33 35.1754V29.6758C47.3338 29.5927 47.3338 29.5209 47.3338 29.4301ZM94.6563 37.0502C94.2531 36.7818 93.8085 36.6344 93.2998 36.5815C93.3285 36.5671 93.345 36.5573 93.3571 36.5501C93.3641 36.5459 93.3696 36.5427 93.3752 36.5399C94.2644 36.2224 94.7844 35.5609 94.9426 34.6651C95.131 33.603 95.1273 32.5182 94.8937 31.4561C94.6713 30.4507 94.027 29.7968 93.0097 29.6002C92.4218 29.4868 91.8152 29.4301 91.2161 29.4264C89.6319 29.4126 88.0458 29.4149 86.4606 29.4171H86.4602H86.4598C85.8659 29.418 85.2721 29.4188 84.6786 29.4188H84.4676V44.0201H88.4654V39.3067C88.7075 39.3067 88.9478 39.3053 89.1869 39.3038L89.1877 39.3038C89.7223 39.3006 90.2506 39.2974 90.779 39.3105C91.4723 39.3294 91.6155 39.4995 91.6193 40.1987C91.6203 40.4437 91.6208 40.6884 91.6213 40.933V40.9333C91.6224 41.5451 91.6236 42.1561 91.6343 42.769C91.6381 42.9731 91.6833 43.1848 91.7511 43.3775C91.8981 43.8009 92.2561 44.0352 92.6969 44.0352H96.2577H96.4951C96.4183 43.9665 96.3518 43.9093 96.2905 43.8566L96.2903 43.8564C96.2405 43.8135 96.194 43.7735 96.1484 43.7328C95.8432 43.4569 95.6812 43.1129 95.6586 42.7047C95.6473 42.5044 95.6397 42.3003 95.6397 42.1C95.6373 41.7454 95.6372 41.3908 95.6371 41.0364V41.0364C95.6368 40.2686 95.6366 39.5014 95.6133 38.736C95.5945 38.0216 95.2629 37.4508 94.6563 37.0502ZM88.8721 36.5785C88.7392 36.5762 88.6049 36.5739 88.4692 36.5739V32.1062C88.6276 32.1135 88.7852 32.1169 88.9419 32.1203H88.942H88.9421C89.2737 32.1274 89.6013 32.1344 89.9237 32.178C90.4775 32.2536 90.8619 32.6619 90.8958 33.2704C90.9335 34.0112 90.9297 34.7559 90.8619 35.4929C90.8016 36.1695 90.3833 36.521 89.7089 36.5701C89.4342 36.5882 89.1561 36.5834 88.8721 36.5785H88.8721ZM108.673 29.4301C107.645 31.8265 106.627 34.1964 105.591 36.6042H105.828C105.95 36.6078 106.073 36.6071 106.195 36.6065C106.45 36.605 106.705 36.6036 106.955 36.642C107.848 36.7818 108.541 37.5264 108.692 38.4525C108.726 38.6566 108.745 38.8645 108.745 39.0724C108.749 40.6712 108.749 42.27 108.749 43.8727C108.749 43.9085 108.746 43.942 108.743 43.9824C108.743 43.9932 108.742 44.0044 108.741 44.0163H104.773V43.7933V40.1647C104.773 40.0589 104.77 39.9493 104.751 39.8472C104.706 39.5751 104.6 39.4617 104.329 39.4125C104.133 39.3785 103.929 39.3483 103.73 39.3445C103.323 39.34 102.916 39.3395 102.509 39.3391C102.238 39.3388 101.966 39.3385 101.695 39.3369C101.667 39.3369 101.642 39.339 101.609 39.3415L101.609 39.3416C101.597 39.3425 101.585 39.3435 101.571 39.3445V44.0125H97.5652V29.4339H101.563V36.555C101.716 36.5842 101.791 36.5984 101.84 36.5696C101.887 36.5425 101.911 36.4773 101.959 36.3509C102.384 35.2245 102.809 34.0991 103.234 32.9737C103.659 31.8483 104.084 30.7228 104.51 29.5965C104.547 29.4906 104.577 29.4112 104.724 29.415C105.68 29.4207 106.637 29.42 107.594 29.4193H107.594C107.912 29.419 108.231 29.4188 108.549 29.4188C108.577 29.4188 108.606 29.4222 108.663 29.4289L108.673 29.4301ZM119.518 32.1554H119.763C119.763 32.0722 119.763 32.0042 119.77 31.9399C119.77 31.7206 119.769 31.5011 119.769 31.2813C119.767 30.7322 119.766 30.1823 119.774 29.6342C119.778 29.4566 119.717 29.4188 119.552 29.4188C117.577 29.4226 115.606 29.4226 113.636 29.4226C113.391 29.4226 113.146 29.4226 112.901 29.4453C111.703 29.5587 110.821 30.137 110.316 31.2444C110.056 31.8152 109.958 32.4237 109.951 33.0436C109.939 33.8676 109.939 34.6954 109.951 35.5194C109.954 35.852 109.977 36.1884 110.022 36.5172C110.207 37.8515 111.055 38.8191 112.347 39.1328C112.712 39.2188 113.096 39.2458 113.476 39.2724C113.547 39.2774 113.618 39.2824 113.688 39.2878C113.88 39.3015 114.072 39.301 114.265 39.3005C114.444 39.3 114.622 39.2996 114.8 39.3105C115.271 39.3369 115.463 39.5486 115.49 40.0135C115.505 40.2516 115.52 40.4936 115.52 40.7317C115.52 41.0378 115.399 41.223 115.102 41.3024C114.887 41.3591 114.657 41.3856 114.435 41.3856C113.409 41.3912 112.38 41.3905 111.353 41.3898C111.011 41.3896 110.669 41.3894 110.327 41.3894H110.105V44.0276H110.26C111.099 44.0262 111.938 44.0264 112.776 44.0266C114.174 44.0269 115.57 44.0272 116.967 44.0201C117.453 44.0201 117.946 43.9747 118.429 43.9067C119.141 43.8046 119.672 43.4456 119.879 42.7161C119.943 42.4931 120 42.2625 120 42.0319C120 41.9425 120 41.8531 120 41.7637C120 40.6058 120 39.4481 119.958 38.2937C119.928 37.4811 119.506 36.9973 118.719 36.8158C118.252 36.71 117.765 36.6533 117.287 36.6268C116.843 36.6004 116.4 36.5954 115.956 36.5903C115.703 36.5874 115.449 36.5846 115.196 36.5777C114.401 36.5588 113.952 36.0977 113.949 35.3039C113.945 35.0015 113.945 34.6992 113.949 34.3968C113.949 34.3011 113.95 34.2055 113.95 34.1099C113.951 33.7595 113.952 33.4091 113.979 33.0587C114.016 32.556 114.28 32.2801 114.774 32.1969C114.958 32.1629 115.147 32.1554 115.335 32.1554H119.518Z" fill="#7400A3"/>
</svg>
