<svg xmlns="http://www.w3.org/2000/svg" xmlns:xlink="http://www.w3.org/1999/xlink" width="270" height="190" fill="none"><style><![CDATA[.B{fill:#fff}.C{fill-rule:evenodd}]]></style><g class="C"><use xlink:href="#B" class="B"/><path d="M9.306 94.703c-.256.416-.363 1.728-.275 2.6.03.288.083.527.157.67.102.198.274.316.47.322.126.007.204-.015 2.568-.788l1.055-.342c.262-.067.438-.312.456-.625.017-.32-.146-.604-.415-.706l-.742-.307-2.782-1.108c-.196-.007-.37.093-.49.285zm5.683 7.932c.04-.12.046-.204.053-2.728l.007-1.126c.017-.272-.157-.52-.443-.633-.293-.114-.61-.043-.786.18l-.52.625-1.897 2.347a.51.51 0 0 0-.028.232c.01.112.06.224.143.327.412.5 2.392 1.24 3.023 1.13.22-.04.38-.166.447-.354zm4.014-.878c.597-.242 1.9-1.925 2-2.572.03-.225-.038-.42-.19-.543-.1-.076-.177-.106-2.54-.894l-1.05-.354c-.25-.1-.537-.008-.73.234-.2.248-.23.573-.07.82l.417.69 1.61 2.558c.156.125.354.146.56.06zm-1.22-5.958l2.895-.767c.162-.1.244-.297.23-.524 0-.007.001-.014 0-.023-.07-.67-1.225-2.412-1.794-2.694-.2-.1-.404-.092-.57.022-.104.07-.18.172-1.618 2.17l-.657.908c-.172.21-.173.515-.007.775.173.27.466.4.735.325l-.014.023c.132-.052.37-.1.8-.214zm-2.696-2.252l-.403-6.118c-.055-.2-.2-.346-.434-.404-.685-.173-3.304.574-3.8 1.083-.156.165-.214.37-.167.548.076.16 3.322 5.348 3.322 5.348.48.8.87.668 1 .627s.516-.163.472-1.085z" fill="#d32200"/><use xlink:href="#B" x="30" class="B"/><path d="M42.12 89.005c-3.154-.103-6.052 2.604-6.105 5.695-.2 2.527 1.493 5.005 3.887 5.898 2.384.9 5.44.287 6.963-1.813 1.006-1.326 1.222-3.034 1.105-4.638 0 0-3.9-.006-5.85 0l.002 2.04 2.148.027 1.353.01c-.514 2.535-4.033 3.358-5.894 1.702-1.914-1.453-1.823-4.638.167-5.987 1.39-1.09 3.37-.82 4.76.123a21.57 21.57 0 0 0 1.552-1.576c-1.158-.905-2.578-1.55-4.088-1.48zM53 92h-1.998l-.001 1.132.001.868c-.297.001-.594 0-.89-.001-.372-.001-.743-.003-1.112.001v2h2.003v2H53v-.865V96h2v-2c-.323-.003-.648-.001-.974 0-.343.002-.685.003-1.025 0v-1.134V92z" fill="#dd4241"/><use xlink:href="#B" x="60" class="B"/><path d="M78.553 90.367h-2.256c-.266 0-.563.35-.563.818v1.63h2.82v2.32h-2.82v6.97H73.07v-6.97h-2.413v-2.32h2.413v-1.367c0-1.96 1.36-3.553 3.226-3.553h2.256v2.473z" fill="#425497"/><use xlink:href="#B" x="90" class="B"/><path d="M105 87l-3.298.048c-.852.04-1.433.174-1.942.372a3.92 3.92 0 0 0-2.34 2.34c-.198.51-.333 1.1-.372 1.942L97 95l.048 3.298c.04.852.174 1.433.372 1.942.204.526.478.972.923 1.417s.89.72 1.417.923c.51.198 1.1.333 1.942.372L105 103l3.298-.048c.852-.04 1.433-.174 1.942-.372.526-.204.973-.478 1.417-.923s.72-.89.923-1.417c.198-.51.333-1.1.372-1.942L113 95l-.048-3.298c-.04-.852-.174-1.433-.372-1.942-.204-.526-.478-.972-.923-1.417s-.89-.718-1.417-.923c-.51-.198-1.1-.333-1.942-.372L105 87zm0 1.44l3.233.047c.78.036 1.203.166 1.485.275.374.145.64.32.92.6s.453.546.598.92c.1.282.24.706.276 1.486L111.56 95l-.047 3.233c-.036.78-.166 1.204-.276 1.486a2.47 2.47 0 0 1-1.518 1.518c-.282.1-.705.24-1.485.276l-3.233.047c-2.136 0-2.39-.01-3.233-.047-.78-.036-1.203-.166-1.485-.276-.374-.145-.64-.318-.92-.598s-.453-.546-.6-.92c-.11-.282-.24-.706-.275-1.486L98.44 95l.047-3.233c.036-.78.166-1.204.275-1.486a2.48 2.48 0 0 1 .599-.92c.28-.28.546-.453.92-.6.282-.11.705-.24 1.485-.275L105 88.44zM100.892 95A4.11 4.11 0 0 1 105 90.892 4.11 4.11 0 0 1 109.108 95 4.11 4.11 0 0 1 105 99.108 4.11 4.11 0 0 1 100.892 95zM105 97.667c-1.473 0-2.667-1.194-2.667-2.667s1.194-2.667 2.667-2.667 2.667 1.194 2.667 2.667-1.194 2.667-2.667 2.667zm4.27-5.977a.96.96 0 1 0 0-1.92.96.96 0 1 0 0 1.92z" fill="url(#A)"/><use xlink:href="#B" x="120" class="B"/><path d="M138.7 91c-1.6 0-2.7.8-3.1 1.4l-.2-1H133v9.7h2.7v-5.8c0-.3 0-.6.1-.7.2-.5.9-1.1 1.7-1.1 1.1 0 1.8.8 1.8 2.1v5.6h2.7v-6c0-3-1.4-4.2-3.3-4.2zm-10.4 10h2.7v-9.7h-2.7v9.7zm1.4-14c-1 0-1.7.6-1.7 1.5s.7 1.5 1.7 1.5c1.1 0 1.7-.6 1.7-1.5-.1-.9-.7-1.5-1.7-1.5z" fill="#007ebb"/><use xlink:href="#B" x="240" class="B"/><path d="M255 87c-4.417 0-8 3.582-8 8a8 8 0 0 0 4.79 7.326c-.023-.558-.004-1.23.138-1.837l1.03-4.36s-.255-.51-.255-1.266c0-1.185.688-2.07 1.543-2.07.727 0 1.08.547 1.08 1.2 0 .73-.467 1.825-.706 2.838-.2.85.425 1.54 1.262 1.54 1.516 0 2.536-1.947 2.536-4.253 0-1.753-1.18-3.065-3.328-3.065-2.426 0-3.938 1.81-3.938 3.83 0 .698.205 1.19.527 1.57.148.176.168.246.114.447l-.162.642c-.054.202-.218.276-.4.2-1.12-.456-1.64-1.68-1.64-3.057 0-2.272 1.916-4.998 5.717-4.998 3.055 0 5.065 2.212 5.065 4.584 0 3.138-1.744 5.483-4.317 5.483-.863 0-1.675-.467-1.954-.996l-.563 2.198c-.17.617-.5 1.234-.805 1.714A8.01 8.01 0 0 0 255 103a8 8 0 1 0 0-16z" fill="#cc2127"/><use xlink:href="#B" x="180" class="B"/><path d="M201.1 92.29v.383c0 3.904-2.973 8.406-8.407 8.406-1.668 0-3.222-.5-4.53-1.328.233.027.468.04.706.04 1.384 0 2.658-.473 3.67-1.266a2.96 2.96 0 0 1-2.761-2.05 2.93 2.93 0 0 0 .557.052 2.94 2.94 0 0 0 .778-.103 2.96 2.96 0 0 1-2.371-2.897V93.5a2.95 2.95 0 0 0 1.34.369 2.95 2.95 0 0 1-1.314-2.459 2.94 2.94 0 0 1 .399-1.484c1.456 1.787 3.634 2.963 6.09 3.086-.05-.217-.075-.442-.075-.674 0-1.63 1.322-2.953 2.954-2.953.85 0 1.617.357 2.155.932.674-.13 1.306-.377 1.877-.717-.22.69-.688 1.27-1.3 1.635a5.88 5.88 0 0 0 1.699-.465 6.04 6.04 0 0 1-1.475 1.529z" fill="#00aaec"/><use xlink:href="#B" x="150" class="B"/></g><path d="M173.165 91.433c-.075 1.67-1.244 3.96-3.505 6.865-2.335 3.036-4.312 4.554-5.927 4.554-1.003 0-1.847-.924-2.54-2.77l-1.388-5.083c-.515-1.847-1.063-2.77-1.652-2.77-.13 0-.58.27-1.346.808l-.808-1.04 2.506-2.233c1.133-.975 1.978-1.5 2.544-1.54 1.337-.13 2.158.784 2.47 2.74l.697 3.936c.385 1.75.807 2.623 1.27 2.623.358 0 .9-.566 1.62-1.704s1.105-2 1.156-2.595c.102-.98-.283-1.47-1.156-1.47-.413 0-.835.093-1.27.283.844-2.762 2.455-4.108 4.836-4.03 1.764.05 2.595 1.193 2.493 3.43z" fill="#1ab7ea"/><g class="C"><use xlink:href="#B" x="210" class="B"/><path d="M223.22 97.213V92.42l4.577 2.405-4.577 2.39zm10.11-5.624s-.166-1.176-.676-1.693c-.646-.68-1.37-.683-1.703-.722L224.996 89l-5.947.173c-.333.04-1.057.043-1.704.722-.51.518-.675 1.693-.675 1.693s-.17 1.38-.17 2.76v1.294a25.89 25.89 0 0 0 .17 2.761s.166 1.176.675 1.693c.647.68 1.497.658 1.875.73 1.36.13 5.78.172 5.78.172l5.95-.178c.332-.04 1.057-.043 1.703-.723.5-.518.676-1.693.676-1.693s.17-1.38.17-2.76V94.35c0-1.38-.17-2.76-.17-2.76z" fill="#ce1312"/></g><g class="B"><path d="M23.112 20.288h3.945V1h-3.945v19.288zm53.75.004v-2.638c-.08 0-.143 0-.215-.015h-3.575c-.297.001-.594.003-.9-.01-.595-.023-1.017-.33-1.085-.85-.036-.27-.028-.548-.02-.834l.008-.4h4.868v-2.733h-4.898v-1.96l.014-1.44c.02-.6.332-.934.93-1.013a3.2 3.2 0 0 1 .467-.03h4.405v-2.7h-.2l-6.217.004a7.07 7.07 0 0 0-.938.064c-1.153.17-1.922.805-2.257 1.94-.173.586-.2 1.2-.2 1.795V11.5l.005 5.04c.004.438.038.88.102 1.315.192 1.266.878 2.015 2.125 2.287a6.82 6.82 0 0 0 1.383.14l4.493.008h1.706z"/><path d="M54.225 20.284v-14.6L54.3 5.7l.13-.006 1.797-.002 4.797.01a9.56 9.56 0 0 1 1.737.17c1.047.204 1.692.877 1.9 1.92.215 1.02.21 2.06.053 3.08-.15.94-.69 1.633-1.654 1.973l.25.05.02.004.02.004.04.006.16.032c.89.257 1.564.745 1.775 1.705.056.26.072.537.072.805v3.156c-.01.665.188 1.2.746 1.6a.82.82 0 0 1 .078.069l.02.02.012.01h-3.802c-.426 0-.78-.223-.927-.628-.075-.204-.128-.427-.132-.643l-.015-2.187v-.365c0-.718-.143-.884-.867-.9l-1.57-.007-.716.003v4.717h-4.005zm4.013-11.872v4.43l.384.004.818-.008c.678-.038 1.085-.393 1.195-1.066.12-.745.11-1.497.03-2.24-.072-.665-.463-1.043-1.13-1.11-.293-.03-.587-.02-.886-.014l-.4.007z" class="C"/><path d="M40.027 20.288H36.07l-.004-10.493c0-.234-.038-.48-.105-.703-.147-.476-.497-.718-.983-.737a20.54 20.54 0 0 0-1.526 0c-.63.023-1 .454-1.066 1.164a3.06 3.06 0 0 0-.004.241v10.497h-3.964l-.001-.022-.006-.186V9.4c0-.695.098-1.372.407-2 .554-1.13 1.496-1.678 2.724-1.697l5.2-.004c.8.008 1.56.238 2.2.756.595.48.893 1.126 1 1.863a6.33 6.33 0 0 1 .079.998l.004 10.772c-.008.057-.008.113-.008.2zm4.996-.008V8.374h-3.66V5.698h11.2V8.37H49v11.914l-3.975-.004z"/><path d="M78.348 5.706l.076-.01.146-.013h6.538c.58 0 1.153.045 1.714.204 1.176.336 1.843 1.115 2.035 2.317a5.73 5.73 0 0 1 .083.843l-.01 3.458c-.007.378-.1.767-.203 1.126-.347 1.1-1.142 1.667-2.235 1.856a6.24 6.24 0 0 1-1.03.083l-2.046.005-1.04-.001v4.72h-4.024l-.004-14.6zm4.04 2.687v4.45l.4.004.83-.008c.705-.042 1.112-.378 1.176-1.085a15.2 15.2 0 0 0 .026-2.238c-.038-.643-.445-1.05-1.04-1.1-.316-.032-.635-.025-.96-.018l-.424.006zm13.978-2.687h-.185l-.004 14.586h7.073a6.22 6.22 0 0 0 .749-.038c1.24-.16 2.114-.797 2.566-1.984.2-.525.26-1.077.26-1.633l-.003-7.3a6.31 6.31 0 0 0-.11-1.164c-.237-1.262-.968-2.08-2.242-2.34a6.71 6.71 0 0 0-1.288-.129l-6.817-.008zm3.848 11.9v-9.21l.4-.003.984.014c.776.045 1.142.416 1.247 1.22a4.96 4.96 0 0 1 .038.582l-.004 5.537c-.004.336-.05.677-.106 1a.93.93 0 0 1-.904.839 12.92 12.92 0 0 1-1.132.013l-.514-.006z" class="C"/><path d="M90.518 5.69h3.945v14.594h-3.945V5.69z"/><path d="M15.977 37.593l.02.005.05.01.195.052.162.06.618.258c.806.427 1.202 1.134 1.213 2.03l-.064 2.544c-.147 1.436-1.085 2.306-2.528 2.438a8.6 8.6 0 0 1-.825.038l-5 .001-2.74-.001v-4.713H5l.008-.02.067-.153.455-.905.755-1.506a.23.23 0 0 1 .26-.15 4.34 4.34 0 0 0 .363.005l.16-.001v-11.86H7.3l1.78-.002 4.757.01c.524.004 1.06.053 1.564.174 1.338.317 2.03 1.126 2.193 2.498a9.12 9.12 0 0 1 .068 1.111l.004 5.5c0 .503-.053.994-.305 1.44-.324.556-.772.945-1.45 1.12l.076.02zm-4.903-9.204v9.2l.4.004.83-.008c.678-.038 1.05-.367 1.176-1.032a4.44 4.44 0 0 0 .072-.805v-5.685c0-.18-.01-.367-.04-.544-.087-.575-.418-.964-.96-1.043-.33-.047-.666-.054-1.005-.062l-.46-.014zm-.008 13.974l.064.006.08.006 2.167.015a1.56 1.56 0 0 0 .335-.034c.37-.08.54-.28.55-.654l.004-.496v-.165c-.008-.476-.237-.726-.716-.733l-1.594-.01c-.266 0-.532 0-.798-.001a.25.25 0 0 0-.06.01l-.02.005-.01.003v2.05zm76.787-3.38l-.002-1.252c.007 0 .015 0 .023-.004l.002-1.048-.006-2.45a8.56 8.56 0 0 0-.102-1.315c-.192-1.168-.82-1.992-1.993-2.302a5.07 5.07 0 0 0-1.243-.166l-4.898-.004c-.3 0-.58.026-.863.076-1.236.223-2.06.915-2.355 2.162-.094.397-.154.8-.158 1.213l-.004 7.7c.004.824.222 1.595.76 2.245.66.798 1.53 1.168 2.547 1.175l4.955.004.77-.038c1.055-.12 1.816-.64 2.234-1.637.196-.465.324-.95.328-1.448l.006-2.925zm-3.932-1.26h-.023l.001.788-.004 2.365a2.58 2.58 0 0 1-.109.631c-.143.537-.43.786-.983.832a14.57 14.57 0 0 1-1.409.042.91.91 0 0 1-.96-.745c-.083-.3-.14-.616-.143-.926V34.8c0-.314.083-.635.18-.937.147-.454.5-.703.96-.722a12.38 12.38 0 0 1 1.4.023c.486.038.83.306.95.782a4.77 4.77 0 0 1 .143 1.058l.01 1.98-.002.742z" class="C"/><path d="M61.317 30.442h-4.024l.004 11.15.075.673c.166 1.368 1.047 2.36 2.393 2.646.396.083.806.1 1.213.113l2.364.006 1.01-.002c.79 0 1.387-.306 1.677-1.085a1.21 1.21 0 0 1 .038-.079l.05.088s.03.05.043.074c.28.503.7.816 1.266.918.226.042.46.08.69.08l.413.003 3.28-.003a3 3 0 0 0 2.852-2.052c.192-.533.26-1.09.26-1.652V30.453h-3.956v10.455a4.26 4.26 0 0 1-.03.491 1.03 1.03 0 0 1-.98.956 5.29 5.29 0 0 1-.882-.008c-.362-.03-.656-.212-.78-.563-.094-.272-.17-.57-.17-.858l-.008-10.466h-3.926v.197L64.15 41.26c-.038.65-.415 1.05-1.063 1.104a4.64 4.64 0 0 1-.825-.015c-.362-.038-.63-.23-.788-.567-.128-.276-.158-.567-.158-.866V30.442z"/><path d="M19.652 33.387l-.04.267.004 8.198.038.18c.087.73.335 1.4.84 1.94.66.722 1.496 1.043 2.453 1.05l4.936.004.73-.034c1.12-.1 1.903-.673 2.317-1.74.245-.63.313-1.293.313-1.962l-.003-7.1a8.04 8.04 0 0 0-.102-1.277c-.192-1.18-.82-2.007-2.005-2.313a5.61 5.61 0 0 0-1.338-.166l-3.685-.01-.818.003-.848.034c-1.432.113-2.374.922-2.694 2.32-.044.192-.072.4-.1.587zm7.636 4.342h-.023v.626l-.008 2.508a2.73 2.73 0 0 1-.109.65c-.143.537-.43.8-.983.832-.467.038-.938.05-1.4.042-.5-.008-.82-.246-.957-.73a3.66 3.66 0 0 1-.147-.945V34.8c.004-.314.087-.635.185-.937.147-.45.5-.7.96-.718a12.38 12.38 0 0 1 1.4.023c.475.034.822.295.942.764a4.73 4.73 0 0 1 .151 1.077l.01 1.944-.002.777zm5.445 7.3V30.45h.01l.18-.007 1.704-.001 5.112.01a6.62 6.62 0 0 1 1.307.136c1.262.26 1.978 1.073 2.22 2.32a6.44 6.44 0 0 1 .113 1.198l.004 7.253c0 .563-.057 1.12-.26 1.652-.452 1.187-1.326 1.826-2.566 1.98a6.28 6.28 0 0 1-.75.038l-4.56.001-2.516-.001zm4.546-2.654l1.2-.06c.46-.045.754-.34.837-.797.06-.34.1-.684.1-1.028l.004-5.556a3.73 3.73 0 0 0-.079-.767c-.132-.65-.437-.94-1.1-1-.38-.04-.766-.037-1.15-.033l-.346.003v9.264l.514-.016z" class="C"/><path d="M56.305 30.43h-3.972l-.004.246v5.5l-.015.416c-.053.597-.463 1.017-1.047 1.036H49.74a1 1 0 0 1-.995-.752c-.068-.23-.098-.484-.098-.726l-.004-4.118.001-1.597h-3.938c-.002.02-.005.038-.008.055s-.007.04-.007.062l.008 6.426c0 .503.083.994.27 1.46.482 1.18 1.432 1.712 2.638 1.87.2.025.382.032.58.04l.32.014v4.664h3.97V40.34h.12l.11.001.427-.001c1.372-.034 2.446-.78 2.9-2.018a4.45 4.45 0 0 0 .271-1.535v-6.18l-.006-.157-.001-.02z"/><path d="M98.3 37.582c.51.053.953.2 1.356.47.607.4.94.97.957 1.686l.024 2.3.003 1.064.02.605a1.44 1.44 0 0 0 .489 1.028l.142.123.205.18h-3.798c-.44 0-.8-.234-.946-.658a1.98 1.98 0 0 1-.117-.608l-.013-1.836V41.2c-.004-.7-.147-.87-.84-.888l-1.59-.007-.722.003v4.713h-3.998v-14.6h.21l1.78-.002 4.756.01c.6.004 1.206.06 1.794.174 1.017.197 1.662.85 1.884 1.856.233 1.062.237 2.147.05 3.21-.158.896-.678 1.557-1.567 1.875-.006.003-.01.006-.018.01l-.057.032zm-4.428-.003l.837-.008c.674-.05 1.093-.4 1.153-1.077.068-.737.072-1.482.034-2.222-.034-.608-.418-1.017-.972-1.092-.322-.044-.65-.05-.98-.058l-.473-.014v4.468l.403.005z" class="C"/><path d="M110.6 37.604l3.082-7.174h-.01l-.114-.01h-.955a429.01 429.01 0 0 1-2.87-.004c-.147-.004-.177.076-.214.18l-2.55 6.754c-.048.126-.072.192-.12.22s-.124.015-.277-.015v-7.12h-3.998v14.58h4.006v-4.668l.038-.003.086-.005h.814l1.22.005c.2.004.403.034.6.068a.44.44 0 0 1 .422.435 1.76 1.76 0 0 1 .022.318v3.852h3.968l.002-.034.006-.1-.004-4.8a3.78 3.78 0 0 0-.053-.62c-.15-.926-.844-1.67-1.737-1.8a4.82 4.82 0 0 0-.76-.036c-.122.001-.245.001-.367-.002h-.237zm14.173-4.45h-4.428a3.09 3.09 0 0 0-.561.041c-.494.083-.758.36-.795.862l-.03 1.055v1.2c.003.794.452 1.255 1.247 1.274l.76.013 1.33.037c.478.026.965.083 1.432.2.787.18 1.2.665 1.24 1.478l.042 3.47v.268c0 .23-.057.46-.12.684-.207.73-.738 1.1-1.45 1.2a10.55 10.55 0 0 1-1.462.113l-4.2.007a1319.13 1319.13 0 0 0-2.516.001h-.155V42.4h1.248l3.082-.004c.222 0 .452-.026.667-.083.297-.08.418-.265.418-.57l-.03-.718c-.027-.465-.22-.677-.7-.703l-.535-.01c-.193.001-.385.001-.577-.013l-.212-.015c-.38-.027-.764-.054-1.13-.14-1.292-.314-2.14-1.28-2.325-2.616a7.92 7.92 0 0 1-.071-.998v-2.476c.007-.62.105-1.228.365-1.8.505-1.107 1.387-1.686 2.585-1.8.245-.023.5-.023.735-.023l5.916-.004c.165 0 .226.038.222.215l-.005 1.656v.65c-.007.064-.007.132-.007.215z"/></g><g class="C"><path d="M157.058 20.288h-3.946V1h3.946v19.288zm49.805-2.634v2.638h-.207l-1.498.001c-1.497.001-2.996.003-4.493-.008-.46-.004-.93-.042-1.383-.14-1.247-.272-1.933-1.02-2.125-2.287-.064-.435-.098-.877-.102-1.315l-.005-7.07c0-.605.038-1.2.2-1.795.336-1.134 1.104-1.77 2.257-1.94a7.08 7.08 0 0 1 .939-.064l6.416-.004v2.7h-4.404c-.16 0-.313.008-.468.03-.6.08-.9.404-.93 1.013l-.015 1.44v1.958h4.898v2.733h-4.868l-.008.4c-.01.286-.017.563.02.835.068.522.5.828 1.085.85l.9.01h3.575c.072.015.136.015.215.015zm-22.638-11.96v14.6h4.005v-4.717l.718-.003 1.57.007c.723.015.866.18.866.9v.365l.015 2.187a2.01 2.01 0 0 0 .132.643c.147.404.5.628.927.628h3.802l-.012-.01-.02-.02-.077-.07c-.558-.4-.758-.934-.746-1.6V15.44c0-.268-.015-.544-.072-.805-.2-.96-.885-1.448-1.775-1.705-.052-.015-.106-.023-.16-.032l-.04-.006-.02-.004-.007-.001-.262-.05c.965-.34 1.504-1.032 1.655-1.973.158-1.02.162-2.06-.053-3.08-.22-1.043-.863-1.716-1.9-1.92-.57-.1-1.156-.166-1.737-.17l-6.594-.008-.13.006-.074.005zm4.013 7.148v-4.43l.4-.007.886.014c.667.068 1.06.446 1.13 1.1.08.745.1 1.497-.03 2.24-.1.673-.516 1.028-1.194 1.066l-.818.008-.384-.004zm-22.167 7.446h3.956l.008-.2-.004-10.772c0-.333-.027-.67-.08-.998-.117-.737-.415-1.383-1-1.863-.64-.518-1.4-.748-2.2-.756a216.73 216.73 0 0 0-5.2.004c-1.228.02-2.17.567-2.724 1.697-.3.627-.407 1.304-.407 2v10.64l.007.186.001.022h3.964L162.38 9.76l.005-.242c.056-.7.437-1.14 1.066-1.164a20.54 20.54 0 0 1 1.526 0c.486.02.836.26.983.737.068.223.106.47.106.703l.004 10.493zm8.952-11.914V20.28l3.976.004V8.37h3.576V5.698h-11.2v2.676h3.658zm33.4-2.678l-.076.01.004 14.6h4.024v-4.72h.222l.817.001 2.047-.005c.343-.004.7-.023 1.028-.083 1.093-.2 1.888-.767 2.235-1.856.113-.36.196-.748.203-1.126l.012-3.458a5.87 5.87 0 0 0-.083-.843c-.192-1.202-.86-1.98-2.035-2.317-.56-.16-1.134-.204-1.714-.204h-6.538c-.05 0-.098.007-.146.013zm3.963 7.146v-4.45l.424-.006.96.018c.595.06 1.002.47 1.04 1.1a15.34 15.34 0 0 1-.026 2.238c-.065.707-.47 1.043-1.176 1.085l-.83.008-.4-.004zm13.795-7.136h.184l1.705-.001 5.112.01a6.71 6.71 0 0 1 1.288.129c1.274.26 2.005 1.077 2.242 2.34a6.31 6.31 0 0 1 .11 1.164l.003 7.3c0 .556-.06 1.107-.26 1.633-.452 1.187-1.326 1.826-2.566 1.984a6.22 6.22 0 0 1-.749.038l-4.56.001-2.514-.001.004-14.586zm4.032 2.7v9.208l.514.006 1.132-.013a.93.93 0 0 0 .904-.839 6.48 6.48 0 0 0 .106-1.01l.004-5.537a4.93 4.93 0 0 0-.038-.582c-.105-.805-.47-1.176-1.247-1.22-.326-.022-.65-.018-.984-.014l-.4.003zm-5.75-2.706h-3.946v14.594h3.946V5.7zm-78.466 31.907l-.02-.005-.076-.02c.678-.174 1.126-.563 1.45-1.12.252-.446.305-.937.305-1.44v-1.377l-.004-4.123a9.16 9.16 0 0 0-.068-1.111c-.162-1.372-.855-2.18-2.193-2.498-.505-.12-1.04-.17-1.564-.174l-6.76-.008v11.857l-.16.001a4.51 4.51 0 0 1-.363-.005c-.128-.008-.2.03-.26.15l-1.2 2.41c-.024.044-.04.1-.067.153l-.008.02h2.065v4.713h7.75l.825-.038c1.443-.132 2.38-1.002 2.528-2.438.087-.84.076-1.697.064-2.544-.01-.896-.407-1.603-1.213-2.03-.195-.105-.407-.182-.618-.258l-.162-.06c-.06-.022-.12-.035-.195-.052l-.034-.008-.014-.003zm-4.923-.02v-9.2l.46.014 1.005.062c.542.08.874.47.96 1.043.03.178.04.363.04.544v5.685a4.44 4.44 0 0 1-.072.805c-.124.665-.497.994-1.175 1.032l-.83.008-.4-.004zm.057 4.8l-.064-.006v-2.05l.03-.008a.21.21 0 0 1 .06-.01l.798.001 1.595.01c.478.008.708.257.716.733v.165l-.004.497c-.012.374-.18.575-.55.654-.1.023-.223.034-.336.034l-2.166-.015a.75.75 0 0 1-.079-.006zm76.72-4.636l.002 1.252-.006 2.925c-.003.5-.132.983-.327 1.448-.42.998-1.18 1.516-2.235 1.637-.256.03-.512.038-.77.038l-.707.002c-1.415.004-2.833.007-4.248-.006-1.017-.008-1.887-.378-2.547-1.175-.54-.65-.757-1.42-.76-2.245l.004-7.7a5.55 5.55 0 0 1 .158-1.213c.294-1.247 1.12-1.94 2.355-2.162a5.06 5.06 0 0 1 .863-.076l4.898.004c.415.004.844.06 1.244.166 1.172.3 1.8 1.134 1.993 2.302.072.435.098.877.102 1.315l.006 2.448-.002 1.048c-.008.004-.015.004-.023.004zm-3.953-.008h.023l.002-.742-.01-1.98a4.78 4.78 0 0 0-.144-1.058c-.12-.476-.463-.745-.95-.782a12.17 12.17 0 0 0-1.39-.023c-.47.02-.814.268-.96.722-.098.302-.18.624-.18.937v5.912a3.71 3.71 0 0 0 .143.926c.14.5.448.737.96.745l1.4-.042c.554-.045.84-.295.983-.832.057-.204.106-.42.1-.63l.004-2.365-.001-.788zm-26.606-7.284h4.025v10.474c0 .3.03.6.158.866.158.336.426.53.788.567.275.026.553.038.825.015.648-.053 1.025-.454 1.062-1.104l.008-.34.03-10.46h3.926v2.3l.008 8.177c0 .287.075.586.17.858.125.352.42.533.78.563.294.026.592.03.882.008a1.03 1.03 0 0 0 .98-.956 4.21 4.21 0 0 0 .03-.491V30.453h3.956V41.32c0 .563-.068 1.12-.26 1.652a3 3 0 0 1-2.852 2.052l-3.393.002-.3-.002c-.23 0-.463-.038-.7-.08-.566-.102-.988-.416-1.266-.918l-.043-.074-.052-.088-.037.08c-.3.78-.886 1.085-1.677 1.085h-1c-.787.002-1.575.005-2.36-.006-.407-.004-.818-.03-1.214-.113-1.345-.287-2.227-1.278-2.392-2.646l-.076-.673-.004-11.15zm-37.68 3.213l.04-.267.1-.587c.32-1.398 1.262-2.207 2.694-2.32a10.59 10.59 0 0 1 .848-.034l.817-.003 3.685.01c.45.008.9.053 1.338.166 1.183.306 1.813 1.134 2.005 2.313a8.02 8.02 0 0 1 .101 1.278l.004 7.083c0 .67-.068 1.33-.313 1.962-.414 1.066-1.198 1.63-2.317 1.74l-.734.034c-1.645.004-3.287.008-4.933-.004-.957-.008-1.794-.33-2.453-1.05-.505-.548-.754-1.2-.84-1.94-.008-.06-.023-.12-.038-.18l-.004-8.198zm7.653 4.075h.023l.002-.777-.01-1.944a4.72 4.72 0 0 0-.15-1.077c-.12-.47-.468-.73-.942-.764a12.17 12.17 0 0 0-1.39-.023c-.47.02-.814.268-.96.718-.098.302-.18.624-.184.937v5.912a3.61 3.61 0 0 0 .147.945c.135.484.448.722.957.73l1.4-.04c.554-.042.84-.295.983-.832.057-.212.106-.43.1-.65l.007-2.507v-.626zm5.468-7.276v14.58h7.076a6.28 6.28 0 0 0 .75-.038c1.24-.155 2.114-.794 2.566-1.98.203-.533.26-1.1.26-1.652l.001-2.07-.005-5.183a6.45 6.45 0 0 0-.113-1.198c-.24-1.247-.957-2.06-2.22-2.32a6.69 6.69 0 0 0-1.308-.136l-6.816-.008-.18.007-.01.001zm4.545 11.924l-.514.016v-9.26l1.496.03c.652.068.957.36 1.1 1a3.72 3.72 0 0 1 .079.767l-.003 5.556c0 .344-.05.688-.1 1.028-.083.457-.377.752-.836.797l-1.2.06zm15.056-11.947h3.97l.001.02a2.2 2.2 0 0 1 .007.157v6.18a4.47 4.47 0 0 1-.271 1.535c-.456 1.24-1.53 1.984-2.902 2.018l-.427.001-.112-.001h-.12v4.683h-3.972v-4.66l-.32-.014-.58-.04c-1.206-.16-2.156-.692-2.638-1.87-.188-.465-.27-.956-.27-1.46l-.008-6.426c0-.02.004-.04.008-.062a.43.43 0 0 0 .007-.055h3.938l-.001 1.622.005 4.093a2.61 2.61 0 0 0 .098.726 1 1 0 0 0 .994.752 20.54 20.54 0 0 0 1.526 0c.584-.02.995-.438 1.048-1.036l.015-.416v-5.5l.004-.246zm47.322 7.62c-.403-.268-.848-.416-1.356-.47a.96.96 0 0 0 .057-.031l.018-.01a2.31 2.31 0 0 0 1.568-1.875c.188-1.062.184-2.147-.05-3.2-.223-1.005-.867-1.66-1.884-1.856a9.85 9.85 0 0 0-1.794-.174l-6.748-.008v14.6h3.997V40.3l.722-.003 1.592.007c.693.02.836.2.84.888v.734l.013 1.836a1.98 1.98 0 0 0 .117.609c.147.423.505.658.946.658h3.798l-.204-.18-.143-.124a1.44 1.44 0 0 1-.489-1.028l-.02-.605-.003-1.063-.024-2.3a2 2 0 0 0-.957-1.686zm-5.784-.472l-.403-.005v-4.468a18.95 18.95 0 0 0 .473.014l.982.058c.554.076.938.484.972 1.092.037.74.034 1.485-.034 2.222-.06.677-.48 1.028-1.153 1.077-.275.018-.553.013-.837.008zm19.8-7.148l-3.082 7.174h.237l.367.002c.255-.001.5-.003.76.035.893.14 1.586.885 1.737 1.8a3.78 3.78 0 0 1 .053.62l.004 4.8c0 .036-.003.07-.006.1a.44.44 0 0 1-.002.034h-3.968V41.14a1.76 1.76 0 0 0-.022-.318.44.44 0 0 0-.422-.435c-.196-.034-.4-.064-.6-.068l-1.22-.005-.814-.002c-.028 0-.053.002-.086.005l-.038.003v4.668h-4.006V30.41h3.998v7.12c.153.03.228.043.277.014s.07-.092.12-.22l2.55-6.755c.037-.106.067-.185.214-.18l3.825.004a1 1 0 0 1 .114.01l.01.001zm11.1 2.725l.007-.215v-.66l.005-1.647c.004-.178-.057-.215-.222-.215l-5.916.004-.735.023c-1.198.113-2.08.692-2.585 1.8-.26.57-.358 1.18-.365 1.8v2.476a7.92 7.92 0 0 0 .071.998c.185 1.334 1.033 2.302 2.325 2.616.365.086.75.113 1.13.14l.212.015.577.013.535.01c.47.026.663.238.7.703l.03.718c0 .306-.12.5-.418.57-.215.057-.445.083-.667.083l-3.082.004-1.248-.001v2.638l2.67-.001 4.2-.006a10.55 10.55 0 0 0 1.462-.113c.712-.102 1.243-.46 1.45-1.2.064-.223.12-.453.12-.684v-.268l-.042-3.47c-.03-.813-.452-1.297-1.24-1.478-.467-.106-.954-.163-1.432-.2a27.5 27.5 0 0 0-1.331-.037l-.76-.013c-.795-.02-1.244-.48-1.247-1.274v-1.194l.03-1.05c.037-.503.3-.78.795-.862a3.09 3.09 0 0 1 .561-.042h4.428z" fill="#7400a3"/><g class="B"><path d="M40 63H7.828l8-8L13 52.172 1.586 63.586a2 2 0 0 0 0 2.828L13 77.828 15.828 75l-8-8H40v-4z"/><path d="M40 63h32.172l-8-8L67 52.172l11.414 11.414a2 2 0 0 1 0 2.828L67 77.828 64.172 75l8-8H40v-4z"/></g><path d="M95.828 55l-8 8h64.344l-8-8 2.828-2.83 11.414 11.414a2 2 0 0 1 0 2.828L147 77.83 144.172 75l8-8H87.828l8 8L93 77.83 81.586 66.414a2 2 0 0 1 0-2.828L93 52.172 95.828 55z" fill="#7400a3"/><path d="M17 110v32.172l8-8L27.828 137l-11.414 11.414a2 2 0 0 1-2.828 0L2.172 137 5 134.172l8 8V110h4z" class="B"/></g><use xlink:href="#C" fill="#ffa51e"/><use xlink:href="#C" x="20" fill="#888"/><g class="B"><use xlink:href="#C" x="40"/><path d="M3.676 188.974H0V171h3.676v17.974zm46.413-2.455v2.46h-.193H48.5c-1.395.001-2.8.002-4.186-.008-.428-.004-.867-.04-1.3-.13-1.162-.253-1.8-.95-1.98-2.13a9.15 9.15 0 0 1-.095-1.225l-.005-4.707.001-1.88c0-.564.035-1.127.197-1.673.313-1.057 1.03-1.65 2.103-1.807a6.72 6.72 0 0 1 .874-.06l5.98-.003v2.525h-4.105a3 3 0 0 0-.435.028c-.558.074-.85.377-.867.944l-.013 1.342-.001.595v1.23h4.565v2.546h-4.537l-.007.365c-.008.266-.016.524.018.777.063.486.456.77 1 .792l.83.008.276-.001h3.055a.93.93 0 0 0 .2.014zm-21.096-11.144v13.596h3.733v-4.396l.67-.003 1.462.007c.674.014.808.17.808.838v.34l.014 2.037a1.86 1.86 0 0 0 .123.6c.137.377.467.585.864.585H40.2l-.028-.028-.072-.064c-.52-.363-.706-.87-.695-1.5v-2.94c0-.25-.014-.507-.067-.75-.197-.895-.825-1.35-1.654-1.6-.05-.014-.1-.02-.148-.03l-.038-.006-.02-.003-.007-.002-.244-.048a2.21 2.21 0 0 0 1.541-1.838c.148-.95.15-1.92-.05-2.87-.204-.972-.804-1.6-1.78-1.8a9.06 9.06 0 0 0-1.62-.16l-6.145-.007-.12.006-.07.005zm3.74 6.66v-4.128l.382-.006.826.013c.62.064.987.416 1.053 1.036.074.694.084 1.395-.028 2.1-.102.627-.48.958-1.113.993l-.762.007-.358-.004zm-20.657 6.94h3.687l.007-.176-.004-10.038c0-.3-.024-.624-.074-.93-.1-.687-.386-1.3-.94-1.737-.597-.482-1.296-.697-2.05-.704-1.615-.014-3.23-.02-4.846.003-1.145.018-2.023.53-2.54 1.582-.288.585-.38 1.215-.38 1.863v9.915l.006.174.001.02h3.694v-9.782l.004-.225c.053-.662.407-1.063.994-1.085h1.422a.92.92 0 0 1 .916.687c.063.208.098.437.098.655l.004 9.778zm8.343-11.102v11.095l3.704.004V177.87h3.332v-2.5H17v2.494h3.4zm31.125-2.496a.83.83 0 0 1-.071.009l.004 13.596h3.75v-4.4h.207l.762.001 1.907-.004c.32-.004.643-.022.96-.078 1.018-.176 1.76-.715 2.082-1.73.105-.335.183-.698.2-1.05l.01-3.223a5.49 5.49 0 0 0-.077-.785c-.18-1.12-.8-1.846-1.896-2.16-.523-.148-1.057-.2-1.598-.2H51.68c-.046 0-.1.006-.136.012zm3.693 6.66V177.9a17.17 17.17 0 0 0 .395-.006 7.38 7.38 0 0 1 .894.016c.555.057.934.437.97 1.036a14.21 14.21 0 0 1-.025 2.085c-.06.66-.44.972-1.096 1l-.774.007-.364-.004zm12.855-6.65h.172l1.588-.001 4.764.008a6.36 6.36 0 0 1 1.2.12c1.187.243 1.868 1.004 2.1 2.18a5.89 5.89 0 0 1 .102 1.085l.004 6.795c0 .518-.056 1.032-.242 1.52-.42 1.106-1.236 1.702-2.4 1.85a5.84 5.84 0 0 1-.699.035l-4.25.001H68.09l.004-13.593zm3.757 2.508v8.58l.48.005 1.055-.013c.46-.035.766-.313.843-.78.053-.3.095-.627.098-.94l.003-5.16c0-.18-.014-.363-.035-.543-.098-.75-.44-1.095-1.162-1.137l-.917-.014-.365.003zm-5.358-2.522h-3.676v13.6h3.676v-13.6zm24.83 6.694l-.1-.02c.632-.162 1.05-.525 1.352-1.043.235-.416.284-.874.284-1.342v-1.283l-.004-3.842a8.34 8.34 0 0 0-.063-1.036c-.15-1.278-.797-2.032-2.044-2.328a6.52 6.52 0 0 0-1.457-.162l-6.3-.007v11.05l-.15.001c-.118.001-.23.003-.338-.005-.12-.007-.186.028-.242.14l-.703 1.404-.424.843c-.022.042-.04.083-.063.143l-.008.02h1.924v4.393h7.223l.77-.036c1.345-.123 2.22-.933 2.356-2.272.08-.78.07-1.58.06-2.37-.01-.835-.38-1.494-1.13-1.892-.182-.098-.38-.17-.576-.24h0l-.15-.055c-.055-.02-.112-.033-.18-.05l-.032-.008-.013-.003zm-4.587-.018v-8.563l.43.013.936.058c.506.074.815.437.895.972a3.07 3.07 0 0 1 .04.507v5.298c0 .25-.02.503-.067.75-.116.62-.464.926-1.096.962l-.773.007-.365-.004zm.053 4.465l-.06-.006v-1.9l.028-.007c.02-.005.036-.01.055-.01l.744.001 1.486.01c.446.007.66.24.667.684v.153l-.004.463c-.01.35-.17.535-.513.6a1.55 1.55 0 0 1-.312.032l-2.02-.014c-.023 0-.047-.003-.074-.005zm71.494-4.32l.002 1.166-.005 2.726c-.004.465-.123.915-.306 1.35-.4.93-1.1 1.412-2.082 1.525a6.14 6.14 0 0 1-.716.035l-.66.002c-1.32.003-2.64.007-3.958-.005-.948-.007-1.76-.353-2.373-1.096-.503-.606-.706-1.324-.7-2.092l.004-7.186c.003-.377.06-.76.147-1.13.274-1.163 1.043-1.807 2.195-2.015.263-.046.534-.07.804-.07l4.565.003c.386.004.786.056 1.158.155 1.092.3 1.68 1.057 1.858 2.145.067.405.1.817.095 1.226l.005 2.28-.002.977c-.007.004-.014.004-.02.004zm-3.683-.008h.02v-.7l-.008-1.845a4.44 4.44 0 0 0-.134-.986.92.92 0 0 0-.884-.729 11.21 11.21 0 0 0-1.296-.021.92.92 0 0 0-.896.673c-.1.28-.168.58-.168.873v5.5a3.41 3.41 0 0 0 .133.863c.13.465.418.687.896.694l1.313-.04c.516-.042.783-.275.916-.775.053-.2.1-.4.102-.588l.004-2.938zm-24.794-6.787h3.75v9.76c0 .28.028.55.148.807a.87.87 0 0 0 .734.528 4.3 4.3 0 0 0 .769.014c.604-.05.955-.422 1-1.028l.007-.317.028-9.746h3.66l-.001 2.133.008 7.62c0 .268.07.546.158.8.116.328.4.497.727.525.274.025.55.028.82.007a.96.96 0 0 0 .913-.891c.018-.15.028-.303.028-.458V175.4h3.687v10.126c0 .525-.063 1.043-.242 1.54-.407 1.156-1.412 1.892-2.658 1.913h-3.162-.28a3.58 3.58 0 0 1-.643-.074c-.527-.095-.92-.387-1.18-.856l-.04-.07-.047-.082-.036.074c-.27.725-.825 1-1.562 1l-.942.001c-.734.003-1.468.005-2.2-.005a5.68 5.68 0 0 1-1.13-.106c-1.254-.267-2.076-1.2-2.23-2.465l-.07-.627-.004-10.4zM94.7 178.393l.037-.25a6.57 6.57 0 0 1 .093-.547c.3-1.303 1.176-2.057 2.5-2.163l.8-.03.762-.003h3.433a5.31 5.31 0 0 1 1.247.155c1.102.285 1.7 1.056 1.868 2.155a7.52 7.52 0 0 1 .095 1.191l.003 6.6c0 .623-.063 1.24-.3 1.828-.386.993-1.117 1.518-2.16 1.62l-.684.032c-1.533.003-3.063.007-4.597-.004-.892-.007-1.67-.306-2.286-.98-.47-.5-.702-1.127-.783-1.807a1.43 1.43 0 0 0-.035-.169l-.003-7.64zm7.13 3.797h.02l.003-.724-.01-1.812a4.42 4.42 0 0 0-.14-1.004c-.113-.437-.436-.68-.878-.7a11.21 11.21 0 0 0-1.296-.022.92.92 0 0 0-.895.67c-.1.28-.17.58-.172.873v5.5c.004.296.056.595.137.88.126.45.418.672.892.68a13.36 13.36 0 0 0 1.313-.038c.516-.04.783-.275.916-.775.053-.197.1-.402.102-.606l.008-2.337v-.583zm5.095-6.78v13.585h6.595c.23 0 .467-.007.698-.035 1.156-.145 1.97-.74 2.4-1.846.2-.496.243-1.014.243-1.54l.001-1.93-.005-4.83a6 6 0 0 0-.105-1.117c-.225-1.162-.892-1.92-2.068-2.163a6.16 6.16 0 0 0-1.22-.126l-6.352-.007-.168.006-.01.001zm4.236 11.1h0l-.48.016v-8.634l1.394.03c.608.063.892.334 1.015.94.05.232.074.475.074.715l-.004 5.178c0 .32-.045.64-.1.958a.84.84 0 0 1-.78.743l-1.12.055zm14.03-11.133h3.7l.001.02.006.147v5.76a4.13 4.13 0 0 1-.253 1.43c-.424 1.155-1.425 1.85-2.703 1.88l-.4.001c-.034 0-.07-.001-.104-.001h-.112v4.364h-3.7v-4.346l-.297-.014-.542-.036c-1.124-.148-2.008-.644-2.458-1.743-.176-.434-.253-.9-.253-1.36l-.007-5.988c0-.02.003-.038.007-.058s.006-.032.007-.05h3.67l-.001 1.512.004 3.814c0 .225.028.46.1.676.137.447.464.683.927.7h1.423c.544-.018.927-.4.976-.965a4.96 4.96 0 0 0 .014-.388v-5.125l.003-.23zm44.1 7.1c-.375-.25-.8-.387-1.264-.436l.054-.03c.845-.305 1.33-.92 1.477-1.756.176-1 .172-2-.046-3-.207-.937-.807-1.546-1.755-1.73a9.1 9.1 0 0 0-1.672-.162l-6.288-.007v13.607h3.725V184.6l.673-.002 1.483.006c.646.017.78.176.783.827l.002.685.012 1.7a1.87 1.87 0 0 0 .109.567.89.89 0 0 0 .881.613h3.54l-.2-.167-.132-.115c-.285-.257-.436-.578-.457-.958a10.62 10.62 0 0 1-.017-.564l-.003-1-.022-2.144c-.017-.665-.326-1.197-.892-1.57zm-5.4-.44l-.375-.004v-4.164l.44.013.915.054c.516.07.874.45.906 1.018a14.42 14.42 0 0 1-.032 2.07c-.056.63-.446.958-1.074 1.004-.256.017-.515.012-.78.008h0zm18.452-6.662l-2.872 6.686h.22a9.75 9.75 0 0 0 .342.002c.238-.001.476-.003.708.033.832.13 1.48.824 1.62 1.687.032.2.05.384.05.578l.004 4.473-.005.102-.002.032H178.7v-3.6c0-.1-.003-.2-.02-.296a.41.41 0 0 0-.393-.405 3.74 3.74 0 0 0-.558-.064l-1.138-.005c-.253 0-.506 0-.76-.002a.78.78 0 0 0-.079.005h-.001l-.035.002v4.35h-3.733v-13.585h3.726v6.636c.142.027.212.04.258.014s.066-.086.1-.204l2.377-6.295c.036-.098.064-.172.2-.17l3.564.004a.82.82 0 0 1 .106.01l.01.001zm10.106 2.54h.228l.007-.2-.001-.613.005-1.535c.003-.166-.053-.2-.207-.2l-5.513.003-.685.022c-1.116.105-1.938.644-2.4 1.676-.242.532-.333 1.1-.34 1.677v2.307a7.23 7.23 0 0 0 .067.93c.172 1.243.962 2.145 2.166 2.437.34.08.698.105 1.052.13l.198.015a7.39 7.39 0 0 0 .537.011 8.29 8.29 0 0 1 .499.01c.44.024.618.222.642.655l.03.67c0 .285-.113.458-.4.532a2.46 2.46 0 0 1-.622.077l-2.87.004h-1.163v2.46l2.5-.001 3.905-.006c.453 0 .913-.043 1.362-.106.664-.095 1.16-.43 1.352-1.1.06-.207.113-.422.113-.637v-.25l-.04-3.234c-.028-.757-.42-1.208-1.155-1.377-.436-.1-.9-.15-1.335-.176l-1.24-.034-.708-.012c-.74-.018-1.16-.447-1.163-1.187v-.845l.002-.268.026-.98c.036-.47.28-.726.74-.803a2.86 2.86 0 0 1 .523-.039h3.898z" class="C"/></g><defs><radialGradient id="A" cx="0" cy="0" r="1" gradientUnits="userSpaceOnUse" gradientTransform="translate(100.23 103.347) rotate(144.998) scale(25.4293 18.4671)"><stop stop-color="#fbe18a"/><stop offset=".031" stop-color="#fbbb45"/><stop offset=".158" stop-color="#f88330"/><stop offset=".26" stop-color="#f86737"/><stop offset=".378" stop-color="#f8443e"/><stop offset=".536" stop-color="#f4306d"/><stop offset=".689" stop-color="#d53592"/><stop offset=".888" stop-color="#903acd"/><stop offset=".943" stop-color="#544ced"/><stop offset="1" stop-color="#395dfa"/></radialGradient><path id="B" d="M0 95c0-8.284 6.716-15 15-15s15 6.716 15 15-6.716 15-15 15-15-6.716-15-15z"/><path id="C" d="M9.05 152.927c.3-.92 1.603-.92 1.902 0l1.07 3.292a1 1 0 0 0 .951.691h3.46c.97 0 1.372 1.24.588 1.81l-2.8 2.034a1 1 0 0 0-.363 1.118l1.07 3.292c.3.92-.755 1.688-1.54 1.118l-2.8-2.034a1 1 0 0 0-1.176 0l-2.8 2.034c-.784.57-1.838-.197-1.54-1.118l1.07-3.292a1 1 0 0 0-.363-1.118l-2.8-2.034c-.784-.57-.38-1.81.588-1.81h3.46a1 1 0 0 0 .951-.691l1.07-3.292z"/></defs></svg>